%TF.GenerationSoftware,Altium Limited,Altium Designer,22.1.2 (22)*%
G04 Layer_Color=255*
%FSLAX45Y45*%
%MOMM*%
%TF.SameCoordinates,69A41402-0A08-4178-9E70-C708664AA264*%
%TF.FilePolarity,Positive*%
%TF.FileFunction,Pads,Bot*%
%TF.Part,Single*%
G01*
G75*
%TA.AperFunction,SMDPad,CuDef*%
%ADD10R,1.10000X1.00000*%
%ADD20R,0.90000X0.70000*%
%ADD26R,1.00000X1.10000*%
%ADD31R,0.90000X0.80000*%
%ADD42R,0.70000X0.90000*%
%TA.AperFunction,ComponentPad*%
%ADD58C,1.50000*%
%ADD59R,1.50000X1.50000*%
%ADD60C,4.24000*%
%ADD61R,1.12000X1.12000*%
%ADD62C,1.12000*%
%ADD63O,1.90000X1.20000*%
%ADD64O,1.25000X1.05000*%
%ADD65C,4.30000*%
%ADD66C,2.20000*%
%TA.AperFunction,SMDPad,CuDef*%
%ADD72R,0.60000X1.55000*%
%ADD73R,0.50000X2.00000*%
%ADD74O,0.50000X2.00000*%
%ADD75R,0.70000X0.85000*%
%ADD76R,0.85000X0.70000*%
%ADD77R,1.60000X1.50000*%
G04:AMPARAMS|DCode=78|XSize=0.85mm|YSize=0.25mm|CornerRadius=0.125mm|HoleSize=0mm|Usage=FLASHONLY|Rotation=90.000|XOffset=0mm|YOffset=0mm|HoleType=Round|Shape=RoundedRectangle|*
%AMROUNDEDRECTD78*
21,1,0.85000,0.00000,0,0,90.0*
21,1,0.60000,0.25000,0,0,90.0*
1,1,0.25000,0.00000,0.30000*
1,1,0.25000,0.00000,-0.30000*
1,1,0.25000,0.00000,-0.30000*
1,1,0.25000,0.00000,0.30000*
%
%ADD78ROUNDEDRECTD78*%
D10*
X3880000Y2460000D02*
D03*
Y2640000D02*
D03*
X9380000Y3230000D02*
D03*
Y3050000D02*
D03*
X8550000Y3230000D02*
D03*
Y3050000D02*
D03*
X540000Y3920000D02*
D03*
Y3740000D02*
D03*
X1200000Y2610000D02*
D03*
Y2790000D02*
D03*
X1640000D02*
D03*
Y2610000D02*
D03*
X1420000Y2790000D02*
D03*
Y2610000D02*
D03*
X6290000Y2600000D02*
D03*
Y2780000D02*
D03*
X6450000Y3325000D02*
D03*
Y3145000D02*
D03*
X6250000Y3325000D02*
D03*
Y3145000D02*
D03*
X6150000Y1625000D02*
D03*
Y1805000D02*
D03*
X6350000Y1625000D02*
D03*
Y1805000D02*
D03*
X6050000Y3325000D02*
D03*
Y3145000D02*
D03*
D20*
X2120000Y2605000D02*
D03*
Y2755000D02*
D03*
X930000Y2255000D02*
D03*
Y2405000D02*
D03*
X940000Y1190000D02*
D03*
Y1340000D02*
D03*
X6630000Y2025000D02*
D03*
Y1875000D02*
D03*
X6800000Y2025000D02*
D03*
Y1875000D02*
D03*
D26*
X1060000Y510000D02*
D03*
X1240000D02*
D03*
X1080425Y1450000D02*
D03*
X1260425D02*
D03*
X3150000Y830000D02*
D03*
X2970000D02*
D03*
X3150000Y1140000D02*
D03*
X2970000D02*
D03*
X3140000Y1910000D02*
D03*
X2960000D02*
D03*
X3140000Y1620000D02*
D03*
X2960000D02*
D03*
X10820000Y3020000D02*
D03*
X10640000D02*
D03*
X11190000Y3250000D02*
D03*
X11370000D02*
D03*
X10415000Y1850000D02*
D03*
X10235000D02*
D03*
X11485000D02*
D03*
X11665000D02*
D03*
X1550000Y4021925D02*
D03*
X1730000D02*
D03*
X5910000Y2610000D02*
D03*
X6090000D02*
D03*
X5910000Y2430000D02*
D03*
X6090000D02*
D03*
D31*
X2760000Y915000D02*
D03*
X2620000D02*
D03*
Y1025000D02*
D03*
X2760000D02*
D03*
X2750000Y1935000D02*
D03*
X2610000D02*
D03*
Y1825000D02*
D03*
X2750000D02*
D03*
D42*
X5925000Y2790000D02*
D03*
X6075000D02*
D03*
D58*
X7008000Y146000D02*
D03*
X7262000D02*
D03*
X7262000Y400000D02*
D03*
X7516000Y146000D02*
D03*
X7516000Y400000D02*
D03*
X12258000Y1050000D02*
D03*
X12004000D02*
D03*
X11750000D02*
D03*
X12258000Y1600000D02*
D03*
X12004000D02*
D03*
X11750000D02*
D03*
X5492000Y146000D02*
D03*
X6500000Y400000D02*
D03*
X6754000Y146000D02*
D03*
Y400000D02*
D03*
X7008000D02*
D03*
X7770000Y146000D02*
D03*
Y400000D02*
D03*
X8024000Y146000D02*
D03*
X8024000Y400000D02*
D03*
X8278000Y146000D02*
D03*
Y400000D02*
D03*
X8532000Y146000D02*
D03*
Y400000D02*
D03*
X8786000Y146000D02*
D03*
Y400000D02*
D03*
X9040000Y146000D02*
D03*
Y400000D02*
D03*
X9294000Y146000D02*
D03*
X9294000Y400000D02*
D03*
X9548000Y146000D02*
D03*
X9548000Y400000D02*
D03*
X9802000Y146000D02*
D03*
Y400000D02*
D03*
X10056000Y146000D02*
D03*
Y400000D02*
D03*
X10310000Y146000D02*
D03*
X10310000Y400000D02*
D03*
X10564000Y146000D02*
D03*
Y400000D02*
D03*
X10818000Y146000D02*
D03*
Y400000D02*
D03*
X1682000D02*
D03*
X1936000Y146000D02*
D03*
Y400000D02*
D03*
X2190001Y146000D02*
D03*
X2190000Y400000D02*
D03*
X2444000Y146000D02*
D03*
X2444000Y400000D02*
D03*
X2698000Y146000D02*
D03*
X2698000Y400000D02*
D03*
X2952000Y146000D02*
D03*
Y400000D02*
D03*
X3206000Y146000D02*
D03*
X3206000Y400000D02*
D03*
X3460000Y146000D02*
D03*
X3460000Y400000D02*
D03*
X3714000Y146000D02*
D03*
Y400000D02*
D03*
X3968000Y146000D02*
D03*
Y400000D02*
D03*
X4222000Y146000D02*
D03*
Y400000D02*
D03*
X4476001Y146000D02*
D03*
X4476000Y400000D02*
D03*
X4730000Y146000D02*
D03*
X4730000Y400000D02*
D03*
X4984000Y146000D02*
D03*
Y400000D02*
D03*
X5238000Y146000D02*
D03*
Y400000D02*
D03*
X5492000D02*
D03*
X5746000Y146000D02*
D03*
X5746000Y400000D02*
D03*
X6000000Y146000D02*
D03*
X6000000Y400000D02*
D03*
X4229000Y1646000D02*
D03*
X3975000Y1900000D02*
D03*
Y1646000D02*
D03*
X3721000Y1900000D02*
D03*
Y1646000D02*
D03*
X11000000Y1600000D02*
D03*
X10746000D02*
D03*
X10492000D02*
D03*
X11000000Y1050000D02*
D03*
X10746000D02*
D03*
X10492000D02*
D03*
X6500000Y4596000D02*
D03*
X6500000Y4850000D02*
D03*
X6754000Y4596000D02*
D03*
Y4850000D02*
D03*
X7008000Y4596000D02*
D03*
X7008000Y4850000D02*
D03*
X7262000Y4596000D02*
D03*
Y4850000D02*
D03*
X7516000Y4596000D02*
D03*
Y4850000D02*
D03*
X7770000Y4596000D02*
D03*
X7770000Y4850000D02*
D03*
X8024000Y4596000D02*
D03*
X8024000Y4850000D02*
D03*
X8278000Y4596000D02*
D03*
Y4850000D02*
D03*
X8532000Y4596000D02*
D03*
Y4850000D02*
D03*
X8786000Y4596000D02*
D03*
X8786000Y4850000D02*
D03*
X9040000Y4596000D02*
D03*
Y4850000D02*
D03*
X9294000Y4596000D02*
D03*
X9294000Y4850000D02*
D03*
X9548000Y4596000D02*
D03*
Y4850000D02*
D03*
X9802000Y4596000D02*
D03*
X9802000Y4850000D02*
D03*
X10056000Y4596000D02*
D03*
X10056000Y4850000D02*
D03*
X10310000Y4596000D02*
D03*
Y4850000D02*
D03*
X10564000Y4596000D02*
D03*
Y4850000D02*
D03*
X10818000Y4596000D02*
D03*
X1682000D02*
D03*
Y4850000D02*
D03*
X1936000Y4596000D02*
D03*
X1936000Y4850000D02*
D03*
X2190000Y4596000D02*
D03*
Y4850000D02*
D03*
X2444000Y4596000D02*
D03*
Y4850000D02*
D03*
X2698000Y4596000D02*
D03*
Y4850000D02*
D03*
X2952000Y4596000D02*
D03*
X2952000Y4850000D02*
D03*
X3206000Y4596000D02*
D03*
X3206000Y4850000D02*
D03*
X3460000Y4596000D02*
D03*
Y4850000D02*
D03*
X3714000Y4596000D02*
D03*
Y4850000D02*
D03*
X3968000Y4596000D02*
D03*
Y4850000D02*
D03*
X4222000Y4596000D02*
D03*
X4222000Y4850000D02*
D03*
X4476000Y4596000D02*
D03*
Y4850000D02*
D03*
X4730000Y4596000D02*
D03*
Y4850000D02*
D03*
X4984000Y4596000D02*
D03*
Y4850000D02*
D03*
X5238000Y4596000D02*
D03*
Y4850000D02*
D03*
X5492000Y4596000D02*
D03*
X5492000Y4850000D02*
D03*
X5746000Y4596000D02*
D03*
Y4850000D02*
D03*
X6000000Y4596000D02*
D03*
D59*
X11496000Y1050000D02*
D03*
X11496000Y1600000D02*
D03*
X6500000Y146000D02*
D03*
X1682000D02*
D03*
X4229000Y1900000D02*
D03*
X10238000Y1600000D02*
D03*
Y1050000D02*
D03*
X10818000Y4850000D02*
D03*
X6000000D02*
D03*
D60*
X454500Y1132500D02*
D03*
Y2567500D02*
D03*
D61*
X835500Y1596000D02*
D03*
D62*
X835500Y1723000D02*
D03*
Y1850000D02*
D03*
Y1977000D02*
D03*
Y2104000D02*
D03*
X581500Y1659500D02*
D03*
X581500Y1786500D02*
D03*
Y1913500D02*
D03*
X581500Y2040500D02*
D03*
D63*
X12350000Y2155000D02*
D03*
Y2990000D02*
D03*
D64*
X12050000Y2795000D02*
D03*
X12050000Y2350000D02*
D03*
D65*
X12140000Y4030000D02*
D03*
Y3530000D02*
D03*
D66*
X3100008Y2500000D02*
D03*
X3354000Y2245992D02*
D03*
Y2753992D02*
D03*
X2846000D02*
D03*
Y2245992D02*
D03*
D72*
X2381000Y680000D02*
D03*
X2254000D02*
D03*
X2127000D02*
D03*
X2000000D02*
D03*
X1873000D02*
D03*
X1746000D02*
D03*
X1619000D02*
D03*
Y1220000D02*
D03*
X1746000D02*
D03*
X1873000D02*
D03*
X2000000D02*
D03*
X2127000D02*
D03*
X2254000D02*
D03*
X2381000D02*
D03*
Y1630000D02*
D03*
X2254000D02*
D03*
X2127000D02*
D03*
X2000000D02*
D03*
X1873000D02*
D03*
X1746000D02*
D03*
X1619000D02*
D03*
Y2170000D02*
D03*
X1746000D02*
D03*
X1873000D02*
D03*
X2000000D02*
D03*
X2127000D02*
D03*
X2254000D02*
D03*
X2381000D02*
D03*
D73*
X9381000Y2190000D02*
D03*
X8554000Y2200000D02*
D03*
D74*
X9254000Y2190000D02*
D03*
X9127000D02*
D03*
X9000000D02*
D03*
X9381000Y2790000D02*
D03*
X9254000D02*
D03*
X9127000D02*
D03*
X9000000D02*
D03*
X8173000Y2800000D02*
D03*
X8300000D02*
D03*
X8427000D02*
D03*
X8554000D02*
D03*
X8173000Y2200000D02*
D03*
X8300000D02*
D03*
X8427000D02*
D03*
D75*
X6500000Y2785000D02*
D03*
Y2630000D02*
D03*
D76*
X6067500Y2250000D02*
D03*
X5912500D02*
D03*
D77*
X1300000Y940000D02*
D03*
Y1890000D02*
D03*
D78*
X1375000Y1745000D02*
D03*
X1325000D02*
D03*
X1275000D02*
D03*
X1225000D02*
D03*
Y2035000D02*
D03*
X1275000D02*
D03*
X1325000D02*
D03*
X1375000D02*
D03*
X1374999Y795000D02*
D03*
X1324999D02*
D03*
X1275000D02*
D03*
X1225000D02*
D03*
Y1085000D02*
D03*
X1275000D02*
D03*
X1324999D02*
D03*
X1374999D02*
D03*
%TF.MD5,205ed07fa3a7450687dd0c39850fe876*%
M02*
