%TF.GenerationSoftware,Altium Limited,Altium Designer,22.1.2 (22)*%
G04 Layer_Color=16711935*
%FSLAX45Y45*%
%MOMM*%
%TF.SameCoordinates,69A41402-0A08-4178-9E70-C708664AA264*%
%TF.FilePolarity,Negative*%
%TF.FileFunction,Soldermask,Bot*%
%TF.Part,Single*%
G01*
G75*
%TA.AperFunction,SMDPad,CuDef*%
%ADD31R,0.90000X0.80000*%
%TA.AperFunction,ComponentPad*%
%ADD60C,4.24000*%
%ADD61R,1.12000X1.12000*%
%ADD62C,1.12000*%
%TA.AperFunction,ViaPad*%
%ADD70C,0.50000*%
%TA.AperFunction,SMDPad,CuDef*%
%ADD72R,0.60000X1.55000*%
%ADD77R,1.60000X1.50000*%
G04:AMPARAMS|DCode=78|XSize=0.85mm|YSize=0.25mm|CornerRadius=0.125mm|HoleSize=0mm|Usage=FLASHONLY|Rotation=90.000|XOffset=0mm|YOffset=0mm|HoleType=Round|Shape=RoundedRectangle|*
%AMROUNDEDRECTD78*
21,1,0.85000,0.00000,0,0,90.0*
21,1,0.60000,0.25000,0,0,90.0*
1,1,0.25000,0.00000,0.30000*
1,1,0.25000,0.00000,-0.30000*
1,1,0.25000,0.00000,-0.30000*
1,1,0.25000,0.00000,0.30000*
%
%ADD78ROUNDEDRECTD78*%
%ADD79R,1.10000X1.20000*%
%ADD80R,1.20000X1.10000*%
%ADD81R,0.60000X2.10000*%
%ADD82O,0.60000X2.10000*%
%ADD83R,1.00000X0.80000*%
%ADD84R,0.80000X1.00000*%
%ADD85R,0.80000X0.95000*%
%ADD86R,0.95000X0.80000*%
%TA.AperFunction,ComponentPad*%
%ADD87C,1.60000*%
%ADD88R,1.60000X1.60000*%
%ADD89O,2.00000X1.30000*%
%ADD90O,1.35000X1.15000*%
%ADD91C,4.40000*%
%ADD92C,2.30000*%
%TA.AperFunction,ViaPad*%
%ADD93C,0.80320*%
%ADD94C,1.00320*%
%ADD95C,1.20320*%
%ADD96C,3.30000*%
D31*
X2760000Y915000D02*
D03*
X2620000D02*
D03*
Y1025000D02*
D03*
X2760000D02*
D03*
X2750000Y1935000D02*
D03*
X2610000D02*
D03*
Y1825000D02*
D03*
X2750000D02*
D03*
D60*
X454500Y1132500D02*
D03*
Y2567500D02*
D03*
D61*
X835500Y1596000D02*
D03*
D62*
X835500Y1723000D02*
D03*
Y1850000D02*
D03*
Y1977000D02*
D03*
Y2104000D02*
D03*
X581500Y1659500D02*
D03*
X581500Y1786500D02*
D03*
Y1913500D02*
D03*
X581500Y2040500D02*
D03*
D70*
X1350000Y1840000D02*
D03*
Y1940000D02*
D03*
X1250000Y1840000D02*
D03*
Y1940000D02*
D03*
X1350000Y890001D02*
D03*
X1350000Y990000D02*
D03*
X1250000Y890000D02*
D03*
Y990000D02*
D03*
D72*
X2381000Y680000D02*
D03*
X2254000D02*
D03*
X2127000D02*
D03*
X2000000D02*
D03*
X1873000D02*
D03*
X1746000D02*
D03*
X1619000D02*
D03*
Y1220000D02*
D03*
X1746000D02*
D03*
X1873000D02*
D03*
X2000000D02*
D03*
X2127000D02*
D03*
X2254000D02*
D03*
X2381000D02*
D03*
Y1630000D02*
D03*
X2254000D02*
D03*
X2127000D02*
D03*
X2000000D02*
D03*
X1873000D02*
D03*
X1746000D02*
D03*
X1619000D02*
D03*
Y2170000D02*
D03*
X1746000D02*
D03*
X1873000D02*
D03*
X2000000D02*
D03*
X2127000D02*
D03*
X2254000D02*
D03*
X2381000D02*
D03*
D77*
X1300000Y940000D02*
D03*
Y1890000D02*
D03*
D78*
X1375000Y1745000D02*
D03*
X1325000D02*
D03*
X1275000D02*
D03*
X1225000D02*
D03*
Y2035000D02*
D03*
X1275000D02*
D03*
X1325000D02*
D03*
X1375000D02*
D03*
X1374999Y795000D02*
D03*
X1324999D02*
D03*
X1275000D02*
D03*
X1225000D02*
D03*
Y1085000D02*
D03*
X1275000D02*
D03*
X1324999D02*
D03*
X1374999D02*
D03*
D79*
X1060000Y510000D02*
D03*
X1240000D02*
D03*
X1080425Y1450000D02*
D03*
X1260425D02*
D03*
X3150000Y830000D02*
D03*
X2970000D02*
D03*
X3150000Y1140000D02*
D03*
X2970000D02*
D03*
X3140000Y1910000D02*
D03*
X2960000D02*
D03*
X3140000Y1620000D02*
D03*
X2960000D02*
D03*
X10820000Y3020000D02*
D03*
X10640000D02*
D03*
X11190000Y3250000D02*
D03*
X11370000D02*
D03*
X10415000Y1850000D02*
D03*
X10235000D02*
D03*
X11485000D02*
D03*
X11665000D02*
D03*
X1550000Y4021925D02*
D03*
X1730000D02*
D03*
X5910000Y2610000D02*
D03*
X6090000D02*
D03*
X5910000Y2430000D02*
D03*
X6090000D02*
D03*
D80*
X3880000Y2460000D02*
D03*
Y2640000D02*
D03*
X9380000Y3230000D02*
D03*
Y3050000D02*
D03*
X8550000Y3230000D02*
D03*
Y3050000D02*
D03*
X540000Y3920000D02*
D03*
Y3740000D02*
D03*
X1200000Y2610000D02*
D03*
Y2790000D02*
D03*
X1640000D02*
D03*
Y2610000D02*
D03*
X1420000Y2790000D02*
D03*
Y2610000D02*
D03*
X6290000Y2600000D02*
D03*
Y2780000D02*
D03*
X6450000Y3325000D02*
D03*
Y3145000D02*
D03*
X6250000Y3325000D02*
D03*
Y3145000D02*
D03*
X6150000Y1625000D02*
D03*
Y1805000D02*
D03*
X6350000Y1625000D02*
D03*
Y1805000D02*
D03*
X6050000Y3325000D02*
D03*
Y3145000D02*
D03*
D81*
X9381000Y2190000D02*
D03*
X8554000Y2200000D02*
D03*
D82*
X9254000Y2190000D02*
D03*
X9127000D02*
D03*
X9000000D02*
D03*
X9381000Y2790000D02*
D03*
X9254000D02*
D03*
X9127000D02*
D03*
X9000000D02*
D03*
X8173000Y2800000D02*
D03*
X8300000D02*
D03*
X8427000D02*
D03*
X8554000D02*
D03*
X8173000Y2200000D02*
D03*
X8300000D02*
D03*
X8427000D02*
D03*
D83*
X2120000Y2605000D02*
D03*
Y2755000D02*
D03*
X930000Y2255000D02*
D03*
Y2405000D02*
D03*
X940000Y1190000D02*
D03*
Y1340000D02*
D03*
X6630000Y2025000D02*
D03*
Y1875000D02*
D03*
X6800000Y2025000D02*
D03*
Y1875000D02*
D03*
D84*
X5925000Y2790000D02*
D03*
X6075000D02*
D03*
D85*
X6500000Y2785000D02*
D03*
Y2630000D02*
D03*
D86*
X6067500Y2250000D02*
D03*
X5912500D02*
D03*
D87*
X7008000Y146000D02*
D03*
X7262000D02*
D03*
X7262000Y400000D02*
D03*
X7516000Y146000D02*
D03*
X7516000Y400000D02*
D03*
X12258000Y1050000D02*
D03*
X12004000D02*
D03*
X11750000D02*
D03*
X12258000Y1600000D02*
D03*
X12004000D02*
D03*
X11750000D02*
D03*
X5492000Y146000D02*
D03*
X6500000Y400000D02*
D03*
X6754000Y146000D02*
D03*
Y400000D02*
D03*
X7008000D02*
D03*
X7770000Y146000D02*
D03*
Y400000D02*
D03*
X8024000Y146000D02*
D03*
X8024000Y400000D02*
D03*
X8278000Y146000D02*
D03*
Y400000D02*
D03*
X8532000Y146000D02*
D03*
Y400000D02*
D03*
X8786000Y146000D02*
D03*
Y400000D02*
D03*
X9040000Y146000D02*
D03*
Y400000D02*
D03*
X9294000Y146000D02*
D03*
X9294000Y400000D02*
D03*
X9548000Y146000D02*
D03*
X9548000Y400000D02*
D03*
X9802000Y146000D02*
D03*
Y400000D02*
D03*
X10056000Y146000D02*
D03*
Y400000D02*
D03*
X10310000Y146000D02*
D03*
X10310000Y400000D02*
D03*
X10564000Y146000D02*
D03*
Y400000D02*
D03*
X10818000Y146000D02*
D03*
Y400000D02*
D03*
X1682000D02*
D03*
X1936000Y146000D02*
D03*
Y400000D02*
D03*
X2190001Y146000D02*
D03*
X2190000Y400000D02*
D03*
X2444000Y146000D02*
D03*
X2444000Y400000D02*
D03*
X2698000Y146000D02*
D03*
X2698000Y400000D02*
D03*
X2952000Y146000D02*
D03*
Y400000D02*
D03*
X3206000Y146000D02*
D03*
X3206000Y400000D02*
D03*
X3460000Y146000D02*
D03*
X3460000Y400000D02*
D03*
X3714000Y146000D02*
D03*
Y400000D02*
D03*
X3968000Y146000D02*
D03*
Y400000D02*
D03*
X4222000Y146000D02*
D03*
Y400000D02*
D03*
X4476001Y146000D02*
D03*
X4476000Y400000D02*
D03*
X4730000Y146000D02*
D03*
X4730000Y400000D02*
D03*
X4984000Y146000D02*
D03*
Y400000D02*
D03*
X5238000Y146000D02*
D03*
Y400000D02*
D03*
X5492000D02*
D03*
X5746000Y146000D02*
D03*
X5746000Y400000D02*
D03*
X6000000Y146000D02*
D03*
X6000000Y400000D02*
D03*
X4229000Y1646000D02*
D03*
X3975000Y1900000D02*
D03*
Y1646000D02*
D03*
X3721000Y1900000D02*
D03*
Y1646000D02*
D03*
X11000000Y1600000D02*
D03*
X10746000D02*
D03*
X10492000D02*
D03*
X11000000Y1050000D02*
D03*
X10746000D02*
D03*
X10492000D02*
D03*
X6500000Y4596000D02*
D03*
X6500000Y4850000D02*
D03*
X6754000Y4596000D02*
D03*
Y4850000D02*
D03*
X7008000Y4596000D02*
D03*
X7008000Y4850000D02*
D03*
X7262000Y4596000D02*
D03*
Y4850000D02*
D03*
X7516000Y4596000D02*
D03*
Y4850000D02*
D03*
X7770000Y4596000D02*
D03*
X7770000Y4850000D02*
D03*
X8024000Y4596000D02*
D03*
X8024000Y4850000D02*
D03*
X8278000Y4596000D02*
D03*
Y4850000D02*
D03*
X8532000Y4596000D02*
D03*
Y4850000D02*
D03*
X8786000Y4596000D02*
D03*
X8786000Y4850000D02*
D03*
X9040000Y4596000D02*
D03*
Y4850000D02*
D03*
X9294000Y4596000D02*
D03*
X9294000Y4850000D02*
D03*
X9548000Y4596000D02*
D03*
Y4850000D02*
D03*
X9802000Y4596000D02*
D03*
X9802000Y4850000D02*
D03*
X10056000Y4596000D02*
D03*
X10056000Y4850000D02*
D03*
X10310000Y4596000D02*
D03*
Y4850000D02*
D03*
X10564000Y4596000D02*
D03*
Y4850000D02*
D03*
X10818000Y4596000D02*
D03*
X1682000D02*
D03*
Y4850000D02*
D03*
X1936000Y4596000D02*
D03*
X1936000Y4850000D02*
D03*
X2190000Y4596000D02*
D03*
Y4850000D02*
D03*
X2444000Y4596000D02*
D03*
Y4850000D02*
D03*
X2698000Y4596000D02*
D03*
Y4850000D02*
D03*
X2952000Y4596000D02*
D03*
X2952000Y4850000D02*
D03*
X3206000Y4596000D02*
D03*
X3206000Y4850000D02*
D03*
X3460000Y4596000D02*
D03*
Y4850000D02*
D03*
X3714000Y4596000D02*
D03*
Y4850000D02*
D03*
X3968000Y4596000D02*
D03*
Y4850000D02*
D03*
X4222000Y4596000D02*
D03*
X4222000Y4850000D02*
D03*
X4476000Y4596000D02*
D03*
Y4850000D02*
D03*
X4730000Y4596000D02*
D03*
Y4850000D02*
D03*
X4984000Y4596000D02*
D03*
Y4850000D02*
D03*
X5238000Y4596000D02*
D03*
Y4850000D02*
D03*
X5492000Y4596000D02*
D03*
X5492000Y4850000D02*
D03*
X5746000Y4596000D02*
D03*
Y4850000D02*
D03*
X6000000Y4596000D02*
D03*
D88*
X11496000Y1050000D02*
D03*
X11496000Y1600000D02*
D03*
X6500000Y146000D02*
D03*
X1682000D02*
D03*
X4229000Y1900000D02*
D03*
X10238000Y1600000D02*
D03*
Y1050000D02*
D03*
X10818000Y4850000D02*
D03*
X6000000D02*
D03*
D89*
X12350000Y2155000D02*
D03*
Y2990000D02*
D03*
D90*
X12050000Y2795000D02*
D03*
X12050000Y2350000D02*
D03*
D91*
X12140000Y4030000D02*
D03*
Y3530000D02*
D03*
D92*
X3100008Y2500000D02*
D03*
X3354000Y2245992D02*
D03*
Y2753992D02*
D03*
X2846000D02*
D03*
Y2245992D02*
D03*
D93*
X8880000Y2770000D02*
D03*
X8570000Y2490000D02*
D03*
X8720000Y2770000D02*
D03*
X8800000Y2410000D02*
D03*
X8060000Y2710000D02*
D03*
X8360000Y2500000D02*
D03*
X7900000Y2430000D02*
D03*
Y2230000D02*
D03*
X7020000Y2720000D02*
D03*
X7130000Y2190000D02*
D03*
X7320000Y2300000D02*
D03*
X7240000Y2370000D02*
D03*
X7900000Y2330000D02*
D03*
X6630000Y1770000D02*
D03*
X6800000D02*
D03*
X1380000Y1630000D02*
D03*
X6160009Y1337500D02*
D03*
X6370000Y1330000D02*
D03*
X10050000Y1970000D02*
D03*
X3730000Y2520000D02*
D03*
X2520000Y2230000D02*
D03*
X9561265Y2561265D02*
D03*
X10100000Y2120000D02*
D03*
X6610000Y3340000D02*
D03*
X6760000Y3225000D02*
D03*
X6837978Y3080000D02*
D03*
X6685040Y3274960D02*
D03*
X6740000Y2950000D02*
D03*
X6980000Y3080000D02*
D03*
X5820000Y3062500D02*
D03*
X2750000Y1722500D02*
D03*
X2590000Y1680000D02*
D03*
X2380000Y1770000D02*
D03*
X2000000D02*
D03*
X2250000D02*
D03*
X2130000D02*
D03*
X2259794Y2029998D02*
D03*
X1870000Y2030000D02*
D03*
X2520916Y1871406D02*
D03*
X2883735Y1253735D02*
D03*
X2610000Y1300000D02*
D03*
X2510000Y1340000D02*
D03*
X2790000Y1260000D02*
D03*
X2507485Y1140015D02*
D03*
X2519969Y982500D02*
D03*
X5910000Y3250000D02*
D03*
X2059999Y3850000D02*
D03*
X5824936Y3224936D02*
D03*
X2380000Y822499D02*
D03*
X2254000Y834000D02*
D03*
X2127000Y830000D02*
D03*
X2000000D02*
D03*
Y1080000D02*
D03*
X1530000Y2880000D02*
D03*
X1550000Y2500000D02*
D03*
X6750000Y2230000D02*
D03*
X7310000Y2710000D02*
D03*
X5220000Y2750000D02*
D03*
X5140000Y2670000D02*
D03*
X2259896Y1079896D02*
D03*
X2380000Y1080000D02*
D03*
Y2030000D02*
D03*
X1270000Y680000D02*
D03*
X830000Y1190000D02*
D03*
Y1340000D02*
D03*
X810000Y2260000D02*
D03*
Y2410000D02*
D03*
X1750000Y1080000D02*
D03*
X5520000Y2040000D02*
D03*
X5785104Y2035104D02*
D03*
X7220000Y2270000D02*
D03*
X3750000Y2240000D02*
D03*
X1170000Y1630000D02*
D03*
X1180000Y1210000D02*
D03*
X1170000Y680000D02*
D03*
X1370000D02*
D03*
X2130000Y2030000D02*
D03*
X1620000D02*
D03*
X1750000D02*
D03*
X2000000D02*
D03*
X1870000Y1080000D02*
D03*
X2130000D02*
D03*
X7250000Y2770000D02*
D03*
X8430000Y2000000D02*
D03*
X9760000Y1260000D02*
D03*
X11000000Y810000D02*
D03*
X7390000Y2690000D02*
D03*
X7150000Y2100000D02*
D03*
X7440046Y2625069D02*
D03*
X9020000Y3440000D02*
D03*
X6500000Y4070000D02*
D03*
X7710000Y2580000D02*
D03*
X1950000Y3850000D02*
D03*
X1510000Y3250000D02*
D03*
X6010634Y3519550D02*
D03*
X5580000Y3120000D02*
D03*
X5850000Y3460000D02*
D03*
X6420000Y3640000D02*
D03*
X6418808Y3538723D02*
D03*
X3850000Y2160000D02*
D03*
X2170000Y3250000D02*
D03*
X1870000Y3250000D02*
D03*
X5240000Y2250000D02*
D03*
X5060000Y2600000D02*
D03*
X1840000Y2440000D02*
D03*
X3730000Y2630000D02*
D03*
X3850000Y2350000D02*
D03*
X4160000Y2340000D02*
D03*
X360000Y4150000D02*
D03*
X6080000Y3580000D02*
D03*
X3240000Y3650000D02*
D03*
X360000Y3390000D02*
D03*
Y3500000D02*
D03*
Y3610000D02*
D03*
Y3830000D02*
D03*
Y4050000D02*
D03*
X320000Y3140000D02*
D03*
X350000Y4280000D02*
D03*
X360000Y3720000D02*
D03*
Y3940000D02*
D03*
X7512500Y2572500D02*
D03*
X8560000Y2000000D02*
D03*
X8170000Y3000000D02*
D03*
X8300000D02*
D03*
X9000000D02*
D03*
X9130000D02*
D03*
X9250000Y2000000D02*
D03*
X9380000D02*
D03*
X9020000Y3330000D02*
D03*
X1300000Y2380000D02*
D03*
X2120000Y2500000D02*
D03*
X1619000Y1081000D02*
D03*
X2279999Y3249999D02*
D03*
X1730103Y3249896D02*
D03*
X2390000Y3850000D02*
D03*
X5420000Y2060000D02*
D03*
X6210000Y2430000D02*
D03*
X4680000Y2220000D02*
D03*
X5750000Y4120000D02*
D03*
X5880000D02*
D03*
X6100000D02*
D03*
X5990000D02*
D03*
X5660000Y3040000D02*
D03*
X6910000Y2040000D02*
D03*
D94*
X1276568Y1636568D02*
D03*
X3540000Y1430000D02*
D03*
X9970000Y1620000D02*
D03*
X1040000Y2780000D02*
D03*
X3530000Y2070000D02*
D03*
X8100000Y3170000D02*
D03*
X8370000D02*
D03*
X6990000Y2870000D02*
D03*
X9690000Y3350000D02*
D03*
X10520000D02*
D03*
X6600000Y3070000D02*
D03*
X11340000Y1850000D02*
D03*
X1950000Y2880000D02*
D03*
X1720000Y2470000D02*
D03*
X1170000Y2160000D02*
D03*
X6740000Y2730000D02*
D03*
X5670000Y2030000D02*
D03*
X2400000Y2500000D02*
D03*
X1730000Y3850000D02*
D03*
X5200000Y2350000D02*
D03*
X11380000Y3110000D02*
D03*
Y2960000D02*
D03*
X10870000Y2870000D02*
D03*
X10640000D02*
D03*
X6990000Y2222530D02*
D03*
X5910000Y3140000D02*
D03*
D95*
X11375000Y4450000D02*
D03*
X12175000Y2300000D02*
D03*
X6250000Y1150000D02*
D03*
D96*
X12200000Y300000D02*
D03*
Y4700000D02*
D03*
X300000Y300000D02*
D03*
Y4700000D02*
D03*
%TF.MD5,7fdff35241517b56f9ecc4a4e2549219*%
M02*
