%TF.GenerationSoftware,Altium Limited,Altium Designer,22.1.2 (22)*%
G04 Layer_Color=8421504*
%FSLAX45Y45*%
%MOMM*%
%TF.SameCoordinates,69A41402-0A08-4178-9E70-C708664AA264*%
%TF.FilePolarity,Positive*%
%TF.FileFunction,Paste,Top*%
%TF.Part,Single*%
G01*
G75*
%TA.AperFunction,SMDPad,SMDef*%
%ADD21R,0.35000X0.47500*%
%ADD22R,0.47500X0.25000*%
%TA.AperFunction,SMDPad,CuDef*%
%ADD23R,2.50000X2.30000*%
%ADD24R,0.58000X1.73000*%
%ADD25C,1.73970*%
%ADD31R,0.90000X0.80000*%
%ADD32R,2.50000X2.50000*%
%ADD35R,1.20000X1.00000*%
%ADD38R,1.95580X3.14960*%
%ADD50R,1.10000X0.60000*%
%TA.AperFunction,NonConductor*%
%ADD99R,0.85000X0.80000*%
%ADD100R,2.00000X0.90000*%
%TA.AperFunction,SMDPad,CuDef*%
%ADD101R,1.12000X1.02000*%
G04:AMPARAMS|DCode=102|XSize=0.32mm|YSize=1.52mm|CornerRadius=0mm|HoleSize=0mm|Usage=FLASHONLY|Rotation=45.000|XOffset=0mm|YOffset=0mm|HoleType=Round|Shape=Rectangle|*
%AMROTATEDRECTD102*
4,1,4,0.42426,-0.65054,-0.65054,0.42426,-0.42426,0.65054,0.65054,-0.42426,0.42426,-0.65054,0.0*
%
%ADD102ROTATEDRECTD102*%

%ADD103R,1.37000X1.92000*%
%ADD104R,1.02000X1.22000*%
%ADD105R,1.37000X1.57000*%
%ADD106R,1.12000X0.87000*%
%ADD107R,1.12000X0.77000*%
%ADD108R,1.82000X1.19000*%
%ADD109R,0.92000X0.72000*%
%ADD110R,1.02000X1.12000*%
%TA.AperFunction,ConnectorPad*%
%ADD111R,1.92000X1.82000*%
%ADD112R,1.37000X0.42000*%
%TA.AperFunction,SMDPad,CuDef*%
%ADD113R,0.82000X0.82000*%
G04:AMPARAMS|DCode=114|XSize=0.345mm|YSize=0.42mm|CornerRadius=0mm|HoleSize=0mm|Usage=FLASHONLY|Rotation=45.000|XOffset=0mm|YOffset=0mm|HoleType=Round|Shape=Rectangle|*
%AMROTATEDRECTD114*
4,1,4,0.02652,-0.27047,-0.27047,0.02652,-0.02652,0.27047,0.27047,-0.02652,0.02652,-0.27047,0.0*
%
%ADD114ROTATEDRECTD114*%

G04:AMPARAMS|DCode=115|XSize=0.32mm|YSize=1.52mm|CornerRadius=0mm|HoleSize=0mm|Usage=FLASHONLY|Rotation=315.000|XOffset=0mm|YOffset=0mm|HoleType=Round|Shape=Rectangle|*
%AMROTATEDRECTD115*
4,1,4,-0.65054,-0.42426,0.42426,0.65054,0.65054,0.42426,-0.42426,-0.65054,-0.65054,-0.42426,0.0*
%
%ADD115ROTATEDRECTD115*%

%ADD116R,2.02000X2.02000*%
G04:AMPARAMS|DCode=117|XSize=1.02mm|YSize=1.12mm|CornerRadius=0mm|HoleSize=0mm|Usage=FLASHONLY|Rotation=45.000|XOffset=0mm|YOffset=0mm|HoleType=Round|Shape=Rectangle|*
%AMROTATEDRECTD117*
4,1,4,0.03535,-0.75661,-0.75661,0.03535,-0.03535,0.75661,0.75661,-0.03535,0.03535,-0.75661,0.0*
%
%ADD117ROTATEDRECTD117*%

%ADD118R,0.62000X1.12000*%
%ADD119R,1.02000X1.17000*%
%ADD120R,0.67000X0.27000*%
%ADD121R,0.27000X0.67000*%
%ADD122R,0.72000X0.92000*%
%ADD123R,1.02000X2.52000*%
%ADD124R,3.32000X2.52000*%
%ADD125R,0.82000X0.82000*%
%TA.AperFunction,Conductor*%
%ADD126R,1.92000X1.59500*%
G36*
X2100000Y4031925D02*
X2090000Y4031925D01*
Y3941925D01*
X2029999D01*
X2030000Y4031925D01*
X2020000D01*
X2020000Y4171925D01*
X2100000D01*
Y4031925D01*
D02*
G37*
G36*
X1880000D02*
X1870000Y4031925D01*
Y3941925D01*
X1810000D01*
Y4031925D01*
X1799999Y4031925D01*
X1800000Y4171925D01*
X1880000D01*
X1880000Y4031925D01*
D02*
G37*
G36*
X1660000D02*
X1650000Y4031925D01*
Y3941925D01*
X1589999D01*
X1590000Y4031925D01*
X1579999D01*
X1580000Y4171925D01*
X1660000D01*
Y4031925D01*
D02*
G37*
G36*
X1545000D02*
X1535000Y4031925D01*
Y3941925D01*
X1484999D01*
X1484999Y4031925D01*
X1475000Y4031925D01*
Y4171925D01*
X1545000D01*
X1545000Y4031925D01*
D02*
G37*
G36*
X2424999Y4031925D02*
X2415000D01*
Y3941925D01*
X2365000D01*
Y4031925D01*
X2355000D01*
X2355000Y4171925D01*
X2425000D01*
X2424999Y4031925D01*
D02*
G37*
G36*
X2319999D02*
X2310000Y4031925D01*
X2310000Y3941925D01*
X2250000D01*
Y4031925D01*
X2239999Y4031925D01*
X2240000Y4171925D01*
X2320000D01*
X2319999Y4031925D01*
D02*
G37*
G36*
X2210000D02*
X2200000D01*
X2199999Y3941925D01*
X2140000D01*
Y4031925D01*
X2130000D01*
X2129999Y4171925D01*
X2210000D01*
Y4031925D01*
D02*
G37*
G36*
X1990000D02*
X1979999Y4031925D01*
Y3941926D01*
X1919999Y3941925D01*
Y4031925D01*
X1910000D01*
X1910000Y4171925D01*
X1990000D01*
Y4031925D01*
D02*
G37*
G36*
X1770000D02*
X1760000D01*
Y3941925D01*
X1700000D01*
X1700000Y4031925D01*
X1690000Y4031925D01*
X1689999Y4171925D01*
X1770000D01*
X1770000Y4031925D01*
D02*
G37*
G36*
X2415000Y3061925D02*
X2424999D01*
X2425000Y2921925D01*
X2355000D01*
X2355000Y3061925D01*
X2365000D01*
Y3151925D01*
X2415000D01*
X2415000Y3061925D01*
D02*
G37*
G36*
X2310000D02*
X2319999D01*
X2320000Y2921925D01*
X2240000D01*
X2239999Y3061925D01*
X2250000D01*
X2250000Y3151925D01*
X2310000D01*
X2310000Y3061925D01*
D02*
G37*
G36*
X2090000Y3151925D02*
Y3061925D01*
X2100000D01*
Y2921925D01*
X2020000D01*
X2020000Y3061925D01*
X2030000D01*
Y3151926D01*
X2090000Y3151925D01*
D02*
G37*
G36*
X1870000Y3061925D02*
X1880000D01*
Y2921925D01*
X1800000D01*
X1799999Y3061925D01*
X1810000D01*
X1810000Y3151925D01*
X1870000D01*
Y3061925D01*
D02*
G37*
G36*
X1760000D02*
X1770000D01*
X1770000Y2921925D01*
X1690000D01*
Y3061925D01*
X1700000D01*
X1700000Y3151925D01*
X1760000D01*
X1760000Y3061925D01*
D02*
G37*
G36*
X1650000Y3151925D02*
Y3061925D01*
X1660000D01*
Y2921925D01*
X1580000D01*
X1579999Y3061925D01*
X1590000D01*
X1589999Y3151926D01*
X1650000Y3151925D01*
D02*
G37*
G36*
X1535000Y3061925D02*
X1545000D01*
Y2921925D01*
X1475000D01*
X1474999Y3061925D01*
X1485000D01*
X1484999Y3151925D01*
X1535000D01*
Y3061925D01*
D02*
G37*
G36*
X2200000D02*
X2210000D01*
Y2921925D01*
X2130000Y2921925D01*
X2130000Y3061925D01*
X2140000D01*
Y3151925D01*
X2199999D01*
X2200000Y3061925D01*
D02*
G37*
G36*
X1979999D02*
X1990000D01*
X1990000Y2921925D01*
X1910000Y2921925D01*
X1910000Y3061925D01*
X1919999D01*
Y3151925D01*
X1979999Y3151926D01*
Y3061925D01*
D02*
G37*
G36*
X11660001Y2855403D02*
X11601350D01*
Y2705403D01*
X11525351D01*
Y2855403D01*
X11466700D01*
Y3158403D01*
X11660001D01*
Y2855403D01*
D02*
G37*
G36*
X8448916Y2587120D02*
X8449619Y2586416D01*
X8450000Y2585497D01*
Y2585000D01*
Y2565000D01*
Y2564503D01*
X8449619Y2563584D01*
X8448916Y2562881D01*
X8447997Y2562500D01*
X8424503D01*
X8423584Y2562881D01*
X8422881Y2563584D01*
X8422500Y2564503D01*
Y2565000D01*
Y2585000D01*
Y2585497D01*
X8422881Y2586416D01*
X8423584Y2587120D01*
X8424503Y2587500D01*
X8425000D01*
Y2587500D01*
X8447500Y2587500D01*
X8447997D01*
X8448916Y2587120D01*
D02*
G37*
G36*
X8296416D02*
X8297119Y2586416D01*
X8297500Y2585497D01*
Y2585000D01*
Y2565000D01*
Y2564503D01*
X8297119Y2563584D01*
X8296416Y2562881D01*
X8295497Y2562500D01*
X8272003D01*
X8271084Y2562881D01*
X8270380Y2563584D01*
X8270000Y2564503D01*
Y2565000D01*
Y2585000D01*
Y2585497D01*
X8270380Y2586416D01*
X8271084Y2587120D01*
X8272003Y2587500D01*
X8272500D01*
Y2587500D01*
X8295000Y2587500D01*
X8295497D01*
X8296416Y2587120D01*
D02*
G37*
G36*
X8396416Y2589619D02*
X8397119Y2588916D01*
X8397500Y2587997D01*
Y2587500D01*
Y2565000D01*
Y2564503D01*
X8397119Y2563584D01*
X8396416Y2562881D01*
X8395497Y2562500D01*
X8374503D01*
X8373584Y2562881D01*
X8372880Y2563584D01*
X8372500Y2564503D01*
Y2565000D01*
X8372500D01*
X8372500Y2587500D01*
Y2587997D01*
X8372880Y2588916D01*
X8373584Y2589619D01*
X8374503Y2590000D01*
X8395497D01*
X8396416Y2589619D01*
D02*
G37*
G36*
X8346416D02*
X8347119Y2588916D01*
X8347500Y2587997D01*
Y2587500D01*
X8347500D01*
X8347500Y2565000D01*
Y2564503D01*
X8347119Y2563584D01*
X8346416Y2562881D01*
X8345497Y2562500D01*
X8324503D01*
X8323584Y2562881D01*
X8322880Y2563584D01*
X8322500Y2564503D01*
Y2565000D01*
Y2587500D01*
Y2587997D01*
X8322880Y2588916D01*
X8323584Y2589619D01*
X8324503Y2590000D01*
X8345497D01*
X8346416Y2589619D01*
D02*
G37*
G36*
X8448916Y2537119D02*
X8449619Y2536416D01*
X8450000Y2535497D01*
Y2535000D01*
Y2515000D01*
Y2514503D01*
X8449619Y2513584D01*
X8448916Y2512880D01*
X8447997Y2512500D01*
X8447500D01*
Y2512500D01*
X8425000Y2512500D01*
X8424503D01*
X8423584Y2512880D01*
X8422881Y2513584D01*
X8422500Y2514503D01*
Y2515000D01*
Y2535000D01*
Y2535497D01*
X8422881Y2536416D01*
X8423584Y2537119D01*
X8424503Y2537500D01*
X8447997D01*
X8448916Y2537119D01*
D02*
G37*
G36*
X8296416D02*
X8297119Y2536416D01*
X8297500Y2535497D01*
Y2535000D01*
Y2515000D01*
Y2514503D01*
X8297119Y2513584D01*
X8296416Y2512880D01*
X8295497Y2512500D01*
X8295000D01*
Y2512500D01*
X8272500Y2512500D01*
X8272003D01*
X8271084Y2512880D01*
X8270380Y2513584D01*
X8270000Y2514503D01*
Y2515000D01*
Y2535000D01*
Y2535497D01*
X8270380Y2536416D01*
X8271084Y2537119D01*
X8272003Y2537500D01*
X8295497D01*
X8296416Y2537119D01*
D02*
G37*
G36*
X8448916Y2487119D02*
X8449619Y2486416D01*
X8450000Y2485497D01*
Y2485000D01*
Y2465000D01*
Y2464503D01*
X8449619Y2463584D01*
X8448916Y2462881D01*
X8447997Y2462500D01*
X8424503D01*
X8423584Y2462881D01*
X8422881Y2463584D01*
X8422500Y2464503D01*
Y2465000D01*
Y2485000D01*
Y2485497D01*
X8422881Y2486416D01*
X8423584Y2487119D01*
X8424503Y2487500D01*
X8425000D01*
Y2487500D01*
X8447500Y2487500D01*
X8447997D01*
X8448916Y2487119D01*
D02*
G37*
G36*
X8296416D02*
X8297119Y2486416D01*
X8297500Y2485497D01*
Y2485000D01*
Y2465000D01*
Y2464503D01*
X8297119Y2463584D01*
X8296416Y2462881D01*
X8295497Y2462500D01*
X8272003D01*
X8271084Y2462881D01*
X8270380Y2463584D01*
X8270000Y2464503D01*
Y2465000D01*
Y2485000D01*
Y2485497D01*
X8270380Y2486416D01*
X8271084Y2487119D01*
X8272003Y2487500D01*
X8272500D01*
Y2487500D01*
X8295000Y2487500D01*
X8295497D01*
X8296416Y2487119D01*
D02*
G37*
G36*
X8448916Y2437119D02*
X8449619Y2436416D01*
X8450000Y2435497D01*
Y2435000D01*
Y2415000D01*
Y2414503D01*
X8449619Y2413584D01*
X8448916Y2412880D01*
X8447997Y2412500D01*
X8447500D01*
Y2412500D01*
X8425000Y2412500D01*
X8424503D01*
X8423584Y2412880D01*
X8422881Y2413584D01*
X8422500Y2414503D01*
Y2415000D01*
Y2435000D01*
Y2435497D01*
X8422881Y2436416D01*
X8423584Y2437119D01*
X8424503Y2437500D01*
X8447997D01*
X8448916Y2437119D01*
D02*
G37*
G36*
X8296416D02*
X8297119Y2436416D01*
X8297500Y2435497D01*
Y2435000D01*
Y2415000D01*
Y2414503D01*
X8297119Y2413584D01*
X8296416Y2412880D01*
X8295497Y2412500D01*
X8295000D01*
Y2412500D01*
X8272500Y2412500D01*
X8272003D01*
X8271084Y2412880D01*
X8270380Y2413584D01*
X8270000Y2414503D01*
Y2415000D01*
Y2435000D01*
Y2435497D01*
X8270380Y2436416D01*
X8271084Y2437119D01*
X8272003Y2437500D01*
X8295497D01*
X8296416Y2437119D01*
D02*
G37*
G36*
X8396416D02*
X8397119Y2436416D01*
X8397500Y2435497D01*
Y2435000D01*
Y2412500D01*
Y2412003D01*
X8397119Y2411084D01*
X8396416Y2410380D01*
X8395497Y2410000D01*
X8374503D01*
X8373584Y2410380D01*
X8372880Y2411084D01*
X8372500Y2412003D01*
Y2412500D01*
X8372500D01*
X8372500Y2435000D01*
Y2435497D01*
X8372880Y2436416D01*
X8373584Y2437119D01*
X8374503Y2437500D01*
X8395497D01*
X8396416Y2437119D01*
D02*
G37*
G36*
X8346416D02*
X8347119Y2436416D01*
X8347500Y2435497D01*
Y2435000D01*
X8347500D01*
X8347500Y2412500D01*
Y2412003D01*
X8347119Y2411084D01*
X8346416Y2410380D01*
X8345497Y2410000D01*
X8324503D01*
X8323584Y2410380D01*
X8322880Y2411084D01*
X8322500Y2412003D01*
Y2412500D01*
Y2435000D01*
Y2435497D01*
X8322880Y2436416D01*
X8323584Y2437119D01*
X8324503Y2437500D01*
X8345497D01*
X8346416Y2437119D01*
D02*
G37*
D21*
X1475000Y2343750D02*
D03*
X1525000D02*
D03*
X1575000D02*
D03*
X1625000D02*
D03*
X1675000D02*
D03*
X1725000D02*
D03*
X1775000D02*
D03*
X1825000D02*
D03*
X1875000D02*
D03*
X1925000D02*
D03*
Y2656250D02*
D03*
X1875000D02*
D03*
X1825000D02*
D03*
X1775000D02*
D03*
X1725000D02*
D03*
X1675000D02*
D03*
X1625000D02*
D03*
X1575000D02*
D03*
X1525000D02*
D03*
X1475000D02*
D03*
D22*
X1468750Y2575000D02*
D03*
Y2525000D02*
D03*
Y2475000D02*
D03*
Y2425000D02*
D03*
X1931250D02*
D03*
Y2475000D02*
D03*
Y2525000D02*
D03*
Y2575000D02*
D03*
D23*
X11399074Y3635000D02*
D03*
X10969074D02*
D03*
D24*
X11413351Y2791903D02*
D03*
X11713350D02*
D03*
D25*
X11563351Y2970000D02*
D03*
D31*
X9370000Y3420000D02*
D03*
X9170000Y3325000D02*
D03*
Y3515000D02*
D03*
D32*
X10310000Y3080000D02*
D03*
Y3780000D02*
D03*
X9610000Y3080000D02*
D03*
Y3780000D02*
D03*
D35*
X6165000Y735000D02*
D03*
X6335000D02*
D03*
Y865000D02*
D03*
X6165000D02*
D03*
D38*
X10939890Y4160000D02*
D03*
X11430110D02*
D03*
D50*
X4600000Y2570000D02*
D03*
Y2430000D02*
D03*
D99*
X2552480Y2500026D02*
D03*
D100*
X2399970Y2349971D02*
D03*
X2400029Y2650028D02*
D03*
D101*
X8670000Y2410000D02*
D03*
Y2590000D02*
D03*
X8930000Y2410000D02*
D03*
Y2590000D02*
D03*
D102*
X6532264Y1283709D02*
D03*
X6602974Y1354420D02*
D03*
X6638330Y1389775D02*
D03*
X6673685Y1425130D02*
D03*
X6709040Y1460486D02*
D03*
X7628277Y2379723D02*
D03*
X7592922Y2344367D02*
D03*
X7557567Y2309012D02*
D03*
X7522212Y2273657D02*
D03*
X7486856Y2238302D02*
D03*
X7451501Y2202946D02*
D03*
X7416146Y2167591D02*
D03*
X7380790Y2132236D02*
D03*
X7345435Y2096880D02*
D03*
X7310080Y2061525D02*
D03*
X7274725Y2026170D02*
D03*
X7239370Y1990815D02*
D03*
X7204014Y1955459D02*
D03*
X7168659Y1920104D02*
D03*
X7133303Y1884749D02*
D03*
X7097948Y1849394D02*
D03*
X7062593Y1814038D02*
D03*
X7027238Y1778683D02*
D03*
X6991882Y1743328D02*
D03*
X6956527Y1707973D02*
D03*
X6921172Y1672617D02*
D03*
X6885817Y1637262D02*
D03*
X6850461Y1601907D02*
D03*
X6815106Y1566552D02*
D03*
X6779751Y1531196D02*
D03*
X6744395Y1495841D02*
D03*
X6567619Y1319065D02*
D03*
X6496909Y1248354D02*
D03*
X6461553Y1212999D02*
D03*
X6426198Y1177644D02*
D03*
X6390843Y1142288D02*
D03*
X4870566Y2662566D02*
D03*
X4905921Y2697921D02*
D03*
X4941276Y2733276D02*
D03*
X4976631Y2768631D02*
D03*
X5011987Y2803987D02*
D03*
X5047342Y2839342D02*
D03*
X5082697Y2874697D02*
D03*
X5118053Y2910052D02*
D03*
X5153408Y2945408D02*
D03*
X5188763Y2980763D02*
D03*
X5224118Y3016118D02*
D03*
X5259474Y3051473D02*
D03*
X5294829Y3086829D02*
D03*
X5330184Y3122184D02*
D03*
X5365539Y3157539D02*
D03*
X5400894Y3192895D02*
D03*
X5436250Y3228250D02*
D03*
X5471605Y3263605D02*
D03*
X5506960Y3298960D02*
D03*
X5542316Y3334316D02*
D03*
X5577671Y3369671D02*
D03*
X5613026Y3405026D02*
D03*
X5648381Y3440381D02*
D03*
X5683737Y3475737D02*
D03*
X5719092Y3511092D02*
D03*
X5754447Y3546447D02*
D03*
X5789802Y3581803D02*
D03*
X5825158Y3617158D02*
D03*
X5860513Y3652513D02*
D03*
X5895868Y3687868D02*
D03*
X5931224Y3723224D02*
D03*
X5966579Y3758579D02*
D03*
X6001934Y3793934D02*
D03*
X6037289Y3829290D02*
D03*
X6072645Y3864645D02*
D03*
X6108000Y3900000D02*
D03*
D103*
X1241250Y4072250D02*
D03*
X1241251Y3475250D02*
D03*
D104*
X773750Y3125250D02*
D03*
X1143750Y3125250D02*
D03*
D105*
X171250Y3142750D02*
D03*
D106*
X158750Y3388750D02*
D03*
X158751Y3498750D02*
D03*
X158750Y3608750D02*
D03*
X158751Y3718750D02*
D03*
X158750Y3828750D02*
D03*
X158751Y3938750D02*
D03*
X158750Y4048750D02*
D03*
D107*
Y4153750D02*
D03*
D108*
X193750Y4274750D02*
D03*
D109*
X1200000Y2695000D02*
D03*
Y2545000D02*
D03*
X10390000Y2655000D02*
D03*
Y2505000D02*
D03*
X11650000Y4725000D02*
D03*
Y4575000D02*
D03*
X11380000Y4575000D02*
D03*
Y4725000D02*
D03*
X11557000Y2414200D02*
D03*
Y2564200D02*
D03*
D110*
X10870000Y2300000D02*
D03*
X11050000D02*
D03*
X12025800Y1932075D02*
D03*
X12205800D02*
D03*
D111*
X12350000Y2687500D02*
D03*
Y2457500D02*
D03*
D112*
X12082500Y2442500D02*
D03*
X12082500Y2507500D02*
D03*
X12082500Y2702501D02*
D03*
Y2572500D02*
D03*
Y2637500D02*
D03*
D113*
X10119215Y2500000D02*
D03*
Y2660000D02*
D03*
X11413351Y2580000D02*
D03*
Y2420000D02*
D03*
D114*
X2960000Y3380000D02*
D03*
X2898128Y3318128D02*
D03*
D115*
X6390843Y3900000D02*
D03*
X6426198Y3864645D02*
D03*
X6461553Y3829290D02*
D03*
X6496909Y3793934D02*
D03*
X6532264Y3758579D02*
D03*
X6567619Y3723224D02*
D03*
X6602974Y3687868D02*
D03*
X6638330Y3652513D02*
D03*
X6673685Y3617158D02*
D03*
X6709040Y3581803D02*
D03*
X6744395Y3546447D02*
D03*
X6779751Y3511092D02*
D03*
X6815106Y3475737D02*
D03*
X6850461Y3440381D02*
D03*
X6885817Y3405026D02*
D03*
X6921172Y3369671D02*
D03*
X6956527Y3334316D02*
D03*
X6991882Y3298961D02*
D03*
X7027238Y3263605D02*
D03*
X7062593Y3228250D02*
D03*
X7097948Y3192895D02*
D03*
X7133304Y3157540D02*
D03*
X7168659Y3122184D02*
D03*
X7204014Y3086829D02*
D03*
X7239370Y3051473D02*
D03*
X7274725Y3016118D02*
D03*
X7310080Y2980763D02*
D03*
X7345435Y2945408D02*
D03*
X7380790Y2910052D02*
D03*
X7416146Y2874697D02*
D03*
X7451501Y2839342D02*
D03*
X7486856Y2803987D02*
D03*
X7522212Y2768631D02*
D03*
X7557567Y2733276D02*
D03*
X7592922Y2697921D02*
D03*
X7628277Y2662566D02*
D03*
X6108000Y1142289D02*
D03*
X6072645Y1177644D02*
D03*
X6037289Y1212999D02*
D03*
X6001934Y1248354D02*
D03*
X5966579Y1283709D02*
D03*
X5931224Y1319065D02*
D03*
X5895868Y1354420D02*
D03*
X5860513Y1389775D02*
D03*
X5825158Y1425130D02*
D03*
X5789802Y1460486D02*
D03*
X5754447Y1495841D02*
D03*
X5719092Y1531196D02*
D03*
X5683737Y1566552D02*
D03*
X5648381Y1601907D02*
D03*
X5613026Y1637262D02*
D03*
X5577671Y1672617D02*
D03*
X5542316Y1707973D02*
D03*
X5506961Y1743328D02*
D03*
X5471605Y1778683D02*
D03*
X5436250Y1814038D02*
D03*
X5400894Y1849394D02*
D03*
X5365539Y1884749D02*
D03*
X5330184Y1920104D02*
D03*
X5294829Y1955459D02*
D03*
X5259474Y1990815D02*
D03*
X5224118Y2026170D02*
D03*
X5188763Y2061525D02*
D03*
X5153408Y2096880D02*
D03*
X5118053Y2132236D02*
D03*
X5082697Y2167591D02*
D03*
X5047342Y2202946D02*
D03*
X5011987Y2238302D02*
D03*
X4976631Y2273657D02*
D03*
X4941276Y2309012D02*
D03*
X4905921Y2344367D02*
D03*
X4870566Y2379723D02*
D03*
D116*
X4000000Y2500000D02*
D03*
D117*
X11726361Y2526360D02*
D03*
X11853640Y2653640D02*
D03*
D118*
X9122500Y2610000D02*
D03*
X9247500D02*
D03*
X9372500D02*
D03*
X9497500D02*
D03*
Y2390000D02*
D03*
X9372500D02*
D03*
X9247500D02*
D03*
X9122500D02*
D03*
D119*
X10660000Y4027499D02*
D03*
Y3792500D02*
D03*
D120*
X3845000Y2575000D02*
D03*
Y2525000D02*
D03*
Y2475000D02*
D03*
Y2425000D02*
D03*
X4155000D02*
D03*
Y2475000D02*
D03*
Y2525000D02*
D03*
Y2575000D02*
D03*
D121*
X3925000Y2345000D02*
D03*
X3975000D02*
D03*
X4025000D02*
D03*
X4075000D02*
D03*
Y2655000D02*
D03*
X4025000D02*
D03*
X3975000D02*
D03*
X3925000D02*
D03*
D122*
X10825000Y1970000D02*
D03*
X10975000D02*
D03*
X10825000Y2120000D02*
D03*
X10975000D02*
D03*
X2802075Y3650000D02*
D03*
X2652075D02*
D03*
D123*
X10637925Y2565000D02*
D03*
X10867925Y2565000D02*
D03*
X11097925Y2565000D02*
D03*
D124*
X10867925Y3175000D02*
D03*
D125*
X3090000Y3650000D02*
D03*
X2930000D02*
D03*
D126*
X12350004Y2233754D02*
D03*
X12349999Y2911247D02*
D03*
%TF.MD5,780bec1febfa9045cf3c4396012226f6*%
M02*
