%TF.GenerationSoftware,Altium Limited,Altium Designer,22.1.2 (22)*%
G04 Layer_Color=2752767*
%FSLAX45Y45*%
%MOMM*%
%TF.SameCoordinates,3CA235EB-07BA-4011-868A-CA015CDCDCF0*%
%TF.FilePolarity,Positive*%
%TF.FileFunction,Drawing*%
%TF.Part,Single*%
G01*
G75*
%TA.AperFunction,NonConductor*%
%ADD181C,0.12700*%
%ADD182C,0.16933*%
%ADD183C,0.10160*%
D181*
X6957200Y95200D02*
Y196800D01*
X7058800D01*
Y95200D01*
X6957200D01*
X7211200D02*
Y196800D01*
X7312800D01*
Y95200D01*
X7211200D01*
X7211200Y349200D02*
Y450800D01*
X7312800D01*
Y349200D01*
X7211200D01*
X7465200Y95200D02*
Y196800D01*
X7566800D01*
Y95200D01*
X7465200D01*
X7465200Y349200D02*
Y450800D01*
X7566800D01*
Y349200D01*
X7465200D01*
X12207200Y999200D02*
Y1100800D01*
X12308800D01*
Y999200D01*
X12207200D01*
X11953200D02*
Y1100800D01*
X12054800D01*
Y999200D01*
X11953200D01*
X11699200D02*
Y1100800D01*
X11800800D01*
Y999200D01*
X11699200D01*
X11445200D02*
Y1100800D01*
X11546800D01*
Y999200D01*
X11445200D01*
X835500Y1545200D02*
X784700Y1646800D01*
X886300D01*
X835500Y1545200D01*
X835500Y1672200D02*
X784700Y1773800D01*
X886300D01*
X835500Y1672200D01*
Y1799200D02*
X784700Y1900800D01*
X886300D01*
X835500Y1799200D01*
Y1926200D02*
X784700Y2027800D01*
X886300D01*
X835500Y1926200D01*
Y2053200D02*
X784700Y2154800D01*
X886300D01*
X835500Y2053200D01*
X581500Y1608700D02*
X530700Y1710300D01*
X632300D01*
X581500Y1608700D01*
X581500Y1735700D02*
X530700Y1837300D01*
X632300D01*
X581500Y1735700D01*
Y1862700D02*
X530700Y1964300D01*
X632300D01*
X581500Y1862700D01*
X581500Y1989700D02*
X530700Y2091300D01*
X632300D01*
X581500Y1989700D01*
X12350000Y2104200D02*
X12375400Y2129600D01*
X12400800D01*
X12375400Y2155000D01*
X12400800Y2180400D01*
X12375400D01*
X12350000Y2205800D01*
X12324600Y2180400D01*
X12299200D01*
X12324600Y2155000D01*
X12299200Y2129600D01*
X12324600D01*
X12350000Y2104200D01*
Y2939200D02*
X12375400Y2964600D01*
X12400800D01*
X12375400Y2990000D01*
X12400800Y3015400D01*
X12375400D01*
X12350000Y3040800D01*
X12324600Y3015400D01*
X12299200D01*
X12324600Y2990000D01*
X12299200Y2964600D01*
X12324600D01*
X12350000Y2939200D01*
X11999200Y2744200D02*
X12024600Y2795000D01*
X11999200Y2845800D01*
X12050000Y2820400D01*
X12100800Y2845800D01*
X12075400Y2795000D01*
X12100800Y2744200D01*
X12050000Y2769600D01*
X11999200Y2744200D01*
X11999200Y2299200D02*
X12024600Y2350000D01*
X11999200Y2400800D01*
X12050000Y2375400D01*
X12100800Y2400800D01*
X12075400Y2350000D01*
X12100800Y2299200D01*
X12050000Y2324600D01*
X11999200Y2299200D01*
X12207200Y1549200D02*
Y1650800D01*
X12308800D01*
Y1549200D01*
X12207200D01*
X11953200D02*
Y1650800D01*
X12054800D01*
Y1549200D01*
X11953200D01*
X11699200D02*
Y1650800D01*
X11800800D01*
Y1549200D01*
X11699200D01*
X11445200D02*
Y1650800D01*
X11546800D01*
Y1549200D01*
X11445200D01*
X12114600Y4004600D02*
Y3979200D01*
X12165400D01*
Y4004600D01*
X12190800D01*
Y4055400D01*
X12165400D01*
Y4080800D01*
X12114600D01*
Y4055400D01*
X12089200D01*
Y4004600D01*
X12114600D01*
Y3504600D02*
Y3479200D01*
X12165400D01*
Y3504600D01*
X12190800D01*
Y3555400D01*
X12165400D01*
Y3580800D01*
X12114600D01*
Y3555400D01*
X12089200D01*
Y3504600D01*
X12114600D01*
X3029200Y2469200D02*
X3054600D01*
X3080000Y2494600D01*
X3105400Y2469200D01*
X3130800D01*
Y2494600D01*
X3105400Y2520000D01*
X3130800Y2545400D01*
Y2570800D01*
X3105400D01*
X3080000Y2545400D01*
X3054600Y2570800D01*
X3029200D01*
Y2545400D01*
X3054600Y2520000D01*
X3029200Y2494600D01*
Y2469200D01*
X3283192Y2215192D02*
X3308592D01*
X3333992Y2240592D01*
X3359392Y2215192D01*
X3384792D01*
Y2240592D01*
X3359392Y2265992D01*
X3384792Y2291392D01*
Y2316792D01*
X3359392D01*
X3333992Y2291392D01*
X3308592Y2316792D01*
X3283192D01*
Y2291392D01*
X3308592Y2265992D01*
X3283192Y2240592D01*
Y2215192D01*
Y2723192D02*
X3308592D01*
X3333992Y2748592D01*
X3359392Y2723192D01*
X3384792D01*
Y2748592D01*
X3359392Y2773992D01*
X3384792Y2799392D01*
Y2824792D01*
X3359392D01*
X3333992Y2799392D01*
X3308592Y2824792D01*
X3283192D01*
Y2799392D01*
X3308592Y2773992D01*
X3283192Y2748592D01*
Y2723192D01*
X2775192D02*
X2800592D01*
X2825992Y2748592D01*
X2851392Y2723192D01*
X2876792D01*
Y2748592D01*
X2851392Y2773992D01*
X2876792Y2799392D01*
Y2824792D01*
X2851392D01*
X2825992Y2799392D01*
X2800592Y2824792D01*
X2775192D01*
Y2799392D01*
X2800592Y2773992D01*
X2775192Y2748592D01*
Y2723192D01*
Y2215192D02*
X2800592D01*
X2825992Y2240592D01*
X2851392Y2215192D01*
X2876792D01*
Y2240592D01*
X2851392Y2265992D01*
X2876792Y2291392D01*
Y2316792D01*
X2851392D01*
X2825992Y2291392D01*
X2800592Y2316792D01*
X2775192D01*
Y2291392D01*
X2800592Y2265992D01*
X2775192Y2240592D01*
Y2215192D01*
X5441200Y95200D02*
Y196800D01*
X5542800D01*
Y95200D01*
X5441200D01*
X6449200D02*
Y196800D01*
X6550800D01*
Y95200D01*
X6449200D01*
Y349200D02*
Y450800D01*
X6550800D01*
Y349200D01*
X6449200D01*
X6703200Y95200D02*
Y196800D01*
X6804800D01*
Y95200D01*
X6703200D01*
Y349200D02*
Y450800D01*
X6804800D01*
Y349200D01*
X6703200D01*
X6957200D02*
Y450800D01*
X7058800D01*
Y349200D01*
X6957200D01*
X7719200Y95200D02*
Y196800D01*
X7820800D01*
Y95200D01*
X7719200D01*
Y349200D02*
Y450800D01*
X7820800D01*
Y349200D01*
X7719200D01*
X7973200Y95200D02*
Y196800D01*
X8074800D01*
Y95200D01*
X7973200D01*
X7973200Y349200D02*
Y450800D01*
X8074800D01*
Y349200D01*
X7973200D01*
X8227200Y95200D02*
Y196800D01*
X8328800D01*
Y95200D01*
X8227200D01*
Y349200D02*
Y450800D01*
X8328800D01*
Y349200D01*
X8227200D01*
X8481200Y95200D02*
Y196800D01*
X8582800D01*
Y95200D01*
X8481200D01*
Y349200D02*
Y450800D01*
X8582800D01*
Y349200D01*
X8481200D01*
X8735200Y95200D02*
Y196800D01*
X8836800D01*
Y95200D01*
X8735200D01*
Y349200D02*
Y450800D01*
X8836800D01*
Y349200D01*
X8735200D01*
X8989200Y95200D02*
Y196800D01*
X9090800D01*
Y95200D01*
X8989200D01*
Y349200D02*
Y450800D01*
X9090800D01*
Y349200D01*
X8989200D01*
X9243200Y95200D02*
Y196800D01*
X9344800D01*
Y95200D01*
X9243200D01*
X9243200Y349200D02*
Y450800D01*
X9344800D01*
Y349200D01*
X9243200D01*
X9497200Y95200D02*
Y196800D01*
X9598800D01*
Y95200D01*
X9497200D01*
X9497200Y349200D02*
Y450800D01*
X9598800D01*
Y349200D01*
X9497200D01*
X9751200Y95200D02*
Y196800D01*
X9852800D01*
Y95200D01*
X9751200D01*
Y349200D02*
Y450800D01*
X9852800D01*
Y349200D01*
X9751200D01*
X10005200Y95200D02*
Y196800D01*
X10106800D01*
Y95200D01*
X10005200D01*
Y349200D02*
Y450800D01*
X10106800D01*
Y349200D01*
X10005200D01*
X10259200Y95200D02*
Y196800D01*
X10360800D01*
Y95200D01*
X10259200D01*
X10259200Y349200D02*
Y450800D01*
X10360800D01*
Y349200D01*
X10259200D01*
X10513200Y95200D02*
Y196800D01*
X10614800D01*
Y95200D01*
X10513200D01*
Y349200D02*
Y450800D01*
X10614800D01*
Y349200D01*
X10513200D01*
X10767200Y95200D02*
Y196800D01*
X10868800D01*
Y95200D01*
X10767200D01*
Y349200D02*
Y450800D01*
X10868800D01*
Y349200D01*
X10767200D01*
X1631200Y95200D02*
Y196800D01*
X1732800D01*
Y95200D01*
X1631200D01*
Y349200D02*
Y450800D01*
X1732800D01*
Y349200D01*
X1631200D01*
X1885200Y95200D02*
Y196800D01*
X1986800D01*
Y95200D01*
X1885200D01*
Y349200D02*
Y450800D01*
X1986800D01*
Y349200D01*
X1885200D01*
X2139201Y95200D02*
Y196800D01*
X2240801D01*
Y95200D01*
X2139201D01*
X2139200Y349200D02*
Y450800D01*
X2240800D01*
Y349200D01*
X2139200D01*
X2393200Y95200D02*
Y196800D01*
X2494800D01*
Y95200D01*
X2393200D01*
X2393200Y349200D02*
Y450800D01*
X2494800D01*
Y349200D01*
X2393200D01*
X2647200Y95200D02*
Y196800D01*
X2748800D01*
Y95200D01*
X2647200D01*
X2647200Y349200D02*
Y450800D01*
X2748800D01*
Y349200D01*
X2647200D01*
X2901200Y95200D02*
Y196800D01*
X3002800D01*
Y95200D01*
X2901200D01*
Y349200D02*
Y450800D01*
X3002800D01*
Y349200D01*
X2901200D01*
X3155200Y95200D02*
Y196800D01*
X3256800D01*
Y95200D01*
X3155200D01*
X3155200Y349200D02*
Y450800D01*
X3256800D01*
Y349200D01*
X3155200D01*
X3409200Y95200D02*
Y196800D01*
X3510800D01*
Y95200D01*
X3409200D01*
X3409200Y349200D02*
Y450800D01*
X3510800D01*
Y349200D01*
X3409200D01*
X3663200Y95200D02*
Y196800D01*
X3764800D01*
Y95200D01*
X3663200D01*
Y349200D02*
Y450800D01*
X3764800D01*
Y349200D01*
X3663200D01*
X3917200Y95200D02*
Y196800D01*
X4018800D01*
Y95200D01*
X3917200D01*
Y349200D02*
Y450800D01*
X4018800D01*
Y349200D01*
X3917200D01*
X4171200Y95200D02*
Y196800D01*
X4272800D01*
Y95200D01*
X4171200D01*
Y349200D02*
Y450800D01*
X4272800D01*
Y349200D01*
X4171200D01*
X4425201Y95200D02*
Y196800D01*
X4526801D01*
Y95200D01*
X4425201D01*
X4425200Y349200D02*
Y450800D01*
X4526800D01*
Y349200D01*
X4425200D01*
X4679200Y95200D02*
Y196800D01*
X4780800D01*
Y95200D01*
X4679200D01*
X4679200Y349200D02*
Y450800D01*
X4780800D01*
Y349200D01*
X4679200D01*
X4933200Y95200D02*
Y196800D01*
X5034800D01*
Y95200D01*
X4933200D01*
Y349200D02*
Y450800D01*
X5034800D01*
Y349200D01*
X4933200D01*
X5187200Y95200D02*
Y196800D01*
X5288800D01*
Y95200D01*
X5187200D01*
Y349200D02*
Y450800D01*
X5288800D01*
Y349200D01*
X5187200D01*
X5441200D02*
Y450800D01*
X5542800D01*
Y349200D01*
X5441200D01*
X5695200Y95200D02*
Y196800D01*
X5796800D01*
Y95200D01*
X5695200D01*
X5695200Y349200D02*
Y450800D01*
X5796800D01*
Y349200D01*
X5695200D01*
X5949200Y95200D02*
Y196800D01*
X6050800D01*
Y95200D01*
X5949200D01*
X5949200Y349200D02*
Y450800D01*
X6050800D01*
Y349200D01*
X5949200D01*
X4178200Y1849200D02*
Y1950800D01*
X4279800D01*
Y1849200D01*
X4178200D01*
Y1595200D02*
Y1696800D01*
X4279800D01*
Y1595200D01*
X4178200D01*
X3924200Y1849200D02*
Y1950800D01*
X4025800D01*
Y1849200D01*
X3924200D01*
Y1595200D02*
Y1696800D01*
X4025800D01*
Y1595200D01*
X3924200D01*
X3670200Y1849200D02*
Y1950800D01*
X3771800D01*
Y1849200D01*
X3670200D01*
Y1595200D02*
Y1696800D01*
X3771800D01*
Y1595200D01*
X3670200D01*
X10949200Y1549200D02*
Y1650800D01*
X11050800D01*
Y1549200D01*
X10949200D01*
X10695200D02*
Y1650800D01*
X10796800D01*
Y1549200D01*
X10695200D01*
X10441200D02*
Y1650800D01*
X10542800D01*
Y1549200D01*
X10441200D01*
X10187200D02*
Y1650800D01*
X10288800D01*
Y1549200D01*
X10187200D01*
X10949200Y999200D02*
Y1100800D01*
X11050800D01*
Y999200D01*
X10949200D01*
X10695200D02*
Y1100800D01*
X10796800D01*
Y999200D01*
X10695200D01*
X10441200D02*
Y1100800D01*
X10542800D01*
Y999200D01*
X10441200D01*
X10187200D02*
Y1100800D01*
X10288800D01*
Y999200D01*
X10187200D01*
X6449200Y4545200D02*
Y4646800D01*
X6550800D01*
Y4545200D01*
X6449200D01*
X6449200Y4799200D02*
Y4900800D01*
X6550800D01*
Y4799200D01*
X6449200D01*
X6703200Y4545200D02*
Y4646800D01*
X6804800D01*
Y4545200D01*
X6703200D01*
Y4799200D02*
Y4900800D01*
X6804800D01*
Y4799200D01*
X6703200D01*
X6957200Y4545200D02*
Y4646800D01*
X7058800D01*
Y4545200D01*
X6957200D01*
X6957200Y4799200D02*
Y4900800D01*
X7058800D01*
Y4799200D01*
X6957200D01*
X7211200Y4545200D02*
Y4646800D01*
X7312800D01*
Y4545200D01*
X7211200D01*
Y4799200D02*
Y4900800D01*
X7312800D01*
Y4799200D01*
X7211200D01*
X7465200Y4545200D02*
Y4646800D01*
X7566800D01*
Y4545200D01*
X7465200D01*
Y4799200D02*
Y4900800D01*
X7566800D01*
Y4799200D01*
X7465200D01*
X7719200Y4545200D02*
Y4646800D01*
X7820800D01*
Y4545200D01*
X7719200D01*
X7719200Y4799200D02*
Y4900800D01*
X7820800D01*
Y4799200D01*
X7719200D01*
X7973200Y4545200D02*
Y4646800D01*
X8074800D01*
Y4545200D01*
X7973200D01*
X7973200Y4799200D02*
Y4900800D01*
X8074800D01*
Y4799200D01*
X7973200D01*
X8227200Y4545200D02*
Y4646800D01*
X8328800D01*
Y4545200D01*
X8227200D01*
Y4799200D02*
Y4900800D01*
X8328800D01*
Y4799200D01*
X8227200D01*
X8481200Y4545200D02*
Y4646800D01*
X8582800D01*
Y4545200D01*
X8481200D01*
Y4799200D02*
Y4900800D01*
X8582800D01*
Y4799200D01*
X8481200D01*
X8735200Y4545200D02*
Y4646800D01*
X8836800D01*
Y4545200D01*
X8735200D01*
X8735200Y4799200D02*
Y4900800D01*
X8836800D01*
Y4799200D01*
X8735200D01*
X8989200Y4545200D02*
Y4646800D01*
X9090800D01*
Y4545200D01*
X8989200D01*
Y4799200D02*
Y4900800D01*
X9090800D01*
Y4799200D01*
X8989200D01*
X9243200Y4545200D02*
Y4646800D01*
X9344800D01*
Y4545200D01*
X9243200D01*
X9243200Y4799200D02*
Y4900800D01*
X9344800D01*
Y4799200D01*
X9243200D01*
X9497200Y4545200D02*
Y4646800D01*
X9598800D01*
Y4545200D01*
X9497200D01*
Y4799200D02*
Y4900800D01*
X9598800D01*
Y4799200D01*
X9497200D01*
X9751200Y4545200D02*
Y4646800D01*
X9852800D01*
Y4545200D01*
X9751200D01*
X9751200Y4799200D02*
Y4900800D01*
X9852800D01*
Y4799200D01*
X9751200D01*
X10005200Y4545200D02*
Y4646800D01*
X10106800D01*
Y4545200D01*
X10005200D01*
X10005200Y4799200D02*
Y4900800D01*
X10106800D01*
Y4799200D01*
X10005200D01*
X10259200Y4545200D02*
Y4646800D01*
X10360800D01*
Y4545200D01*
X10259200D01*
Y4799200D02*
Y4900800D01*
X10360800D01*
Y4799200D01*
X10259200D01*
X10513200Y4545200D02*
Y4646800D01*
X10614800D01*
Y4545200D01*
X10513200D01*
Y4799200D02*
Y4900800D01*
X10614800D01*
Y4799200D01*
X10513200D01*
X10767200Y4545200D02*
Y4646800D01*
X10868800D01*
Y4545200D01*
X10767200D01*
Y4799200D02*
Y4900800D01*
X10868800D01*
Y4799200D01*
X10767200D01*
X1631200Y4545200D02*
Y4646800D01*
X1732800D01*
Y4545200D01*
X1631200D01*
Y4799200D02*
Y4900800D01*
X1732800D01*
Y4799200D01*
X1631200D01*
X1885200Y4545200D02*
Y4646800D01*
X1986800D01*
Y4545200D01*
X1885200D01*
X1885200Y4799200D02*
Y4900800D01*
X1986800D01*
Y4799200D01*
X1885200D01*
X2139200Y4545200D02*
Y4646800D01*
X2240800D01*
Y4545200D01*
X2139200D01*
Y4799200D02*
Y4900800D01*
X2240800D01*
Y4799200D01*
X2139200D01*
X2393200Y4545200D02*
Y4646800D01*
X2494800D01*
Y4545200D01*
X2393200D01*
Y4799200D02*
Y4900800D01*
X2494800D01*
Y4799200D01*
X2393200D01*
X2647200Y4545200D02*
Y4646800D01*
X2748800D01*
Y4545200D01*
X2647200D01*
Y4799200D02*
Y4900800D01*
X2748800D01*
Y4799200D01*
X2647200D01*
X2901200Y4545200D02*
Y4646800D01*
X3002800D01*
Y4545200D01*
X2901200D01*
X2901200Y4799200D02*
Y4900800D01*
X3002800D01*
Y4799200D01*
X2901200D01*
X3155200Y4545200D02*
Y4646800D01*
X3256800D01*
Y4545200D01*
X3155200D01*
X3155200Y4799200D02*
Y4900800D01*
X3256800D01*
Y4799200D01*
X3155200D01*
X3409200Y4545200D02*
Y4646800D01*
X3510800D01*
Y4545200D01*
X3409200D01*
Y4799200D02*
Y4900800D01*
X3510800D01*
Y4799200D01*
X3409200D01*
X3663200Y4545200D02*
Y4646800D01*
X3764800D01*
Y4545200D01*
X3663200D01*
Y4799200D02*
Y4900800D01*
X3764800D01*
Y4799200D01*
X3663200D01*
X3917200Y4545200D02*
Y4646800D01*
X4018800D01*
Y4545200D01*
X3917200D01*
Y4799200D02*
Y4900800D01*
X4018800D01*
Y4799200D01*
X3917200D01*
X4171200Y4545200D02*
Y4646800D01*
X4272800D01*
Y4545200D01*
X4171200D01*
X4171200Y4799200D02*
Y4900800D01*
X4272800D01*
Y4799200D01*
X4171200D01*
X4425200Y4545200D02*
Y4646800D01*
X4526800D01*
Y4545200D01*
X4425200D01*
Y4799200D02*
Y4900800D01*
X4526800D01*
Y4799200D01*
X4425200D01*
X4679200Y4545200D02*
Y4646800D01*
X4780800D01*
Y4545200D01*
X4679200D01*
Y4799200D02*
Y4900800D01*
X4780800D01*
Y4799200D01*
X4679200D01*
X4933200Y4545200D02*
Y4646800D01*
X5034800D01*
Y4545200D01*
X4933200D01*
Y4799200D02*
Y4900800D01*
X5034800D01*
Y4799200D01*
X4933200D01*
X5187200Y4545200D02*
Y4646800D01*
X5288800D01*
Y4545200D01*
X5187200D01*
Y4799200D02*
Y4900800D01*
X5288800D01*
Y4799200D01*
X5187200D01*
X5441200Y4545200D02*
Y4646800D01*
X5542800D01*
Y4545200D01*
X5441200D01*
X5441200Y4799200D02*
Y4900800D01*
X5542800D01*
Y4799200D01*
X5441200D01*
X5695200Y4545200D02*
Y4646800D01*
X5796800D01*
Y4545200D01*
X5695200D01*
Y4799200D02*
Y4900800D01*
X5796800D01*
Y4799200D01*
X5695200D01*
X5949200Y4545200D02*
Y4646800D01*
X6050800D01*
Y4545200D01*
X5949200D01*
Y4799200D02*
Y4900800D01*
X6050800D01*
Y4799200D01*
X5949200D01*
X1129200Y1210000D02*
X1180000Y1260800D01*
X1230800Y1210000D01*
X1180000Y1159200D01*
X1129200Y1210000D01*
X8829200Y2719200D02*
Y2820800D01*
X8930800D01*
Y2719200D01*
X8829200D01*
X8849520Y2739520D02*
Y2800480D01*
X8910480D01*
Y2739520D01*
X8849520D01*
X8519200Y2439200D02*
Y2540800D01*
X8620800D01*
Y2439200D01*
X8519200D01*
X8539520Y2459520D02*
Y2520480D01*
X8600480D01*
Y2459520D01*
X8539520D01*
X8669200Y2719200D02*
Y2820800D01*
X8770800D01*
Y2719200D01*
X8669200D01*
X8689520Y2739520D02*
Y2800480D01*
X8750480D01*
Y2739520D01*
X8689520D01*
X8749200Y2359200D02*
Y2460800D01*
X8850800D01*
Y2359200D01*
X8749200D01*
X8769520Y2379520D02*
Y2440480D01*
X8830480D01*
Y2379520D01*
X8769520D01*
X8009200Y2659200D02*
Y2760800D01*
X8110800D01*
Y2659200D01*
X8009200D01*
X8029520Y2679520D02*
Y2740480D01*
X8090480D01*
Y2679520D01*
X8029520D01*
X8309200Y2449200D02*
Y2550800D01*
X8410800D01*
Y2449200D01*
X8309200D01*
X8329520Y2469520D02*
Y2530480D01*
X8390480D01*
Y2469520D01*
X8329520D01*
X7849200Y2379200D02*
Y2480800D01*
X7950800D01*
Y2379200D01*
X7849200D01*
X7869520Y2399520D02*
Y2460480D01*
X7930480D01*
Y2399520D01*
X7869520D01*
X7849200Y2179200D02*
Y2280800D01*
X7950800D01*
Y2179200D01*
X7849200D01*
X7869520Y2199520D02*
Y2260480D01*
X7930480D01*
Y2199520D01*
X7869520D01*
X6969200Y2669200D02*
Y2770800D01*
X7070800D01*
Y2669200D01*
X6969200D01*
X6989520Y2689520D02*
Y2750480D01*
X7050480D01*
Y2689520D01*
X6989520D01*
X7079200Y2139200D02*
Y2240800D01*
X7180800D01*
Y2139200D01*
X7079200D01*
X7099520Y2159520D02*
Y2220480D01*
X7160480D01*
Y2159520D01*
X7099520D01*
X7269200Y2249200D02*
Y2350800D01*
X7370800D01*
Y2249200D01*
X7269200D01*
X7289520Y2269520D02*
Y2330480D01*
X7350480D01*
Y2269520D01*
X7289520D01*
X7189200Y2319200D02*
Y2420800D01*
X7290800D01*
Y2319200D01*
X7189200D01*
X7209520Y2339520D02*
Y2400480D01*
X7270480D01*
Y2339520D01*
X7209520D01*
X7849200Y2279200D02*
Y2380800D01*
X7950800D01*
Y2279200D01*
X7849200D01*
X7869520Y2299520D02*
Y2360480D01*
X7930480D01*
Y2299520D01*
X7869520D01*
X6579200Y1719200D02*
Y1820800D01*
X6680800D01*
Y1719200D01*
X6579200D01*
X6599520Y1739520D02*
Y1800480D01*
X6660480D01*
Y1739520D01*
X6599520D01*
X6749200Y1719200D02*
Y1820800D01*
X6850800D01*
Y1719200D01*
X6749200D01*
X6769520Y1739520D02*
Y1800480D01*
X6830480D01*
Y1739520D01*
X6769520D01*
X1225768Y1636568D02*
X1276568Y1687368D01*
X1327368Y1636568D01*
X1276568Y1585768D01*
X1225768Y1636568D01*
X1329200Y1579200D02*
Y1680800D01*
X1430800D01*
Y1579200D01*
X1329200D01*
X1349520Y1599520D02*
Y1660480D01*
X1410480D01*
Y1599520D01*
X1349520D01*
X3489200Y1430000D02*
X3540000Y1480800D01*
X3590800Y1430000D01*
X3540000Y1379200D01*
X3489200Y1430000D01*
X6109209Y1286700D02*
Y1388300D01*
X6210809D01*
Y1286700D01*
X6109209D01*
X6129529Y1307020D02*
Y1367980D01*
X6190489D01*
Y1307020D01*
X6129529D01*
X6319200Y1279200D02*
Y1380800D01*
X6420800D01*
Y1279200D01*
X6319200D01*
X6339520Y1299520D02*
Y1360480D01*
X6400480D01*
Y1299520D01*
X6339520D01*
X9919200Y1620000D02*
X9970000Y1670800D01*
X10020800Y1620000D01*
X9970000Y1569200D01*
X9919200Y1620000D01*
X9999200Y1919200D02*
Y2020800D01*
X10100800D01*
Y1919200D01*
X9999200D01*
X10019520Y1939520D02*
Y2000480D01*
X10080480D01*
Y1939520D01*
X10019520D01*
X989200Y2780000D02*
X1040000Y2830800D01*
X1090800Y2780000D01*
X1040000Y2729200D01*
X989200Y2780000D01*
X3679200Y2469200D02*
Y2570800D01*
X3780800D01*
Y2469200D01*
X3679200D01*
X3699520Y2489520D02*
Y2550480D01*
X3760480D01*
Y2489520D01*
X3699520D01*
X3479200Y2070000D02*
X3530000Y2120800D01*
X3580800Y2070000D01*
X3530000Y2019200D01*
X3479200Y2070000D01*
X2469200Y2179200D02*
Y2280800D01*
X2570800D01*
Y2179200D01*
X2469200D01*
X2489520Y2199520D02*
Y2260480D01*
X2550480D01*
Y2199520D01*
X2489520D01*
X8049200Y3170000D02*
X8100000Y3220800D01*
X8150800Y3170000D01*
X8100000Y3119200D01*
X8049200Y3170000D01*
X8319200D02*
X8370000Y3220800D01*
X8420800Y3170000D01*
X8370000Y3119200D01*
X8319200Y3170000D01*
X6939200Y2819200D02*
Y2920800D01*
X7040800D01*
Y2819200D01*
X6939200D01*
X6959520Y2839520D02*
Y2900480D01*
X7020480D01*
Y2839520D01*
X6959520D01*
X9639200Y3350000D02*
X9690000Y3400800D01*
X9740800Y3350000D01*
X9690000Y3299200D01*
X9639200Y3350000D01*
X10469200D02*
X10520000Y3400800D01*
X10570800Y3350000D01*
X10520000Y3299200D01*
X10469200Y3350000D01*
X9510465Y2510465D02*
Y2612065D01*
X9612065D01*
Y2510465D01*
X9510465D01*
X9530785Y2530785D02*
Y2591745D01*
X9591745D01*
Y2530785D01*
X9530785D01*
X10049200Y2069200D02*
Y2170800D01*
X10150800D01*
Y2069200D01*
X10049200D01*
X10069520Y2089520D02*
Y2150480D01*
X10130480D01*
Y2089520D01*
X10069520D01*
X6559200Y3289200D02*
Y3390800D01*
X6660800D01*
Y3289200D01*
X6559200D01*
X6579520Y3309520D02*
Y3370480D01*
X6640480D01*
Y3309520D01*
X6579520D01*
X6549200Y3070000D02*
X6600000Y3120800D01*
X6650800Y3070000D01*
X6600000Y3019200D01*
X6549200Y3070000D01*
X6709200Y3174200D02*
Y3275800D01*
X6810800D01*
Y3174200D01*
X6709200D01*
X6729520Y3194520D02*
Y3255480D01*
X6790480D01*
Y3194520D01*
X6729520D01*
X6787178Y3029200D02*
Y3130800D01*
X6888778D01*
Y3029200D01*
X6787178D01*
X6807498Y3049520D02*
Y3110480D01*
X6868458D01*
Y3049520D01*
X6807498D01*
X6634240Y3224160D02*
Y3325760D01*
X6735840D01*
Y3224160D01*
X6634240D01*
X6654560Y3244480D02*
Y3305440D01*
X6715520D01*
Y3244480D01*
X6654560D01*
X6689200Y2899200D02*
Y3000800D01*
X6790800D01*
Y2899200D01*
X6689200D01*
X6709520Y2919520D02*
Y2980480D01*
X6770480D01*
Y2919520D01*
X6709520D01*
X6929200Y3029200D02*
Y3130800D01*
X7030800D01*
Y3029200D01*
X6929200D01*
X6949520Y3049520D02*
Y3110480D01*
X7010480D01*
Y3049520D01*
X6949520D01*
X5769200Y3011700D02*
Y3113300D01*
X5870800D01*
Y3011700D01*
X5769200D01*
X5789520Y3032020D02*
Y3092980D01*
X5850480D01*
Y3032020D01*
X5789520D01*
X11289200Y1850000D02*
X11340000Y1900800D01*
X11390800Y1850000D01*
X11340000Y1799200D01*
X11289200Y1850000D01*
X2699200Y1671700D02*
Y1773300D01*
X2800800D01*
Y1671700D01*
X2699200D01*
X2719520Y1692020D02*
Y1752980D01*
X2780480D01*
Y1692020D01*
X2719520D01*
X2539200Y1629200D02*
Y1730800D01*
X2640800D01*
Y1629200D01*
X2539200D01*
X2559520Y1649520D02*
Y1710480D01*
X2620480D01*
Y1649520D01*
X2559520D01*
X2329200Y1719200D02*
Y1820800D01*
X2430800D01*
Y1719200D01*
X2329200D01*
X2349520Y1739520D02*
Y1800480D01*
X2410480D01*
Y1739520D01*
X2349520D01*
X1949200Y1719200D02*
Y1820800D01*
X2050800D01*
Y1719200D01*
X1949200D01*
X1969520Y1739520D02*
Y1800480D01*
X2030480D01*
Y1739520D01*
X1969520D01*
X2199200Y1719200D02*
Y1820800D01*
X2300800D01*
Y1719200D01*
X2199200D01*
X2219520Y1739520D02*
Y1800480D01*
X2280480D01*
Y1739520D01*
X2219520D01*
X2079200Y1719200D02*
Y1820800D01*
X2180800D01*
Y1719200D01*
X2079200D01*
X2099520Y1739520D02*
Y1800480D01*
X2160480D01*
Y1739520D01*
X2099520D01*
X2208994Y1979198D02*
Y2080798D01*
X2310594D01*
Y1979198D01*
X2208994D01*
X2229314Y1999518D02*
Y2060478D01*
X2290274D01*
Y1999518D01*
X2229314D01*
X1819200Y1979200D02*
Y2080800D01*
X1920800D01*
Y1979200D01*
X1819200D01*
X1839520Y1999520D02*
Y2060480D01*
X1900480D01*
Y1999520D01*
X1839520D01*
X2470116Y1820606D02*
Y1922206D01*
X2571716D01*
Y1820606D01*
X2470116D01*
X2490436Y1840926D02*
Y1901886D01*
X2551396D01*
Y1840926D01*
X2490436D01*
X2832935Y1202935D02*
Y1304535D01*
X2934535D01*
Y1202935D01*
X2832935D01*
X2853255Y1223255D02*
Y1284215D01*
X2914215D01*
Y1223255D01*
X2853255D01*
X2559200Y1249200D02*
Y1350800D01*
X2660800D01*
Y1249200D01*
X2559200D01*
X2579520Y1269520D02*
Y1330480D01*
X2640480D01*
Y1269520D01*
X2579520D01*
X2459200Y1289200D02*
Y1390800D01*
X2560800D01*
Y1289200D01*
X2459200D01*
X2479520Y1309520D02*
Y1370480D01*
X2540480D01*
Y1309520D01*
X2479520D01*
X2739200Y1209200D02*
Y1310800D01*
X2840800D01*
Y1209200D01*
X2739200D01*
X2759520Y1229520D02*
Y1290480D01*
X2820480D01*
Y1229520D01*
X2759520D01*
X2456685Y1089215D02*
Y1190815D01*
X2558285D01*
Y1089215D01*
X2456685D01*
X2477005Y1109535D02*
Y1170495D01*
X2537965D01*
Y1109535D01*
X2477005D01*
X2469169Y931700D02*
Y1033300D01*
X2570769D01*
Y931700D01*
X2469169D01*
X2489489Y952020D02*
Y1012980D01*
X2550449D01*
Y952020D01*
X2489489D01*
X5859200Y3199200D02*
Y3300800D01*
X5960800D01*
Y3199200D01*
X5859200D01*
X5879520Y3219520D02*
Y3280480D01*
X5940480D01*
Y3219520D01*
X5879520D01*
X2009199Y3799200D02*
Y3900800D01*
X2110799D01*
Y3799200D01*
X2009199D01*
X2029519Y3819520D02*
Y3880480D01*
X2090479D01*
Y3819520D01*
X2029519D01*
X5774136Y3174136D02*
Y3275736D01*
X5875736D01*
Y3174136D01*
X5774136D01*
X5794456Y3194456D02*
Y3255416D01*
X5855416D01*
Y3194456D01*
X5794456D01*
X2329200Y771699D02*
Y873299D01*
X2430800D01*
Y771699D01*
X2329200D01*
X2349520Y792019D02*
Y852979D01*
X2410480D01*
Y792019D01*
X2349520D01*
X2203200Y783200D02*
Y884800D01*
X2304800D01*
Y783200D01*
X2203200D01*
X2223520Y803520D02*
Y864480D01*
X2284480D01*
Y803520D01*
X2223520D01*
X2076200Y779200D02*
Y880800D01*
X2177800D01*
Y779200D01*
X2076200D01*
X2096520Y799520D02*
Y860480D01*
X2157480D01*
Y799520D01*
X2096520D01*
X1949200Y779200D02*
Y880800D01*
X2050800D01*
Y779200D01*
X1949200D01*
X1969520Y799520D02*
Y860480D01*
X2030480D01*
Y799520D01*
X1969520D01*
X1949200Y1029200D02*
Y1130800D01*
X2050800D01*
Y1029200D01*
X1949200D01*
X1969520Y1049520D02*
Y1110480D01*
X2030480D01*
Y1049520D01*
X1969520D01*
X1899200Y2880000D02*
X1950000Y2930800D01*
X2000800Y2880000D01*
X1950000Y2829200D01*
X1899200Y2880000D01*
X1479200Y2829200D02*
Y2930800D01*
X1580800D01*
Y2829200D01*
X1479200D01*
X1499520Y2849520D02*
Y2910480D01*
X1560480D01*
Y2849520D01*
X1499520D01*
X1669200Y2470000D02*
X1720000Y2520800D01*
X1770800Y2470000D01*
X1720000Y2419200D01*
X1669200Y2470000D01*
X1499200Y2449200D02*
Y2550800D01*
X1600800D01*
Y2449200D01*
X1499200D01*
X1519520Y2469520D02*
Y2530480D01*
X1580480D01*
Y2469520D01*
X1519520D01*
X1119200Y2160000D02*
X1170000Y2210800D01*
X1220800Y2160000D01*
X1170000Y2109200D01*
X1119200Y2160000D01*
X6699200Y2179200D02*
Y2280800D01*
X6800800D01*
Y2179200D01*
X6699200D01*
X6719520Y2199520D02*
Y2260480D01*
X6780480D01*
Y2199520D01*
X6719520D01*
X6689200Y2730000D02*
X6740000Y2780800D01*
X6790800Y2730000D01*
X6740000Y2679200D01*
X6689200Y2730000D01*
X7259200Y2659200D02*
Y2760800D01*
X7360800D01*
Y2659200D01*
X7259200D01*
X7279520Y2679520D02*
Y2740480D01*
X7340480D01*
Y2679520D01*
X7279520D01*
X5169200Y2699200D02*
Y2800800D01*
X5270800D01*
Y2699200D01*
X5169200D01*
X5189520Y2719520D02*
Y2780480D01*
X5250480D01*
Y2719520D01*
X5189520D01*
X5089200Y2619200D02*
Y2720800D01*
X5190800D01*
Y2619200D01*
X5089200D01*
X5109520Y2639520D02*
Y2700480D01*
X5170480D01*
Y2639520D01*
X5109520D01*
X2209096Y1029096D02*
Y1130696D01*
X2310696D01*
Y1029096D01*
X2209096D01*
X2229416Y1049416D02*
Y1110376D01*
X2290376D01*
Y1049416D01*
X2229416D01*
X2329200Y1029200D02*
Y1130800D01*
X2430800D01*
Y1029200D01*
X2329200D01*
X2349520Y1049520D02*
Y1110480D01*
X2410480D01*
Y1049520D01*
X2349520D01*
X2329200Y1979200D02*
Y2080800D01*
X2430800D01*
Y1979200D01*
X2329200D01*
X2349520Y1999520D02*
Y2060480D01*
X2410480D01*
Y1999520D01*
X2349520D01*
X1219200Y629200D02*
Y730800D01*
X1320800D01*
Y629200D01*
X1219200D01*
X1239520Y649520D02*
Y710480D01*
X1300480D01*
Y649520D01*
X1239520D01*
X779200Y1139200D02*
Y1240800D01*
X880800D01*
Y1139200D01*
X779200D01*
X799520Y1159520D02*
Y1220480D01*
X860480D01*
Y1159520D01*
X799520D01*
X779200Y1289200D02*
Y1390800D01*
X880800D01*
Y1289200D01*
X779200D01*
X799520Y1309520D02*
Y1370480D01*
X860480D01*
Y1309520D01*
X799520D01*
X759200Y2209200D02*
Y2310800D01*
X860800D01*
Y2209200D01*
X759200D01*
X779520Y2229520D02*
Y2290480D01*
X840480D01*
Y2229520D01*
X779520D01*
X759200Y2359200D02*
Y2460800D01*
X860800D01*
Y2359200D01*
X759200D01*
X779520Y2379520D02*
Y2440480D01*
X840480D01*
Y2379520D01*
X779520D01*
X1699200Y1029200D02*
Y1130800D01*
X1800800D01*
Y1029200D01*
X1699200D01*
X1719520Y1049520D02*
Y1110480D01*
X1780480D01*
Y1049520D01*
X1719520D01*
X5619200Y2030000D02*
X5670000Y2080800D01*
X5720800Y2030000D01*
X5670000Y1979200D01*
X5619200Y2030000D01*
X5469200Y1989200D02*
Y2090800D01*
X5570800D01*
Y1989200D01*
X5469200D01*
X5489520Y2009520D02*
Y2070480D01*
X5550480D01*
Y2009520D01*
X5489520D01*
X5734304Y1984304D02*
Y2085904D01*
X5835904D01*
Y1984304D01*
X5734304D01*
X5754624Y2004624D02*
Y2065584D01*
X5815584D01*
Y2004624D01*
X5754624D01*
X7169200Y2219200D02*
Y2320800D01*
X7270800D01*
Y2219200D01*
X7169200D01*
X7189520Y2239520D02*
Y2300480D01*
X7250480D01*
Y2239520D01*
X7189520D01*
X2349200Y2500000D02*
X2400000Y2550800D01*
X2450800Y2500000D01*
X2400000Y2449200D01*
X2349200Y2500000D01*
X3699200Y2189200D02*
Y2290800D01*
X3800800D01*
Y2189200D01*
X3699200D01*
X3719520Y2209520D02*
Y2270480D01*
X3780480D01*
Y2209520D01*
X3719520D01*
X1119200Y1579200D02*
Y1680800D01*
X1220800D01*
Y1579200D01*
X1119200D01*
X1139520Y1599520D02*
Y1660480D01*
X1200480D01*
Y1599520D01*
X1139520D01*
X1119200Y629200D02*
Y730800D01*
X1220800D01*
Y629200D01*
X1119200D01*
X1139520Y649520D02*
Y710480D01*
X1200480D01*
Y649520D01*
X1139520D01*
X1319200Y629200D02*
Y730800D01*
X1420800D01*
Y629200D01*
X1319200D01*
X1339520Y649520D02*
Y710480D01*
X1400480D01*
Y649520D01*
X1339520D01*
X2079200Y1979200D02*
Y2080800D01*
X2180800D01*
Y1979200D01*
X2079200D01*
X2099520Y1999520D02*
Y2060480D01*
X2160480D01*
Y1999520D01*
X2099520D01*
X1569200Y1979200D02*
Y2080800D01*
X1670800D01*
Y1979200D01*
X1569200D01*
X1589520Y1999520D02*
Y2060480D01*
X1650480D01*
Y1999520D01*
X1589520D01*
X1699200Y1979200D02*
Y2080800D01*
X1800800D01*
Y1979200D01*
X1699200D01*
X1719520Y1999520D02*
Y2060480D01*
X1780480D01*
Y1999520D01*
X1719520D01*
X1949200Y1979200D02*
Y2080800D01*
X2050800D01*
Y1979200D01*
X1949200D01*
X1969520Y1999520D02*
Y2060480D01*
X2030480D01*
Y1999520D01*
X1969520D01*
X1819200Y1029200D02*
Y1130800D01*
X1920800D01*
Y1029200D01*
X1819200D01*
X1839520Y1049520D02*
Y1110480D01*
X1900480D01*
Y1049520D01*
X1839520D01*
X2079200Y1029200D02*
Y1130800D01*
X2180800D01*
Y1029200D01*
X2079200D01*
X2099520Y1049520D02*
Y1110480D01*
X2160480D01*
Y1049520D01*
X2099520D01*
X7199200Y2719200D02*
Y2820800D01*
X7300800D01*
Y2719200D01*
X7199200D01*
X7219520Y2739520D02*
Y2800480D01*
X7280480D01*
Y2739520D01*
X7219520D01*
X8379200Y1949200D02*
Y2050800D01*
X8480800D01*
Y1949200D01*
X8379200D01*
X8399520Y1969520D02*
Y2030480D01*
X8460480D01*
Y1969520D01*
X8399520D01*
X9709200Y1209200D02*
Y1310800D01*
X9810800D01*
Y1209200D01*
X9709200D01*
X9729520Y1229520D02*
Y1290480D01*
X9790480D01*
Y1229520D01*
X9729520D01*
X10949200Y759200D02*
Y860800D01*
X11050800D01*
Y759200D01*
X10949200D01*
X10969520Y779520D02*
Y840480D01*
X11030480D01*
Y779520D01*
X10969520D01*
X7339200Y2639200D02*
Y2740800D01*
X7440800D01*
Y2639200D01*
X7339200D01*
X7359520Y2659520D02*
Y2720480D01*
X7420480D01*
Y2659520D01*
X7359520D01*
X7099200Y2049200D02*
Y2150800D01*
X7200800D01*
Y2049200D01*
X7099200D01*
X7119520Y2069520D02*
Y2130480D01*
X7180480D01*
Y2069520D01*
X7119520D01*
X7389246Y2574269D02*
Y2675869D01*
X7490846D01*
Y2574269D01*
X7389246D01*
X7409566Y2594589D02*
Y2655549D01*
X7470526D01*
Y2594589D01*
X7409566D01*
X8969200Y3389200D02*
Y3490800D01*
X9070800D01*
Y3389200D01*
X8969200D01*
X8989520Y3409520D02*
Y3470480D01*
X9050480D01*
Y3409520D01*
X8989520D01*
X6449200Y4019200D02*
Y4120800D01*
X6550800D01*
Y4019200D01*
X6449200D01*
X6469520Y4039520D02*
Y4100480D01*
X6530480D01*
Y4039520D01*
X6469520D01*
X7659200Y2529200D02*
Y2630800D01*
X7760800D01*
Y2529200D01*
X7659200D01*
X7679520Y2549520D02*
Y2610480D01*
X7740480D01*
Y2549520D01*
X7679520D01*
X1679200Y3850000D02*
X1730000Y3900800D01*
X1780800Y3850000D01*
X1730000Y3799200D01*
X1679200Y3850000D01*
X1899200Y3799200D02*
Y3900800D01*
X2000800D01*
Y3799200D01*
X1899200D01*
X1919520Y3819520D02*
Y3880480D01*
X1980480D01*
Y3819520D01*
X1919520D01*
X1459200Y3199200D02*
Y3300800D01*
X1560800D01*
Y3199200D01*
X1459200D01*
X1479520Y3219520D02*
Y3280480D01*
X1540480D01*
Y3219520D01*
X1479520D01*
X5959834Y3468750D02*
Y3570350D01*
X6061434D01*
Y3468750D01*
X5959834D01*
X5980154Y3489070D02*
Y3550030D01*
X6041114D01*
Y3489070D01*
X5980154D01*
X5529200Y3069200D02*
Y3170800D01*
X5630800D01*
Y3069200D01*
X5529200D01*
X5549520Y3089520D02*
Y3150480D01*
X5610480D01*
Y3089520D01*
X5549520D01*
X5799200Y3409200D02*
Y3510800D01*
X5900800D01*
Y3409200D01*
X5799200D01*
X5819520Y3429520D02*
Y3490480D01*
X5880480D01*
Y3429520D01*
X5819520D01*
X6369200Y3589200D02*
Y3690800D01*
X6470800D01*
Y3589200D01*
X6369200D01*
X6389520Y3609520D02*
Y3670480D01*
X6450480D01*
Y3609520D01*
X6389520D01*
X6368008Y3487923D02*
Y3589523D01*
X6469608D01*
Y3487923D01*
X6368008D01*
X6388328Y3508243D02*
Y3569203D01*
X6449288D01*
Y3508243D01*
X6388328D01*
X3799200Y2109200D02*
Y2210800D01*
X3900800D01*
Y2109200D01*
X3799200D01*
X3819520Y2129520D02*
Y2190480D01*
X3880480D01*
Y2129520D01*
X3819520D01*
X2119200Y3199200D02*
Y3300800D01*
X2220800D01*
Y3199200D01*
X2119200D01*
X2139520Y3219520D02*
Y3280480D01*
X2200480D01*
Y3219520D01*
X2139520D01*
X1819200Y3199200D02*
Y3300800D01*
X1920800D01*
Y3199200D01*
X1819200D01*
X1839520Y3219520D02*
Y3280480D01*
X1900480D01*
Y3219520D01*
X1839520D01*
X5189200Y2199200D02*
Y2300800D01*
X5290800D01*
Y2199200D01*
X5189200D01*
X5209520Y2219520D02*
Y2280480D01*
X5270480D01*
Y2219520D01*
X5209520D01*
X5149200Y2350000D02*
X5200000Y2400800D01*
X5250800Y2350000D01*
X5200000Y2299200D01*
X5149200Y2350000D01*
X5009200Y2549200D02*
Y2650800D01*
X5110800D01*
Y2549200D01*
X5009200D01*
X5029520Y2569520D02*
Y2630480D01*
X5090480D01*
Y2569520D01*
X5029520D01*
X1789200Y2389200D02*
Y2490800D01*
X1890800D01*
Y2389200D01*
X1789200D01*
X1809520Y2409520D02*
Y2470480D01*
X1870480D01*
Y2409520D01*
X1809520D01*
X3679200Y2579200D02*
Y2680800D01*
X3780800D01*
Y2579200D01*
X3679200D01*
X3699520Y2599520D02*
Y2660480D01*
X3760480D01*
Y2599520D01*
X3699520D01*
X3799200Y2299200D02*
Y2400800D01*
X3900800D01*
Y2299200D01*
X3799200D01*
X3819520Y2319520D02*
Y2380480D01*
X3880480D01*
Y2319520D01*
X3819520D01*
X4109200Y2289200D02*
Y2390800D01*
X4210800D01*
Y2289200D01*
X4109200D01*
X4129520Y2309520D02*
Y2370480D01*
X4190480D01*
Y2309520D01*
X4129520D01*
X309200Y4099200D02*
Y4200800D01*
X410800D01*
Y4099200D01*
X309200D01*
X329520Y4119520D02*
Y4180480D01*
X390480D01*
Y4119520D01*
X329520D01*
X6029200Y3529200D02*
Y3630800D01*
X6130800D01*
Y3529200D01*
X6029200D01*
X6049520Y3549520D02*
Y3610480D01*
X6110480D01*
Y3549520D01*
X6049520D01*
X3189200Y3599200D02*
Y3700800D01*
X3290800D01*
Y3599200D01*
X3189200D01*
X3209520Y3619520D02*
Y3680480D01*
X3270480D01*
Y3619520D01*
X3209520D01*
X309200Y3339200D02*
Y3440800D01*
X410800D01*
Y3339200D01*
X309200D01*
X329520Y3359520D02*
Y3420480D01*
X390480D01*
Y3359520D01*
X329520D01*
X309200Y3449200D02*
Y3550800D01*
X410800D01*
Y3449200D01*
X309200D01*
X329520Y3469520D02*
Y3530480D01*
X390480D01*
Y3469520D01*
X329520D01*
X309200Y3559200D02*
Y3660800D01*
X410800D01*
Y3559200D01*
X309200D01*
X329520Y3579520D02*
Y3640480D01*
X390480D01*
Y3579520D01*
X329520D01*
X309200Y3779200D02*
Y3880800D01*
X410800D01*
Y3779200D01*
X309200D01*
X329520Y3799520D02*
Y3860480D01*
X390480D01*
Y3799520D01*
X329520D01*
X309200Y3999200D02*
Y4100800D01*
X410800D01*
Y3999200D01*
X309200D01*
X329520Y4019520D02*
Y4080480D01*
X390480D01*
Y4019520D01*
X329520D01*
X269200Y3089200D02*
Y3190800D01*
X370800D01*
Y3089200D01*
X269200D01*
X289520Y3109520D02*
Y3170480D01*
X350480D01*
Y3109520D01*
X289520D01*
X299200Y4229200D02*
Y4330800D01*
X400800D01*
Y4229200D01*
X299200D01*
X319520Y4249520D02*
Y4310480D01*
X380480D01*
Y4249520D01*
X319520D01*
X309200Y3669200D02*
Y3770800D01*
X410800D01*
Y3669200D01*
X309200D01*
X329520Y3689520D02*
Y3750480D01*
X390480D01*
Y3689520D01*
X329520D01*
X309200Y3889200D02*
Y3990800D01*
X410800D01*
Y3889200D01*
X309200D01*
X329520Y3909520D02*
Y3970480D01*
X390480D01*
Y3909520D01*
X329520D01*
X7461700Y2521700D02*
Y2623300D01*
X7563300D01*
Y2521700D01*
X7461700D01*
X7482020Y2542020D02*
Y2602980D01*
X7542980D01*
Y2542020D01*
X7482020D01*
X8509200Y1949200D02*
Y2050800D01*
X8610800D01*
Y1949200D01*
X8509200D01*
X8529520Y1969520D02*
Y2030480D01*
X8590480D01*
Y1969520D01*
X8529520D01*
X8119200Y2949200D02*
Y3050800D01*
X8220800D01*
Y2949200D01*
X8119200D01*
X8139520Y2969520D02*
Y3030480D01*
X8200480D01*
Y2969520D01*
X8139520D01*
X8249200Y2949200D02*
Y3050800D01*
X8350800D01*
Y2949200D01*
X8249200D01*
X8269520Y2969520D02*
Y3030480D01*
X8330480D01*
Y2969520D01*
X8269520D01*
X8949200Y2949200D02*
Y3050800D01*
X9050800D01*
Y2949200D01*
X8949200D01*
X8969520Y2969520D02*
Y3030480D01*
X9030480D01*
Y2969520D01*
X8969520D01*
X9079200Y2949200D02*
Y3050800D01*
X9180800D01*
Y2949200D01*
X9079200D01*
X9099520Y2969520D02*
Y3030480D01*
X9160480D01*
Y2969520D01*
X9099520D01*
X9199200Y1949200D02*
Y2050800D01*
X9300800D01*
Y1949200D01*
X9199200D01*
X9219520Y1969520D02*
Y2030480D01*
X9280480D01*
Y1969520D01*
X9219520D01*
X9329200Y1949200D02*
Y2050800D01*
X9430800D01*
Y1949200D01*
X9329200D01*
X9349520Y1969520D02*
Y2030480D01*
X9410480D01*
Y1969520D01*
X9349520D01*
X8969200Y3279200D02*
Y3380800D01*
X9070800D01*
Y3279200D01*
X8969200D01*
X8989520Y3299520D02*
Y3360480D01*
X9050480D01*
Y3299520D01*
X8989520D01*
X1249200Y2329200D02*
Y2430800D01*
X1350800D01*
Y2329200D01*
X1249200D01*
X1269520Y2349520D02*
Y2410480D01*
X1330480D01*
Y2349520D01*
X1269520D01*
X2069200Y2449200D02*
Y2550800D01*
X2170800D01*
Y2449200D01*
X2069200D01*
X2089520Y2469520D02*
Y2530480D01*
X2150480D01*
Y2469520D01*
X2089520D01*
X11329200Y3110000D02*
X11380000Y3160800D01*
X11430800Y3110000D01*
X11380000Y3059200D01*
X11329200Y3110000D01*
Y2960000D02*
X11380000Y3010800D01*
X11430800Y2960000D01*
X11380000Y2909200D01*
X11329200Y2960000D01*
X10819200Y2870000D02*
X10870000Y2920800D01*
X10920800Y2870000D01*
X10870000Y2819200D01*
X10819200Y2870000D01*
X10589200D02*
X10640000Y2920800D01*
X10690800Y2870000D01*
X10640000Y2819200D01*
X10589200Y2870000D01*
X1568200Y1030200D02*
Y1131800D01*
X1669800D01*
Y1030200D01*
X1568200D01*
X1588520Y1050520D02*
Y1111480D01*
X1649480D01*
Y1050520D01*
X1588520D01*
X2229199Y3199199D02*
Y3300799D01*
X2330799D01*
Y3199199D01*
X2229199D01*
X2249519Y3219519D02*
Y3280479D01*
X2310479D01*
Y3219519D01*
X2249519D01*
X1679303Y3199096D02*
Y3300696D01*
X1780903D01*
Y3199096D01*
X1679303D01*
X1699623Y3219416D02*
Y3280376D01*
X1760583D01*
Y3219416D01*
X1699623D01*
X2339200Y3799200D02*
Y3900800D01*
X2440800D01*
Y3799200D01*
X2339200D01*
X2359520Y3819520D02*
Y3880480D01*
X2420480D01*
Y3819520D01*
X2359520D01*
X5369200Y2009200D02*
Y2110800D01*
X5470800D01*
Y2009200D01*
X5369200D01*
X5389520Y2029520D02*
Y2090480D01*
X5450480D01*
Y2029520D01*
X5389520D01*
X6159200Y2379200D02*
Y2480800D01*
X6260800D01*
Y2379200D01*
X6159200D01*
X6179520Y2399520D02*
Y2460480D01*
X6240480D01*
Y2399520D01*
X6179520D01*
X4629200Y2169200D02*
Y2270800D01*
X4730800D01*
Y2169200D01*
X4629200D01*
X4649520Y2189520D02*
Y2250480D01*
X4710480D01*
Y2189520D01*
X4649520D01*
X5699200Y4069200D02*
Y4170800D01*
X5800800D01*
Y4069200D01*
X5699200D01*
X5719520Y4089520D02*
Y4150480D01*
X5780480D01*
Y4089520D01*
X5719520D01*
X5829200Y4069200D02*
Y4170800D01*
X5930800D01*
Y4069200D01*
X5829200D01*
X5849520Y4089520D02*
Y4150480D01*
X5910480D01*
Y4089520D01*
X5849520D01*
X6049200Y4069200D02*
Y4170800D01*
X6150800D01*
Y4069200D01*
X6049200D01*
X6069520Y4089520D02*
Y4150480D01*
X6130480D01*
Y4089520D01*
X6069520D01*
X5939200Y4069200D02*
Y4170800D01*
X6040800D01*
Y4069200D01*
X5939200D01*
X5959520Y4089520D02*
Y4150480D01*
X6020480D01*
Y4089520D01*
X5959520D01*
X5609200Y2989200D02*
Y3090800D01*
X5710800D01*
Y2989200D01*
X5609200D01*
X5629520Y3009520D02*
Y3070480D01*
X5690480D01*
Y3009520D01*
X5629520D01*
X6859200Y1989200D02*
Y2090800D01*
X6960800D01*
Y1989200D01*
X6859200D01*
X6879520Y2009520D02*
Y2070480D01*
X6940480D01*
Y2009520D01*
X6879520D01*
X6939200Y2222530D02*
X6990000Y2273330D01*
X7040800Y2222530D01*
X6990000Y2171730D01*
X6939200Y2222530D01*
X5859200Y3140000D02*
X5910000Y3190800D01*
X5960800Y3140000D01*
X5910000Y3089200D01*
X5859200Y3140000D01*
X1299200Y1789200D02*
Y1890800D01*
X1400800D01*
Y1789200D01*
X1299200D01*
X1319520Y1809520D02*
Y1870480D01*
X1380480D01*
Y1809520D01*
X1319520D01*
X1299200Y1889200D02*
Y1990800D01*
X1400800D01*
Y1889200D01*
X1299200D01*
X1319520Y1909520D02*
Y1970480D01*
X1380480D01*
Y1909520D01*
X1319520D01*
X1199200Y1789200D02*
Y1890800D01*
X1300800D01*
Y1789200D01*
X1199200D01*
X1219520Y1809520D02*
Y1870480D01*
X1280480D01*
Y1809520D01*
X1219520D01*
X1199200Y1889200D02*
Y1990800D01*
X1300800D01*
Y1889200D01*
X1199200D01*
X1219520Y1909520D02*
Y1970480D01*
X1280480D01*
Y1909520D01*
X1219520D01*
X1299200Y839201D02*
Y940801D01*
X1400800D01*
Y839201D01*
X1299200D01*
X1319520Y859521D02*
Y920481D01*
X1380480D01*
Y859521D01*
X1319520D01*
X1299200Y939200D02*
Y1040800D01*
X1400800D01*
Y939200D01*
X1299200D01*
X1319520Y959520D02*
Y1020480D01*
X1380480D01*
Y959520D01*
X1319520D01*
X1199200Y839200D02*
Y940800D01*
X1300800D01*
Y839200D01*
X1199200D01*
X1219520Y859520D02*
Y920480D01*
X1280480D01*
Y859520D01*
X1219520D01*
X1199200Y939200D02*
Y1040800D01*
X1300800D01*
Y939200D01*
X1199200D01*
X1219520Y959520D02*
Y1020480D01*
X1280480D01*
Y959520D01*
X1219520D01*
X12200000Y249200D02*
X12149200Y350800D01*
X12250800D01*
X12200000Y249200D01*
Y269520D02*
X12169520Y330480D01*
X12230480D01*
X12200000Y269520D01*
Y4649200D02*
X12149200Y4750800D01*
X12250800D01*
X12200000Y4649200D01*
Y4669520D02*
X12169520Y4730480D01*
X12230480D01*
X12200000Y4669520D01*
X300000Y249200D02*
X249200Y350800D01*
X350800D01*
X300000Y249200D01*
Y269520D02*
X269520Y330480D01*
X330480D01*
X300000Y269520D01*
Y4649200D02*
X249200Y4750800D01*
X350800D01*
X300000Y4649200D01*
Y4669520D02*
X269520Y4730480D01*
X330480D01*
X300000Y4669520D01*
D182*
X505300Y1132500D02*
G03*
X505300Y1132500I-50800J0D01*
G01*
Y2567500D02*
G03*
X505300Y2567500I-50800J0D01*
G01*
X11425800Y4450000D02*
G03*
X11425800Y4450000I-50800J0D01*
G01*
X12225800Y2300000D02*
G03*
X12225800Y2300000I-50800J0D01*
G01*
X6300800Y1150000D02*
G03*
X6300800Y1150000I-50800J0D01*
G01*
D183*
X11405480Y4450000D02*
G03*
X11405480Y4450000I-30480J0D01*
G01*
X12205480Y2300000D02*
G03*
X12205480Y2300000I-30480J0D01*
G01*
X6280480Y1150000D02*
G03*
X6280480Y1150000I-30480J0D01*
G01*
%TF.MD5,857334a718998939f146dd43d301b9cd*%
M02*
