%TF.GenerationSoftware,Altium Limited,Altium Designer,22.1.2 (22)*%
G04 Layer_Color=8388736*
%FSLAX45Y45*%
%MOMM*%
%TF.SameCoordinates,5EC5152B-D9DC-4A70-AFCB-378F050BE7B4*%
%TF.FilePolarity,Negative*%
%TF.FileFunction,Soldermask,Top*%
%TF.Part,Single*%
G01*
G75*
%TA.AperFunction,SMDPad,CuDef*%
%ADD10R,2.50000X2.30000*%
%ADD11R,0.58000X1.73000*%
%ADD12C,1.73970*%
%ADD21R,0.90000X0.80000*%
%ADD24R,2.50000X2.50000*%
%ADD34R,1.20000X1.00000*%
%ADD37R,0.25000X0.27500*%
%ADD38R,0.27500X0.25000*%
%ADD39R,1.10000X0.60000*%
%ADD40R,1.95580X3.14960*%
%ADD47R,1.05000X1.00000*%
%ADD48R,2.20000X1.05000*%
%TA.AperFunction,ComponentPad*%
%ADD64C,1.12000*%
%ADD65R,1.12000X1.12000*%
%ADD66C,4.24000*%
%TA.AperFunction,ViaPad*%
%ADD71C,0.50000*%
%TA.AperFunction,SMDPad,CuDef*%
%ADD80R,1.10000X1.20000*%
%ADD81R,0.80000X1.00000*%
%ADD82R,1.20000X1.10000*%
%ADD85R,1.00000X0.80000*%
%TA.AperFunction,ComponentPad*%
%ADD88O,2.00000X1.30000*%
%ADD89O,1.35000X1.15000*%
%ADD90C,1.60000*%
%ADD91R,1.60000X1.60000*%
%ADD92C,4.40000*%
%ADD93C,2.30000*%
%TA.AperFunction,ViaPad*%
%ADD94C,1.00320*%
%ADD95C,0.80320*%
%ADD96C,1.20320*%
%ADD97C,3.30000*%
%TA.AperFunction,NonConductor*%
%ADD102R,0.40000X0.52500*%
%ADD103R,0.40000X0.52500*%
%ADD104R,0.40000X0.52500*%
%ADD105R,0.40000X0.52500*%
%ADD106R,0.52500X0.30000*%
%ADD107R,0.52500X0.30000*%
%ADD108R,0.52500X0.30000*%
%ADD109R,0.52500X0.30000*%
%ADD110R,0.80000X2.40000*%
%ADD111R,0.70000X2.40000*%
%ADD112R,0.80000X2.40000*%
%TA.AperFunction,SMDPad,CuDef*%
%ADD113R,2.00000X1.90000*%
%ADD114R,1.45000X0.50000*%
%ADD115R,0.90000X0.90000*%
G04:AMPARAMS|DCode=116|XSize=0.425mm|YSize=0.5mm|CornerRadius=0mm|HoleSize=0mm|Usage=FLASHONLY|Rotation=45.000|XOffset=0mm|YOffset=0mm|HoleType=Round|Shape=Rectangle|*
%AMROTATEDRECTD116*
4,1,4,0.02652,-0.32704,-0.32704,0.02652,-0.02652,0.32704,0.32704,-0.02652,0.02652,-0.32704,0.0*
%
%ADD116ROTATEDRECTD116*%

%TA.AperFunction,ConnectorPad*%
%ADD117R,1.00000X0.80000*%
%ADD118R,1.20000X1.10000*%
%TA.AperFunction,SMDPad,CuDef*%
G04:AMPARAMS|DCode=119|XSize=0.4mm|YSize=1.6mm|CornerRadius=0mm|HoleSize=0mm|Usage=FLASHONLY|Rotation=315.000|XOffset=0mm|YOffset=0mm|HoleType=Round|Shape=Rectangle|*
%AMROTATEDRECTD119*
4,1,4,-0.70711,-0.42426,0.42426,0.70711,0.70711,0.42426,-0.42426,-0.70711,-0.70711,-0.42426,0.0*
%
%ADD119ROTATEDRECTD119*%

G04:AMPARAMS|DCode=120|XSize=0.4mm|YSize=1.6mm|CornerRadius=0mm|HoleSize=0mm|Usage=FLASHONLY|Rotation=45.000|XOffset=0mm|YOffset=0mm|HoleType=Round|Shape=Rectangle|*
%AMROTATEDRECTD120*
4,1,4,0.42426,-0.70711,-0.70711,0.42426,-0.42426,0.70711,0.70711,-0.42426,0.42426,-0.70711,0.0*
%
%ADD120ROTATEDRECTD120*%

%ADD121R,1.90000X1.27000*%
%ADD122R,1.20000X0.85000*%
%ADD123R,1.20000X0.95000*%
%ADD124R,1.45000X1.65000*%
%ADD125R,1.10000X1.30000*%
%ADD126R,1.45000X2.00000*%
%ADD127R,2.10000X2.10000*%
G04:AMPARAMS|DCode=128|XSize=1.1mm|YSize=1.2mm|CornerRadius=0mm|HoleSize=0mm|Usage=FLASHONLY|Rotation=45.000|XOffset=0mm|YOffset=0mm|HoleType=Round|Shape=Rectangle|*
%AMROTATEDRECTD128*
4,1,4,0.03535,-0.81318,-0.81318,0.03535,-0.03535,0.81318,0.81318,-0.03535,0.03535,-0.81318,0.0*
%
%ADD128ROTATEDRECTD128*%

%ADD129R,1.20000X0.70000*%
%ADD130R,1.10000X1.25000*%
%ADD131R,0.75000X0.35000*%
%ADD132R,0.35000X0.75000*%
%ADD133R,1.10000X2.60000*%
%ADD134R,3.40000X2.60000*%
%ADD135R,0.90000X0.90000*%
%TA.AperFunction,Conductor*%
%ADD136R,2.00000X1.67500*%
G36*
X11660001Y2855403D02*
X11601350D01*
Y2705403D01*
X11525351D01*
Y2855403D01*
X11466700D01*
Y3158403D01*
X11660001D01*
Y2855403D01*
D02*
G37*
D10*
X11399074Y3635000D02*
D03*
X10969074D02*
D03*
D11*
X11413351Y2791903D02*
D03*
X11713350D02*
D03*
D12*
X11563351Y2970000D02*
D03*
D21*
X9370000Y3420000D02*
D03*
X9170000Y3325000D02*
D03*
Y3515000D02*
D03*
D24*
X10310000Y3080000D02*
D03*
Y3780000D02*
D03*
X9610000Y3080000D02*
D03*
Y3780000D02*
D03*
D34*
X6165000Y735000D02*
D03*
X6335000D02*
D03*
Y865000D02*
D03*
X6165000D02*
D03*
D37*
X8275000Y2576250D02*
D03*
X8325000D02*
D03*
Y2423750D02*
D03*
X8275000D02*
D03*
D38*
X8376250Y2575000D02*
D03*
Y2525000D02*
D03*
Y2475000D02*
D03*
Y2425000D02*
D03*
X8223750D02*
D03*
Y2475000D02*
D03*
Y2525000D02*
D03*
Y2575000D02*
D03*
D39*
X4600000Y2570000D02*
D03*
Y2430000D02*
D03*
D40*
X10939890Y4160000D02*
D03*
X11430110D02*
D03*
D47*
X2552500Y2500000D02*
D03*
D48*
X2400000Y2352500D02*
D03*
Y2647500D02*
D03*
D64*
X581500Y2040500D02*
D03*
X581500Y1913500D02*
D03*
Y1786500D02*
D03*
X581500Y1659500D02*
D03*
X835500Y2104000D02*
D03*
Y1977000D02*
D03*
Y1850000D02*
D03*
Y1723000D02*
D03*
D65*
X835500Y1596000D02*
D03*
D66*
X454500Y2567500D02*
D03*
Y1132500D02*
D03*
D71*
X1350000Y900000D02*
D03*
Y1000000D02*
D03*
X1250000Y900000D02*
D03*
Y1000000D02*
D03*
X1350000Y1850000D02*
D03*
X1350000Y1950000D02*
D03*
X1250000Y1850000D02*
D03*
Y1950000D02*
D03*
D80*
X10870000Y2300000D02*
D03*
X11050000D02*
D03*
X15139999Y1960000D02*
D03*
X15320000D02*
D03*
X15310001Y2910000D02*
D03*
X15489999D02*
D03*
X12025800Y1932075D02*
D03*
X12205800D02*
D03*
D81*
X10825000Y1970000D02*
D03*
X10975000D02*
D03*
X10825000Y2120000D02*
D03*
X10975000D02*
D03*
X2802075Y3650000D02*
D03*
X2652075D02*
D03*
D82*
X14250000Y1810000D02*
D03*
Y1990000D02*
D03*
X13960001Y1790000D02*
D03*
Y1970000D02*
D03*
X13680000Y1760000D02*
D03*
Y1940000D02*
D03*
X14830000Y1830000D02*
D03*
Y2010000D02*
D03*
X14530000Y1840000D02*
D03*
Y2020000D02*
D03*
X15030000Y2830000D02*
D03*
Y3010000D02*
D03*
X14699922Y2812000D02*
D03*
Y2992000D02*
D03*
X3920000Y2920000D02*
D03*
Y3100000D02*
D03*
X13970000Y2820000D02*
D03*
Y3000000D02*
D03*
X13710001Y2820000D02*
D03*
Y3000000D02*
D03*
D85*
X10390000Y2655000D02*
D03*
Y2505000D02*
D03*
X15200000Y3805000D02*
D03*
Y3955000D02*
D03*
X14550000Y3835000D02*
D03*
Y3985000D02*
D03*
X11650000Y4725000D02*
D03*
Y4575000D02*
D03*
X11380000Y4575000D02*
D03*
Y4725000D02*
D03*
X11557000Y2414200D02*
D03*
Y2564200D02*
D03*
X14939999Y3815000D02*
D03*
Y3965000D02*
D03*
D88*
X12350000Y2155000D02*
D03*
Y2990000D02*
D03*
D89*
X12050000Y2795000D02*
D03*
X12050000Y2350000D02*
D03*
D90*
X12258000Y1600000D02*
D03*
X12004000D02*
D03*
X11750000D02*
D03*
X12258000Y1050000D02*
D03*
X12004000D02*
D03*
X11750000D02*
D03*
X5492000Y146000D02*
D03*
X6500000Y400000D02*
D03*
X6754000Y146000D02*
D03*
Y400000D02*
D03*
X7008000Y146000D02*
D03*
Y400000D02*
D03*
X7262000Y146000D02*
D03*
X7262000Y400000D02*
D03*
X7516000Y146000D02*
D03*
X7516000Y400000D02*
D03*
X7770000Y146000D02*
D03*
Y400000D02*
D03*
X8024000Y146000D02*
D03*
X8024000Y400000D02*
D03*
X8278000Y146000D02*
D03*
Y400000D02*
D03*
X8532000Y146000D02*
D03*
Y400000D02*
D03*
X8786000Y146000D02*
D03*
Y400000D02*
D03*
X9040000Y146000D02*
D03*
Y400000D02*
D03*
X9294000Y146000D02*
D03*
X9294000Y400000D02*
D03*
X9548000Y146000D02*
D03*
X9548000Y400000D02*
D03*
X9802000Y146000D02*
D03*
Y400000D02*
D03*
X10056000Y146000D02*
D03*
Y400000D02*
D03*
X10310000Y146000D02*
D03*
X10310000Y400000D02*
D03*
X10564000Y146000D02*
D03*
Y400000D02*
D03*
X10818000Y146000D02*
D03*
Y400000D02*
D03*
X1682000D02*
D03*
X1936000Y146000D02*
D03*
Y400000D02*
D03*
X2190001Y146000D02*
D03*
X2190000Y400000D02*
D03*
X2444000Y146000D02*
D03*
X2444000Y400000D02*
D03*
X2698000Y146000D02*
D03*
X2698000Y400000D02*
D03*
X2952000Y146000D02*
D03*
Y400000D02*
D03*
X3206000Y146000D02*
D03*
X3206000Y400000D02*
D03*
X3460000Y146000D02*
D03*
X3460000Y400000D02*
D03*
X3714000Y146000D02*
D03*
Y400000D02*
D03*
X3968000Y146000D02*
D03*
Y400000D02*
D03*
X4222000Y146000D02*
D03*
Y400000D02*
D03*
X4476001Y146000D02*
D03*
X4476000Y400000D02*
D03*
X4730000Y146000D02*
D03*
X4730000Y400000D02*
D03*
X4984000Y146000D02*
D03*
Y400000D02*
D03*
X5238000Y146000D02*
D03*
Y400000D02*
D03*
X5492000D02*
D03*
X5746000Y146000D02*
D03*
X5746000Y400000D02*
D03*
X6000000Y146000D02*
D03*
X6000000Y400000D02*
D03*
X4229000Y1646000D02*
D03*
X3975000Y1900000D02*
D03*
Y1646000D02*
D03*
X3721000Y1900000D02*
D03*
Y1646000D02*
D03*
X11000000Y1600000D02*
D03*
X10746000D02*
D03*
X10492000D02*
D03*
X11000000Y1050000D02*
D03*
X10746000D02*
D03*
X10492000D02*
D03*
X6500000Y4596000D02*
D03*
X6500000Y4850000D02*
D03*
X6754000Y4596000D02*
D03*
Y4850000D02*
D03*
X7008000Y4596000D02*
D03*
X7008000Y4850000D02*
D03*
X7262000Y4596000D02*
D03*
Y4850000D02*
D03*
X7516000Y4596000D02*
D03*
Y4850000D02*
D03*
X7770000Y4596000D02*
D03*
X7770000Y4850000D02*
D03*
X8024000Y4596000D02*
D03*
X8024000Y4850000D02*
D03*
X8278000Y4596000D02*
D03*
Y4850000D02*
D03*
X8532000Y4596000D02*
D03*
Y4850000D02*
D03*
X8786000Y4596000D02*
D03*
X8786000Y4850000D02*
D03*
X9040000Y4596000D02*
D03*
Y4850000D02*
D03*
X9294000Y4596000D02*
D03*
X9294000Y4850000D02*
D03*
X9548000Y4596000D02*
D03*
Y4850000D02*
D03*
X9802000Y4596000D02*
D03*
X9802000Y4850000D02*
D03*
X10056000Y4596000D02*
D03*
X10056000Y4850000D02*
D03*
X10310000Y4596000D02*
D03*
Y4850000D02*
D03*
X10564000Y4596000D02*
D03*
Y4850000D02*
D03*
X10818000Y4596000D02*
D03*
X1682000D02*
D03*
Y4850000D02*
D03*
X1936000Y4596000D02*
D03*
X1936000Y4850000D02*
D03*
X2190000Y4596000D02*
D03*
Y4850000D02*
D03*
X2444000Y4596000D02*
D03*
Y4850000D02*
D03*
X2698000Y4596000D02*
D03*
Y4850000D02*
D03*
X2952000Y4596000D02*
D03*
X2952000Y4850000D02*
D03*
X3206000Y4596000D02*
D03*
X3206000Y4850000D02*
D03*
X3460000Y4596000D02*
D03*
Y4850000D02*
D03*
X3714000Y4596000D02*
D03*
Y4850000D02*
D03*
X3968000Y4596000D02*
D03*
Y4850000D02*
D03*
X4222000Y4596000D02*
D03*
X4222000Y4850000D02*
D03*
X4476000Y4596000D02*
D03*
Y4850000D02*
D03*
X4730000Y4596000D02*
D03*
Y4850000D02*
D03*
X4984000Y4596000D02*
D03*
Y4850000D02*
D03*
X5238000Y4596000D02*
D03*
Y4850000D02*
D03*
X5492000Y4596000D02*
D03*
X5492000Y4850000D02*
D03*
X5746000Y4596000D02*
D03*
Y4850000D02*
D03*
X6000000Y4596000D02*
D03*
D91*
X11496000Y1600000D02*
D03*
X11496000Y1050000D02*
D03*
X6500000Y146000D02*
D03*
X1682000D02*
D03*
X4229000Y1900000D02*
D03*
X10238000Y1600000D02*
D03*
Y1050000D02*
D03*
X10818000Y4850000D02*
D03*
X6000000D02*
D03*
D92*
X12140000Y4030000D02*
D03*
Y3530000D02*
D03*
D93*
X3100008Y2500000D02*
D03*
X3354000Y2245992D02*
D03*
Y2753992D02*
D03*
X2846000D02*
D03*
Y2245992D02*
D03*
D94*
X1670000Y2500000D02*
D03*
X11380000Y3110000D02*
D03*
Y2960000D02*
D03*
X10870000Y2870000D02*
D03*
X10640000D02*
D03*
X2400000Y2500000D02*
D03*
X5200000Y2350000D02*
D03*
X1730000Y4250000D02*
D03*
X6810520Y2489481D02*
D03*
X6810000Y2880000D02*
D03*
X5840000Y2000000D02*
D03*
X6990000Y2222530D02*
D03*
X6600000Y3150000D02*
D03*
X5910000Y3140000D02*
D03*
X6990000Y2870000D02*
D03*
D95*
X3240000Y3650000D02*
D03*
X9320000Y3180000D02*
D03*
X10060000Y3530000D02*
D03*
X1170000Y690000D02*
D03*
X1270000D02*
D03*
X1370333D02*
D03*
X2127000Y833000D02*
D03*
X2000000Y830000D02*
D03*
X1619000Y1081000D02*
D03*
X1746000Y1076000D02*
D03*
X1873000Y1083000D02*
D03*
X2000000Y1080000D02*
D03*
X2127000Y1087000D02*
D03*
X2254000Y1084000D02*
D03*
X2381000Y1081000D02*
D03*
Y829000D02*
D03*
X2254000Y834000D02*
D03*
X2525191Y895891D02*
D03*
X1380000Y1260000D02*
D03*
X1275000Y1265000D02*
D03*
X1170000Y1260000D02*
D03*
X2530000Y1850000D02*
D03*
X2279999Y3249999D02*
D03*
X5220000Y2750000D02*
D03*
X6630000Y1780000D02*
D03*
X1620000Y3850000D02*
D03*
X1950000Y3850000D02*
D03*
X2059999Y3850000D02*
D03*
X1950000Y3250000D02*
D03*
X2170000D02*
D03*
X1730103Y3249896D02*
D03*
X1510000Y3250000D02*
D03*
X2390000Y3850000D02*
D03*
X5520000Y2040000D02*
D03*
X5420000Y2060000D02*
D03*
X5340000Y2140000D02*
D03*
X5240000Y2250000D02*
D03*
X5140000Y2670000D02*
D03*
X5060000Y2600000D02*
D03*
X6210000Y2430000D02*
D03*
X4680000Y2220000D02*
D03*
X6980000Y3080000D02*
D03*
X6840000Y3130000D02*
D03*
X6760000Y3200000D02*
D03*
X6685040Y3274960D02*
D03*
X5750000Y4120000D02*
D03*
X5880000D02*
D03*
X6100000D02*
D03*
X5990000D02*
D03*
X6057422Y3529856D02*
D03*
X5957169Y3527169D02*
D03*
X6087500Y3618735D02*
D03*
X5660000Y3040000D02*
D03*
X5580000Y3120000D02*
D03*
X5590000Y1910000D02*
D03*
X5885942Y1684058D02*
D03*
X5960000Y1620000D02*
D03*
X6032500Y1560000D02*
D03*
X6180000Y1430000D02*
D03*
X6110000Y1497841D02*
D03*
X6160009Y1337500D02*
D03*
X6310104Y1279896D02*
D03*
X6550000Y1560000D02*
D03*
X6910000Y2040000D02*
D03*
X6780000Y1780000D02*
D03*
X7130000Y2190000D02*
D03*
X7150000Y2100000D02*
D03*
X7320000Y2300000D02*
D03*
X5839896Y1879896D02*
D03*
X7240000Y2370000D02*
D03*
X6610000Y3340000D02*
D03*
X5820000Y3060000D02*
D03*
D96*
X11375000Y4450000D02*
D03*
X12175000Y2300000D02*
D03*
X6250000Y1150000D02*
D03*
D97*
X12200000Y300000D02*
D03*
Y4700000D02*
D03*
X300000Y300000D02*
D03*
Y4700000D02*
D03*
D102*
X1474998Y2343749D02*
D03*
X1575001Y2343751D02*
D03*
X1675001Y2343751D02*
D03*
X1725001D02*
D03*
X1824998Y2343748D02*
D03*
X1875000Y2343750D02*
D03*
X1924998Y2343748D02*
D03*
X1474998Y2656248D02*
D03*
X1574998D02*
D03*
X1674998Y2656249D02*
D03*
X1724998D02*
D03*
X1825001Y2656251D02*
D03*
X1925001Y2656252D02*
D03*
D103*
X1525000Y2343750D02*
D03*
X1775000D02*
D03*
D104*
X1625000Y2343750D02*
D03*
Y2656250D02*
D03*
X1875000D02*
D03*
D105*
X1525000D02*
D03*
X1775000D02*
D03*
D106*
X1468750Y2575000D02*
D03*
D107*
X1468749Y2525001D02*
D03*
Y2475001D02*
D03*
X1931251Y2474999D02*
D03*
Y2524999D02*
D03*
X1931250Y2575000D02*
D03*
D108*
X1468750Y2425000D02*
D03*
D109*
X1931250D02*
D03*
D110*
X2060044Y4051953D02*
D03*
X1950000Y4051996D02*
D03*
X1840045Y4051897D02*
D03*
X1839999Y3041942D02*
D03*
X1950027Y3041970D02*
D03*
X2059999Y3041943D02*
D03*
D111*
X2390002Y3041913D02*
D03*
X1510001Y3041915D02*
D03*
X1510010Y4051924D02*
D03*
X2390002Y4051914D02*
D03*
D112*
X2280011Y3041924D02*
D03*
X2170010Y3041922D02*
D03*
X1729989Y3041928D02*
D03*
X1619997Y3041936D02*
D03*
X1619997Y4051936D02*
D03*
X1730009Y4051923D02*
D03*
X2169996Y4051936D02*
D03*
X2280003Y4051914D02*
D03*
D113*
X12350000Y2687500D02*
D03*
Y2457500D02*
D03*
D114*
X12082500Y2442500D02*
D03*
X12082500Y2507500D02*
D03*
X12082500Y2702501D02*
D03*
Y2572500D02*
D03*
Y2637500D02*
D03*
D115*
X10119215Y2500000D02*
D03*
Y2660000D02*
D03*
X11413351Y2580000D02*
D03*
Y2420000D02*
D03*
D116*
X2960000Y3380000D02*
D03*
X2898128Y3318128D02*
D03*
D117*
X15500000Y3825000D02*
D03*
Y3975000D02*
D03*
D118*
X1050000Y5420000D02*
D03*
Y5600000D02*
D03*
X750000Y5420000D02*
D03*
Y5600000D02*
D03*
X1340000Y5420000D02*
D03*
Y5600000D02*
D03*
D119*
X6390843Y3900000D02*
D03*
X6426198Y3864645D02*
D03*
X6461553Y3829290D02*
D03*
X6496909Y3793934D02*
D03*
X6532264Y3758579D02*
D03*
X6567619Y3723224D02*
D03*
X6602974Y3687868D02*
D03*
X6638330Y3652513D02*
D03*
X6673685Y3617158D02*
D03*
X6709040Y3581803D02*
D03*
X6744395Y3546447D02*
D03*
X6779751Y3511092D02*
D03*
X6815106Y3475737D02*
D03*
X6850461Y3440381D02*
D03*
X6885817Y3405026D02*
D03*
X6921172Y3369671D02*
D03*
X6956527Y3334316D02*
D03*
X6991882Y3298961D02*
D03*
X7027238Y3263605D02*
D03*
X7062593Y3228250D02*
D03*
X7097948Y3192895D02*
D03*
X7133304Y3157540D02*
D03*
X7168659Y3122184D02*
D03*
X7204014Y3086829D02*
D03*
X7239370Y3051473D02*
D03*
X7274725Y3016118D02*
D03*
X7310080Y2980763D02*
D03*
X7345435Y2945408D02*
D03*
X7380790Y2910052D02*
D03*
X7416146Y2874697D02*
D03*
X7451501Y2839342D02*
D03*
X7486856Y2803987D02*
D03*
X7522212Y2768631D02*
D03*
X7557567Y2733276D02*
D03*
X7592922Y2697921D02*
D03*
X7628277Y2662566D02*
D03*
X6108000Y1142289D02*
D03*
X6072645Y1177644D02*
D03*
X6037289Y1212999D02*
D03*
X6001934Y1248354D02*
D03*
X5966579Y1283709D02*
D03*
X5931224Y1319065D02*
D03*
X5895868Y1354420D02*
D03*
X5860513Y1389775D02*
D03*
X5825158Y1425130D02*
D03*
X5789802Y1460486D02*
D03*
X5754447Y1495841D02*
D03*
X5719092Y1531196D02*
D03*
X5683737Y1566552D02*
D03*
X5648381Y1601907D02*
D03*
X5613026Y1637262D02*
D03*
X5577671Y1672617D02*
D03*
X5542316Y1707973D02*
D03*
X5506961Y1743328D02*
D03*
X5471605Y1778683D02*
D03*
X5436250Y1814038D02*
D03*
X5400894Y1849394D02*
D03*
X5365539Y1884749D02*
D03*
X5330184Y1920104D02*
D03*
X5294829Y1955459D02*
D03*
X5259474Y1990815D02*
D03*
X5224118Y2026170D02*
D03*
X5188763Y2061525D02*
D03*
X5153408Y2096880D02*
D03*
X5118053Y2132236D02*
D03*
X5082697Y2167591D02*
D03*
X5047342Y2202946D02*
D03*
X5011987Y2238302D02*
D03*
X4976631Y2273657D02*
D03*
X4941276Y2309012D02*
D03*
X4905921Y2344367D02*
D03*
X4870566Y2379723D02*
D03*
D120*
X7628277D02*
D03*
X7592922Y2344367D02*
D03*
X7557567Y2309012D02*
D03*
X7522212Y2273657D02*
D03*
X7486856Y2238302D02*
D03*
X7451501Y2202946D02*
D03*
X7416146Y2167591D02*
D03*
X7380790Y2132236D02*
D03*
X7345435Y2096880D02*
D03*
X7310080Y2061525D02*
D03*
X7274725Y2026170D02*
D03*
X7239370Y1990815D02*
D03*
X7204014Y1955459D02*
D03*
X7168659Y1920104D02*
D03*
X7133303Y1884749D02*
D03*
X7097948Y1849394D02*
D03*
X7062593Y1814038D02*
D03*
X7027238Y1778683D02*
D03*
X6991882Y1743328D02*
D03*
X6956527Y1707973D02*
D03*
X6921172Y1672617D02*
D03*
X6885817Y1637262D02*
D03*
X6850461Y1601907D02*
D03*
X6815106Y1566552D02*
D03*
X6779751Y1531196D02*
D03*
X6744395Y1495841D02*
D03*
X6709040Y1460486D02*
D03*
X6673685Y1425130D02*
D03*
X6638330Y1389775D02*
D03*
X6602974Y1354420D02*
D03*
X6567619Y1319065D02*
D03*
X6532264Y1283709D02*
D03*
X6496909Y1248354D02*
D03*
X6461553Y1212999D02*
D03*
X6426198Y1177644D02*
D03*
X6390843Y1142288D02*
D03*
X4870566Y2662566D02*
D03*
X4905921Y2697921D02*
D03*
X4941276Y2733276D02*
D03*
X4976631Y2768631D02*
D03*
X5011987Y2803987D02*
D03*
X5047342Y2839342D02*
D03*
X5082697Y2874697D02*
D03*
X5118053Y2910052D02*
D03*
X5153408Y2945408D02*
D03*
X5188763Y2980763D02*
D03*
X5224118Y3016118D02*
D03*
X5259474Y3051473D02*
D03*
X5294829Y3086829D02*
D03*
X5330184Y3122184D02*
D03*
X5365539Y3157539D02*
D03*
X5400894Y3192895D02*
D03*
X5436250Y3228250D02*
D03*
X5471605Y3263605D02*
D03*
X5506960Y3298960D02*
D03*
X5542316Y3334316D02*
D03*
X5577671Y3369671D02*
D03*
X5613026Y3405026D02*
D03*
X5648381Y3440381D02*
D03*
X5683737Y3475737D02*
D03*
X5719092Y3511092D02*
D03*
X5754447Y3546447D02*
D03*
X5789802Y3581803D02*
D03*
X5825158Y3617158D02*
D03*
X5860513Y3652513D02*
D03*
X5895868Y3687868D02*
D03*
X5931224Y3723224D02*
D03*
X5966579Y3758579D02*
D03*
X6001934Y3793934D02*
D03*
X6037289Y3829290D02*
D03*
X6072645Y3864645D02*
D03*
X6108000Y3900000D02*
D03*
D121*
X193750Y4274750D02*
D03*
D122*
X158750Y4153750D02*
D03*
D123*
Y4048750D02*
D03*
X158751Y3938750D02*
D03*
X158750Y3828750D02*
D03*
X158751Y3718750D02*
D03*
X158750Y3608750D02*
D03*
X158751Y3498750D02*
D03*
X158750Y3388750D02*
D03*
D124*
X171250Y3142750D02*
D03*
D125*
X1143750Y3125250D02*
D03*
X773750Y3125250D02*
D03*
D126*
X1241251Y3475250D02*
D03*
X1241250Y4072250D02*
D03*
D127*
X3900000Y2500000D02*
D03*
D128*
X11726361Y2526360D02*
D03*
X11853640Y2653640D02*
D03*
D129*
X8980000Y2567500D02*
D03*
Y2442500D02*
D03*
Y2317500D02*
D03*
Y2192500D02*
D03*
X8760000D02*
D03*
Y2317500D02*
D03*
Y2442500D02*
D03*
Y2567500D02*
D03*
D130*
X10660000Y4027499D02*
D03*
Y3792500D02*
D03*
D131*
X3745000Y2575000D02*
D03*
Y2525000D02*
D03*
Y2475000D02*
D03*
Y2425000D02*
D03*
X4055000D02*
D03*
Y2475000D02*
D03*
Y2525000D02*
D03*
Y2575000D02*
D03*
D132*
X3825000Y2345000D02*
D03*
X3875000D02*
D03*
X3925000D02*
D03*
X3975000D02*
D03*
Y2655000D02*
D03*
X3925000D02*
D03*
X3875000D02*
D03*
X3825000D02*
D03*
D133*
X10637925Y2565000D02*
D03*
X10867925Y2565000D02*
D03*
X11097925Y2565000D02*
D03*
D134*
X10867925Y3175000D02*
D03*
D135*
X3090000Y3650000D02*
D03*
X2930000D02*
D03*
D136*
X12350004Y2233754D02*
D03*
X12349999Y2911247D02*
D03*
%TF.MD5,de59faa20614e4e540792861492c1c97*%
M02*
