%TF.GenerationSoftware,Altium Limited,Altium Designer,22.1.2 (22)*%
G04 Layer_Physical_Order=2*
G04 Layer_Color=36540*
%FSLAX45Y45*%
%MOMM*%
%TF.SameCoordinates,3CA235EB-07BA-4011-868A-CA015CDCDCF0*%
%TF.FilePolarity,Positive*%
%TF.FileFunction,Copper,L2,Inr,Signal*%
%TF.Part,Single*%
G01*
G75*
%TA.AperFunction,Conductor*%
%ADD51C,0.50000*%
%ADD52C,0.25000*%
%ADD54C,0.20000*%
%TA.AperFunction,ComponentPad*%
%ADD58C,1.50000*%
%ADD59R,1.50000X1.50000*%
%ADD60C,4.24000*%
%ADD61R,1.12000X1.12000*%
%ADD62C,1.12000*%
%ADD63O,1.90000X1.20000*%
%ADD64O,1.25000X1.05000*%
%ADD65C,4.30000*%
%ADD66C,3.00000*%
%TA.AperFunction,ViaPad*%
%ADD67C,0.80000*%
%ADD68C,0.60000*%
%ADD69C,1.00000*%
%ADD70C,0.50000*%
%ADD71C,3.20000*%
G36*
X12500000D02*
X0D01*
Y5000000D01*
X12500000D01*
Y0D01*
D02*
G37*
%LPC*%
G36*
X9307218Y4950400D02*
X9306700D01*
Y4862700D01*
X9394400D01*
Y4863218D01*
X9387558Y4888753D01*
X9374340Y4911647D01*
X9355647Y4930340D01*
X9332753Y4943558D01*
X9307218Y4950400D01*
D02*
G37*
G36*
X3981218D02*
X3980700D01*
Y4862700D01*
X4068400D01*
Y4863218D01*
X4061558Y4888753D01*
X4048340Y4911647D01*
X4029647Y4930340D01*
X4006753Y4943558D01*
X3981218Y4950400D01*
D02*
G37*
G36*
X3955300D02*
X3954782D01*
X3929247Y4943558D01*
X3906353Y4930340D01*
X3887660Y4911647D01*
X3874442Y4888753D01*
X3867600Y4863218D01*
Y4862700D01*
X3955300D01*
Y4950400D01*
D02*
G37*
G36*
X9281300D02*
X9280782D01*
X9255247Y4943558D01*
X9232353Y4930340D01*
X9213660Y4911647D01*
X9200442Y4888753D01*
X9193600Y4863218D01*
Y4862700D01*
X9281300D01*
Y4950400D01*
D02*
G37*
G36*
X10913000Y4945000D02*
X10723000D01*
Y4755000D01*
X10913000D01*
Y4945000D01*
D02*
G37*
G36*
X10576507D02*
X10551493D01*
X10527331Y4938526D01*
X10505669Y4926019D01*
X10487981Y4908331D01*
X10475474Y4886668D01*
X10469000Y4862507D01*
Y4837493D01*
X10475474Y4813331D01*
X10487981Y4791669D01*
X10505669Y4773981D01*
X10527331Y4761474D01*
X10551493Y4755000D01*
X10576507D01*
X10600668Y4761474D01*
X10622331Y4773981D01*
X10640019Y4791669D01*
X10652526Y4813331D01*
X10659000Y4837493D01*
Y4862507D01*
X10652526Y4886668D01*
X10640019Y4908331D01*
X10622331Y4926019D01*
X10600668Y4938526D01*
X10576507Y4945000D01*
D02*
G37*
G36*
X10322507D02*
X10297493D01*
X10273331Y4938526D01*
X10251669Y4926019D01*
X10233981Y4908331D01*
X10221474Y4886668D01*
X10215000Y4862507D01*
Y4837493D01*
X10221474Y4813331D01*
X10233981Y4791669D01*
X10251669Y4773981D01*
X10273331Y4761474D01*
X10297493Y4755000D01*
X10322507D01*
X10346668Y4761474D01*
X10368331Y4773981D01*
X10386019Y4791669D01*
X10398526Y4813331D01*
X10405000Y4837493D01*
Y4862507D01*
X10398526Y4886668D01*
X10386019Y4908331D01*
X10368331Y4926019D01*
X10346668Y4938526D01*
X10322507Y4945000D01*
D02*
G37*
G36*
X10068507D02*
X10043493D01*
X10019331Y4938526D01*
X9997669Y4926019D01*
X9979981Y4908331D01*
X9967474Y4886668D01*
X9961000Y4862507D01*
Y4837493D01*
X9967474Y4813331D01*
X9979981Y4791669D01*
X9997669Y4773981D01*
X10019331Y4761474D01*
X10043493Y4755000D01*
X10068507D01*
X10092668Y4761474D01*
X10114331Y4773981D01*
X10132019Y4791669D01*
X10144526Y4813331D01*
X10151000Y4837493D01*
Y4862507D01*
X10144526Y4886668D01*
X10132019Y4908331D01*
X10114331Y4926019D01*
X10092668Y4938526D01*
X10068507Y4945000D01*
D02*
G37*
G36*
X9560507D02*
X9535493D01*
X9511331Y4938526D01*
X9489669Y4926019D01*
X9471981Y4908331D01*
X9459474Y4886668D01*
X9453000Y4862507D01*
Y4837493D01*
X9459474Y4813331D01*
X9471981Y4791669D01*
X9489669Y4773981D01*
X9511331Y4761474D01*
X9535493Y4755000D01*
X9560507D01*
X9584668Y4761474D01*
X9606331Y4773981D01*
X9624019Y4791669D01*
X9636526Y4813331D01*
X9643000Y4837493D01*
Y4862507D01*
X9636526Y4886668D01*
X9624019Y4908331D01*
X9606331Y4926019D01*
X9584668Y4938526D01*
X9560507Y4945000D01*
D02*
G37*
G36*
X9052507D02*
X9027493D01*
X9003331Y4938526D01*
X8981669Y4926019D01*
X8963981Y4908331D01*
X8951474Y4886668D01*
X8945000Y4862507D01*
Y4837493D01*
X8951474Y4813331D01*
X8963981Y4791669D01*
X8981669Y4773981D01*
X9003331Y4761474D01*
X9027493Y4755000D01*
X9052507D01*
X9076668Y4761474D01*
X9098331Y4773981D01*
X9116019Y4791669D01*
X9128526Y4813331D01*
X9135000Y4837493D01*
Y4862507D01*
X9128526Y4886668D01*
X9116019Y4908331D01*
X9098331Y4926019D01*
X9076668Y4938526D01*
X9052507Y4945000D01*
D02*
G37*
G36*
X8798507D02*
X8773493D01*
X8749331Y4938526D01*
X8727669Y4926019D01*
X8709981Y4908331D01*
X8697474Y4886668D01*
X8691000Y4862507D01*
Y4837493D01*
X8697474Y4813331D01*
X8709981Y4791669D01*
X8727669Y4773981D01*
X8749331Y4761474D01*
X8773493Y4755000D01*
X8798507D01*
X8822668Y4761474D01*
X8844331Y4773981D01*
X8862019Y4791669D01*
X8874526Y4813331D01*
X8881000Y4837493D01*
Y4862507D01*
X8874526Y4886668D01*
X8862019Y4908331D01*
X8844331Y4926019D01*
X8822668Y4938526D01*
X8798507Y4945000D01*
D02*
G37*
G36*
X8544507D02*
X8519493D01*
X8495331Y4938526D01*
X8473669Y4926019D01*
X8455981Y4908331D01*
X8443474Y4886668D01*
X8437000Y4862507D01*
Y4837493D01*
X8443474Y4813331D01*
X8455981Y4791669D01*
X8473669Y4773981D01*
X8495331Y4761474D01*
X8519493Y4755000D01*
X8544507D01*
X8568668Y4761474D01*
X8590331Y4773981D01*
X8608019Y4791669D01*
X8620526Y4813331D01*
X8627000Y4837493D01*
Y4862507D01*
X8620526Y4886668D01*
X8608019Y4908331D01*
X8590331Y4926019D01*
X8568668Y4938526D01*
X8544507Y4945000D01*
D02*
G37*
G36*
X8290507D02*
X8265493D01*
X8241331Y4938526D01*
X8219669Y4926019D01*
X8201981Y4908331D01*
X8189474Y4886668D01*
X8183000Y4862507D01*
Y4837493D01*
X8189474Y4813331D01*
X8201981Y4791669D01*
X8219669Y4773981D01*
X8241331Y4761474D01*
X8265493Y4755000D01*
X8290507D01*
X8314668Y4761474D01*
X8336331Y4773981D01*
X8354019Y4791669D01*
X8366526Y4813331D01*
X8373000Y4837493D01*
Y4862507D01*
X8366526Y4886668D01*
X8354019Y4908331D01*
X8336331Y4926019D01*
X8314668Y4938526D01*
X8290507Y4945000D01*
D02*
G37*
G36*
X8036507D02*
X8011493D01*
X7987331Y4938526D01*
X7965669Y4926019D01*
X7947981Y4908331D01*
X7935474Y4886668D01*
X7929000Y4862507D01*
Y4837493D01*
X7935474Y4813331D01*
X7947981Y4791669D01*
X7965669Y4773981D01*
X7987331Y4761474D01*
X8011493Y4755000D01*
X8036507D01*
X8060668Y4761474D01*
X8082331Y4773981D01*
X8100019Y4791669D01*
X8112526Y4813331D01*
X8119000Y4837493D01*
Y4862507D01*
X8112526Y4886668D01*
X8100019Y4908331D01*
X8082331Y4926019D01*
X8060668Y4938526D01*
X8036507Y4945000D01*
D02*
G37*
G36*
X7782507D02*
X7757493D01*
X7733331Y4938526D01*
X7711669Y4926019D01*
X7693981Y4908331D01*
X7681474Y4886668D01*
X7675000Y4862507D01*
Y4837493D01*
X7681474Y4813331D01*
X7693981Y4791669D01*
X7711669Y4773981D01*
X7733331Y4761474D01*
X7757493Y4755000D01*
X7782507D01*
X7806668Y4761474D01*
X7828331Y4773981D01*
X7846019Y4791669D01*
X7858526Y4813331D01*
X7865000Y4837493D01*
Y4862507D01*
X7858526Y4886668D01*
X7846019Y4908331D01*
X7828331Y4926019D01*
X7806668Y4938526D01*
X7782507Y4945000D01*
D02*
G37*
G36*
X7274507D02*
X7249493D01*
X7225331Y4938526D01*
X7203669Y4926019D01*
X7185981Y4908331D01*
X7173474Y4886668D01*
X7167000Y4862507D01*
Y4837493D01*
X7173474Y4813331D01*
X7185981Y4791669D01*
X7203669Y4773981D01*
X7225331Y4761474D01*
X7249493Y4755000D01*
X7274507D01*
X7298668Y4761474D01*
X7320331Y4773981D01*
X7338019Y4791669D01*
X7350526Y4813331D01*
X7357000Y4837493D01*
Y4862507D01*
X7350526Y4886668D01*
X7338019Y4908331D01*
X7320331Y4926019D01*
X7298668Y4938526D01*
X7274507Y4945000D01*
D02*
G37*
G36*
X7020507D02*
X6995493D01*
X6971331Y4938526D01*
X6949669Y4926019D01*
X6931981Y4908331D01*
X6919474Y4886668D01*
X6913000Y4862507D01*
Y4837493D01*
X6919474Y4813331D01*
X6931981Y4791669D01*
X6949669Y4773981D01*
X6971331Y4761474D01*
X6995493Y4755000D01*
X7020507D01*
X7044668Y4761474D01*
X7066331Y4773981D01*
X7084019Y4791669D01*
X7096526Y4813331D01*
X7103000Y4837493D01*
Y4862507D01*
X7096526Y4886668D01*
X7084019Y4908331D01*
X7066331Y4926019D01*
X7044668Y4938526D01*
X7020507Y4945000D01*
D02*
G37*
G36*
X6766507D02*
X6741493D01*
X6717331Y4938526D01*
X6695669Y4926019D01*
X6677981Y4908331D01*
X6665474Y4886668D01*
X6659000Y4862507D01*
Y4837493D01*
X6665474Y4813331D01*
X6677981Y4791669D01*
X6695669Y4773981D01*
X6717331Y4761474D01*
X6741493Y4755000D01*
X6766507D01*
X6790668Y4761474D01*
X6812331Y4773981D01*
X6830019Y4791669D01*
X6842526Y4813331D01*
X6849000Y4837493D01*
Y4862507D01*
X6842526Y4886668D01*
X6830019Y4908331D01*
X6812331Y4926019D01*
X6790668Y4938526D01*
X6766507Y4945000D01*
D02*
G37*
G36*
X6512507D02*
X6487493D01*
X6463331Y4938526D01*
X6441669Y4926019D01*
X6423981Y4908331D01*
X6411474Y4886668D01*
X6405000Y4862507D01*
Y4837493D01*
X6411474Y4813331D01*
X6423981Y4791669D01*
X6441669Y4773981D01*
X6463331Y4761474D01*
X6487493Y4755000D01*
X6512507D01*
X6536668Y4761474D01*
X6558331Y4773981D01*
X6576019Y4791669D01*
X6588526Y4813331D01*
X6595000Y4837493D01*
Y4862507D01*
X6588526Y4886668D01*
X6576019Y4908331D01*
X6558331Y4926019D01*
X6536668Y4938526D01*
X6512507Y4945000D01*
D02*
G37*
G36*
X6095000D02*
X5905000D01*
Y4755000D01*
X6095000D01*
Y4945000D01*
D02*
G37*
G36*
X5758507D02*
X5733493D01*
X5709331Y4938526D01*
X5687669Y4926019D01*
X5669981Y4908331D01*
X5657474Y4886668D01*
X5651000Y4862507D01*
Y4837493D01*
X5657474Y4813331D01*
X5669981Y4791669D01*
X5687669Y4773981D01*
X5709331Y4761474D01*
X5733493Y4755000D01*
X5758507D01*
X5782668Y4761474D01*
X5804331Y4773981D01*
X5822019Y4791669D01*
X5834526Y4813331D01*
X5841000Y4837493D01*
Y4862507D01*
X5834526Y4886668D01*
X5822019Y4908331D01*
X5804331Y4926019D01*
X5782668Y4938526D01*
X5758507Y4945000D01*
D02*
G37*
G36*
X5504507D02*
X5479493D01*
X5455331Y4938526D01*
X5433669Y4926019D01*
X5415981Y4908331D01*
X5403474Y4886668D01*
X5397000Y4862507D01*
Y4837493D01*
X5403474Y4813331D01*
X5415981Y4791669D01*
X5433669Y4773981D01*
X5455331Y4761474D01*
X5479493Y4755000D01*
X5504507D01*
X5528668Y4761474D01*
X5550331Y4773981D01*
X5568019Y4791669D01*
X5580526Y4813331D01*
X5587000Y4837493D01*
Y4862507D01*
X5580526Y4886668D01*
X5568019Y4908331D01*
X5550331Y4926019D01*
X5528668Y4938526D01*
X5504507Y4945000D01*
D02*
G37*
G36*
X5250507D02*
X5225493D01*
X5201331Y4938526D01*
X5179669Y4926019D01*
X5161981Y4908331D01*
X5149474Y4886668D01*
X5143000Y4862507D01*
Y4837493D01*
X5149474Y4813331D01*
X5161981Y4791669D01*
X5179669Y4773981D01*
X5201331Y4761474D01*
X5225493Y4755000D01*
X5250507D01*
X5274668Y4761474D01*
X5296331Y4773981D01*
X5314019Y4791669D01*
X5326526Y4813331D01*
X5333000Y4837493D01*
Y4862507D01*
X5326526Y4886668D01*
X5314019Y4908331D01*
X5296331Y4926019D01*
X5274668Y4938526D01*
X5250507Y4945000D01*
D02*
G37*
G36*
X4996507D02*
X4971493D01*
X4947331Y4938526D01*
X4925669Y4926019D01*
X4907981Y4908331D01*
X4895474Y4886668D01*
X4889000Y4862507D01*
Y4837493D01*
X4895474Y4813331D01*
X4907981Y4791669D01*
X4925669Y4773981D01*
X4947331Y4761474D01*
X4971493Y4755000D01*
X4996507D01*
X5020668Y4761474D01*
X5042331Y4773981D01*
X5060019Y4791669D01*
X5072526Y4813331D01*
X5079000Y4837493D01*
Y4862507D01*
X5072526Y4886668D01*
X5060019Y4908331D01*
X5042331Y4926019D01*
X5020668Y4938526D01*
X4996507Y4945000D01*
D02*
G37*
G36*
X4742507D02*
X4717493D01*
X4693331Y4938526D01*
X4671669Y4926019D01*
X4653981Y4908331D01*
X4641474Y4886668D01*
X4635000Y4862507D01*
Y4837493D01*
X4641474Y4813331D01*
X4653981Y4791669D01*
X4671669Y4773981D01*
X4693331Y4761474D01*
X4717493Y4755000D01*
X4742507D01*
X4766668Y4761474D01*
X4788331Y4773981D01*
X4806019Y4791669D01*
X4818526Y4813331D01*
X4825000Y4837493D01*
Y4862507D01*
X4818526Y4886668D01*
X4806019Y4908331D01*
X4788331Y4926019D01*
X4766668Y4938526D01*
X4742507Y4945000D01*
D02*
G37*
G36*
X4488507D02*
X4463493D01*
X4439331Y4938526D01*
X4417669Y4926019D01*
X4399981Y4908331D01*
X4387474Y4886668D01*
X4381000Y4862507D01*
Y4837493D01*
X4387474Y4813331D01*
X4399981Y4791669D01*
X4417669Y4773981D01*
X4439331Y4761474D01*
X4463493Y4755000D01*
X4488507D01*
X4512668Y4761474D01*
X4534331Y4773981D01*
X4552019Y4791669D01*
X4564526Y4813331D01*
X4571000Y4837493D01*
Y4862507D01*
X4564526Y4886668D01*
X4552019Y4908331D01*
X4534331Y4926019D01*
X4512668Y4938526D01*
X4488507Y4945000D01*
D02*
G37*
G36*
X4234507D02*
X4209493D01*
X4185331Y4938526D01*
X4163669Y4926019D01*
X4145981Y4908331D01*
X4133474Y4886668D01*
X4127000Y4862507D01*
Y4837493D01*
X4133474Y4813331D01*
X4145981Y4791669D01*
X4163669Y4773981D01*
X4185331Y4761474D01*
X4209493Y4755000D01*
X4234507D01*
X4258668Y4761474D01*
X4280331Y4773981D01*
X4298019Y4791669D01*
X4310526Y4813331D01*
X4317000Y4837493D01*
Y4862507D01*
X4310526Y4886668D01*
X4298019Y4908331D01*
X4280331Y4926019D01*
X4258668Y4938526D01*
X4234507Y4945000D01*
D02*
G37*
G36*
X3726507D02*
X3701493D01*
X3677331Y4938526D01*
X3655669Y4926019D01*
X3637981Y4908331D01*
X3625474Y4886668D01*
X3619000Y4862507D01*
Y4837493D01*
X3625474Y4813331D01*
X3637981Y4791669D01*
X3655669Y4773981D01*
X3677331Y4761474D01*
X3701493Y4755000D01*
X3726507D01*
X3750668Y4761474D01*
X3772331Y4773981D01*
X3790019Y4791669D01*
X3802526Y4813331D01*
X3809000Y4837493D01*
Y4862507D01*
X3802526Y4886668D01*
X3790019Y4908331D01*
X3772331Y4926019D01*
X3750668Y4938526D01*
X3726507Y4945000D01*
D02*
G37*
G36*
X3472507D02*
X3447493D01*
X3423331Y4938526D01*
X3401669Y4926019D01*
X3383981Y4908331D01*
X3371474Y4886668D01*
X3365000Y4862507D01*
Y4837493D01*
X3371474Y4813331D01*
X3383981Y4791669D01*
X3401669Y4773981D01*
X3423331Y4761474D01*
X3447493Y4755000D01*
X3472507D01*
X3496668Y4761474D01*
X3518331Y4773981D01*
X3536019Y4791669D01*
X3548526Y4813331D01*
X3555000Y4837493D01*
Y4862507D01*
X3548526Y4886668D01*
X3536019Y4908331D01*
X3518331Y4926019D01*
X3496668Y4938526D01*
X3472507Y4945000D01*
D02*
G37*
G36*
X3218507D02*
X3193493D01*
X3169331Y4938526D01*
X3147669Y4926019D01*
X3129981Y4908331D01*
X3117474Y4886668D01*
X3111000Y4862507D01*
Y4837493D01*
X3117474Y4813331D01*
X3129981Y4791669D01*
X3147669Y4773981D01*
X3169331Y4761474D01*
X3193493Y4755000D01*
X3218507D01*
X3242668Y4761474D01*
X3264331Y4773981D01*
X3282019Y4791669D01*
X3294526Y4813331D01*
X3301000Y4837493D01*
Y4862507D01*
X3294526Y4886668D01*
X3282019Y4908331D01*
X3264331Y4926019D01*
X3242668Y4938526D01*
X3218507Y4945000D01*
D02*
G37*
G36*
X2964507D02*
X2939493D01*
X2915331Y4938526D01*
X2893669Y4926019D01*
X2875981Y4908331D01*
X2863474Y4886668D01*
X2857000Y4862507D01*
Y4837493D01*
X2863474Y4813331D01*
X2875981Y4791669D01*
X2893669Y4773981D01*
X2915331Y4761474D01*
X2939493Y4755000D01*
X2964507D01*
X2988668Y4761474D01*
X3010331Y4773981D01*
X3028019Y4791669D01*
X3040526Y4813331D01*
X3047000Y4837493D01*
Y4862507D01*
X3040526Y4886668D01*
X3028019Y4908331D01*
X3010331Y4926019D01*
X2988668Y4938526D01*
X2964507Y4945000D01*
D02*
G37*
G36*
X2710507D02*
X2685493D01*
X2661331Y4938526D01*
X2639669Y4926019D01*
X2621981Y4908331D01*
X2609474Y4886668D01*
X2603000Y4862507D01*
Y4837493D01*
X2609474Y4813331D01*
X2621981Y4791669D01*
X2639669Y4773981D01*
X2661331Y4761474D01*
X2685493Y4755000D01*
X2710507D01*
X2734668Y4761474D01*
X2756331Y4773981D01*
X2774019Y4791669D01*
X2786526Y4813331D01*
X2793000Y4837493D01*
Y4862507D01*
X2786526Y4886668D01*
X2774019Y4908331D01*
X2756331Y4926019D01*
X2734668Y4938526D01*
X2710507Y4945000D01*
D02*
G37*
G36*
X2456507D02*
X2431493D01*
X2407331Y4938526D01*
X2385669Y4926019D01*
X2367981Y4908331D01*
X2355474Y4886668D01*
X2349000Y4862507D01*
Y4837493D01*
X2355474Y4813331D01*
X2367981Y4791669D01*
X2385669Y4773981D01*
X2407331Y4761474D01*
X2431493Y4755000D01*
X2456507D01*
X2480668Y4761474D01*
X2502331Y4773981D01*
X2520019Y4791669D01*
X2532526Y4813331D01*
X2539000Y4837493D01*
Y4862507D01*
X2532526Y4886668D01*
X2520019Y4908331D01*
X2502331Y4926019D01*
X2480668Y4938526D01*
X2456507Y4945000D01*
D02*
G37*
G36*
X2202507D02*
X2177493D01*
X2153331Y4938526D01*
X2131669Y4926019D01*
X2113981Y4908331D01*
X2101474Y4886668D01*
X2095000Y4862507D01*
Y4837493D01*
X2101474Y4813331D01*
X2113981Y4791669D01*
X2131669Y4773981D01*
X2153331Y4761474D01*
X2177493Y4755000D01*
X2202507D01*
X2226668Y4761474D01*
X2248331Y4773981D01*
X2266019Y4791669D01*
X2278526Y4813331D01*
X2285000Y4837493D01*
Y4862507D01*
X2278526Y4886668D01*
X2266019Y4908331D01*
X2248331Y4926019D01*
X2226668Y4938526D01*
X2202507Y4945000D01*
D02*
G37*
G36*
X1948507D02*
X1923493D01*
X1899331Y4938526D01*
X1877669Y4926019D01*
X1859981Y4908331D01*
X1847474Y4886668D01*
X1841000Y4862507D01*
Y4837493D01*
X1847474Y4813331D01*
X1859981Y4791669D01*
X1877669Y4773981D01*
X1899331Y4761474D01*
X1923493Y4755000D01*
X1948507D01*
X1972668Y4761474D01*
X1994331Y4773981D01*
X2012019Y4791669D01*
X2024526Y4813331D01*
X2031000Y4837493D01*
Y4862507D01*
X2024526Y4886668D01*
X2012019Y4908331D01*
X1994331Y4926019D01*
X1972668Y4938526D01*
X1948507Y4945000D01*
D02*
G37*
G36*
X1694507D02*
X1669493D01*
X1645331Y4938526D01*
X1623669Y4926019D01*
X1605981Y4908331D01*
X1593474Y4886668D01*
X1587000Y4862507D01*
Y4837493D01*
X1593474Y4813331D01*
X1605981Y4791669D01*
X1623669Y4773981D01*
X1645331Y4761474D01*
X1669493Y4755000D01*
X1694507D01*
X1718668Y4761474D01*
X1740331Y4773981D01*
X1758019Y4791669D01*
X1770526Y4813331D01*
X1777000Y4837493D01*
Y4862507D01*
X1770526Y4886668D01*
X1758019Y4908331D01*
X1740331Y4926019D01*
X1718668Y4938526D01*
X1694507Y4945000D01*
D02*
G37*
G36*
X9814507Y4945000D02*
X9789493D01*
X9765331Y4938525D01*
X9743669Y4926018D01*
X9725981Y4908331D01*
X9713474Y4886668D01*
X9707000Y4862507D01*
Y4837493D01*
X9713474Y4813331D01*
X9725981Y4791669D01*
X9743669Y4773981D01*
X9765331Y4761474D01*
X9789493Y4755000D01*
X9814507D01*
X9838668Y4761474D01*
X9860331Y4773981D01*
X9878018Y4791669D01*
X9890525Y4813331D01*
X9897000Y4837493D01*
Y4862507D01*
X9890525Y4886668D01*
X9878018Y4908331D01*
X9860331Y4926018D01*
X9838668Y4938525D01*
X9814507Y4945000D01*
D02*
G37*
G36*
X7528507D02*
X7503493D01*
X7479331Y4938525D01*
X7457669Y4926018D01*
X7439981Y4908331D01*
X7427474Y4886668D01*
X7421000Y4862507D01*
Y4837493D01*
X7427474Y4813331D01*
X7439981Y4791669D01*
X7457669Y4773981D01*
X7479331Y4761474D01*
X7503493Y4755000D01*
X7528507D01*
X7552668Y4761474D01*
X7574331Y4773981D01*
X7592019Y4791669D01*
X7604526Y4813331D01*
X7611000Y4837493D01*
Y4862507D01*
X7604526Y4886668D01*
X7592019Y4908331D01*
X7574331Y4926018D01*
X7552668Y4938525D01*
X7528507Y4945000D01*
D02*
G37*
G36*
X9394400Y4837300D02*
X9306700D01*
Y4749600D01*
X9307218D01*
X9332753Y4756442D01*
X9355647Y4769660D01*
X9374340Y4788353D01*
X9387558Y4811247D01*
X9394400Y4836782D01*
Y4837300D01*
D02*
G37*
G36*
X9281300D02*
X9193600D01*
Y4836782D01*
X9200442Y4811247D01*
X9213660Y4788353D01*
X9232353Y4769660D01*
X9255247Y4756442D01*
X9280782Y4749600D01*
X9281300D01*
Y4837300D01*
D02*
G37*
G36*
X4068400D02*
X3980700D01*
Y4749600D01*
X3981218D01*
X4006753Y4756442D01*
X4029647Y4769660D01*
X4048340Y4788353D01*
X4061558Y4811247D01*
X4068400Y4836782D01*
Y4837300D01*
D02*
G37*
G36*
X3955300D02*
X3867600D01*
Y4836782D01*
X3874442Y4811247D01*
X3887660Y4788353D01*
X3906353Y4769660D01*
X3929247Y4756442D01*
X3954782Y4749600D01*
X3955300D01*
Y4837300D01*
D02*
G37*
G36*
X7783218Y4696400D02*
X7782700D01*
Y4608700D01*
X7870400D01*
Y4609218D01*
X7863558Y4634753D01*
X7850340Y4657647D01*
X7831647Y4676340D01*
X7808753Y4689558D01*
X7783218Y4696400D01*
D02*
G37*
G36*
X5505218D02*
X5504700D01*
Y4608700D01*
X5592400D01*
Y4609218D01*
X5585558Y4634753D01*
X5572340Y4657647D01*
X5553647Y4676340D01*
X5530753Y4689558D01*
X5505218Y4696400D01*
D02*
G37*
G36*
X3981218D02*
X3980700D01*
Y4608700D01*
X4068400D01*
Y4609218D01*
X4061558Y4634753D01*
X4048340Y4657647D01*
X4029647Y4676340D01*
X4006753Y4689558D01*
X3981218Y4696400D01*
D02*
G37*
G36*
X7757300D02*
X7756782D01*
X7731247Y4689558D01*
X7708353Y4676340D01*
X7689660Y4657647D01*
X7676442Y4634753D01*
X7669600Y4609218D01*
Y4608700D01*
X7757300D01*
Y4696400D01*
D02*
G37*
G36*
X5479300D02*
X5478782D01*
X5453247Y4689558D01*
X5430353Y4676340D01*
X5411660Y4657647D01*
X5398442Y4634753D01*
X5391600Y4609218D01*
Y4608700D01*
X5479300D01*
Y4696400D01*
D02*
G37*
G36*
X3955300D02*
X3954782D01*
X3929247Y4689558D01*
X3906353Y4676340D01*
X3887660Y4657647D01*
X3874442Y4634753D01*
X3867600Y4609218D01*
Y4608700D01*
X3955300D01*
Y4696400D01*
D02*
G37*
G36*
X12217728Y4880000D02*
X12182272D01*
X12147496Y4873083D01*
X12114738Y4859514D01*
X12085257Y4839815D01*
X12060185Y4814743D01*
X12040486Y4785262D01*
X12026917Y4752504D01*
X12020000Y4717728D01*
Y4682272D01*
X12026917Y4647496D01*
X12040486Y4614738D01*
X12060185Y4585257D01*
X12085257Y4560185D01*
X12114738Y4540486D01*
X12147496Y4526917D01*
X12182272Y4520000D01*
X12217728D01*
X12252504Y4526917D01*
X12285262Y4540486D01*
X12314743Y4560185D01*
X12339815Y4585257D01*
X12359514Y4614738D01*
X12373083Y4647496D01*
X12380000Y4682272D01*
Y4717728D01*
X12373083Y4752504D01*
X12359514Y4785262D01*
X12339815Y4814743D01*
X12314743Y4839815D01*
X12285262Y4859514D01*
X12252504Y4873083D01*
X12217728Y4880000D01*
D02*
G37*
G36*
X317728D02*
X282271D01*
X247496Y4873083D01*
X214738Y4859514D01*
X185257Y4839815D01*
X160185Y4814743D01*
X140486Y4785262D01*
X126917Y4752504D01*
X120000Y4717728D01*
Y4682272D01*
X126917Y4647496D01*
X140486Y4614738D01*
X160185Y4585257D01*
X185257Y4560185D01*
X214738Y4540486D01*
X247496Y4526917D01*
X282271Y4520000D01*
X317728D01*
X352504Y4526917D01*
X385262Y4540486D01*
X414743Y4560185D01*
X439815Y4585257D01*
X459514Y4614738D01*
X473083Y4647496D01*
X480000Y4682272D01*
Y4717728D01*
X473083Y4752504D01*
X459514Y4785262D01*
X439815Y4814743D01*
X414743Y4839815D01*
X385262Y4859514D01*
X352504Y4873083D01*
X317728Y4880000D01*
D02*
G37*
G36*
X9306507Y4691000D02*
X9281493D01*
X9257332Y4684526D01*
X9235669Y4672019D01*
X9217982Y4654331D01*
X9205475Y4632669D01*
X9199000Y4608507D01*
Y4583493D01*
X9205475Y4559332D01*
X9217982Y4537669D01*
X9235669Y4519982D01*
X9257332Y4507475D01*
X9281493Y4501000D01*
X9306507D01*
X9330669Y4507475D01*
X9352331Y4519982D01*
X9370019Y4537669D01*
X9382526Y4559332D01*
X9389000Y4583493D01*
Y4608507D01*
X9382526Y4632669D01*
X9370019Y4654331D01*
X9352331Y4672019D01*
X9330669Y4684526D01*
X9306507Y4691000D01*
D02*
G37*
G36*
X8036507D02*
X8011493D01*
X7987331Y4684526D01*
X7965669Y4672019D01*
X7947981Y4654331D01*
X7935474Y4632669D01*
X7929000Y4608507D01*
Y4583493D01*
X7935474Y4559332D01*
X7947981Y4537669D01*
X7965669Y4519982D01*
X7987331Y4507475D01*
X8011493Y4501000D01*
X8036507D01*
X8060668Y4507475D01*
X8082331Y4519982D01*
X8100018Y4537669D01*
X8112525Y4559332D01*
X8119000Y4583493D01*
Y4608507D01*
X8112525Y4632669D01*
X8100018Y4654331D01*
X8082331Y4672019D01*
X8060668Y4684526D01*
X8036507Y4691000D01*
D02*
G37*
G36*
X7020507D02*
X6995493D01*
X6971332Y4684526D01*
X6949669Y4672019D01*
X6931982Y4654331D01*
X6919475Y4632669D01*
X6913000Y4608507D01*
Y4583493D01*
X6919475Y4559332D01*
X6931982Y4537669D01*
X6949669Y4519982D01*
X6971332Y4507475D01*
X6995493Y4501000D01*
X7020507D01*
X7044669Y4507475D01*
X7066331Y4519982D01*
X7084019Y4537669D01*
X7096526Y4559332D01*
X7103000Y4583493D01*
Y4608507D01*
X7096526Y4632669D01*
X7084019Y4654331D01*
X7066331Y4672019D01*
X7044669Y4684526D01*
X7020507Y4691000D01*
D02*
G37*
G36*
X5250507D02*
X5225493D01*
X5201331Y4684526D01*
X5179669Y4672019D01*
X5161981Y4654331D01*
X5149474Y4632669D01*
X5143000Y4608507D01*
Y4583493D01*
X5149474Y4559332D01*
X5161981Y4537669D01*
X5179669Y4519982D01*
X5201331Y4507475D01*
X5225493Y4501000D01*
X5250507D01*
X5274668Y4507475D01*
X5296331Y4519982D01*
X5314019Y4537669D01*
X5326526Y4559332D01*
X5333000Y4583493D01*
Y4608507D01*
X5326526Y4632669D01*
X5314019Y4654331D01*
X5296331Y4672019D01*
X5274668Y4684526D01*
X5250507Y4691000D01*
D02*
G37*
G36*
X4488507D02*
X4463493D01*
X4439331Y4684526D01*
X4417669Y4672019D01*
X4399981Y4654331D01*
X4387474Y4632669D01*
X4381000Y4608507D01*
Y4583493D01*
X4387474Y4559332D01*
X4399981Y4537669D01*
X4417669Y4519982D01*
X4439331Y4507475D01*
X4463493Y4501000D01*
X4488507D01*
X4512668Y4507475D01*
X4534331Y4519982D01*
X4552019Y4537669D01*
X4564526Y4559332D01*
X4571000Y4583493D01*
Y4608507D01*
X4564526Y4632669D01*
X4552019Y4654331D01*
X4534331Y4672019D01*
X4512668Y4684526D01*
X4488507Y4691000D01*
D02*
G37*
G36*
X3218507D02*
X3193493D01*
X3169331Y4684526D01*
X3147669Y4672019D01*
X3129981Y4654331D01*
X3117474Y4632669D01*
X3111000Y4608507D01*
Y4583493D01*
X3117474Y4559332D01*
X3129981Y4537669D01*
X3147669Y4519982D01*
X3169331Y4507475D01*
X3193493Y4501000D01*
X3218507D01*
X3242668Y4507475D01*
X3264331Y4519982D01*
X3282018Y4537669D01*
X3294525Y4559332D01*
X3300999Y4583493D01*
Y4608507D01*
X3294525Y4632669D01*
X3282018Y4654331D01*
X3264331Y4672019D01*
X3242668Y4684526D01*
X3218507Y4691000D01*
D02*
G37*
G36*
X2964507D02*
X2939493D01*
X2915332Y4684526D01*
X2893669Y4672019D01*
X2875982Y4654331D01*
X2863475Y4632669D01*
X2857000Y4608507D01*
Y4583493D01*
X2863475Y4559332D01*
X2875982Y4537669D01*
X2893669Y4519982D01*
X2915332Y4507475D01*
X2939493Y4501000D01*
X2964507D01*
X2988669Y4507475D01*
X3010331Y4519982D01*
X3028019Y4537669D01*
X3040526Y4559332D01*
X3047000Y4583493D01*
Y4608507D01*
X3040526Y4632669D01*
X3028019Y4654331D01*
X3010331Y4672019D01*
X2988669Y4684526D01*
X2964507Y4691000D01*
D02*
G37*
G36*
X2202507D02*
X2177493D01*
X2153331Y4684526D01*
X2131669Y4672019D01*
X2113981Y4654331D01*
X2101474Y4632669D01*
X2095000Y4608507D01*
Y4583493D01*
X2101474Y4559332D01*
X2113981Y4537669D01*
X2131669Y4519982D01*
X2153331Y4507475D01*
X2177493Y4501000D01*
X2202507D01*
X2226668Y4507475D01*
X2248331Y4519982D01*
X2266019Y4537669D01*
X2278526Y4559332D01*
X2285000Y4583493D01*
Y4608507D01*
X2278526Y4632669D01*
X2266019Y4654331D01*
X2248331Y4672019D01*
X2226668Y4684526D01*
X2202507Y4691000D01*
D02*
G37*
G36*
X10830507Y4691000D02*
X10805493D01*
X10781331Y4684526D01*
X10759669Y4672019D01*
X10741981Y4654331D01*
X10729474Y4632668D01*
X10723000Y4608507D01*
Y4583493D01*
X10729474Y4559331D01*
X10741981Y4537669D01*
X10759669Y4519981D01*
X10781331Y4507474D01*
X10805493Y4501000D01*
X10830507D01*
X10854668Y4507474D01*
X10876331Y4519981D01*
X10894019Y4537669D01*
X10906526Y4559331D01*
X10913000Y4583493D01*
Y4608507D01*
X10906526Y4632668D01*
X10894019Y4654331D01*
X10876331Y4672019D01*
X10854668Y4684526D01*
X10830507Y4691000D01*
D02*
G37*
G36*
X10576507D02*
X10551493D01*
X10527331Y4684526D01*
X10505669Y4672019D01*
X10487981Y4654331D01*
X10475474Y4632668D01*
X10469000Y4608507D01*
Y4583493D01*
X10475474Y4559331D01*
X10487981Y4537669D01*
X10505669Y4519981D01*
X10527331Y4507474D01*
X10551493Y4501000D01*
X10576507D01*
X10600668Y4507474D01*
X10622331Y4519981D01*
X10640019Y4537669D01*
X10652526Y4559331D01*
X10659000Y4583493D01*
Y4608507D01*
X10652526Y4632668D01*
X10640019Y4654331D01*
X10622331Y4672019D01*
X10600668Y4684526D01*
X10576507Y4691000D01*
D02*
G37*
G36*
X10322507D02*
X10297493D01*
X10273331Y4684526D01*
X10251669Y4672019D01*
X10233981Y4654331D01*
X10221474Y4632668D01*
X10215000Y4608507D01*
Y4583493D01*
X10221474Y4559331D01*
X10233981Y4537669D01*
X10251669Y4519981D01*
X10273331Y4507474D01*
X10297493Y4501000D01*
X10322507D01*
X10346668Y4507474D01*
X10368331Y4519981D01*
X10386019Y4537669D01*
X10398526Y4559331D01*
X10405000Y4583493D01*
Y4608507D01*
X10398526Y4632668D01*
X10386019Y4654331D01*
X10368331Y4672019D01*
X10346668Y4684526D01*
X10322507Y4691000D01*
D02*
G37*
G36*
X10068507D02*
X10043493D01*
X10019331Y4684526D01*
X9997669Y4672019D01*
X9979981Y4654331D01*
X9967474Y4632668D01*
X9961000Y4608507D01*
Y4583493D01*
X9967474Y4559331D01*
X9979981Y4537669D01*
X9997669Y4519981D01*
X10019331Y4507474D01*
X10043493Y4501000D01*
X10068507D01*
X10092668Y4507474D01*
X10114331Y4519981D01*
X10132018Y4537669D01*
X10144525Y4559331D01*
X10151000Y4583493D01*
Y4608507D01*
X10144525Y4632668D01*
X10132018Y4654331D01*
X10114331Y4672019D01*
X10092668Y4684526D01*
X10068507Y4691000D01*
D02*
G37*
G36*
X9814507D02*
X9789493D01*
X9765331Y4684526D01*
X9743669Y4672019D01*
X9725981Y4654331D01*
X9713474Y4632668D01*
X9707000Y4608507D01*
Y4583493D01*
X9713474Y4559331D01*
X9725981Y4537669D01*
X9743669Y4519981D01*
X9765331Y4507474D01*
X9789493Y4501000D01*
X9814507D01*
X9838668Y4507474D01*
X9860331Y4519981D01*
X9878019Y4537669D01*
X9890526Y4559331D01*
X9897000Y4583493D01*
Y4608507D01*
X9890526Y4632668D01*
X9878019Y4654331D01*
X9860331Y4672019D01*
X9838668Y4684526D01*
X9814507Y4691000D01*
D02*
G37*
G36*
X9560507D02*
X9535493D01*
X9511331Y4684526D01*
X9489669Y4672019D01*
X9471981Y4654331D01*
X9459474Y4632668D01*
X9453000Y4608507D01*
Y4583493D01*
X9459474Y4559331D01*
X9471981Y4537669D01*
X9489669Y4519981D01*
X9511331Y4507474D01*
X9535493Y4501000D01*
X9560507D01*
X9584668Y4507474D01*
X9606331Y4519981D01*
X9624019Y4537669D01*
X9636526Y4559331D01*
X9643000Y4583493D01*
Y4608507D01*
X9636526Y4632668D01*
X9624019Y4654331D01*
X9606331Y4672019D01*
X9584668Y4684526D01*
X9560507Y4691000D01*
D02*
G37*
G36*
X9052507D02*
X9027493D01*
X9003331Y4684526D01*
X8981669Y4672019D01*
X8963981Y4654331D01*
X8951474Y4632668D01*
X8945000Y4608507D01*
Y4583493D01*
X8951474Y4559331D01*
X8963981Y4537669D01*
X8981669Y4519981D01*
X9003331Y4507474D01*
X9027493Y4501000D01*
X9052507D01*
X9076668Y4507474D01*
X9098331Y4519981D01*
X9116019Y4537669D01*
X9128526Y4559331D01*
X9135000Y4583493D01*
Y4608507D01*
X9128526Y4632668D01*
X9116019Y4654331D01*
X9098331Y4672019D01*
X9076668Y4684526D01*
X9052507Y4691000D01*
D02*
G37*
G36*
X8798507D02*
X8773493D01*
X8749332Y4684526D01*
X8727669Y4672019D01*
X8709982Y4654331D01*
X8697475Y4632668D01*
X8691000Y4608507D01*
Y4583493D01*
X8697475Y4559331D01*
X8709982Y4537669D01*
X8727669Y4519981D01*
X8749332Y4507474D01*
X8773493Y4501000D01*
X8798507D01*
X8822669Y4507474D01*
X8844331Y4519981D01*
X8862019Y4537669D01*
X8874526Y4559331D01*
X8881000Y4583493D01*
Y4608507D01*
X8874526Y4632668D01*
X8862019Y4654331D01*
X8844331Y4672019D01*
X8822669Y4684526D01*
X8798507Y4691000D01*
D02*
G37*
G36*
X8544507D02*
X8519493D01*
X8495331Y4684526D01*
X8473669Y4672019D01*
X8455981Y4654331D01*
X8443474Y4632668D01*
X8437000Y4608507D01*
Y4583493D01*
X8443474Y4559331D01*
X8455981Y4537669D01*
X8473669Y4519981D01*
X8495331Y4507474D01*
X8519493Y4501000D01*
X8544507D01*
X8568668Y4507474D01*
X8590331Y4519981D01*
X8608019Y4537669D01*
X8620526Y4559331D01*
X8627000Y4583493D01*
Y4608507D01*
X8620526Y4632668D01*
X8608019Y4654331D01*
X8590331Y4672019D01*
X8568668Y4684526D01*
X8544507Y4691000D01*
D02*
G37*
G36*
X8290507D02*
X8265493D01*
X8241331Y4684526D01*
X8219669Y4672019D01*
X8201981Y4654331D01*
X8189474Y4632668D01*
X8183000Y4608507D01*
Y4583493D01*
X8189474Y4559331D01*
X8201981Y4537669D01*
X8219669Y4519981D01*
X8241331Y4507474D01*
X8265493Y4501000D01*
X8290507D01*
X8314668Y4507474D01*
X8336331Y4519981D01*
X8354019Y4537669D01*
X8366526Y4559331D01*
X8373000Y4583493D01*
Y4608507D01*
X8366526Y4632668D01*
X8354019Y4654331D01*
X8336331Y4672019D01*
X8314668Y4684526D01*
X8290507Y4691000D01*
D02*
G37*
G36*
X7528507D02*
X7503493D01*
X7479331Y4684526D01*
X7457669Y4672019D01*
X7439981Y4654331D01*
X7427474Y4632668D01*
X7421000Y4608507D01*
Y4583493D01*
X7427474Y4559331D01*
X7439981Y4537669D01*
X7457669Y4519981D01*
X7479331Y4507474D01*
X7503493Y4501000D01*
X7528507D01*
X7552668Y4507474D01*
X7574331Y4519981D01*
X7592019Y4537669D01*
X7604526Y4559331D01*
X7611000Y4583493D01*
Y4608507D01*
X7604526Y4632668D01*
X7592019Y4654331D01*
X7574331Y4672019D01*
X7552668Y4684526D01*
X7528507Y4691000D01*
D02*
G37*
G36*
X7274507D02*
X7249493D01*
X7225331Y4684526D01*
X7203669Y4672019D01*
X7185981Y4654331D01*
X7173474Y4632668D01*
X7167000Y4608507D01*
Y4583493D01*
X7173474Y4559331D01*
X7185981Y4537669D01*
X7203669Y4519981D01*
X7225331Y4507474D01*
X7249493Y4501000D01*
X7274507D01*
X7298668Y4507474D01*
X7320331Y4519981D01*
X7338019Y4537669D01*
X7350526Y4559331D01*
X7357000Y4583493D01*
Y4608507D01*
X7350526Y4632668D01*
X7338019Y4654331D01*
X7320331Y4672019D01*
X7298668Y4684526D01*
X7274507Y4691000D01*
D02*
G37*
G36*
X6766507D02*
X6741493D01*
X6717331Y4684526D01*
X6695669Y4672019D01*
X6677981Y4654331D01*
X6665474Y4632668D01*
X6659000Y4608507D01*
Y4583493D01*
X6665474Y4559331D01*
X6677981Y4537669D01*
X6695669Y4519981D01*
X6717331Y4507474D01*
X6741493Y4501000D01*
X6766507D01*
X6790668Y4507474D01*
X6812331Y4519981D01*
X6830019Y4537669D01*
X6842526Y4559331D01*
X6849000Y4583493D01*
Y4608507D01*
X6842526Y4632668D01*
X6830019Y4654331D01*
X6812331Y4672019D01*
X6790668Y4684526D01*
X6766507Y4691000D01*
D02*
G37*
G36*
X6512507D02*
X6487493D01*
X6463332Y4684526D01*
X6441669Y4672019D01*
X6423982Y4654331D01*
X6411475Y4632668D01*
X6405000Y4608507D01*
Y4583493D01*
X6411475Y4559331D01*
X6423982Y4537669D01*
X6441669Y4519981D01*
X6463332Y4507474D01*
X6487493Y4501000D01*
X6512507D01*
X6536669Y4507474D01*
X6558331Y4519981D01*
X6576019Y4537669D01*
X6588526Y4559331D01*
X6595000Y4583493D01*
Y4608507D01*
X6588526Y4632668D01*
X6576019Y4654331D01*
X6558331Y4672019D01*
X6536669Y4684526D01*
X6512507Y4691000D01*
D02*
G37*
G36*
X6012507D02*
X5987493D01*
X5963331Y4684526D01*
X5941669Y4672019D01*
X5923981Y4654331D01*
X5911474Y4632668D01*
X5905000Y4608507D01*
Y4583493D01*
X5911474Y4559331D01*
X5923981Y4537669D01*
X5941669Y4519981D01*
X5963331Y4507474D01*
X5987493Y4501000D01*
X6012507D01*
X6036668Y4507474D01*
X6058331Y4519981D01*
X6076019Y4537669D01*
X6088526Y4559331D01*
X6095000Y4583493D01*
Y4608507D01*
X6088526Y4632668D01*
X6076019Y4654331D01*
X6058331Y4672019D01*
X6036668Y4684526D01*
X6012507Y4691000D01*
D02*
G37*
G36*
X5758507D02*
X5733493D01*
X5709331Y4684526D01*
X5687669Y4672019D01*
X5669981Y4654331D01*
X5657474Y4632668D01*
X5651000Y4608507D01*
Y4583493D01*
X5657474Y4559331D01*
X5669981Y4537669D01*
X5687669Y4519981D01*
X5709331Y4507474D01*
X5733493Y4501000D01*
X5758507D01*
X5782668Y4507474D01*
X5804331Y4519981D01*
X5822019Y4537669D01*
X5834526Y4559331D01*
X5841000Y4583493D01*
Y4608507D01*
X5834526Y4632668D01*
X5822019Y4654331D01*
X5804331Y4672019D01*
X5782668Y4684526D01*
X5758507Y4691000D01*
D02*
G37*
G36*
X4996507D02*
X4971493D01*
X4947331Y4684526D01*
X4925669Y4672019D01*
X4907981Y4654331D01*
X4895474Y4632668D01*
X4889000Y4608507D01*
Y4583493D01*
X4895474Y4559331D01*
X4907981Y4537669D01*
X4925669Y4519981D01*
X4947331Y4507474D01*
X4971493Y4501000D01*
X4996507D01*
X5020668Y4507474D01*
X5042331Y4519981D01*
X5060019Y4537669D01*
X5072526Y4559331D01*
X5079000Y4583493D01*
Y4608507D01*
X5072526Y4632668D01*
X5060019Y4654331D01*
X5042331Y4672019D01*
X5020668Y4684526D01*
X4996507Y4691000D01*
D02*
G37*
G36*
X4742507D02*
X4717493D01*
X4693331Y4684526D01*
X4671669Y4672019D01*
X4653981Y4654331D01*
X4641474Y4632668D01*
X4635000Y4608507D01*
Y4583493D01*
X4641474Y4559331D01*
X4653981Y4537669D01*
X4671669Y4519981D01*
X4693331Y4507474D01*
X4717493Y4501000D01*
X4742507D01*
X4766668Y4507474D01*
X4788331Y4519981D01*
X4806019Y4537669D01*
X4818526Y4559331D01*
X4825000Y4583493D01*
Y4608507D01*
X4818526Y4632668D01*
X4806019Y4654331D01*
X4788331Y4672019D01*
X4766668Y4684526D01*
X4742507Y4691000D01*
D02*
G37*
G36*
X4234507D02*
X4209493D01*
X4185332Y4684526D01*
X4163669Y4672019D01*
X4145982Y4654331D01*
X4133475Y4632668D01*
X4127000Y4608507D01*
Y4583493D01*
X4133475Y4559331D01*
X4145982Y4537669D01*
X4163669Y4519981D01*
X4185332Y4507474D01*
X4209493Y4501000D01*
X4234507D01*
X4258669Y4507474D01*
X4280331Y4519981D01*
X4298019Y4537669D01*
X4310526Y4559331D01*
X4317000Y4583493D01*
Y4608507D01*
X4310526Y4632668D01*
X4298019Y4654331D01*
X4280331Y4672019D01*
X4258669Y4684526D01*
X4234507Y4691000D01*
D02*
G37*
G36*
X3726507D02*
X3701493D01*
X3677331Y4684526D01*
X3655669Y4672019D01*
X3637981Y4654331D01*
X3625474Y4632668D01*
X3619000Y4608507D01*
Y4583493D01*
X3625474Y4559331D01*
X3637981Y4537669D01*
X3655669Y4519981D01*
X3677331Y4507474D01*
X3701493Y4501000D01*
X3726507D01*
X3750668Y4507474D01*
X3772331Y4519981D01*
X3790019Y4537669D01*
X3802526Y4559331D01*
X3809000Y4583493D01*
Y4608507D01*
X3802526Y4632668D01*
X3790019Y4654331D01*
X3772331Y4672019D01*
X3750668Y4684526D01*
X3726507Y4691000D01*
D02*
G37*
G36*
X3472507D02*
X3447493D01*
X3423331Y4684526D01*
X3401669Y4672019D01*
X3383981Y4654331D01*
X3371474Y4632668D01*
X3365000Y4608507D01*
Y4583493D01*
X3371474Y4559331D01*
X3383981Y4537669D01*
X3401669Y4519981D01*
X3423331Y4507474D01*
X3447493Y4501000D01*
X3472507D01*
X3496668Y4507474D01*
X3518331Y4519981D01*
X3536019Y4537669D01*
X3548526Y4559331D01*
X3555000Y4583493D01*
Y4608507D01*
X3548526Y4632668D01*
X3536019Y4654331D01*
X3518331Y4672019D01*
X3496668Y4684526D01*
X3472507Y4691000D01*
D02*
G37*
G36*
X2710507D02*
X2685493D01*
X2661331Y4684526D01*
X2639669Y4672019D01*
X2621981Y4654331D01*
X2609474Y4632668D01*
X2603000Y4608507D01*
Y4583493D01*
X2609474Y4559331D01*
X2621981Y4537669D01*
X2639669Y4519981D01*
X2661331Y4507474D01*
X2685493Y4501000D01*
X2710507D01*
X2734668Y4507474D01*
X2756331Y4519981D01*
X2774019Y4537669D01*
X2786526Y4559331D01*
X2793000Y4583493D01*
Y4608507D01*
X2786526Y4632668D01*
X2774019Y4654331D01*
X2756331Y4672019D01*
X2734668Y4684526D01*
X2710507Y4691000D01*
D02*
G37*
G36*
X2456507D02*
X2431493D01*
X2407331Y4684526D01*
X2385669Y4672019D01*
X2367981Y4654331D01*
X2355474Y4632668D01*
X2349000Y4608507D01*
Y4583493D01*
X2355474Y4559331D01*
X2367981Y4537669D01*
X2385669Y4519981D01*
X2407331Y4507474D01*
X2431493Y4501000D01*
X2456507D01*
X2480668Y4507474D01*
X2502331Y4519981D01*
X2520019Y4537669D01*
X2532526Y4559331D01*
X2539000Y4583493D01*
Y4608507D01*
X2532526Y4632668D01*
X2520019Y4654331D01*
X2502331Y4672019D01*
X2480668Y4684526D01*
X2456507Y4691000D01*
D02*
G37*
G36*
X1948507D02*
X1923493D01*
X1899332Y4684526D01*
X1877669Y4672019D01*
X1859982Y4654331D01*
X1847475Y4632668D01*
X1841000Y4608507D01*
Y4583493D01*
X1847475Y4559331D01*
X1859982Y4537669D01*
X1877669Y4519981D01*
X1899332Y4507474D01*
X1923493Y4501000D01*
X1948507D01*
X1972669Y4507474D01*
X1994331Y4519981D01*
X2012019Y4537669D01*
X2024526Y4559331D01*
X2031000Y4583493D01*
Y4608507D01*
X2024526Y4632668D01*
X2012019Y4654331D01*
X1994331Y4672019D01*
X1972669Y4684526D01*
X1948507Y4691000D01*
D02*
G37*
G36*
X1694507D02*
X1669493D01*
X1645331Y4684526D01*
X1623669Y4672019D01*
X1605981Y4654331D01*
X1593474Y4632668D01*
X1587000Y4608507D01*
Y4583493D01*
X1593474Y4559331D01*
X1605981Y4537669D01*
X1623669Y4519981D01*
X1645331Y4507474D01*
X1669493Y4501000D01*
X1694507D01*
X1718668Y4507474D01*
X1740331Y4519981D01*
X1758019Y4537669D01*
X1770526Y4559331D01*
X1777000Y4583493D01*
Y4608507D01*
X1770526Y4632668D01*
X1758019Y4654331D01*
X1740331Y4672019D01*
X1718668Y4684526D01*
X1694507Y4691000D01*
D02*
G37*
G36*
X7870400Y4583300D02*
X7782700D01*
Y4495600D01*
X7783218D01*
X7808753Y4502442D01*
X7831647Y4515660D01*
X7850340Y4534353D01*
X7863558Y4557247D01*
X7870400Y4582782D01*
Y4583300D01*
D02*
G37*
G36*
X7757300D02*
X7669600D01*
Y4582782D01*
X7676442Y4557247D01*
X7689660Y4534353D01*
X7708353Y4515660D01*
X7731247Y4502442D01*
X7756782Y4495600D01*
X7757300D01*
Y4583300D01*
D02*
G37*
G36*
X5592400D02*
X5504700D01*
Y4495600D01*
X5505218D01*
X5530753Y4502442D01*
X5553647Y4515660D01*
X5572340Y4534353D01*
X5585558Y4557247D01*
X5592400Y4582782D01*
Y4583300D01*
D02*
G37*
G36*
X5479300D02*
X5391600D01*
Y4582782D01*
X5398442Y4557247D01*
X5411660Y4534353D01*
X5430353Y4515660D01*
X5453247Y4502442D01*
X5478782Y4495600D01*
X5479300D01*
Y4583300D01*
D02*
G37*
G36*
X4068400D02*
X3980700D01*
Y4495600D01*
X3981218D01*
X4006753Y4502442D01*
X4029647Y4515660D01*
X4048340Y4534353D01*
X4061558Y4557247D01*
X4068400Y4582782D01*
Y4583300D01*
D02*
G37*
G36*
X3955300D02*
X3867600D01*
Y4582782D01*
X3874442Y4557247D01*
X3887660Y4534353D01*
X3906353Y4515660D01*
X3929247Y4502442D01*
X3954782Y4495600D01*
X3955300D01*
Y4583300D01*
D02*
G37*
G36*
X11384216Y4520000D02*
X11365784D01*
X11347981Y4515229D01*
X11332019Y4506014D01*
X11318986Y4492981D01*
X11309771Y4477019D01*
X11305000Y4459216D01*
Y4440784D01*
X11309771Y4422981D01*
X11318986Y4407019D01*
X11332019Y4393986D01*
X11347981Y4384771D01*
X11365784Y4380000D01*
X11384216D01*
X11402019Y4384771D01*
X11417981Y4393986D01*
X11431014Y4407019D01*
X11440230Y4422981D01*
X11445000Y4440784D01*
Y4459216D01*
X11440230Y4477019D01*
X11431014Y4492981D01*
X11417981Y4506014D01*
X11402019Y4515229D01*
X11384216Y4520000D01*
D02*
G37*
G36*
X362700Y4334704D02*
Y4292700D01*
X404704D01*
X396966Y4311382D01*
X381382Y4326966D01*
X362700Y4334704D01*
D02*
G37*
G36*
X337300D02*
X318619Y4326966D01*
X303034Y4311382D01*
X295296Y4292700D01*
X337300D01*
Y4334704D01*
D02*
G37*
G36*
X404704Y4267300D02*
X362700D01*
Y4225296D01*
X381382Y4233034D01*
X396966Y4248619D01*
X404704Y4267300D01*
D02*
G37*
G36*
X337300D02*
X295296D01*
X303034Y4248619D01*
X318619Y4233034D01*
X337300Y4225296D01*
Y4267300D01*
D02*
G37*
G36*
X6109946Y4170000D02*
X6090054D01*
X6071677Y4162388D01*
X6057612Y4148323D01*
X6051733Y4134130D01*
X6038267D01*
X6032388Y4148323D01*
X6018323Y4162388D01*
X5999946Y4170000D01*
X5980054D01*
X5961677Y4162388D01*
X5947612Y4148323D01*
X5941733Y4134130D01*
X5928267D01*
X5922388Y4148323D01*
X5908323Y4162388D01*
X5889946Y4170000D01*
X5870054D01*
X5851677Y4162388D01*
X5837612Y4148323D01*
X5830000Y4129946D01*
Y4110054D01*
X5837612Y4091677D01*
X5851677Y4077612D01*
X5870054Y4070000D01*
X5889946D01*
X5908323Y4077612D01*
X5922388Y4091677D01*
X5928267Y4105870D01*
X5941733D01*
X5947612Y4091677D01*
X5961677Y4077612D01*
X5980054Y4070000D01*
X5999946D01*
X6018323Y4077612D01*
X6032388Y4091677D01*
X6038267Y4105870D01*
X6051733D01*
X6057612Y4091677D01*
X6071677Y4077612D01*
X6090054Y4070000D01*
X6109946D01*
X6128323Y4077612D01*
X6142388Y4091677D01*
X6150000Y4110054D01*
Y4129946D01*
X6142388Y4148323D01*
X6128323Y4162388D01*
X6109946Y4170000D01*
D02*
G37*
G36*
X5759946D02*
X5740054D01*
X5721677Y4162388D01*
X5707612Y4148323D01*
X5700000Y4129946D01*
Y4110054D01*
X5707612Y4091677D01*
X5721677Y4077612D01*
X5740054Y4070000D01*
X5759946D01*
X5778323Y4077612D01*
X5792388Y4091677D01*
X5800000Y4110054D01*
Y4129946D01*
X5792388Y4148323D01*
X5778323Y4162388D01*
X5759946Y4170000D01*
D02*
G37*
G36*
X6509946Y4120000D02*
X6490054D01*
X6471677Y4112388D01*
X6457612Y4098323D01*
X6450000Y4079946D01*
Y4060054D01*
X6457612Y4041677D01*
X6471677Y4027612D01*
X6490054Y4020000D01*
X6509946D01*
X6528323Y4027612D01*
X6542388Y4041677D01*
X6550000Y4060054D01*
Y4079946D01*
X6542388Y4098323D01*
X6528323Y4112388D01*
X6509946Y4120000D01*
D02*
G37*
G36*
X369946Y4200000D02*
X350054D01*
X331677Y4192388D01*
X317612Y4178323D01*
X310000Y4159946D01*
Y4140054D01*
X317612Y4121677D01*
X331677Y4107612D01*
X333461Y4106873D01*
Y4093127D01*
X331677Y4092388D01*
X317612Y4078323D01*
X310000Y4059946D01*
Y4040054D01*
X317612Y4021677D01*
X331677Y4007612D01*
X338477Y4004796D01*
Y3991049D01*
X328619Y3986966D01*
X313034Y3971381D01*
X305296Y3952700D01*
X414704D01*
X406966Y3971381D01*
X391381Y3986966D01*
X381523Y3991049D01*
Y4004796D01*
X388323Y4007612D01*
X402388Y4021677D01*
X410000Y4040054D01*
Y4059946D01*
X402388Y4078323D01*
X388323Y4092388D01*
X386539Y4093127D01*
Y4106873D01*
X388323Y4107612D01*
X402388Y4121677D01*
X410000Y4140054D01*
Y4159946D01*
X402388Y4178323D01*
X388323Y4192388D01*
X369946Y4200000D01*
D02*
G37*
G36*
X2069945Y3900000D02*
X2050054D01*
X2031677Y3892388D01*
X2017611Y3878323D01*
X2011733Y3864131D01*
X1998266Y3864131D01*
X1992388Y3878323D01*
X1978322Y3892388D01*
X1959945Y3900000D01*
X1940054D01*
X1921677Y3892388D01*
X1907612Y3878323D01*
X1900000Y3859946D01*
Y3840055D01*
X1907612Y3821677D01*
X1921677Y3807612D01*
X1940054Y3800000D01*
X1959945D01*
X1978322Y3807612D01*
X1992388Y3821677D01*
X1998266Y3835870D01*
X2011733Y3835870D01*
X2017611Y3821678D01*
X2031677Y3807612D01*
X2050054Y3800001D01*
X2069945D01*
X2088322Y3807612D01*
X2102387Y3821678D01*
X2109999Y3840055D01*
Y3859946D01*
X2102387Y3878323D01*
X2088322Y3892388D01*
X2069945Y3900000D01*
D02*
G37*
G36*
X2402700Y3904704D02*
Y3862700D01*
X2444704D01*
X2436965Y3881382D01*
X2421381Y3896966D01*
X2402700Y3904704D01*
D02*
G37*
G36*
X2377300D02*
X2358618Y3896966D01*
X2343034Y3881382D01*
X2335296Y3862700D01*
X2377300D01*
Y3904704D01*
D02*
G37*
G36*
X2444704Y3837300D02*
X2402700D01*
Y3795296D01*
X2421381Y3803035D01*
X2436965Y3818619D01*
X2444704Y3837300D01*
D02*
G37*
G36*
X2377300D02*
X2335296D01*
X2343034Y3818619D01*
X2358618Y3803035D01*
X2377300Y3795296D01*
Y3837300D01*
D02*
G37*
G36*
X12163146Y4265000D02*
X12116855D01*
X12071453Y4255969D01*
X12028686Y4238254D01*
X11990196Y4212536D01*
X11957464Y4179804D01*
X11931746Y4141314D01*
X11914031Y4098547D01*
X11905000Y4053146D01*
Y4006855D01*
X11914031Y3961453D01*
X11931746Y3918686D01*
X11957464Y3880196D01*
X11990196Y3847464D01*
X12028686Y3821746D01*
X12071453Y3804031D01*
X12116855Y3795000D01*
X12163146D01*
X12208547Y3804031D01*
X12251314Y3821746D01*
X12289804Y3847464D01*
X12322536Y3880196D01*
X12348254Y3918686D01*
X12365969Y3961453D01*
X12375000Y4006855D01*
Y4053146D01*
X12365969Y4098547D01*
X12348254Y4141314D01*
X12322536Y4179804D01*
X12289804Y4212536D01*
X12251314Y4238254D01*
X12208547Y4255969D01*
X12163146Y4265000D01*
D02*
G37*
G36*
X1741935Y3910000D02*
X1718065D01*
X1696013Y3900865D01*
X1679135Y3883987D01*
X1670000Y3861935D01*
Y3838065D01*
X1679135Y3816013D01*
X1696013Y3799134D01*
X1718065Y3790000D01*
X1741935D01*
X1763987Y3799134D01*
X1780866Y3816013D01*
X1790000Y3838065D01*
Y3861935D01*
X1780866Y3883987D01*
X1763987Y3900865D01*
X1741935Y3910000D01*
D02*
G37*
G36*
X3252700Y3704704D02*
Y3662700D01*
X3294704D01*
X3286966Y3681382D01*
X3271382Y3696966D01*
X3252700Y3704704D01*
D02*
G37*
G36*
X3227300D02*
X3208619Y3696966D01*
X3193034Y3681382D01*
X3185296Y3662700D01*
X3227300D01*
Y3704704D01*
D02*
G37*
G36*
X3294704Y3637300D02*
X3252700D01*
Y3595296D01*
X3271382Y3603034D01*
X3286966Y3618619D01*
X3294704Y3637300D01*
D02*
G37*
G36*
X3227300D02*
X3185296D01*
X3193034Y3618619D01*
X3208619Y3603034D01*
X3227300Y3595296D01*
Y3637300D01*
D02*
G37*
G36*
X6092700Y3634704D02*
Y3592700D01*
X6134704D01*
X6126966Y3611381D01*
X6111381Y3626966D01*
X6092700Y3634704D01*
D02*
G37*
G36*
X12163677Y3770400D02*
X12152700D01*
Y3542700D01*
X12380400D01*
Y3553677D01*
X12371161Y3600122D01*
X12353040Y3643872D01*
X12326731Y3683246D01*
X12293246Y3716730D01*
X12253872Y3743039D01*
X12210122Y3761161D01*
X12163677Y3770400D01*
D02*
G37*
G36*
X12127300D02*
X12116323D01*
X12069878Y3761161D01*
X12026128Y3743039D01*
X11986754Y3716730D01*
X11953269Y3683246D01*
X11926961Y3643872D01*
X11908839Y3600122D01*
X11899600Y3553677D01*
Y3542700D01*
X12127300D01*
Y3770400D01*
D02*
G37*
G36*
X6134704Y3567300D02*
X6092700D01*
Y3525296D01*
X6111381Y3533034D01*
X6126966Y3548619D01*
X6134704Y3567300D01*
D02*
G37*
G36*
X6429946Y3690000D02*
X6410054D01*
X6391677Y3682388D01*
X6377612Y3668323D01*
X6370000Y3649946D01*
Y3630054D01*
X6377612Y3611677D01*
X6391677Y3597612D01*
X6394407Y3596482D01*
Y3582735D01*
X6390485Y3581111D01*
X6376420Y3567045D01*
X6368808Y3548668D01*
Y3528777D01*
X6376420Y3510400D01*
X6390485Y3496335D01*
X6408862Y3488723D01*
X6428754D01*
X6447131Y3496335D01*
X6461196Y3510400D01*
X6468808Y3528777D01*
Y3548668D01*
X6461196Y3567045D01*
X6447131Y3581111D01*
X6444401Y3582241D01*
Y3595988D01*
X6448323Y3597612D01*
X6462388Y3611677D01*
X6470000Y3630054D01*
Y3649946D01*
X6462388Y3668323D01*
X6448323Y3682388D01*
X6429946Y3690000D01*
D02*
G37*
G36*
X6067300Y3634704D02*
X6048619Y3626966D01*
X6033034Y3611381D01*
X6024600Y3591020D01*
Y3581283D01*
X6020580Y3569550D01*
X6000689D01*
X5982311Y3561938D01*
X5968246Y3547873D01*
X5960634Y3529495D01*
Y3509604D01*
X5968246Y3491227D01*
X5982311Y3477162D01*
X6000689Y3469550D01*
X6020580D01*
X6038957Y3477162D01*
X6053022Y3491227D01*
X6060634Y3509604D01*
Y3519023D01*
X6067300Y3523477D01*
Y3580000D01*
Y3634704D01*
D02*
G37*
G36*
X5859946Y3510000D02*
X5840054D01*
X5821677Y3502388D01*
X5807612Y3488323D01*
X5800000Y3469946D01*
Y3450054D01*
X5807612Y3431677D01*
X5821677Y3417612D01*
X5840054Y3410000D01*
X5859946D01*
X5878323Y3417612D01*
X5892388Y3431677D01*
X5900000Y3450054D01*
Y3469946D01*
X5892388Y3488323D01*
X5878323Y3502388D01*
X5859946Y3510000D01*
D02*
G37*
G36*
X6622700Y3394704D02*
Y3352700D01*
X6664704D01*
X6656966Y3371381D01*
X6641381Y3386966D01*
X6622700Y3394704D01*
D02*
G37*
G36*
X6597300D02*
X6578619Y3386966D01*
X6563034Y3371381D01*
X6555296Y3352700D01*
X6597300D01*
Y3394704D01*
D02*
G37*
G36*
X9029946Y3490000D02*
X9010054D01*
X8991677Y3482388D01*
X8977612Y3468323D01*
X8970000Y3449946D01*
Y3430054D01*
X8977612Y3411677D01*
X8991677Y3397612D01*
X8998477Y3394796D01*
Y3381049D01*
X8988619Y3376966D01*
X8973034Y3361381D01*
X8965296Y3342700D01*
X9074704D01*
X9066966Y3361381D01*
X9051381Y3376966D01*
X9041523Y3381049D01*
Y3394796D01*
X9048323Y3397612D01*
X9062388Y3411677D01*
X9070000Y3430054D01*
Y3449946D01*
X9062388Y3468323D01*
X9048323Y3482388D01*
X9029946Y3490000D01*
D02*
G37*
G36*
X414704Y3927300D02*
X305296D01*
X313034Y3908619D01*
X328619Y3893034D01*
X338477Y3888951D01*
Y3875204D01*
X331677Y3872388D01*
X317612Y3858323D01*
X310000Y3839946D01*
Y3820054D01*
X317612Y3801677D01*
X331677Y3787612D01*
X345870Y3781733D01*
Y3768267D01*
X331677Y3762388D01*
X317612Y3748323D01*
X310000Y3729946D01*
Y3710054D01*
X317612Y3691677D01*
X331677Y3677612D01*
X345870Y3671733D01*
Y3658267D01*
X331677Y3652388D01*
X317612Y3638323D01*
X310000Y3619946D01*
Y3600054D01*
X317612Y3581677D01*
X331677Y3567612D01*
X345870Y3561733D01*
Y3548267D01*
X331677Y3542388D01*
X317612Y3528323D01*
X310000Y3509946D01*
Y3490054D01*
X317612Y3471677D01*
X331677Y3457612D01*
X345870Y3451733D01*
Y3438267D01*
X331677Y3432388D01*
X317612Y3418323D01*
X310000Y3399946D01*
Y3380054D01*
X317612Y3361677D01*
X331677Y3347612D01*
X350054Y3340000D01*
X369946D01*
X388323Y3347612D01*
X402388Y3361677D01*
X410000Y3380054D01*
Y3399946D01*
X402388Y3418323D01*
X388323Y3432388D01*
X374130Y3438267D01*
Y3451733D01*
X388323Y3457612D01*
X402388Y3471677D01*
X410000Y3490054D01*
Y3509946D01*
X402388Y3528323D01*
X388323Y3542388D01*
X374131Y3548267D01*
Y3561733D01*
X388323Y3567612D01*
X402388Y3581677D01*
X410000Y3600054D01*
Y3619946D01*
X402388Y3638323D01*
X388323Y3652388D01*
X374130Y3658267D01*
Y3671733D01*
X388323Y3677612D01*
X402388Y3691677D01*
X410000Y3710054D01*
Y3729946D01*
X402388Y3748323D01*
X388323Y3762388D01*
X374130Y3768267D01*
Y3781733D01*
X388323Y3787612D01*
X402388Y3801677D01*
X410000Y3820054D01*
Y3839946D01*
X402388Y3858323D01*
X388323Y3872388D01*
X381523Y3875204D01*
Y3888951D01*
X391381Y3893034D01*
X406966Y3908619D01*
X414704Y3927300D01*
D02*
G37*
G36*
X10531935Y3410000D02*
X10508065D01*
X10486013Y3400865D01*
X10469135Y3383987D01*
X10460000Y3361935D01*
Y3338065D01*
X10469135Y3316013D01*
X10486013Y3299134D01*
X10508065Y3290000D01*
X10531935D01*
X10553987Y3299134D01*
X10570866Y3316013D01*
X10580000Y3338065D01*
Y3361935D01*
X10570866Y3383987D01*
X10553987Y3400865D01*
X10531935Y3410000D01*
D02*
G37*
G36*
X9701935D02*
X9678065D01*
X9656013Y3400865D01*
X9639134Y3383987D01*
X9630000Y3361935D01*
Y3338065D01*
X9639134Y3316013D01*
X9656013Y3299134D01*
X9678065Y3290000D01*
X9701935D01*
X9723987Y3299134D01*
X9740865Y3316013D01*
X9750000Y3338065D01*
Y3361935D01*
X9740865Y3383987D01*
X9723987Y3400865D01*
X9701935Y3410000D01*
D02*
G37*
G36*
X12380400Y3517300D02*
X12152700D01*
Y3289600D01*
X12163677D01*
X12210122Y3298838D01*
X12253872Y3316960D01*
X12293246Y3343269D01*
X12326731Y3376754D01*
X12353040Y3416128D01*
X12371161Y3459878D01*
X12380400Y3506322D01*
Y3517300D01*
D02*
G37*
G36*
X12127300D02*
X11899600D01*
Y3506322D01*
X11908839Y3459878D01*
X11926961Y3416128D01*
X11953269Y3376754D01*
X11986754Y3343269D01*
X12026128Y3316960D01*
X12069878Y3298838D01*
X12116323Y3289600D01*
X12127300D01*
Y3517300D01*
D02*
G37*
G36*
X6597300Y3327300D02*
X6555296D01*
X6563034Y3308618D01*
X6578619Y3293034D01*
X6597300Y3285296D01*
Y3327300D01*
D02*
G37*
G36*
X9074704Y3317300D02*
X9032700D01*
Y3275296D01*
X9051381Y3283034D01*
X9066966Y3298618D01*
X9074704Y3317300D01*
D02*
G37*
G36*
X9007300D02*
X8965296D01*
X8973034Y3298618D01*
X8988619Y3283034D01*
X9007300Y3275296D01*
Y3317300D01*
D02*
G37*
G36*
X5919946Y3300000D02*
X5900054D01*
X5881677Y3292388D01*
X5867612Y3278323D01*
X5863936Y3269448D01*
X5853259Y3267324D01*
X5834882Y3274936D01*
X5814990D01*
X5796613Y3267324D01*
X5782548Y3253259D01*
X5774936Y3234882D01*
Y3214990D01*
X5782548Y3196613D01*
X5796613Y3182548D01*
X5814990Y3174936D01*
X5834882D01*
X5849301Y3180909D01*
X5850124Y3180330D01*
X5857759Y3170665D01*
X5850000Y3151935D01*
Y3128065D01*
X5852141Y3122898D01*
X5842420Y3113178D01*
X5832700Y3117204D01*
Y3075200D01*
X5874704D01*
X5874339Y3076081D01*
X5884059Y3085802D01*
X5898065Y3080000D01*
X5921935D01*
X5943987Y3089135D01*
X5960866Y3106013D01*
X5970000Y3128065D01*
Y3151935D01*
X5960866Y3173987D01*
X5943987Y3190866D01*
X5937534Y3193539D01*
Y3207285D01*
X5938323Y3207612D01*
X5952388Y3221677D01*
X5960000Y3240054D01*
Y3259946D01*
X5952388Y3278323D01*
X5938323Y3292388D01*
X5919946Y3300000D01*
D02*
G37*
G36*
X1522700Y3304704D02*
Y3262700D01*
X1564704D01*
X1556966Y3281381D01*
X1541381Y3296966D01*
X1522700Y3304704D01*
D02*
G37*
G36*
X1497300D02*
X1478618Y3296966D01*
X1463034Y3281381D01*
X1455296Y3262700D01*
X1497300D01*
Y3304704D01*
D02*
G37*
G36*
X1742803Y3304600D02*
Y3262596D01*
X1784807D01*
X1777069Y3281277D01*
X1761485Y3296862D01*
X1742803Y3304600D01*
D02*
G37*
G36*
X1717403D02*
X1698722Y3296862D01*
X1683138Y3281277D01*
X1675399Y3262596D01*
X1717403D01*
Y3304600D01*
D02*
G37*
G36*
X2179945Y3300000D02*
X2160054D01*
X2141677Y3292388D01*
X2127612Y3278323D01*
X2120000Y3259945D01*
Y3240054D01*
X2127612Y3221677D01*
X2141677Y3207612D01*
X2160054Y3200000D01*
X2179945D01*
X2198323Y3207612D01*
X2212388Y3221677D01*
X2218266Y3235869D01*
X2231733Y3235868D01*
X2237611Y3221677D01*
X2251676Y3207611D01*
X2270054Y3199999D01*
X2289945D01*
X2308322Y3207611D01*
X2322387Y3221677D01*
X2329999Y3240054D01*
Y3259945D01*
X2322387Y3278322D01*
X2308322Y3292387D01*
X2289945Y3299999D01*
X2270054D01*
X2251676Y3292387D01*
X2237611Y3278322D01*
X2231733Y3264130D01*
X2218266Y3264131D01*
X2212388Y3278323D01*
X2198323Y3292388D01*
X2179945Y3300000D01*
D02*
G37*
G36*
X1564704Y3237300D02*
X1522700D01*
Y3195296D01*
X1541381Y3203034D01*
X1556966Y3218618D01*
X1564704Y3237300D01*
D02*
G37*
G36*
X1497300D02*
X1455296D01*
X1463034Y3218618D01*
X1478618Y3203034D01*
X1497300Y3195296D01*
Y3237300D01*
D02*
G37*
G36*
X1784807Y3237196D02*
X1742803D01*
Y3195192D01*
X1761485Y3202930D01*
X1777069Y3218514D01*
X1784807Y3237196D01*
D02*
G37*
G36*
X1717403D02*
X1675399D01*
X1683138Y3218514D01*
X1698722Y3202930D01*
X1717403Y3195192D01*
Y3237196D01*
D02*
G37*
G36*
X6672763Y3327300D02*
X6622700D01*
Y3285034D01*
X6635040Y3276661D01*
Y3265015D01*
X6642652Y3246637D01*
X6656717Y3232572D01*
X6675094Y3224960D01*
X6694986D01*
X6699440Y3226805D01*
X6710000Y3219749D01*
Y3215054D01*
X6717612Y3196677D01*
X6731677Y3182612D01*
X6750054Y3175000D01*
X6769946D01*
X6788323Y3182612D01*
X6802388Y3196677D01*
X6810000Y3215054D01*
Y3234946D01*
X6802388Y3253323D01*
X6788323Y3267388D01*
X6769946Y3275000D01*
X6750054D01*
X6745600Y3273155D01*
X6735040Y3280211D01*
Y3284906D01*
X6727428Y3303283D01*
X6713363Y3317348D01*
X6694986Y3324960D01*
X6677133D01*
X6674038Y3326021D01*
X6672763Y3327300D01*
D02*
G37*
G36*
X332700Y3194704D02*
Y3152700D01*
X374704D01*
X366966Y3171382D01*
X351382Y3186966D01*
X332700Y3194704D01*
D02*
G37*
G36*
X307300D02*
X288619Y3186966D01*
X273034Y3171382D01*
X265296Y3152700D01*
X307300D01*
Y3194704D01*
D02*
G37*
G36*
X8111935Y3230000D02*
X8088065D01*
X8066013Y3220866D01*
X8049135Y3203987D01*
X8040000Y3181935D01*
Y3158065D01*
X8049135Y3136013D01*
X8066013Y3119134D01*
X8088065Y3110000D01*
X8111935D01*
X8133987Y3119134D01*
X8150866Y3136013D01*
X8160000Y3158065D01*
Y3181935D01*
X8150866Y3203987D01*
X8133987Y3220866D01*
X8111935Y3230000D01*
D02*
G37*
G36*
X374704Y3127300D02*
X332700D01*
Y3085296D01*
X351382Y3093034D01*
X366966Y3108619D01*
X374704Y3127300D01*
D02*
G37*
G36*
X307300D02*
X265296D01*
X273034Y3108619D01*
X288619Y3093034D01*
X307300Y3085296D01*
Y3127300D01*
D02*
G37*
G36*
X5807300Y3117204D02*
X5788619Y3109466D01*
X5773034Y3093882D01*
X5765296Y3075200D01*
X5807300D01*
Y3117204D01*
D02*
G37*
G36*
X5589946Y3170000D02*
X5570054D01*
X5551677Y3162388D01*
X5537612Y3148323D01*
X5530000Y3129946D01*
Y3110054D01*
X5537612Y3091677D01*
X5551677Y3077612D01*
X5570054Y3070000D01*
X5589946D01*
X5608323Y3077612D01*
X5622388Y3091677D01*
X5630000Y3110054D01*
Y3129946D01*
X5622388Y3148323D01*
X5608323Y3162388D01*
X5589946Y3170000D01*
D02*
G37*
G36*
X11391935Y3170000D02*
X11368065D01*
X11346013Y3160865D01*
X11329135Y3143987D01*
X11320000Y3121935D01*
Y3098065D01*
X11329135Y3076013D01*
X11346013Y3059134D01*
X11368065Y3050000D01*
X11391935D01*
X11413987Y3059134D01*
X11430866Y3076013D01*
X11440000Y3098065D01*
Y3121935D01*
X11430866Y3143987D01*
X11413987Y3160865D01*
X11391935Y3170000D01*
D02*
G37*
G36*
X6989946Y3130000D02*
X6970054D01*
X6951677Y3122388D01*
X6937612Y3108323D01*
X6930000Y3089946D01*
Y3070054D01*
X6937612Y3051677D01*
X6951677Y3037612D01*
X6970054Y3030000D01*
X6989946D01*
X7008323Y3037612D01*
X7022388Y3051677D01*
X7030000Y3070054D01*
Y3089946D01*
X7022388Y3108323D01*
X7008323Y3122388D01*
X6989946Y3130000D01*
D02*
G37*
G36*
X6847924D02*
X6828033D01*
X6809656Y3122388D01*
X6795590Y3108323D01*
X6787979Y3089946D01*
Y3070054D01*
X6795590Y3051677D01*
X6809656Y3037612D01*
X6828033Y3030000D01*
X6847924D01*
X6866301Y3037612D01*
X6880366Y3051677D01*
X6887978Y3070054D01*
Y3089946D01*
X6880366Y3108323D01*
X6866301Y3122388D01*
X6847924Y3130000D01*
D02*
G37*
G36*
X6611935D02*
X6588065D01*
X6566013Y3120865D01*
X6549134Y3103987D01*
X6540000Y3081935D01*
Y3058065D01*
X6549134Y3036013D01*
X6566013Y3019134D01*
X6588065Y3010000D01*
X6611935D01*
X6633987Y3019134D01*
X6650866Y3036013D01*
X6660000Y3058065D01*
Y3081935D01*
X6650866Y3103987D01*
X6633987Y3120865D01*
X6611935Y3130000D01*
D02*
G37*
G36*
X5874704Y3049800D02*
X5832700D01*
Y3007796D01*
X5851381Y3015534D01*
X5866966Y3031119D01*
X5874704Y3049800D01*
D02*
G37*
G36*
X5807300D02*
X5765296D01*
X5773034Y3031119D01*
X5788619Y3015534D01*
X5807300Y3007796D01*
Y3049800D01*
D02*
G37*
G36*
X12385000Y3076137D02*
X12362700D01*
Y3002700D01*
X12469465D01*
X12468202Y3012294D01*
X12459597Y3033069D01*
X12445908Y3050908D01*
X12428069Y3064597D01*
X12407294Y3073202D01*
X12385000Y3076137D01*
D02*
G37*
G36*
X12337300D02*
X12315000D01*
X12292706Y3073202D01*
X12271932Y3064597D01*
X12254092Y3050908D01*
X12240404Y3033069D01*
X12231798Y3012294D01*
X12230535Y3002700D01*
X12337300D01*
Y3076137D01*
D02*
G37*
G36*
X5669946Y3090000D02*
X5650054D01*
X5631677Y3082388D01*
X5617612Y3068323D01*
X5610000Y3049946D01*
Y3030054D01*
X5617612Y3011677D01*
X5631677Y2997612D01*
X5650054Y2990000D01*
X5669946D01*
X5688323Y2997612D01*
X5702388Y3011677D01*
X5710000Y3030054D01*
Y3049946D01*
X5702388Y3068323D01*
X5688323Y3082388D01*
X5669946Y3090000D01*
D02*
G37*
G36*
X11392700Y3024304D02*
Y2972700D01*
X11444304D01*
X11440943Y2985243D01*
X11432333Y3000157D01*
X11420157Y3012333D01*
X11405244Y3020943D01*
X11392700Y3024304D01*
D02*
G37*
G36*
X11367300D02*
X11354757Y3020943D01*
X11339843Y3012333D01*
X11327667Y3000157D01*
X11319057Y2985243D01*
X11315696Y2972700D01*
X11367300D01*
Y3024304D01*
D02*
G37*
G36*
X1879946Y3300000D02*
X1860054D01*
X1841677Y3292388D01*
X1827612Y3278323D01*
X1820000Y3259946D01*
Y3240054D01*
X1827612Y3221677D01*
X1841677Y3207612D01*
X1851620Y3203494D01*
X1904118Y3150995D01*
Y2925882D01*
X1549888D01*
X1539946Y2930000D01*
X1520054D01*
X1510112Y2925882D01*
X1140000D01*
X1122442Y2922389D01*
X1107557Y2912443D01*
X1035114Y2840000D01*
X1028065D01*
X1006013Y2830866D01*
X989134Y2813987D01*
X980000Y2791935D01*
Y2768065D01*
X989134Y2746013D01*
X994118Y2741029D01*
Y2430000D01*
X997611Y2412442D01*
X1007557Y2397557D01*
X1124118Y2280996D01*
Y2198971D01*
X1119134Y2193987D01*
X1110000Y2171935D01*
Y2148065D01*
X1119134Y2126013D01*
X1136013Y2109134D01*
X1158065Y2100000D01*
X1181935D01*
X1203987Y2109134D01*
X1208971Y2114118D01*
X2230995D01*
X2253382Y2091732D01*
X2247944Y2079209D01*
X2231471Y2072387D01*
X2217406Y2058321D01*
X2209794Y2039944D01*
Y2020053D01*
X2217406Y2001676D01*
X2231471Y1987610D01*
X2249848Y1979999D01*
X2269739D01*
X2288117Y1987610D01*
X2302182Y2001676D01*
X2309005Y2018148D01*
X2321527Y2023587D01*
X2333494Y2011620D01*
X2337612Y2001677D01*
X2351677Y1987612D01*
X2370054Y1980000D01*
X2389946D01*
X2408323Y1987612D01*
X2422388Y2001677D01*
X2430000Y2020054D01*
Y2039946D01*
X2422388Y2058323D01*
X2408323Y2072388D01*
X2398380Y2076506D01*
X2282443Y2192443D01*
X2267558Y2202389D01*
X2250000Y2205882D01*
X1215881D01*
Y2300000D01*
X1212389Y2317559D01*
X1202443Y2332444D01*
X1085881Y2449005D01*
Y2741029D01*
X1090865Y2746013D01*
X1100000Y2768065D01*
Y2775113D01*
X1159005Y2834119D01*
X1510112D01*
X1520054Y2830000D01*
X1539946D01*
X1549888Y2834119D01*
X1911029D01*
X1916013Y2829135D01*
X1938065Y2820000D01*
X1961935D01*
X1983987Y2829135D01*
X2000865Y2846013D01*
X2010000Y2868065D01*
Y2891935D01*
X2000865Y2913987D01*
X1995881Y2918971D01*
Y3170000D01*
X1992389Y3187559D01*
X1982443Y3202443D01*
X1916506Y3268380D01*
X1912388Y3278323D01*
X1898323Y3292388D01*
X1879946Y3300000D01*
D02*
G37*
G36*
X12469465Y2977300D02*
X12362700D01*
Y2903864D01*
X12385000D01*
X12407294Y2906799D01*
X12428069Y2915404D01*
X12445908Y2929092D01*
X12459597Y2946932D01*
X12468202Y2967707D01*
X12469465Y2977300D01*
D02*
G37*
G36*
X12337300D02*
X12230535D01*
X12231798Y2967707D01*
X12240404Y2946932D01*
X12254092Y2929092D01*
X12271932Y2915404D01*
X12292706Y2906799D01*
X12315000Y2903864D01*
X12337300D01*
Y2977300D01*
D02*
G37*
G36*
X6749946Y3000000D02*
X6730054D01*
X6711677Y2992388D01*
X6697612Y2978323D01*
X6690000Y2959946D01*
Y2940054D01*
X6697612Y2921677D01*
X6711677Y2907612D01*
X6730054Y2900000D01*
X6749946D01*
X6768323Y2907612D01*
X6782388Y2921677D01*
X6790000Y2940054D01*
Y2959946D01*
X6782388Y2978323D01*
X6768323Y2992388D01*
X6749946Y3000000D01*
D02*
G37*
G36*
X11444304Y2947300D02*
X11392700D01*
Y2895696D01*
X11405244Y2899057D01*
X11420157Y2907667D01*
X11432333Y2919843D01*
X11440943Y2934756D01*
X11444304Y2947300D01*
D02*
G37*
G36*
X11367300D02*
X11315696D01*
X11319057Y2934756D01*
X11327667Y2919843D01*
X11339843Y2907667D01*
X11354757Y2899057D01*
X11367300Y2895696D01*
Y2947300D01*
D02*
G37*
G36*
X10882700Y2934304D02*
Y2882700D01*
X10934304D01*
X10930943Y2895244D01*
X10922333Y2910157D01*
X10910157Y2922333D01*
X10895244Y2930943D01*
X10882700Y2934304D01*
D02*
G37*
G36*
X10857300D02*
X10844757Y2930943D01*
X10829843Y2922333D01*
X10817667Y2910157D01*
X10809057Y2895244D01*
X10805696Y2882700D01*
X10857300D01*
Y2934304D01*
D02*
G37*
G36*
X7002700D02*
Y2882700D01*
X7054304D01*
X7050943Y2895244D01*
X7042333Y2910157D01*
X7030157Y2922333D01*
X7015244Y2930943D01*
X7002700Y2934304D01*
D02*
G37*
G36*
X6977300D02*
X6964756Y2930943D01*
X6949843Y2922333D01*
X6937667Y2910157D01*
X6929057Y2895244D01*
X6925696Y2882700D01*
X6977300D01*
Y2934304D01*
D02*
G37*
G36*
X10651935Y2930000D02*
X10628065D01*
X10606013Y2920866D01*
X10589135Y2903987D01*
X10580000Y2881935D01*
Y2858065D01*
X10589135Y2836013D01*
X10606013Y2819135D01*
X10628065Y2810000D01*
X10651935D01*
X10673987Y2819135D01*
X10690866Y2836013D01*
X10700000Y2858065D01*
Y2881935D01*
X10690866Y2903987D01*
X10673987Y2920866D01*
X10651935Y2930000D01*
D02*
G37*
G36*
X12062699Y2873217D02*
Y2807700D01*
X12136901D01*
X12135895Y2815336D01*
X12128046Y2834286D01*
X12115559Y2850559D01*
X12099286Y2863046D01*
X12080336Y2870895D01*
X12062699Y2873217D01*
D02*
G37*
G36*
X12037299Y2873217D02*
X12019664Y2870895D01*
X12000714Y2863046D01*
X11984441Y2850559D01*
X11971955Y2834286D01*
X11964105Y2815336D01*
X11963100Y2807700D01*
X12037299D01*
Y2873217D01*
D02*
G37*
G36*
X10934304Y2857300D02*
X10882700D01*
Y2805696D01*
X10895244Y2809057D01*
X10910157Y2817667D01*
X10922333Y2829843D01*
X10930943Y2844757D01*
X10934304Y2857300D01*
D02*
G37*
G36*
X10857300D02*
X10805696D01*
X10809057Y2844757D01*
X10817667Y2829843D01*
X10829843Y2817667D01*
X10844757Y2809057D01*
X10857300Y2805696D01*
Y2857300D01*
D02*
G37*
G36*
X7054304D02*
X7002700D01*
Y2805696D01*
X7015244Y2809057D01*
X7030157Y2817667D01*
X7042333Y2829843D01*
X7050943Y2844757D01*
X7054304Y2857300D01*
D02*
G37*
G36*
X6977300D02*
X6925696D01*
X6929057Y2844757D01*
X6937667Y2829843D01*
X6949843Y2817667D01*
X6964756Y2809057D01*
X6977300Y2805696D01*
Y2857300D01*
D02*
G37*
G36*
X3351267Y2949392D02*
X3346692D01*
Y2786692D01*
X3509392D01*
Y2791267D01*
X3502651Y2825154D01*
X3489429Y2857075D01*
X3470234Y2885803D01*
X3445803Y2910234D01*
X3417075Y2929429D01*
X3385154Y2942651D01*
X3351267Y2949392D01*
D02*
G37*
G36*
X2843267D02*
X2838692D01*
Y2786692D01*
X3001392D01*
Y2791267D01*
X2994651Y2825154D01*
X2981429Y2857075D01*
X2962234Y2885803D01*
X2937803Y2910234D01*
X2909075Y2929429D01*
X2877154Y2942651D01*
X2843267Y2949392D01*
D02*
G37*
G36*
X3321292D02*
X3316717D01*
X3282830Y2942651D01*
X3250909Y2929429D01*
X3222181Y2910234D01*
X3197750Y2885803D01*
X3178554Y2857075D01*
X3165333Y2825154D01*
X3158592Y2791267D01*
Y2786692D01*
X3321292D01*
Y2949392D01*
D02*
G37*
G36*
X2813292D02*
X2808717D01*
X2774830Y2942651D01*
X2742909Y2929429D01*
X2714181Y2910234D01*
X2689750Y2885803D01*
X2670554Y2857075D01*
X2657333Y2825154D01*
X2650592Y2791267D01*
Y2786692D01*
X2813292D01*
Y2949392D01*
D02*
G37*
G36*
X8892700Y2824704D02*
Y2782700D01*
X8934704D01*
X8926966Y2801381D01*
X8911381Y2816966D01*
X8892700Y2824704D01*
D02*
G37*
G36*
X8867300D02*
X8848619Y2816966D01*
X8833034Y2801381D01*
X8825296Y2782700D01*
X8867300D01*
Y2824704D01*
D02*
G37*
G36*
X12037299Y2782300D02*
X11963100D01*
X11964105Y2774664D01*
X11971955Y2755714D01*
X11984441Y2739441D01*
X12000714Y2726955D01*
X12019664Y2719105D01*
X12037299Y2716784D01*
Y2782300D01*
D02*
G37*
G36*
X12136901D02*
X12062699D01*
Y2716783D01*
X12080336Y2719105D01*
X12099286Y2726955D01*
X12115559Y2739441D01*
X12128046Y2755714D01*
X12135895Y2774664D01*
X12136901Y2782300D01*
D02*
G37*
G36*
X8934704Y2757300D02*
X8892700D01*
Y2715296D01*
X8911381Y2723034D01*
X8926966Y2738619D01*
X8934704Y2757300D01*
D02*
G37*
G36*
X8867300D02*
X8825296D01*
X8833034Y2738619D01*
X8848619Y2723034D01*
X8867300Y2715296D01*
Y2757300D01*
D02*
G37*
G36*
X5229946Y2800000D02*
X5210054D01*
X5191677Y2792388D01*
X5177612Y2778323D01*
X5170000Y2759946D01*
Y2740054D01*
X5177612Y2721677D01*
X5191677Y2707612D01*
X5210054Y2700000D01*
X5229946D01*
X5248323Y2707612D01*
X5262388Y2721677D01*
X5270000Y2740054D01*
Y2759946D01*
X5262388Y2778323D01*
X5248323Y2792388D01*
X5229946Y2800000D01*
D02*
G37*
G36*
X8069946Y2760000D02*
X8050054D01*
X8031677Y2752388D01*
X8017612Y2738323D01*
X8010000Y2719946D01*
Y2700054D01*
X8017612Y2681677D01*
X8031677Y2667612D01*
X8050054Y2660000D01*
X8069946D01*
X8088323Y2667612D01*
X8102388Y2681677D01*
X8110000Y2700054D01*
Y2719946D01*
X8102388Y2738323D01*
X8088323Y2752388D01*
X8069946Y2760000D01*
D02*
G37*
G36*
X5149946Y2720000D02*
X5130054D01*
X5111677Y2712388D01*
X5097612Y2698323D01*
X5090000Y2679946D01*
Y2660054D01*
X5092307Y2654484D01*
X5082587Y2644764D01*
X5069946Y2650000D01*
X5050054D01*
X5031677Y2642388D01*
X5017612Y2628323D01*
X5010000Y2609946D01*
Y2590054D01*
X5017612Y2571677D01*
X5031677Y2557612D01*
X5050054Y2550000D01*
X5069946D01*
X5088323Y2557612D01*
X5102388Y2571677D01*
X5110000Y2590054D01*
Y2609946D01*
X5107693Y2615516D01*
X5117413Y2625236D01*
X5130054Y2620000D01*
X5149946D01*
X5168323Y2627612D01*
X5182388Y2641677D01*
X5190000Y2660054D01*
Y2679946D01*
X5182388Y2698323D01*
X5168323Y2712388D01*
X5149946Y2720000D01*
D02*
G37*
G36*
X3509392Y2761292D02*
X3346692D01*
Y2598592D01*
X3351267D01*
X3385154Y2605333D01*
X3417075Y2618555D01*
X3445803Y2637750D01*
X3470234Y2662181D01*
X3489429Y2690909D01*
X3502651Y2722830D01*
X3509392Y2756717D01*
Y2761292D01*
D02*
G37*
G36*
X3321292D02*
X3158592D01*
Y2756717D01*
X3165333Y2722830D01*
X3178554Y2690909D01*
X3197750Y2662181D01*
X3222181Y2637750D01*
X3250909Y2618555D01*
X3282830Y2605333D01*
X3316717Y2598592D01*
X3321292D01*
Y2761292D01*
D02*
G37*
G36*
X3001392D02*
X2838692D01*
Y2598592D01*
X2843267D01*
X2877154Y2605333D01*
X2909075Y2618555D01*
X2937803Y2637750D01*
X2962234Y2662181D01*
X2981429Y2690909D01*
X2994651Y2722830D01*
X3001392Y2756717D01*
Y2761292D01*
D02*
G37*
G36*
X2813292D02*
X2650592D01*
Y2756717D01*
X2657333Y2722830D01*
X2670554Y2690909D01*
X2689750Y2662181D01*
X2714181Y2637750D01*
X2742909Y2618555D01*
X2774830Y2605333D01*
X2808717Y2598592D01*
X2813292D01*
Y2761292D01*
D02*
G37*
G36*
X3739946Y2680000D02*
X3720054D01*
X3701677Y2672388D01*
X3687612Y2658323D01*
X3680000Y2639946D01*
Y2620054D01*
X3687612Y2601677D01*
X3701677Y2587612D01*
X3708476Y2584796D01*
Y2571049D01*
X3698618Y2566966D01*
X3683034Y2551381D01*
X3675296Y2532700D01*
X3784704D01*
X3776966Y2551381D01*
X3761381Y2566966D01*
X3751523Y2571049D01*
Y2584796D01*
X3758323Y2587612D01*
X3772388Y2601677D01*
X3780000Y2620054D01*
Y2639946D01*
X3772388Y2658323D01*
X3758323Y2672388D01*
X3739946Y2680000D01*
D02*
G37*
G36*
X7719946Y2630000D02*
X7700054D01*
X7681677Y2622388D01*
X7667612Y2608323D01*
X7660000Y2589946D01*
Y2570054D01*
X7667612Y2551677D01*
X7681677Y2537612D01*
X7700054Y2530000D01*
X7719946D01*
X7738323Y2537612D01*
X7752388Y2551677D01*
X7760000Y2570054D01*
Y2589946D01*
X7752388Y2608323D01*
X7738323Y2622388D01*
X7719946Y2630000D01*
D02*
G37*
G36*
X2412700Y2564304D02*
Y2512700D01*
X2464304D01*
X2460943Y2525244D01*
X2452333Y2540157D01*
X2440157Y2552333D01*
X2425244Y2560943D01*
X2412700Y2564304D01*
D02*
G37*
G36*
X2387300D02*
X2374756Y2560943D01*
X2359843Y2552333D01*
X2347667Y2540157D01*
X2339057Y2525244D01*
X2335696Y2512700D01*
X2387300D01*
Y2564304D01*
D02*
G37*
G36*
X8582700Y2544704D02*
Y2502700D01*
X8624704D01*
X8616966Y2521382D01*
X8601381Y2536966D01*
X8582700Y2544704D01*
D02*
G37*
G36*
X8557300D02*
X8538618Y2536966D01*
X8523034Y2521382D01*
X8515296Y2502700D01*
X8557300D01*
Y2544704D01*
D02*
G37*
G36*
X1707300Y2534304D02*
X1694757Y2530943D01*
X1679843Y2522333D01*
X1667667Y2510157D01*
X1659057Y2495243D01*
X1655696Y2482700D01*
X1707300D01*
Y2534304D01*
D02*
G37*
G36*
X3784704Y2507300D02*
X3742700D01*
Y2465296D01*
X3761381Y2473034D01*
X3776966Y2488619D01*
X3784704Y2507300D01*
D02*
G37*
G36*
X3717300D02*
X3675296D01*
X3683034Y2488619D01*
X3698618Y2473034D01*
X3717300Y2465296D01*
Y2507300D01*
D02*
G37*
G36*
X8369946Y2550000D02*
X8350054D01*
X8331677Y2542388D01*
X8317612Y2528323D01*
X8310000Y2509946D01*
Y2490054D01*
X8317612Y2471677D01*
X8331677Y2457612D01*
X8350054Y2450000D01*
X8369946D01*
X8388323Y2457612D01*
X8402388Y2471677D01*
X8410000Y2490054D01*
Y2509946D01*
X8402388Y2528323D01*
X8388323Y2542388D01*
X8369946Y2550000D01*
D02*
G37*
G36*
X2129946D02*
X2110054D01*
X2091677Y2542388D01*
X2077612Y2528323D01*
X2070000Y2509946D01*
Y2490054D01*
X2077612Y2471677D01*
X2091677Y2457612D01*
X2110054Y2450000D01*
X2129946D01*
X2148323Y2457612D01*
X2162388Y2471677D01*
X2170000Y2490054D01*
Y2509946D01*
X2162388Y2528323D01*
X2148323Y2542388D01*
X2129946Y2550000D01*
D02*
G37*
G36*
X1559946D02*
X1540054D01*
X1521677Y2542388D01*
X1507612Y2528323D01*
X1500000Y2509946D01*
Y2490054D01*
X1507612Y2471677D01*
X1521677Y2457612D01*
X1540054Y2450000D01*
X1559946D01*
X1578323Y2457612D01*
X1592388Y2471677D01*
X1600000Y2490054D01*
Y2509946D01*
X1592388Y2528323D01*
X1578323Y2542388D01*
X1559946Y2550000D01*
D02*
G37*
G36*
X2464304Y2487300D02*
X2412700D01*
Y2435696D01*
X2425244Y2439057D01*
X2440157Y2447667D01*
X2452333Y2459843D01*
X2460943Y2474757D01*
X2464304Y2487300D01*
D02*
G37*
G36*
X2387300D02*
X2335696D01*
X2339057Y2474757D01*
X2347667Y2459843D01*
X2359843Y2447667D01*
X2374756Y2439057D01*
X2387300Y2435696D01*
Y2487300D01*
D02*
G37*
G36*
X8624704Y2477300D02*
X8582700D01*
Y2435296D01*
X8601381Y2443034D01*
X8616966Y2458619D01*
X8624704Y2477300D01*
D02*
G37*
G36*
X8557300D02*
X8515296D01*
X8523034Y2458619D01*
X8538618Y2443034D01*
X8557300Y2435296D01*
Y2477300D01*
D02*
G37*
G36*
X1707300Y2457300D02*
X1655696D01*
X1659057Y2444756D01*
X1667667Y2429843D01*
X1679843Y2417667D01*
X1694757Y2409057D01*
X1707300Y2405696D01*
Y2457300D01*
D02*
G37*
G36*
X1732700Y2534304D02*
Y2470000D01*
Y2405696D01*
X1745244Y2409057D01*
X1760157Y2417667D01*
X1772333Y2429843D01*
X1777300Y2438446D01*
X1790000Y2435043D01*
Y2430054D01*
X1797612Y2411677D01*
X1811677Y2397612D01*
X1830054Y2390000D01*
X1849945D01*
X1868323Y2397612D01*
X1882388Y2411677D01*
X1890000Y2430054D01*
Y2449946D01*
X1882388Y2468323D01*
X1868323Y2482388D01*
X1849945Y2490000D01*
X1830054D01*
X1811677Y2482388D01*
X1798100Y2468811D01*
X1795545Y2468950D01*
X1785400Y2472028D01*
Y2478610D01*
X1780943Y2495243D01*
X1772333Y2510157D01*
X1760157Y2522333D01*
X1745244Y2530943D01*
X1732700Y2534304D01*
D02*
G37*
G36*
X6219946Y2480000D02*
X6200054D01*
X6181677Y2472388D01*
X6174926Y2465637D01*
X4892500D01*
X4879819Y2463114D01*
X4869069Y2455931D01*
X4683138Y2270000D01*
X4670054D01*
X4651677Y2262388D01*
X4637612Y2248323D01*
X4630000Y2229946D01*
Y2210054D01*
X4637612Y2191677D01*
X4651677Y2177612D01*
X4670054Y2170000D01*
X4689946D01*
X4708323Y2177612D01*
X4722388Y2191677D01*
X4730000Y2210054D01*
Y2223138D01*
X4906226Y2399364D01*
X5147917D01*
X5152777Y2387630D01*
X5149134Y2383987D01*
X5140000Y2361935D01*
Y2338065D01*
X5149134Y2316013D01*
X5166013Y2299135D01*
X5184973Y2291281D01*
X5186772Y2289071D01*
X5190263Y2281484D01*
X5191343Y2277300D01*
X5185296Y2262700D01*
X5294704D01*
X5286966Y2281382D01*
X5271381Y2296966D01*
X5256106Y2303293D01*
X5251466Y2314556D01*
X5251626Y2317849D01*
X5260000Y2338065D01*
Y2361935D01*
X5250866Y2383987D01*
X5247223Y2387630D01*
X5252083Y2399364D01*
X6169926D01*
X6181677Y2387612D01*
X6200054Y2380000D01*
X6219946D01*
X6238323Y2387612D01*
X6252388Y2401677D01*
X6260000Y2420054D01*
Y2439946D01*
X6252388Y2458323D01*
X6238323Y2472388D01*
X6219946Y2480000D01*
D02*
G37*
G36*
X12037300Y2428217D02*
X12019664Y2425895D01*
X12000714Y2418045D01*
X11984441Y2405559D01*
X11971955Y2389286D01*
X11964105Y2370336D01*
X11963100Y2362700D01*
X12037300D01*
Y2428217D01*
D02*
G37*
G36*
X3096743Y2690000D02*
X3063257D01*
X3030413Y2683467D01*
X2999475Y2670652D01*
X2971631Y2652048D01*
X2947952Y2628369D01*
X2929348Y2600525D01*
X2916533Y2569587D01*
X2910000Y2536743D01*
Y2503257D01*
X2916533Y2470413D01*
X2929348Y2439475D01*
X2947952Y2411631D01*
X2971631Y2387953D01*
X2999475Y2369348D01*
X3030413Y2356533D01*
X3063257Y2350000D01*
X3096743D01*
X3129587Y2356533D01*
X3160525Y2369348D01*
X3188369Y2387953D01*
X3212047Y2411631D01*
X3230652Y2439475D01*
X3243467Y2470413D01*
X3250000Y2503257D01*
Y2536743D01*
X3243467Y2569587D01*
X3230652Y2600525D01*
X3212047Y2628369D01*
X3188369Y2652048D01*
X3160525Y2670652D01*
X3129587Y2683467D01*
X3096743Y2690000D01*
D02*
G37*
G36*
X477350Y2799500D02*
X431650D01*
X386828Y2790584D01*
X344607Y2773095D01*
X306609Y2747706D01*
X274294Y2715391D01*
X248905Y2677393D01*
X231416Y2635172D01*
X222500Y2590350D01*
Y2544650D01*
X231416Y2499828D01*
X248905Y2457607D01*
X274294Y2419609D01*
X306609Y2387294D01*
X344607Y2361904D01*
X386828Y2344416D01*
X431650Y2335500D01*
X477350D01*
X522172Y2344416D01*
X564393Y2361904D01*
X602391Y2387294D01*
X634706Y2419609D01*
X660095Y2457607D01*
X677584Y2499828D01*
X686500Y2544650D01*
Y2590350D01*
X677584Y2635172D01*
X660095Y2677393D01*
X634706Y2715391D01*
X602391Y2747706D01*
X564393Y2773095D01*
X522172Y2790584D01*
X477350Y2799500D01*
D02*
G37*
G36*
X1309946Y2430000D02*
X1290054D01*
X1271677Y2422388D01*
X1257612Y2408323D01*
X1250000Y2389946D01*
Y2370054D01*
X1257612Y2351677D01*
X1271677Y2337612D01*
X1290054Y2330000D01*
X1309946D01*
X1328323Y2337612D01*
X1342388Y2351677D01*
X1350000Y2370054D01*
Y2389946D01*
X1342388Y2408323D01*
X1328323Y2422388D01*
X1309946Y2430000D01*
D02*
G37*
G36*
X3351267Y2441392D02*
X3346692D01*
Y2278692D01*
X3509392D01*
Y2283267D01*
X3502651Y2317154D01*
X3489429Y2349075D01*
X3470234Y2377803D01*
X3445803Y2402234D01*
X3417075Y2421429D01*
X3385154Y2434651D01*
X3351267Y2441392D01*
D02*
G37*
G36*
X2843267D02*
X2838692D01*
Y2278692D01*
X3001392D01*
Y2283267D01*
X2994651Y2317154D01*
X2981429Y2349075D01*
X2962234Y2377803D01*
X2937803Y2402234D01*
X2909075Y2421429D01*
X2877154Y2434651D01*
X2843267Y2441392D01*
D02*
G37*
G36*
X3321292D02*
X3316717D01*
X3282830Y2434651D01*
X3250909Y2421429D01*
X3222181Y2402234D01*
X3197750Y2377803D01*
X3178554Y2349075D01*
X3165333Y2317154D01*
X3158592Y2283267D01*
Y2278692D01*
X3321292D01*
Y2441392D01*
D02*
G37*
G36*
X2813292D02*
X2808717D01*
X2774830Y2434651D01*
X2742909Y2421429D01*
X2714181Y2402234D01*
X2689750Y2377803D01*
X2670554Y2349075D01*
X2657333Y2317154D01*
X2650592Y2283267D01*
Y2278692D01*
X2813292D01*
Y2441392D01*
D02*
G37*
G36*
X12037300Y2337300D02*
X11963100D01*
X11964105Y2329664D01*
X11971955Y2310714D01*
X11984441Y2294441D01*
X12000714Y2281955D01*
X12019664Y2274105D01*
X12037300Y2271784D01*
Y2337300D01*
D02*
G37*
G36*
X2532700Y2284704D02*
Y2242700D01*
X2574704D01*
X2566966Y2261382D01*
X2551381Y2276966D01*
X2532700Y2284704D01*
D02*
G37*
G36*
X2507300D02*
X2488619Y2276966D01*
X2473034Y2261382D01*
X2465296Y2242700D01*
X2507300D01*
Y2284704D01*
D02*
G37*
G36*
X12062700Y2428217D02*
Y2350000D01*
Y2271783D01*
X12080336Y2274105D01*
X12094724Y2280065D01*
X12109165Y2275241D01*
X12109771Y2272981D01*
X12118986Y2257019D01*
X12132019Y2243986D01*
X12147981Y2234770D01*
X12165784Y2230000D01*
X12184216D01*
X12202019Y2234770D01*
X12217981Y2243986D01*
X12231014Y2257019D01*
X12240230Y2272981D01*
X12245000Y2290784D01*
Y2309216D01*
X12240230Y2327019D01*
X12231014Y2342981D01*
X12217981Y2356014D01*
X12202019Y2365229D01*
X12184216Y2370000D01*
X12165784D01*
X12149329Y2365591D01*
X12144604Y2366041D01*
X12143261Y2366704D01*
X12135032Y2372418D01*
X12128045Y2389286D01*
X12115559Y2405559D01*
X12099286Y2418045D01*
X12080336Y2425895D01*
X12062700Y2428217D01*
D02*
G37*
G36*
X819946Y2310000D02*
X800054D01*
X781677Y2302388D01*
X767612Y2288323D01*
X760000Y2269946D01*
Y2250054D01*
X767612Y2231677D01*
X781677Y2217612D01*
X800054Y2210000D01*
X819946D01*
X838323Y2217612D01*
X852388Y2231677D01*
X860000Y2250054D01*
Y2269946D01*
X852388Y2288323D01*
X838323Y2302388D01*
X819946Y2310000D01*
D02*
G37*
G36*
X8729946Y2820000D02*
X8710054D01*
X8691677Y2812388D01*
X8677612Y2798323D01*
X8670000Y2779946D01*
Y2760054D01*
X8677612Y2741677D01*
X8686863Y2732426D01*
Y2255338D01*
X8632163Y2200637D01*
X7955703D01*
X7947217Y2213337D01*
X7950000Y2220054D01*
Y2239946D01*
X7942388Y2258323D01*
X7928323Y2272388D01*
X7925276Y2273650D01*
Y2286350D01*
X7928323Y2287612D01*
X7942388Y2301677D01*
X7950000Y2320054D01*
Y2339946D01*
X7942388Y2358323D01*
X7928323Y2372388D01*
X7926539Y2373127D01*
Y2386873D01*
X7928323Y2387612D01*
X7942388Y2401677D01*
X7950000Y2420054D01*
Y2439946D01*
X7942388Y2458323D01*
X7928323Y2472388D01*
X7909946Y2480000D01*
X7890054D01*
X7871677Y2472388D01*
X7857612Y2458323D01*
X7850000Y2439946D01*
Y2420054D01*
X7857612Y2401677D01*
X7871677Y2387612D01*
X7873461Y2386873D01*
Y2373127D01*
X7871677Y2372388D01*
X7857612Y2358323D01*
X7850000Y2339946D01*
Y2320054D01*
X7857612Y2301677D01*
X7871677Y2287612D01*
X7874724Y2286350D01*
Y2273650D01*
X7871677Y2272388D01*
X7857612Y2258323D01*
X7850000Y2239946D01*
Y2220054D01*
X7852783Y2213337D01*
X7844296Y2200637D01*
X7466226D01*
X7370000Y2296862D01*
Y2309946D01*
X7362388Y2328323D01*
X7348323Y2342388D01*
X7329946Y2350000D01*
X7310054D01*
X7304468Y2347686D01*
X7294854Y2357300D01*
X7185296D01*
X7193034Y2338619D01*
X7201464Y2330188D01*
X7198484Y2315208D01*
X7191677Y2312388D01*
X7177612Y2298323D01*
X7170000Y2279946D01*
Y2260054D01*
X7177612Y2241677D01*
X7191677Y2227612D01*
X7210054Y2220000D01*
X7223138D01*
X7826569Y1616569D01*
X7837319Y1609386D01*
X7850000Y1606863D01*
X9366275D01*
X9710000Y1263138D01*
Y1250054D01*
X9717612Y1231677D01*
X9731677Y1217612D01*
X9750054Y1210000D01*
X9769946D01*
X9788323Y1217612D01*
X9802388Y1231677D01*
X9810000Y1250054D01*
Y1269946D01*
X9802388Y1288323D01*
X9788323Y1302388D01*
X9769946Y1310000D01*
X9756862D01*
X9403431Y1663431D01*
X9392681Y1670614D01*
X9380000Y1673137D01*
X7863726D01*
X7293929Y2242933D01*
X7301123Y2253699D01*
X7310054Y2250000D01*
X7323138D01*
X7429069Y2144069D01*
X7439819Y2136886D01*
X7452500Y2134364D01*
X8645888D01*
X8658569Y2136886D01*
X8669319Y2144069D01*
X8743431Y2218181D01*
X8750614Y2228931D01*
X8753137Y2241612D01*
Y2368192D01*
X8765837Y2373452D01*
X8771677Y2367612D01*
X8790054Y2360000D01*
X8809946D01*
X8828323Y2367612D01*
X8842388Y2381677D01*
X8850000Y2400054D01*
Y2419946D01*
X8842388Y2438323D01*
X8828323Y2452388D01*
X8809946Y2460000D01*
X8790054D01*
X8771677Y2452388D01*
X8765837Y2446548D01*
X8753137Y2451808D01*
Y2732426D01*
X8762388Y2741677D01*
X8770000Y2760054D01*
Y2779946D01*
X8762388Y2798323D01*
X8748323Y2812388D01*
X8729946Y2820000D01*
D02*
G37*
G36*
X5294704Y2237300D02*
X5252700D01*
Y2195296D01*
X5271381Y2203034D01*
X5286966Y2218619D01*
X5294704Y2237300D01*
D02*
G37*
G36*
X5227300D02*
X5185296D01*
X5193034Y2218619D01*
X5208618Y2203034D01*
X5227300Y2195296D01*
Y2237300D01*
D02*
G37*
G36*
X3759946Y2290000D02*
X3740054D01*
X3721677Y2282388D01*
X3707612Y2268323D01*
X3700000Y2249946D01*
Y2230054D01*
X3707612Y2211677D01*
X3721677Y2197612D01*
X3740054Y2190000D01*
X3759946D01*
X3778323Y2197612D01*
X3792388Y2211677D01*
X3800000Y2230054D01*
Y2249946D01*
X3792388Y2268323D01*
X3778323Y2282388D01*
X3759946Y2290000D01*
D02*
G37*
G36*
X6759946Y2280000D02*
X6740054D01*
X6721677Y2272388D01*
X6707612Y2258323D01*
X6700000Y2239946D01*
Y2220054D01*
X6707612Y2201677D01*
X6721677Y2187612D01*
X6740054Y2180000D01*
X6759946D01*
X6778323Y2187612D01*
X6792388Y2201677D01*
X6800000Y2220054D01*
Y2239946D01*
X6792388Y2258323D01*
X6778323Y2272388D01*
X6759946Y2280000D01*
D02*
G37*
G36*
X12385000Y2241137D02*
X12362700D01*
Y2167700D01*
X12469465D01*
X12468202Y2177294D01*
X12459597Y2198069D01*
X12445908Y2215908D01*
X12428069Y2229597D01*
X12407294Y2238202D01*
X12385000Y2241137D01*
D02*
G37*
G36*
X12337300D02*
X12315000D01*
X12292706Y2238202D01*
X12271932Y2229597D01*
X12254092Y2215908D01*
X12240404Y2198069D01*
X12231798Y2177294D01*
X12230535Y2167700D01*
X12337300D01*
Y2241137D01*
D02*
G37*
G36*
X7001935Y2282530D02*
X6978065D01*
X6956013Y2273396D01*
X6939134Y2256518D01*
X6930000Y2234465D01*
Y2210596D01*
X6939134Y2188543D01*
X6956013Y2171665D01*
X6978065Y2162531D01*
X7001935D01*
X7023987Y2171665D01*
X7040866Y2188543D01*
X7050000Y2210596D01*
Y2234465D01*
X7040866Y2256518D01*
X7023987Y2273396D01*
X7001935Y2282530D01*
D02*
G37*
G36*
X819946Y2460000D02*
X800054D01*
X781677Y2452388D01*
X767612Y2438323D01*
X760000Y2419946D01*
Y2403258D01*
X658371Y2301629D01*
X651741Y2291705D01*
X649412Y2280000D01*
X649412Y2279999D01*
Y2098028D01*
X636712Y2092768D01*
X628165Y2101315D01*
X610835Y2111321D01*
X591505Y2116500D01*
X571494D01*
X552165Y2111321D01*
X534835Y2101315D01*
X520685Y2087165D01*
X510679Y2069835D01*
X505500Y2050506D01*
Y2030495D01*
X510679Y2011165D01*
X520685Y1993835D01*
X528942Y1985578D01*
X533430Y1977000D01*
X528942Y1968422D01*
X520685Y1960165D01*
X510679Y1942835D01*
X505500Y1923506D01*
Y1903495D01*
X510679Y1884165D01*
X520685Y1866835D01*
X528942Y1858578D01*
X533430Y1850000D01*
X528942Y1841423D01*
X520685Y1833165D01*
X510679Y1815835D01*
X505500Y1796506D01*
Y1776495D01*
X510679Y1757165D01*
X520685Y1739835D01*
X528942Y1731578D01*
X533430Y1723000D01*
X528942Y1714423D01*
X520685Y1706165D01*
X510679Y1688835D01*
X505500Y1669506D01*
Y1649495D01*
X510679Y1630165D01*
X520685Y1612835D01*
X534835Y1598685D01*
X552165Y1588680D01*
X571494Y1583500D01*
X591505D01*
X610835Y1588680D01*
X628165Y1598685D01*
X642315Y1612835D01*
X652320Y1630165D01*
X657500Y1649495D01*
Y1669506D01*
X652320Y1688835D01*
X642315Y1706165D01*
X634058Y1714422D01*
X629570Y1723000D01*
X634058Y1731578D01*
X642315Y1739835D01*
X652321Y1757165D01*
X657500Y1776495D01*
Y1796506D01*
X652695Y1814438D01*
X701628Y1863371D01*
X701629Y1863371D01*
X708259Y1873295D01*
X710588Y1885000D01*
Y2267330D01*
X803258Y2360000D01*
X819946D01*
X838323Y2367612D01*
X852388Y2381677D01*
X860000Y2400054D01*
Y2419946D01*
X852388Y2438323D01*
X838323Y2452388D01*
X819946Y2460000D01*
D02*
G37*
G36*
X3509392Y2253292D02*
X3346692D01*
Y2090592D01*
X3351267D01*
X3385154Y2097333D01*
X3417075Y2110555D01*
X3445803Y2129750D01*
X3470234Y2154181D01*
X3489429Y2182909D01*
X3502651Y2214830D01*
X3509392Y2248717D01*
Y2253292D01*
D02*
G37*
G36*
X3321292D02*
X3158592D01*
Y2248717D01*
X3165333Y2214830D01*
X3178554Y2182909D01*
X3197750Y2154181D01*
X3222181Y2129750D01*
X3250909Y2110555D01*
X3282830Y2097333D01*
X3316717Y2090592D01*
X3321292D01*
Y2253292D01*
D02*
G37*
G36*
X3001392D02*
X2838692D01*
Y2090592D01*
X2843267D01*
X2877154Y2097333D01*
X2909075Y2110555D01*
X2937803Y2129750D01*
X2962234Y2154181D01*
X2981429Y2182909D01*
X2994651Y2214830D01*
X3001392Y2248717D01*
Y2253292D01*
D02*
G37*
G36*
X2813292D02*
X2650592D01*
Y2248717D01*
X2657333Y2214830D01*
X2670554Y2182909D01*
X2689750Y2154181D01*
X2714181Y2129750D01*
X2742909Y2110555D01*
X2774830Y2097333D01*
X2808717Y2090592D01*
X2813292D01*
Y2253292D01*
D02*
G37*
G36*
X10109946Y2170000D02*
X10090054D01*
X10071677Y2162388D01*
X10057612Y2148323D01*
X10050000Y2129946D01*
Y2110054D01*
X10057612Y2091677D01*
X10071677Y2077612D01*
X10090054Y2070000D01*
X10109946D01*
X10128323Y2077612D01*
X10142388Y2091677D01*
X10150000Y2110054D01*
Y2129946D01*
X10142388Y2148323D01*
X10128323Y2162388D01*
X10109946Y2170000D01*
D02*
G37*
G36*
X12469465Y2142300D02*
X12362700D01*
Y2068864D01*
X12385000D01*
X12407294Y2071798D01*
X12428069Y2080404D01*
X12445908Y2094092D01*
X12459597Y2111932D01*
X12468202Y2132706D01*
X12469465Y2142300D01*
D02*
G37*
G36*
X12337300D02*
X12230535D01*
X12231798Y2132706D01*
X12240404Y2111932D01*
X12254092Y2094092D01*
X12271932Y2080404D01*
X12292706Y2071798D01*
X12315000Y2068864D01*
X12337300D01*
Y2142300D01*
D02*
G37*
G36*
X6922700Y2094704D02*
Y2052700D01*
X6964704D01*
X6956966Y2071381D01*
X6941381Y2086966D01*
X6922700Y2094704D01*
D02*
G37*
G36*
X6897300D02*
X6878618Y2086966D01*
X6863034Y2071381D01*
X6855296Y2052700D01*
X6897300D01*
Y2094704D01*
D02*
G37*
G36*
X7139946Y2240000D02*
X7120054D01*
X7101677Y2232388D01*
X7087612Y2218323D01*
X7080000Y2199946D01*
Y2180054D01*
X7087612Y2161677D01*
X7101677Y2147612D01*
X7108953Y2144598D01*
X7111431Y2132142D01*
X7107612Y2128323D01*
X7100000Y2109946D01*
Y2090054D01*
X7107612Y2071677D01*
X7121677Y2057612D01*
X7140054Y2050000D01*
X7159946D01*
X7178323Y2057612D01*
X7192388Y2071677D01*
X7200000Y2090054D01*
Y2109946D01*
X7192388Y2128323D01*
X7178323Y2142388D01*
X7171047Y2145402D01*
X7168569Y2157858D01*
X7172388Y2161677D01*
X7180000Y2180054D01*
Y2199946D01*
X7172388Y2218323D01*
X7158323Y2232388D01*
X7139946Y2240000D01*
D02*
G37*
G36*
X5797804Y2089808D02*
Y2047804D01*
X5839808D01*
X5832070Y2066485D01*
X5816485Y2082070D01*
X5797804Y2089808D01*
D02*
G37*
G36*
X3541935Y2130000D02*
X3518065D01*
X3496013Y2120865D01*
X3479135Y2103987D01*
X3470000Y2081935D01*
Y2058065D01*
X3479135Y2036013D01*
X3496013Y2019134D01*
X3518065Y2010000D01*
X3541935D01*
X3563987Y2019134D01*
X3580866Y2036013D01*
X3590000Y2058065D01*
Y2081935D01*
X3580866Y2103987D01*
X3563987Y2120865D01*
X3541935Y2130000D01*
D02*
G37*
G36*
X845506Y2180000D02*
X825495D01*
X806165Y2174821D01*
X788835Y2164815D01*
X774685Y2150665D01*
X764680Y2133335D01*
X759500Y2114006D01*
Y2093995D01*
X764680Y2074665D01*
X774685Y2057335D01*
X779626Y2052395D01*
X779415Y2036031D01*
X770364Y2026980D01*
X759648Y2008419D01*
X754632Y1989700D01*
X835500D01*
X916369D01*
X911353Y2008419D01*
X900636Y2026980D01*
X891585Y2036031D01*
X891375Y2052395D01*
X896315Y2057335D01*
X906321Y2074665D01*
X911500Y2093995D01*
Y2114006D01*
X906321Y2133335D01*
X896315Y2150665D01*
X882165Y2164815D01*
X864835Y2174821D01*
X845506Y2180000D01*
D02*
G37*
G36*
X6964704Y2027300D02*
X6922700D01*
Y1985296D01*
X6941381Y1993034D01*
X6956966Y2008619D01*
X6964704Y2027300D01*
D02*
G37*
G36*
X6897300D02*
X6855296D01*
X6863034Y2008619D01*
X6878618Y1993034D01*
X6897300Y1985296D01*
Y2027300D01*
D02*
G37*
G36*
X5839808Y2022404D02*
X5797804D01*
Y1980400D01*
X5816485Y1988138D01*
X5832070Y2003722D01*
X5839808Y2022404D01*
D02*
G37*
G36*
X5681935Y2090000D02*
X5658065D01*
X5636013Y2080866D01*
X5619135Y2063987D01*
X5610000Y2041935D01*
Y2018065D01*
X5619135Y1996013D01*
X5636013Y1979134D01*
X5658065Y1970000D01*
X5681935D01*
X5703987Y1979134D01*
X5720866Y1996013D01*
X5724225Y2004124D01*
X5737972Y2004124D01*
X5738138Y2003722D01*
X5753722Y1988138D01*
X5772404Y1980400D01*
Y2035104D01*
Y2089808D01*
X5753722Y2082070D01*
X5738138Y2066485D01*
X5735858Y2060980D01*
X5722111D01*
X5720866Y2063987D01*
X5703987Y2080866D01*
X5681935Y2090000D01*
D02*
G37*
G36*
X2139946Y2080000D02*
X2120054D01*
X2101677Y2072388D01*
X2087612Y2058323D01*
X2080000Y2039946D01*
Y2020054D01*
X2087612Y2001677D01*
X2101677Y1987612D01*
X2120054Y1980000D01*
X2139946D01*
X2158323Y1987612D01*
X2172388Y2001677D01*
X2180000Y2020054D01*
Y2039946D01*
X2172388Y2058323D01*
X2158323Y2072388D01*
X2139946Y2080000D01*
D02*
G37*
G36*
X2009946D02*
X1990054D01*
X1971677Y2072388D01*
X1957612Y2058323D01*
X1950000Y2039946D01*
Y2020054D01*
X1957612Y2001677D01*
X1971677Y1987612D01*
X1990054Y1980000D01*
X2009946D01*
X2028323Y1987612D01*
X2042388Y2001677D01*
X2050000Y2020054D01*
Y2039946D01*
X2042388Y2058323D01*
X2028323Y2072388D01*
X2009946Y2080000D01*
D02*
G37*
G36*
X1879946D02*
X1860054D01*
X1841677Y2072388D01*
X1827612Y2058323D01*
X1820000Y2039946D01*
Y2020054D01*
X1827612Y2001677D01*
X1841677Y1987612D01*
X1860054Y1980000D01*
X1879946D01*
X1898323Y1987612D01*
X1912388Y2001677D01*
X1920000Y2020054D01*
Y2039946D01*
X1912388Y2058323D01*
X1898323Y2072388D01*
X1879946Y2080000D01*
D02*
G37*
G36*
X1759946D02*
X1740054D01*
X1721677Y2072388D01*
X1707612Y2058323D01*
X1700000Y2039946D01*
Y2020054D01*
X1707612Y2001677D01*
X1721677Y1987612D01*
X1740054Y1980000D01*
X1759946D01*
X1778323Y1987612D01*
X1792388Y2001677D01*
X1800000Y2020054D01*
Y2039946D01*
X1792388Y2058323D01*
X1778323Y2072388D01*
X1759946Y2080000D01*
D02*
G37*
G36*
X1629946D02*
X1610054D01*
X1591677Y2072388D01*
X1577612Y2058323D01*
X1570000Y2039946D01*
Y2020054D01*
X1577612Y2001677D01*
X1591677Y1987612D01*
X1610054Y1980000D01*
X1629946D01*
X1648323Y1987612D01*
X1662388Y2001677D01*
X1670000Y2020054D01*
Y2039946D01*
X1662388Y2058323D01*
X1648323Y2072388D01*
X1629946Y2080000D01*
D02*
G37*
G36*
X1337300Y1989292D02*
X1321450Y1982727D01*
X1307273Y1968549D01*
X1306350Y1966321D01*
X1293650D01*
X1292727Y1968549D01*
X1278549Y1982727D01*
X1262700Y1989292D01*
Y1940000D01*
X1250000D01*
Y1927300D01*
X1200708D01*
X1207273Y1911451D01*
X1221450Y1897273D01*
X1223679Y1896350D01*
Y1883650D01*
X1221450Y1882727D01*
X1207273Y1868549D01*
X1200708Y1852700D01*
X1250000D01*
Y1840000D01*
X1262700D01*
Y1790708D01*
X1278549Y1797273D01*
X1292727Y1811451D01*
X1293650Y1813679D01*
X1306350D01*
X1307273Y1811451D01*
X1321450Y1797273D01*
X1337300Y1790708D01*
Y1840000D01*
X1350000D01*
Y1852700D01*
X1399292D01*
X1392727Y1868549D01*
X1378549Y1882727D01*
X1376321Y1883650D01*
Y1896350D01*
X1378549Y1897273D01*
X1392727Y1911451D01*
X1399292Y1927300D01*
X1350000D01*
Y1940000D01*
X1337300D01*
Y1989292D01*
D02*
G37*
G36*
X4169946Y2390000D02*
X4150054D01*
X4131677Y2382388D01*
X4117612Y2368323D01*
X4110000Y2349946D01*
Y2330054D01*
X4117612Y2311677D01*
X4131677Y2297612D01*
X4150054Y2290000D01*
X4163138D01*
X4489069Y1964069D01*
X4499819Y1956886D01*
X4512500Y1954363D01*
X5467500D01*
X5480181Y1956886D01*
X5490931Y1964069D01*
X5516862Y1990000D01*
X5529946D01*
X5548323Y1997612D01*
X5562388Y2011677D01*
X5570000Y2030054D01*
Y2049946D01*
X5562388Y2068323D01*
X5548323Y2082388D01*
X5529946Y2090000D01*
X5510054D01*
X5491677Y2082388D01*
X5481733Y2072444D01*
X5467792Y2075276D01*
X5462388Y2088323D01*
X5448323Y2102388D01*
X5429946Y2110000D01*
X5410054D01*
X5391677Y2102388D01*
X5377612Y2088323D01*
X5370000Y2069946D01*
Y2050054D01*
X5376925Y2033337D01*
X5372059Y2020637D01*
X4526226D01*
X4210000Y2336862D01*
Y2349946D01*
X4202388Y2368323D01*
X4188323Y2382388D01*
X4169946Y2390000D01*
D02*
G37*
G36*
X1362700Y1989292D02*
Y1952700D01*
X1399292D01*
X1392727Y1968549D01*
X1378549Y1982727D01*
X1362700Y1989292D01*
D02*
G37*
G36*
X1237300D02*
X1221450Y1982727D01*
X1207273Y1968549D01*
X1200708Y1952700D01*
X1237300D01*
Y1989292D01*
D02*
G37*
G36*
X9389946Y2050000D02*
X9370054D01*
X9351677Y2042388D01*
X9337612Y2028323D01*
X9330000Y2009946D01*
Y1990054D01*
X9337612Y1971677D01*
X9351677Y1957612D01*
X9370054Y1950000D01*
X9389946D01*
X9408323Y1957612D01*
X9422388Y1971677D01*
X9430000Y1990054D01*
Y2009946D01*
X9422388Y2028323D01*
X9408323Y2042388D01*
X9389946Y2050000D01*
D02*
G37*
G36*
X9259946D02*
X9240054D01*
X9221677Y2042388D01*
X9207612Y2028323D01*
X9200000Y2009946D01*
Y1990054D01*
X9207612Y1971677D01*
X9221677Y1957612D01*
X9240054Y1950000D01*
X9259946D01*
X9278323Y1957612D01*
X9292388Y1971677D01*
X9300000Y1990054D01*
Y2009946D01*
X9292388Y2028323D01*
X9278323Y2042388D01*
X9259946Y2050000D01*
D02*
G37*
G36*
X8569946D02*
X8550054D01*
X8531677Y2042388D01*
X8517612Y2028323D01*
X8510000Y2009946D01*
Y1990054D01*
X8517612Y1971677D01*
X8531677Y1957612D01*
X8550054Y1950000D01*
X8569946D01*
X8588323Y1957612D01*
X8602388Y1971677D01*
X8610000Y1990054D01*
Y2009946D01*
X8602388Y2028323D01*
X8588323Y2042388D01*
X8569946Y2050000D01*
D02*
G37*
G36*
X8439946D02*
X8420054D01*
X8401677Y2042388D01*
X8387612Y2028323D01*
X8380000Y2009946D01*
Y1990054D01*
X8387612Y1971677D01*
X8401677Y1957612D01*
X8420054Y1950000D01*
X8439946D01*
X8458323Y1957612D01*
X8472388Y1971677D01*
X8480000Y1990054D01*
Y2009946D01*
X8472388Y2028323D01*
X8458323Y2042388D01*
X8439946Y2050000D01*
D02*
G37*
G36*
X10059946Y2020000D02*
X10040054D01*
X10021677Y2012388D01*
X10007612Y1998323D01*
X10000000Y1979946D01*
Y1960054D01*
X10007612Y1941677D01*
X10021677Y1927612D01*
X10040054Y1920000D01*
X10059946D01*
X10078323Y1927612D01*
X10092388Y1941677D01*
X10100000Y1960054D01*
Y1979946D01*
X10092388Y1998323D01*
X10078323Y2012388D01*
X10059946Y2020000D01*
D02*
G37*
G36*
X3708300Y2000400D02*
X3707782D01*
X3682247Y1993558D01*
X3659353Y1980340D01*
X3640660Y1961647D01*
X3627442Y1938753D01*
X3620600Y1913218D01*
Y1912700D01*
X3708300D01*
Y2000400D01*
D02*
G37*
G36*
X2574704Y2217300D02*
X2465296D01*
X2473034Y2198619D01*
X2474577Y2197076D01*
Y1903414D01*
X2473950Y1902788D01*
X2466212Y1884106D01*
X2575620D01*
X2567882Y1902788D01*
X2566340Y1904330D01*
Y2197993D01*
X2566966Y2198619D01*
X2574704Y2217300D01*
D02*
G37*
G36*
X2310000Y1870588D02*
X2309999Y1870588D01*
X1945001D01*
X1945000Y1870588D01*
X1933295Y1868259D01*
X1923371Y1861629D01*
X1923371Y1861628D01*
X1722330Y1660588D01*
X1420123D01*
X1408323Y1672388D01*
X1389946Y1680000D01*
X1370054D01*
X1351677Y1672388D01*
X1343718Y1664429D01*
X1328738Y1667409D01*
X1327434Y1670556D01*
X1310556Y1687434D01*
X1288503Y1696568D01*
X1264634D01*
X1242581Y1687434D01*
X1225703Y1670556D01*
X1223080Y1664224D01*
X1221955Y1663603D01*
X1208500Y1662211D01*
X1198323Y1672388D01*
X1179946Y1680000D01*
X1160054D01*
X1141677Y1672388D01*
X1127612Y1658323D01*
X1120000Y1639946D01*
Y1620054D01*
X1127612Y1601677D01*
X1139412Y1589877D01*
Y1570001D01*
X1139412Y1570000D01*
X1141741Y1558295D01*
X1148371Y1548371D01*
X1198371Y1498371D01*
X1208295Y1491741D01*
X1220000Y1489412D01*
X1220001Y1489412D01*
X1999999D01*
X2000000Y1489412D01*
X2011705Y1491741D01*
X2021629Y1498371D01*
X2243258Y1720000D01*
X2259946D01*
X2278323Y1727612D01*
X2292388Y1741677D01*
X2300000Y1760054D01*
Y1779946D01*
X2293752Y1795030D01*
X2304519Y1802223D01*
X2330000Y1776742D01*
Y1760054D01*
X2337612Y1741677D01*
X2351677Y1727612D01*
X2370054Y1720000D01*
X2389946D01*
X2408323Y1727612D01*
X2422388Y1741677D01*
X2430000Y1760054D01*
Y1779946D01*
X2422388Y1798323D01*
X2408323Y1812388D01*
X2389946Y1820000D01*
X2373258D01*
X2331629Y1861629D01*
X2321706Y1868259D01*
X2310000Y1870588D01*
D02*
G37*
G36*
X916369Y1964300D02*
X835500D01*
X754632D01*
X759648Y1945581D01*
X770364Y1927019D01*
X783884Y1913500D01*
X770364Y1899981D01*
X759648Y1881419D01*
X754632Y1862700D01*
X835500D01*
X916369D01*
X911353Y1881419D01*
X900636Y1899981D01*
X887117Y1913500D01*
X900636Y1927019D01*
X911353Y1945581D01*
X916369Y1964300D01*
D02*
G37*
G36*
X2575620Y1858706D02*
X2533616D01*
Y1816702D01*
X2552298Y1824440D01*
X2567882Y1840025D01*
X2575620Y1858706D01*
D02*
G37*
G36*
X2508216D02*
X2466212D01*
X2473950Y1840025D01*
X2489535Y1824440D01*
X2508216Y1816702D01*
Y1858706D01*
D02*
G37*
G36*
X3859946Y2400000D02*
X3840054D01*
X3821677Y2392388D01*
X3807612Y2378323D01*
X3800000Y2359946D01*
Y2340055D01*
X3807612Y2321677D01*
X3816863Y2312426D01*
Y2279000D01*
X3819386Y2266319D01*
X3826569Y2255569D01*
X3859438Y2222700D01*
X3854177Y2210000D01*
X3840054D01*
X3821677Y2202388D01*
X3807612Y2188323D01*
X3800000Y2169946D01*
Y2150054D01*
X3807612Y2131677D01*
X3816863Y2122426D01*
Y1960160D01*
X3804163Y1956757D01*
X3801340Y1961647D01*
X3782647Y1980340D01*
X3759753Y1993558D01*
X3734218Y2000400D01*
X3733700D01*
Y1900000D01*
Y1799600D01*
X3734218D01*
X3759753Y1806442D01*
X3782647Y1819660D01*
X3801340Y1838353D01*
X3809420Y1852347D01*
X3824367Y1852837D01*
X3826569Y1849541D01*
X3931097Y1745014D01*
X3929706Y1729804D01*
X3929361Y1729347D01*
X3916669Y1722019D01*
X3898981Y1704331D01*
X3886474Y1682668D01*
X3880000Y1658507D01*
Y1633493D01*
X3886474Y1609332D01*
X3898981Y1587669D01*
X3916669Y1569981D01*
X3938331Y1557474D01*
X3962493Y1551000D01*
X3987507D01*
X4011668Y1557474D01*
X4033331Y1569981D01*
X4051019Y1587669D01*
X4063526Y1609332D01*
X4070000Y1633493D01*
Y1658507D01*
X4063526Y1682668D01*
X4051019Y1704331D01*
X4038491Y1716858D01*
X4043752Y1729558D01*
X4098580D01*
X4142303Y1685835D01*
X4140474Y1682668D01*
X4134000Y1658507D01*
Y1633493D01*
X4140474Y1609332D01*
X4152981Y1587669D01*
X4170669Y1569981D01*
X4192331Y1557474D01*
X4216493Y1551000D01*
X4241507D01*
X4265668Y1557474D01*
X4287331Y1569981D01*
X4305019Y1587669D01*
X4317526Y1609332D01*
X4324000Y1633493D01*
Y1658507D01*
X4317526Y1682668D01*
X4305019Y1704331D01*
X4287331Y1722019D01*
X4265668Y1734526D01*
X4241507Y1741000D01*
X4216493D01*
X4192331Y1734526D01*
X4189165Y1732697D01*
X4135736Y1786126D01*
X4124986Y1793309D01*
X4112305Y1795832D01*
X4002358D01*
X4000686Y1808532D01*
X4011668Y1811474D01*
X4033331Y1823981D01*
X4051019Y1841669D01*
X4063526Y1863332D01*
X4070000Y1887493D01*
Y1912507D01*
X4063526Y1936668D01*
X4051019Y1958331D01*
X4033331Y1976019D01*
X4011668Y1988526D01*
X3987507Y1995000D01*
X3962493D01*
X3938331Y1988526D01*
X3916669Y1976019D01*
X3898981Y1958331D01*
X3895837Y1952884D01*
X3883137Y1956287D01*
Y2122426D01*
X3892388Y2131677D01*
X3900000Y2150054D01*
Y2164178D01*
X3912700Y2169438D01*
X4134000Y1948138D01*
Y1805000D01*
X4324000D01*
Y1995000D01*
X4180862D01*
X3883137Y2292725D01*
Y2312426D01*
X3892388Y2321677D01*
X3900000Y2340055D01*
Y2359946D01*
X3892388Y2378323D01*
X3878323Y2392388D01*
X3859946Y2400000D01*
D02*
G37*
G36*
X3708300Y1887300D02*
X3620600D01*
Y1886782D01*
X3627442Y1861247D01*
X3640660Y1838353D01*
X3659353Y1819660D01*
X3682247Y1806442D01*
X3707782Y1799600D01*
X3708300D01*
Y1887300D01*
D02*
G37*
G36*
X1399292Y1827300D02*
X1362700D01*
Y1790708D01*
X1378549Y1797273D01*
X1392727Y1811451D01*
X1399292Y1827300D01*
D02*
G37*
G36*
X1237300D02*
X1200708D01*
X1207273Y1811451D01*
X1221450Y1797273D01*
X1237300Y1790708D01*
Y1827300D01*
D02*
G37*
G36*
X11351935Y1910000D02*
X11328065D01*
X11306013Y1900866D01*
X11289134Y1883987D01*
X11280000Y1861935D01*
Y1838065D01*
X11289134Y1816013D01*
X11306013Y1799135D01*
X11328065Y1790000D01*
X11351935D01*
X11373987Y1799135D01*
X11390865Y1816013D01*
X11400000Y1838065D01*
Y1861935D01*
X11390865Y1883987D01*
X11373987Y1900866D01*
X11351935Y1910000D01*
D02*
G37*
G36*
X6809946Y1820000D02*
X6790054D01*
X6771677Y1812388D01*
X6757612Y1798323D01*
X6750000Y1779946D01*
Y1760054D01*
X6757612Y1741677D01*
X6771677Y1727612D01*
X6790054Y1720000D01*
X6809946D01*
X6828323Y1727612D01*
X6842388Y1741677D01*
X6850000Y1760054D01*
Y1779946D01*
X6842388Y1798323D01*
X6828323Y1812388D01*
X6809946Y1820000D01*
D02*
G37*
G36*
X6639946D02*
X6620054D01*
X6601677Y1812388D01*
X6587612Y1798323D01*
X6580000Y1779946D01*
Y1760054D01*
X6587612Y1741677D01*
X6601677Y1727612D01*
X6620054Y1720000D01*
X6639946D01*
X6658323Y1727612D01*
X6672388Y1741677D01*
X6680000Y1760054D01*
Y1779946D01*
X6672388Y1798323D01*
X6658323Y1812388D01*
X6639946Y1820000D01*
D02*
G37*
G36*
X2759946Y1772500D02*
X2740054D01*
X2721677Y1764888D01*
X2707612Y1750823D01*
X2700000Y1732446D01*
Y1712554D01*
X2707612Y1694177D01*
X2721677Y1680112D01*
X2740054Y1672500D01*
X2759946D01*
X2778323Y1680112D01*
X2792388Y1694177D01*
X2800000Y1712554D01*
Y1732446D01*
X2792388Y1750823D01*
X2778323Y1764888D01*
X2759946Y1772500D01*
D02*
G37*
G36*
X2599946Y1730000D02*
X2580054D01*
X2561677Y1722388D01*
X2547612Y1708323D01*
X2540000Y1689946D01*
Y1670054D01*
X2547612Y1651677D01*
X2561677Y1637612D01*
X2580054Y1630000D01*
X2599946D01*
X2618323Y1637612D01*
X2632388Y1651677D01*
X2640000Y1670054D01*
Y1689946D01*
X2632388Y1708323D01*
X2618323Y1722388D01*
X2599946Y1730000D01*
D02*
G37*
G36*
X11763218Y1700400D02*
X11762700D01*
Y1612700D01*
X11850400D01*
Y1613218D01*
X11843558Y1638753D01*
X11830340Y1661647D01*
X11811647Y1680340D01*
X11788753Y1693558D01*
X11763218Y1700400D01*
D02*
G37*
G36*
X11737300D02*
X11736782D01*
X11711247Y1693558D01*
X11688353Y1680340D01*
X11669660Y1661647D01*
X11656442Y1638753D01*
X11649600Y1613218D01*
Y1612700D01*
X11737300D01*
Y1700400D01*
D02*
G37*
G36*
X10505218D02*
X10504700D01*
Y1612700D01*
X10592400D01*
Y1613218D01*
X10585558Y1638753D01*
X10572340Y1661647D01*
X10553647Y1680340D01*
X10530753Y1693558D01*
X10505218Y1700400D01*
D02*
G37*
G36*
X10479300D02*
X10478782D01*
X10453247Y1693558D01*
X10430353Y1680340D01*
X10411660Y1661647D01*
X10398442Y1638753D01*
X10391600Y1613218D01*
Y1612700D01*
X10479300D01*
Y1700400D01*
D02*
G37*
G36*
X3733507Y1741000D02*
X3708493D01*
X3684331Y1734526D01*
X3662669Y1722019D01*
X3644981Y1704331D01*
X3632474Y1682668D01*
X3626000Y1658507D01*
Y1633493D01*
X3632474Y1609332D01*
X3644981Y1587669D01*
X3662669Y1569981D01*
X3684331Y1557474D01*
X3708493Y1551000D01*
X3733507D01*
X3757668Y1557474D01*
X3779331Y1569981D01*
X3797019Y1587669D01*
X3809526Y1609332D01*
X3816000Y1633493D01*
Y1658507D01*
X3809526Y1682668D01*
X3797019Y1704331D01*
X3779331Y1722019D01*
X3757668Y1734526D01*
X3733507Y1741000D01*
D02*
G37*
G36*
X12270507Y1695000D02*
X12245493D01*
X12221332Y1688526D01*
X12199669Y1676019D01*
X12181982Y1658331D01*
X12169475Y1636669D01*
X12163001Y1612507D01*
Y1587493D01*
X12169475Y1563332D01*
X12171303Y1560165D01*
X11911334Y1300196D01*
X11447059D01*
X11434378Y1297673D01*
X11423628Y1290490D01*
X11266569Y1133431D01*
X11259386Y1122681D01*
X11256863Y1110000D01*
Y883726D01*
X10996275Y623137D01*
X10780000D01*
X10767319Y620614D01*
X10756569Y613431D01*
X10666569Y523431D01*
X10659386Y512681D01*
X10656863Y500000D01*
Y454555D01*
X10644163Y451152D01*
X10640019Y458331D01*
X10622331Y476019D01*
X10600668Y488526D01*
X10576507Y495000D01*
X10551493D01*
X10527331Y488526D01*
X10505669Y476019D01*
X10487981Y458331D01*
X10475474Y436668D01*
X10469000Y412507D01*
Y387493D01*
X10475474Y363332D01*
X10487981Y341669D01*
X10505669Y323981D01*
X10519776Y315837D01*
X10516373Y303137D01*
X10434000D01*
X10421319Y300614D01*
X10410569Y293431D01*
X10349835Y232697D01*
X10346668Y234526D01*
X10322507Y241000D01*
X10297493D01*
X10273331Y234526D01*
X10251669Y222019D01*
X10233981Y204331D01*
X10221474Y182668D01*
X10215000Y158507D01*
Y133493D01*
X10221474Y109332D01*
X10233981Y87669D01*
X10251669Y69981D01*
X10273331Y57474D01*
X10297493Y51000D01*
X10322507D01*
X10346668Y57474D01*
X10368331Y69981D01*
X10386019Y87669D01*
X10398526Y109332D01*
X10405000Y133493D01*
Y158507D01*
X10398526Y182668D01*
X10396697Y185835D01*
X10447726Y236863D01*
X10505981D01*
X10509384Y224163D01*
X10505669Y222019D01*
X10487981Y204331D01*
X10475474Y182668D01*
X10469000Y158507D01*
Y133493D01*
X10475474Y109332D01*
X10487981Y87669D01*
X10505669Y69981D01*
X10527331Y57474D01*
X10551493Y51000D01*
X10576507D01*
X10600668Y57474D01*
X10622331Y69981D01*
X10640019Y87669D01*
X10652526Y109332D01*
X10659000Y133493D01*
Y158507D01*
X10652526Y182668D01*
X10650697Y185835D01*
X10701725Y236863D01*
X10751098D01*
X10754176Y224163D01*
X10737660Y207647D01*
X10724442Y184753D01*
X10717600Y159218D01*
Y158700D01*
X10918400D01*
Y159218D01*
X10911558Y184753D01*
X10898340Y207647D01*
X10881823Y224163D01*
X10884902Y236863D01*
X11478000D01*
X11490681Y239386D01*
X11501431Y246569D01*
X12218165Y963303D01*
X12221332Y961474D01*
X12245493Y955000D01*
X12270507D01*
X12294669Y961474D01*
X12316331Y973981D01*
X12334019Y991669D01*
X12346526Y1013331D01*
X12353000Y1037493D01*
Y1062507D01*
X12346526Y1086668D01*
X12334019Y1108331D01*
X12316331Y1126019D01*
X12294669Y1138526D01*
X12270507Y1145000D01*
X12245493D01*
X12221332Y1138526D01*
X12199669Y1126019D01*
X12181981Y1108331D01*
X12169475Y1086668D01*
X12163000Y1062507D01*
Y1037493D01*
X12169475Y1013331D01*
X12171303Y1010165D01*
X11464275Y303137D01*
X10865627D01*
X10862224Y315837D01*
X10876331Y323981D01*
X10894018Y341669D01*
X10906525Y363332D01*
X10913000Y387493D01*
Y412507D01*
X10906525Y436668D01*
X10894018Y458331D01*
X10876331Y476019D01*
X10854668Y488526D01*
X10830507Y495000D01*
X10805493D01*
X10781331Y488526D01*
X10759669Y476019D01*
X10741981Y458331D01*
X10735837Y447689D01*
X10723137Y451092D01*
Y486275D01*
X10793726Y556864D01*
X11010000D01*
X11022681Y559386D01*
X11033431Y566569D01*
X11313431Y846569D01*
X11320614Y857319D01*
X11323137Y870000D01*
Y1096275D01*
X11460785Y1233923D01*
X11925059D01*
X11937740Y1236445D01*
X11948490Y1243628D01*
X12218165Y1513303D01*
X12221332Y1511474D01*
X12245493Y1505000D01*
X12270507D01*
X12294669Y1511474D01*
X12316331Y1523981D01*
X12334019Y1541669D01*
X12346526Y1563332D01*
X12353000Y1587493D01*
Y1612507D01*
X12346526Y1636669D01*
X12334019Y1658331D01*
X12316331Y1676019D01*
X12294669Y1688526D01*
X12270507Y1695000D01*
D02*
G37*
G36*
X12016507D02*
X11991493D01*
X11967332Y1688526D01*
X11945669Y1676019D01*
X11927982Y1658331D01*
X11915475Y1636669D01*
X11909001Y1612507D01*
Y1587493D01*
X11915475Y1563332D01*
X11917303Y1560165D01*
X11810275Y1453137D01*
X11450000D01*
X11437319Y1450614D01*
X11426569Y1443431D01*
X11176569Y1193431D01*
X11169386Y1182681D01*
X11166863Y1170000D01*
Y921195D01*
X11061733Y816065D01*
X11049313Y821605D01*
X11042388Y838323D01*
X11033137Y847574D01*
Y960528D01*
X11036669Y961474D01*
X11058331Y973981D01*
X11076019Y991669D01*
X11088526Y1013331D01*
X11095000Y1037493D01*
Y1062507D01*
X11088526Y1086668D01*
X11076019Y1108331D01*
X11058331Y1126019D01*
X11036669Y1138526D01*
X11012507Y1145000D01*
X10987493D01*
X10963332Y1138526D01*
X10941669Y1126019D01*
X10923981Y1108331D01*
X10911474Y1086668D01*
X10905000Y1062507D01*
Y1037493D01*
X10911474Y1013331D01*
X10923981Y991669D01*
X10941669Y973981D01*
X10963332Y961474D01*
X10966864Y960528D01*
Y847574D01*
X10957612Y838323D01*
X10950000Y819946D01*
Y800054D01*
X10957612Y781677D01*
X10971677Y767612D01*
X10980441Y763982D01*
X10987319Y759386D01*
X10991311Y745643D01*
X10964334Y718665D01*
X10595528D01*
X10582848Y716143D01*
X10572097Y708960D01*
X10349835Y486697D01*
X10346668Y488526D01*
X10322507Y495000D01*
X10297493D01*
X10273331Y488526D01*
X10251669Y476019D01*
X10233981Y458331D01*
X10221474Y436668D01*
X10215000Y412507D01*
Y387493D01*
X10221474Y363332D01*
X10233981Y341669D01*
X10251669Y323981D01*
X10273331Y311474D01*
X10297493Y305000D01*
X10322507D01*
X10346668Y311474D01*
X10368331Y323981D01*
X10386018Y341669D01*
X10398525Y363332D01*
X10405000Y387493D01*
Y412507D01*
X10398525Y436668D01*
X10396697Y439835D01*
X10609254Y652392D01*
X10978059D01*
X10990740Y654914D01*
X11001490Y662097D01*
X11223431Y884038D01*
X11230614Y894789D01*
X11233137Y907469D01*
Y1156275D01*
X11463726Y1386863D01*
X11824000D01*
X11836681Y1389386D01*
X11847431Y1396569D01*
X11964165Y1513303D01*
X11967332Y1511474D01*
X11991493Y1505000D01*
X12016507D01*
X12040669Y1511474D01*
X12062331Y1523981D01*
X12080019Y1541669D01*
X12092526Y1563332D01*
X12099000Y1587493D01*
Y1612507D01*
X12092526Y1636669D01*
X12080019Y1658331D01*
X12062331Y1676019D01*
X12040669Y1688526D01*
X12016507Y1695000D01*
D02*
G37*
G36*
X11591000D02*
X11401001D01*
Y1505000D01*
X11591000D01*
Y1695000D01*
D02*
G37*
G36*
X11012507D02*
X10987493D01*
X10963332Y1688526D01*
X10941669Y1676019D01*
X10923981Y1658331D01*
X10911474Y1636669D01*
X10905000Y1612507D01*
Y1587493D01*
X10911474Y1563332D01*
X10923981Y1541669D01*
X10941669Y1523981D01*
X10963332Y1511474D01*
X10987493Y1505000D01*
X11012507D01*
X11036669Y1511474D01*
X11058331Y1523981D01*
X11076019Y1541669D01*
X11088526Y1563332D01*
X11095000Y1587493D01*
Y1612507D01*
X11088526Y1636669D01*
X11076019Y1658331D01*
X11058331Y1676019D01*
X11036669Y1688526D01*
X11012507Y1695000D01*
D02*
G37*
G36*
X10758507D02*
X10733493D01*
X10709332Y1688526D01*
X10687669Y1676019D01*
X10669981Y1658331D01*
X10657474Y1636669D01*
X10651000Y1612507D01*
Y1587493D01*
X10657474Y1563332D01*
X10669981Y1541669D01*
X10687669Y1523981D01*
X10709332Y1511474D01*
X10733493Y1505000D01*
X10758507D01*
X10782669Y1511474D01*
X10804331Y1523981D01*
X10822019Y1541669D01*
X10834526Y1563332D01*
X10841000Y1587493D01*
Y1612507D01*
X10834526Y1636669D01*
X10822019Y1658331D01*
X10804331Y1676019D01*
X10782669Y1688526D01*
X10758507Y1695000D01*
D02*
G37*
G36*
X10333000D02*
X10143000D01*
Y1505000D01*
X10333000D01*
Y1695000D01*
D02*
G37*
G36*
X11850400Y1587300D02*
X11762700D01*
Y1499600D01*
X11763218D01*
X11788753Y1506442D01*
X11811647Y1519660D01*
X11830340Y1538353D01*
X11843558Y1561247D01*
X11850400Y1586782D01*
Y1587300D01*
D02*
G37*
G36*
X11737300D02*
X11649600D01*
Y1586782D01*
X11656442Y1561247D01*
X11669660Y1538353D01*
X11688353Y1519660D01*
X11711247Y1506442D01*
X11736782Y1499600D01*
X11737300D01*
Y1587300D01*
D02*
G37*
G36*
X10592400D02*
X10504700D01*
Y1499600D01*
X10505218D01*
X10530753Y1506442D01*
X10553647Y1519660D01*
X10572340Y1538353D01*
X10585558Y1561247D01*
X10592400Y1586782D01*
Y1587300D01*
D02*
G37*
G36*
X10479300D02*
X10391600D01*
Y1586782D01*
X10398442Y1561247D01*
X10411660Y1538353D01*
X10430353Y1519660D01*
X10453247Y1506442D01*
X10478782Y1499600D01*
X10479300D01*
Y1587300D01*
D02*
G37*
G36*
X3551935Y1490000D02*
X3528065D01*
X3506013Y1480865D01*
X3489135Y1463987D01*
X3480000Y1441935D01*
Y1418065D01*
X3489135Y1396013D01*
X3506013Y1379134D01*
X3528065Y1370000D01*
X3551935D01*
X3573987Y1379134D01*
X3590866Y1396013D01*
X3600000Y1418065D01*
Y1441935D01*
X3590866Y1463987D01*
X3573987Y1480865D01*
X3551935Y1490000D01*
D02*
G37*
G36*
X916369Y1837300D02*
X835500D01*
X754632D01*
X759648Y1818581D01*
X770364Y1800020D01*
X785519Y1784864D01*
X786027Y1781008D01*
X774685Y1769665D01*
X764680Y1752335D01*
X759500Y1733006D01*
Y1712995D01*
X764680Y1693665D01*
X769856Y1684700D01*
X762523Y1672000D01*
X759500D01*
Y1563258D01*
X718371Y1522129D01*
X711741Y1512206D01*
X709412Y1500500D01*
X709412Y1500499D01*
Y1280001D01*
X709412Y1280000D01*
X711741Y1268295D01*
X718371Y1258371D01*
X780000Y1196742D01*
Y1180054D01*
X787612Y1161677D01*
X801677Y1147612D01*
X820054Y1140000D01*
X839946D01*
X858323Y1147612D01*
X872388Y1161677D01*
X880000Y1180054D01*
Y1199946D01*
X872388Y1218323D01*
X858323Y1232388D01*
X839946Y1240000D01*
X823258D01*
X770588Y1292670D01*
Y1319591D01*
X783288Y1322117D01*
X787612Y1311677D01*
X801677Y1297612D01*
X820054Y1290000D01*
X839946D01*
X858323Y1297612D01*
X872388Y1311677D01*
X880000Y1330054D01*
Y1349946D01*
X872388Y1368323D01*
X858323Y1382388D01*
X839946Y1390000D01*
X820054D01*
X801677Y1382388D01*
X787612Y1368323D01*
X783288Y1357883D01*
X770588Y1360409D01*
Y1487830D01*
X802758Y1520000D01*
X911500D01*
Y1672000D01*
X908477D01*
X901145Y1684700D01*
X906321Y1693665D01*
X911500Y1712995D01*
Y1733006D01*
X906321Y1752335D01*
X896315Y1769665D01*
X884973Y1781008D01*
X885481Y1784864D01*
X900636Y1800020D01*
X911353Y1818581D01*
X916369Y1837300D01*
D02*
G37*
G36*
X6169955Y1387500D02*
X6150064D01*
X6131686Y1379889D01*
X6117621Y1365823D01*
X6110009Y1347446D01*
Y1327555D01*
X6117621Y1309178D01*
X6131686Y1295112D01*
X6150064Y1287501D01*
X6169955D01*
X6188332Y1295112D01*
X6202397Y1309178D01*
X6210009Y1327555D01*
Y1347446D01*
X6202397Y1365823D01*
X6188332Y1379889D01*
X6169955Y1387500D01*
D02*
G37*
G36*
X6379946Y1380000D02*
X6360054D01*
X6341677Y1372388D01*
X6327612Y1358323D01*
X6320000Y1339946D01*
Y1320054D01*
X6327612Y1301677D01*
X6341677Y1287612D01*
X6360054Y1280000D01*
X6379946D01*
X6398323Y1287612D01*
X6412388Y1301677D01*
X6420000Y1320054D01*
Y1339946D01*
X6412388Y1358323D01*
X6398323Y1372388D01*
X6379946Y1380000D01*
D02*
G37*
G36*
X2519946Y1390000D02*
X2500054D01*
X2481677Y1382388D01*
X2467612Y1368323D01*
X2460000Y1349946D01*
Y1330054D01*
X2467612Y1311677D01*
X2481677Y1297612D01*
X2500054Y1290000D01*
X2519946D01*
X2538323Y1297612D01*
X2547300Y1306589D01*
X2560000Y1301329D01*
Y1290054D01*
X2567612Y1271677D01*
X2581677Y1257612D01*
X2600054Y1250000D01*
X2619946D01*
X2638323Y1257612D01*
X2652388Y1271677D01*
X2660000Y1290054D01*
Y1309946D01*
X2652388Y1328323D01*
X2638323Y1342388D01*
X2619946Y1350000D01*
X2600054D01*
X2581677Y1342388D01*
X2572700Y1333411D01*
X2560000Y1338671D01*
Y1349946D01*
X2552388Y1368323D01*
X2538323Y1382388D01*
X2519946Y1390000D01*
D02*
G37*
G36*
X2799946Y1310000D02*
X2780054D01*
X2761677Y1302388D01*
X2747612Y1288323D01*
X2740000Y1269946D01*
Y1250054D01*
X2747612Y1231677D01*
X2761677Y1217612D01*
X2780054Y1210000D01*
X2799946D01*
X2818323Y1217612D01*
X2827167Y1226457D01*
X2841051Y1225433D01*
X2842031Y1224727D01*
X2855412Y1211347D01*
X2873789Y1203735D01*
X2893680D01*
X2912057Y1211347D01*
X2926123Y1225412D01*
X2933735Y1243789D01*
Y1263680D01*
X2926123Y1282057D01*
X2912057Y1296123D01*
X2893680Y1303735D01*
X2873789D01*
X2855412Y1296123D01*
X2846567Y1287278D01*
X2832683Y1288301D01*
X2831703Y1289008D01*
X2818323Y1302388D01*
X2799946Y1310000D01*
D02*
G37*
G36*
X6262700Y1224657D02*
Y1162700D01*
X6324657D01*
X6320262Y1179103D01*
X6310335Y1196297D01*
X6296297Y1210335D01*
X6279103Y1220262D01*
X6262700Y1224657D01*
D02*
G37*
G36*
X6237300D02*
X6220897Y1220262D01*
X6203703Y1210335D01*
X6189665Y1196297D01*
X6179738Y1179103D01*
X6175343Y1162700D01*
X6237300D01*
Y1224657D01*
D02*
G37*
G36*
X2520185Y1194719D02*
Y1152715D01*
X2562189D01*
X2554451Y1171397D01*
X2538866Y1186981D01*
X2520185Y1194719D01*
D02*
G37*
G36*
X2494785D02*
X2476103Y1186981D01*
X2460519Y1171397D01*
X2452781Y1152715D01*
X2494785D01*
Y1194719D01*
D02*
G37*
G36*
X6324657Y1137300D02*
X6262700D01*
Y1075343D01*
X6279103Y1079738D01*
X6296297Y1089665D01*
X6310335Y1103703D01*
X6320262Y1120897D01*
X6324657Y1137300D01*
D02*
G37*
G36*
X6237300D02*
X6175343D01*
X6179738Y1120897D01*
X6189665Y1103703D01*
X6203703Y1089665D01*
X6220897Y1079738D01*
X6237300Y1075343D01*
Y1137300D01*
D02*
G37*
G36*
X1628946Y1131000D02*
X1609054D01*
X1590677Y1123388D01*
X1576612Y1109323D01*
X1569000Y1090945D01*
Y1071054D01*
X1576612Y1052677D01*
X1590677Y1038612D01*
X1609054Y1031000D01*
X1628946D01*
X1647323Y1038612D01*
X1661388Y1052677D01*
X1669000Y1071054D01*
Y1090945D01*
X1661388Y1109323D01*
X1647323Y1123388D01*
X1628946Y1131000D01*
D02*
G37*
G36*
X1191935Y1270000D02*
X1168065D01*
X1146013Y1260866D01*
X1129134Y1243987D01*
X1120000Y1221935D01*
Y1198065D01*
X1129134Y1176013D01*
X1146013Y1159135D01*
X1168065Y1150000D01*
X1191935D01*
X1213987Y1159135D01*
X1218971Y1164119D01*
X2230995D01*
X2253484Y1141629D01*
X2248046Y1129107D01*
X2231573Y1122284D01*
X2217508Y1108219D01*
X2209896Y1089842D01*
Y1069951D01*
X2217508Y1051573D01*
X2231573Y1037508D01*
X2249951Y1029896D01*
X2269842D01*
X2288219Y1037508D01*
X2302284Y1051573D01*
X2309107Y1068046D01*
X2321629Y1073485D01*
X2333494Y1061620D01*
X2337612Y1051677D01*
X2351677Y1037612D01*
X2370054Y1030000D01*
X2389946D01*
X2408323Y1037612D01*
X2422388Y1051677D01*
X2430000Y1070055D01*
Y1089946D01*
X2422388Y1108323D01*
X2408323Y1122388D01*
X2398380Y1126507D01*
X2282443Y1242443D01*
X2267558Y1252389D01*
X2250000Y1255882D01*
X1218971D01*
X1213987Y1260866D01*
X1191935Y1270000D01*
D02*
G37*
G36*
X1337300Y1039292D02*
X1321450Y1032727D01*
X1307273Y1018549D01*
X1306350Y1016321D01*
X1293650D01*
X1292727Y1018549D01*
X1278549Y1032727D01*
X1262700Y1039292D01*
Y990000D01*
X1250000D01*
Y977300D01*
X1200708D01*
X1207273Y961451D01*
X1221450Y947273D01*
X1223679Y946350D01*
Y933650D01*
X1221450Y932727D01*
X1207273Y918550D01*
X1200708Y902700D01*
X1250000D01*
Y890000D01*
X1262700D01*
Y840708D01*
X1278549Y847273D01*
X1292727Y861451D01*
X1293650Y863679D01*
X1306350D01*
X1307273Y861451D01*
X1321450Y847274D01*
X1337300Y840709D01*
Y890001D01*
X1350000D01*
Y902701D01*
X1399292D01*
X1392726Y918550D01*
X1378549Y932727D01*
X1376321Y933650D01*
Y946350D01*
X1378549Y947273D01*
X1392727Y961451D01*
X1399292Y977300D01*
X1350000D01*
Y990000D01*
X1337300D01*
Y1039292D01*
D02*
G37*
G36*
X1362700D02*
Y1002700D01*
X1399292D01*
X1392727Y1018549D01*
X1378549Y1032727D01*
X1362700Y1039292D01*
D02*
G37*
G36*
X1237300D02*
X1221450Y1032727D01*
X1207273Y1018549D01*
X1200708Y1002700D01*
X1237300D01*
Y1039292D01*
D02*
G37*
G36*
X2565355Y1127315D02*
X2452781D01*
X2460519Y1108634D01*
X2474088Y1095065D01*
Y1014966D01*
X2473003Y1013881D01*
X2465265Y995200D01*
X2574673D01*
X2566935Y1013881D01*
X2565851Y1014966D01*
Y1124825D01*
X2565355Y1127315D01*
D02*
G37*
G36*
X12016507Y1145000D02*
X11991493D01*
X11967332Y1138526D01*
X11945669Y1126019D01*
X11927981Y1108331D01*
X11915475Y1086668D01*
X11909000Y1062507D01*
Y1037493D01*
X11915475Y1013331D01*
X11927981Y991669D01*
X11945669Y973981D01*
X11967332Y961474D01*
X11991493Y955000D01*
X12016507D01*
X12040669Y961474D01*
X12062331Y973981D01*
X12080019Y991669D01*
X12092526Y1013331D01*
X12099000Y1037493D01*
Y1062507D01*
X12092526Y1086668D01*
X12080019Y1108331D01*
X12062331Y1126019D01*
X12040669Y1138526D01*
X12016507Y1145000D01*
D02*
G37*
G36*
X11762507D02*
X11737493D01*
X11713332Y1138526D01*
X11691669Y1126019D01*
X11673981Y1108331D01*
X11661475Y1086668D01*
X11655000Y1062507D01*
Y1037493D01*
X11661475Y1013331D01*
X11673981Y991669D01*
X11691669Y973981D01*
X11713332Y961474D01*
X11737493Y955000D01*
X11762507D01*
X11786669Y961474D01*
X11808331Y973981D01*
X11826019Y991669D01*
X11838526Y1013331D01*
X11845000Y1037493D01*
Y1062507D01*
X11838526Y1086668D01*
X11826019Y1108331D01*
X11808331Y1126019D01*
X11786669Y1138526D01*
X11762507Y1145000D01*
D02*
G37*
G36*
X11591000D02*
X11401000D01*
Y955000D01*
X11591000D01*
Y1145000D01*
D02*
G37*
G36*
X10758507D02*
X10733493D01*
X10709331Y1138526D01*
X10687669Y1126019D01*
X10669981Y1108331D01*
X10657474Y1086668D01*
X10651000Y1062507D01*
Y1037493D01*
X10657474Y1013331D01*
X10669981Y991669D01*
X10687669Y973981D01*
X10709331Y961474D01*
X10733493Y955000D01*
X10758507D01*
X10782668Y961474D01*
X10804331Y973981D01*
X10822018Y991669D01*
X10834525Y1013331D01*
X10841000Y1037493D01*
Y1062507D01*
X10834525Y1086668D01*
X10822018Y1108331D01*
X10804331Y1126019D01*
X10782668Y1138526D01*
X10758507Y1145000D01*
D02*
G37*
G36*
X8381935Y3230000D02*
X8358065D01*
X8336013Y3220866D01*
X8319134Y3203987D01*
X8310000Y3181935D01*
Y3158065D01*
X8319134Y3136013D01*
X8336013Y3119134D01*
X8337939Y3118337D01*
X8335413Y3105637D01*
X8242500D01*
X8229819Y3103114D01*
X8219069Y3095931D01*
X8173138Y3050000D01*
X8160054D01*
X8141677Y3042388D01*
X8132426Y3033137D01*
X7818877D01*
X7806196Y3030614D01*
X7795446Y3023431D01*
X7452700Y2680685D01*
X7440000Y2685946D01*
Y2699946D01*
X7432388Y2718323D01*
X7418323Y2732388D01*
X7399946Y2740000D01*
X7380054D01*
X7361677Y2732388D01*
X7354233Y2733869D01*
X7352388Y2738323D01*
X7338323Y2752388D01*
X7319946Y2760000D01*
X7311733D01*
X7300054Y2760054D01*
X7300000Y2771733D01*
Y2779946D01*
X7292388Y2798323D01*
X7278323Y2812388D01*
X7259946Y2820000D01*
X7240054D01*
X7221677Y2812388D01*
X7207612Y2798323D01*
X7200000Y2779946D01*
Y2760054D01*
X7207612Y2741677D01*
X7221677Y2727612D01*
X7240054Y2720000D01*
X7248267D01*
X7259946Y2719946D01*
X7260000Y2708267D01*
Y2700054D01*
X7267612Y2681677D01*
X7273453Y2675837D01*
X7268192Y2663137D01*
X7046563D01*
X7044037Y2675837D01*
X7048323Y2677612D01*
X7062388Y2691677D01*
X7070000Y2710054D01*
Y2729946D01*
X7062388Y2748323D01*
X7048323Y2762388D01*
X7029946Y2770000D01*
X7010054D01*
X6991677Y2762388D01*
X6977612Y2748323D01*
X6970000Y2729946D01*
Y2710054D01*
X6977612Y2691677D01*
X6991677Y2677612D01*
X6995963Y2675837D01*
X6993437Y2663137D01*
X6768552D01*
X6766026Y2675837D01*
X6773987Y2679134D01*
X6790866Y2696013D01*
X6800000Y2718065D01*
Y2741935D01*
X6790866Y2763987D01*
X6773987Y2780865D01*
X6751935Y2790000D01*
X6728065D01*
X6706013Y2780865D01*
X6689134Y2763987D01*
X6680000Y2741935D01*
Y2718065D01*
X6689134Y2696013D01*
X6706013Y2679134D01*
X6713974Y2675837D01*
X6711448Y2663137D01*
X6580000D01*
X6567319Y2660614D01*
X6556569Y2653431D01*
X4676275Y773137D01*
X2419309D01*
X2414048Y785837D01*
X2422388Y794177D01*
X2430000Y812554D01*
Y832445D01*
X2422388Y850822D01*
X2408323Y864888D01*
X2389946Y872499D01*
X2370054D01*
X2351677Y864888D01*
X2337612Y850822D01*
X2330000Y832445D01*
Y812554D01*
X2337612Y794177D01*
X2345952Y785837D01*
X2340692Y773137D01*
X2270906D01*
X2268380Y785837D01*
X2282323Y791612D01*
X2296388Y805677D01*
X2304000Y824054D01*
Y843946D01*
X2296388Y862323D01*
X2282323Y876388D01*
X2263946Y884000D01*
X2244054D01*
X2225677Y876388D01*
X2211612Y862323D01*
X2204000Y843946D01*
Y824054D01*
X2211612Y805677D01*
X2225677Y791612D01*
X2239621Y785837D01*
X2237095Y773137D01*
X2153563D01*
X2151037Y785837D01*
X2155323Y787612D01*
X2169388Y801677D01*
X2177000Y820054D01*
Y839946D01*
X2169388Y858323D01*
X2155323Y872388D01*
X2136946Y880000D01*
X2117054D01*
X2098677Y872388D01*
X2084612Y858323D01*
X2077000Y839946D01*
Y820054D01*
X2084612Y801677D01*
X2098677Y787612D01*
X2102964Y785837D01*
X2100438Y773137D01*
X2026563D01*
X2024037Y785837D01*
X2028323Y787612D01*
X2042388Y801677D01*
X2050000Y820054D01*
Y839946D01*
X2042388Y858323D01*
X2028323Y872388D01*
X2009946Y880000D01*
X1994823D01*
X1989214Y892352D01*
X2126862Y1030000D01*
X2139946D01*
X2158323Y1037612D01*
X2172388Y1051677D01*
X2180000Y1070055D01*
Y1089946D01*
X2172388Y1108323D01*
X2158323Y1122388D01*
X2139946Y1130000D01*
X2120054D01*
X2101677Y1122388D01*
X2087612Y1108323D01*
X2080000Y1089946D01*
Y1076862D01*
X2057068Y1053930D01*
X2046301Y1061124D01*
X2050000Y1070054D01*
Y1089945D01*
X2042388Y1108323D01*
X2028323Y1122388D01*
X2009946Y1130000D01*
X1990054D01*
X1971677Y1122388D01*
X1957612Y1108323D01*
X1950000Y1089945D01*
Y1076862D01*
X1927067Y1053929D01*
X1916300Y1061123D01*
X1920000Y1070055D01*
Y1089946D01*
X1912388Y1108323D01*
X1898323Y1122388D01*
X1879946Y1130000D01*
X1860054D01*
X1841677Y1122388D01*
X1827612Y1108323D01*
X1820000Y1089946D01*
Y1070055D01*
X1820935Y1067797D01*
X1807067Y1053929D01*
X1796301Y1061123D01*
X1800000Y1070055D01*
Y1089946D01*
X1792388Y1108323D01*
X1778323Y1122388D01*
X1759946Y1130000D01*
X1740054D01*
X1721677Y1122388D01*
X1707612Y1108323D01*
X1700000Y1089946D01*
Y1070055D01*
X1707612Y1051677D01*
X1721677Y1037612D01*
X1740054Y1030000D01*
X1759946D01*
X1768877Y1033700D01*
X1776071Y1022933D01*
X1676569Y923431D01*
X1669386Y912681D01*
X1666863Y900000D01*
Y690000D01*
X1669386Y677319D01*
X1676569Y666569D01*
X1786569Y556569D01*
X1797319Y549386D01*
X1810000Y546864D01*
X4750000D01*
X4762681Y549386D01*
X4773431Y556569D01*
X6653725Y2436863D01*
X7223468D01*
X7225994Y2424163D01*
X7208619Y2416966D01*
X7193034Y2401382D01*
X7185296Y2382700D01*
X7294704D01*
X7286966Y2401382D01*
X7271381Y2416966D01*
X7254006Y2424163D01*
X7256532Y2436863D01*
X7410000D01*
X7422681Y2439386D01*
X7433431Y2446569D01*
X7509362Y2522500D01*
X7522446D01*
X7540823Y2530112D01*
X7554888Y2544177D01*
X7562500Y2562554D01*
Y2582446D01*
X7554888Y2600823D01*
X7546286Y2609425D01*
X7803726Y2866863D01*
X8200000D01*
X8212681Y2869386D01*
X8223431Y2876569D01*
X8296862Y2950000D01*
X8309946D01*
X8328323Y2957612D01*
X8337574Y2966864D01*
X8396275D01*
X8459069Y2904069D01*
X8469819Y2896886D01*
X8482500Y2894364D01*
X9057500D01*
X9070181Y2896886D01*
X9080931Y2904069D01*
X9126862Y2950000D01*
X9139946D01*
X9158323Y2957612D01*
X9167574Y2966864D01*
X9216275D01*
X9559173Y2623965D01*
X9553912Y2611265D01*
X9551319D01*
X9532942Y2603653D01*
X9518877Y2589588D01*
X9511265Y2571211D01*
Y2551320D01*
X9518877Y2532942D01*
X9532942Y2518877D01*
X9551319Y2511265D01*
X9571211D01*
X9589588Y2518877D01*
X9603653Y2532942D01*
X9611265Y2551320D01*
Y2553912D01*
X9623965Y2559173D01*
X9686864Y2496274D01*
Y1568000D01*
X9689386Y1555319D01*
X9696569Y1544569D01*
X10143000Y1098138D01*
Y955000D01*
X10333000D01*
Y1132327D01*
X10333000Y1133597D01*
X10345118Y1145582D01*
X10349575Y1145562D01*
X10405303Y1089835D01*
X10403474Y1086668D01*
X10397000Y1062507D01*
Y1037493D01*
X10403474Y1013331D01*
X10415981Y991669D01*
X10433669Y973981D01*
X10455331Y961474D01*
X10479493Y955000D01*
X10504507D01*
X10528668Y961474D01*
X10550331Y973981D01*
X10568018Y991669D01*
X10580525Y1013331D01*
X10587000Y1037493D01*
Y1062507D01*
X10580525Y1086668D01*
X10568018Y1108331D01*
X10550331Y1126019D01*
X10528668Y1138526D01*
X10504507Y1145000D01*
X10479493D01*
X10455331Y1138526D01*
X10452165Y1136697D01*
X10315431Y1273431D01*
X10304681Y1280614D01*
X10292000Y1283137D01*
X10223726D01*
X9959562Y1547300D01*
X9964823Y1560000D01*
X9981935D01*
X10003987Y1569135D01*
X10020866Y1586013D01*
X10030000Y1608065D01*
Y1631935D01*
X10020866Y1653987D01*
X10003987Y1670866D01*
X9981935Y1680000D01*
X9958065D01*
X9936013Y1670866D01*
X9919135Y1653987D01*
X9910000Y1631935D01*
Y1614823D01*
X9897300Y1609562D01*
X9863136Y1643726D01*
Y2540000D01*
X9860614Y2552681D01*
X9853431Y2563432D01*
X9293431Y3123431D01*
X9282681Y3130614D01*
X9270000Y3133136D01*
X9100000D01*
X9087319Y3130614D01*
X9076569Y3123431D01*
X9003138Y3050000D01*
X8996862D01*
X8950931Y3095931D01*
X8940181Y3103114D01*
X8927500Y3105637D01*
X8404587D01*
X8402061Y3118337D01*
X8403987Y3119134D01*
X8420866Y3136013D01*
X8430000Y3158065D01*
Y3181935D01*
X8420866Y3203987D01*
X8403987Y3220866D01*
X8381935Y3230000D01*
D02*
G37*
G36*
X2574673Y969800D02*
X2532669D01*
Y927796D01*
X2551351Y935534D01*
X2566935Y951118D01*
X2574673Y969800D01*
D02*
G37*
G36*
X2507269D02*
X2465265D01*
X2473003Y951118D01*
X2488588Y935534D01*
X2507269Y927796D01*
Y969800D01*
D02*
G37*
G36*
X477350Y1364500D02*
X431650D01*
X386828Y1355585D01*
X344607Y1338096D01*
X306609Y1312706D01*
X274294Y1280392D01*
X248905Y1242394D01*
X231416Y1200172D01*
X222500Y1155350D01*
Y1109650D01*
X231416Y1064829D01*
X248905Y1022607D01*
X274294Y984609D01*
X306609Y952295D01*
X344607Y926905D01*
X386828Y909416D01*
X431650Y900501D01*
X477350D01*
X522172Y909416D01*
X564393Y926905D01*
X602391Y952295D01*
X634706Y984609D01*
X660095Y1022607D01*
X677584Y1064829D01*
X686500Y1109650D01*
Y1155350D01*
X677584Y1200172D01*
X660095Y1242394D01*
X634706Y1280392D01*
X602391Y1312706D01*
X564393Y1338096D01*
X522172Y1355585D01*
X477350Y1364500D01*
D02*
G37*
G36*
X1399292Y877301D02*
X1362700D01*
Y840709D01*
X1378549Y847274D01*
X1392726Y861451D01*
X1399292Y877301D01*
D02*
G37*
G36*
X1237300Y877300D02*
X1200708D01*
X1207273Y861451D01*
X1221450Y847273D01*
X1237300Y840708D01*
Y877300D01*
D02*
G37*
G36*
X1379946Y730000D02*
X1360054D01*
X1341677Y722388D01*
X1327612Y708323D01*
X1326873Y706539D01*
X1313127D01*
X1312388Y708323D01*
X1298323Y722388D01*
X1279946Y730000D01*
X1260054D01*
X1241677Y722388D01*
X1227612Y708323D01*
X1226873Y706539D01*
X1213127D01*
X1212388Y708323D01*
X1198323Y722388D01*
X1179946Y730000D01*
X1160054D01*
X1141677Y722388D01*
X1127612Y708323D01*
X1120000Y689946D01*
Y670055D01*
X1127612Y651677D01*
X1141677Y637612D01*
X1160054Y630000D01*
X1179946D01*
X1198323Y637612D01*
X1212388Y651677D01*
X1213127Y653461D01*
X1226873D01*
X1227612Y651677D01*
X1241677Y637612D01*
X1260054Y630000D01*
X1279946D01*
X1298323Y637612D01*
X1312388Y651677D01*
X1313127Y653461D01*
X1326873D01*
X1327612Y651677D01*
X1341677Y637612D01*
X1360054Y630000D01*
X1379946D01*
X1398323Y637612D01*
X1412388Y651677D01*
X1420000Y670055D01*
Y689946D01*
X1412388Y708323D01*
X1398323Y722388D01*
X1379946Y730000D01*
D02*
G37*
G36*
X2457218Y500400D02*
X2456700D01*
Y412700D01*
X2544400D01*
Y413218D01*
X2537558Y438753D01*
X2524340Y461647D01*
X2505647Y480340D01*
X2482753Y493558D01*
X2457218Y500400D01*
D02*
G37*
G36*
X2431300D02*
X2430782D01*
X2405247Y493558D01*
X2382353Y480340D01*
X2363660Y461647D01*
X2350442Y438753D01*
X2343600Y413218D01*
Y412700D01*
X2431300D01*
Y500400D01*
D02*
G37*
G36*
X10068507Y495000D02*
X10043493D01*
X10019331Y488526D01*
X9997669Y476019D01*
X9979981Y458331D01*
X9967474Y436668D01*
X9961000Y412507D01*
Y387493D01*
X9967474Y363332D01*
X9979981Y341669D01*
X9997669Y323981D01*
X10019331Y311474D01*
X10043493Y305000D01*
X10068507D01*
X10092668Y311474D01*
X10114331Y323981D01*
X10132019Y341669D01*
X10144526Y363332D01*
X10151000Y387493D01*
Y412507D01*
X10144526Y436668D01*
X10132019Y458331D01*
X10114331Y476019D01*
X10092668Y488526D01*
X10068507Y495000D01*
D02*
G37*
G36*
X9814507D02*
X9789493D01*
X9765331Y488526D01*
X9743669Y476019D01*
X9725981Y458331D01*
X9713474Y436668D01*
X9707000Y412507D01*
Y387493D01*
X9713474Y363332D01*
X9725981Y341669D01*
X9743669Y323981D01*
X9765331Y311474D01*
X9789493Y305000D01*
X9814507D01*
X9838668Y311474D01*
X9860331Y323981D01*
X9878019Y341669D01*
X9890526Y363332D01*
X9897000Y387493D01*
Y412507D01*
X9890526Y436668D01*
X9878019Y458331D01*
X9860331Y476019D01*
X9838668Y488526D01*
X9814507Y495000D01*
D02*
G37*
G36*
X9560507D02*
X9535493D01*
X9511331Y488526D01*
X9489669Y476019D01*
X9471981Y458331D01*
X9459474Y436668D01*
X9453000Y412507D01*
Y387493D01*
X9459474Y363332D01*
X9471981Y341669D01*
X9489669Y323981D01*
X9511331Y311474D01*
X9535493Y305000D01*
X9560507D01*
X9584668Y311474D01*
X9606331Y323981D01*
X9624019Y341669D01*
X9636526Y363332D01*
X9643000Y387493D01*
Y412507D01*
X9636526Y436668D01*
X9624019Y458331D01*
X9606331Y476019D01*
X9584668Y488526D01*
X9560507Y495000D01*
D02*
G37*
G36*
X9306507D02*
X9281493D01*
X9257332Y488526D01*
X9235669Y476019D01*
X9217982Y458331D01*
X9205475Y436668D01*
X9199000Y412507D01*
Y387493D01*
X9205475Y363332D01*
X9217982Y341669D01*
X9235669Y323981D01*
X9257332Y311474D01*
X9281493Y305000D01*
X9306507D01*
X9330669Y311474D01*
X9352331Y323981D01*
X9370019Y341669D01*
X9382526Y363332D01*
X9389000Y387493D01*
Y412507D01*
X9382526Y436668D01*
X9370019Y458331D01*
X9352331Y476019D01*
X9330669Y488526D01*
X9306507Y495000D01*
D02*
G37*
G36*
X9052507D02*
X9027493D01*
X9003331Y488526D01*
X8981669Y476019D01*
X8963981Y458331D01*
X8951474Y436668D01*
X8945000Y412507D01*
Y387493D01*
X8951474Y363332D01*
X8963981Y341669D01*
X8981669Y323981D01*
X9003331Y311474D01*
X9027493Y305000D01*
X9052507D01*
X9076668Y311474D01*
X9098331Y323981D01*
X9116019Y341669D01*
X9128526Y363332D01*
X9135000Y387493D01*
Y412507D01*
X9128526Y436668D01*
X9116019Y458331D01*
X9098331Y476019D01*
X9076668Y488526D01*
X9052507Y495000D01*
D02*
G37*
G36*
X8798507D02*
X8773493D01*
X8749331Y488526D01*
X8727669Y476019D01*
X8709981Y458331D01*
X8697474Y436668D01*
X8691000Y412507D01*
Y387493D01*
X8697474Y363332D01*
X8709981Y341669D01*
X8727669Y323981D01*
X8749331Y311474D01*
X8773493Y305000D01*
X8798507D01*
X8822668Y311474D01*
X8844331Y323981D01*
X8862019Y341669D01*
X8874526Y363332D01*
X8881000Y387493D01*
Y412507D01*
X8874526Y436668D01*
X8862019Y458331D01*
X8844331Y476019D01*
X8822668Y488526D01*
X8798507Y495000D01*
D02*
G37*
G36*
X8544507D02*
X8519493D01*
X8495331Y488526D01*
X8473669Y476019D01*
X8455981Y458331D01*
X8443474Y436668D01*
X8437000Y412507D01*
Y387493D01*
X8443474Y363332D01*
X8455981Y341669D01*
X8473669Y323981D01*
X8495331Y311474D01*
X8519493Y305000D01*
X8544507D01*
X8568668Y311474D01*
X8590331Y323981D01*
X8608018Y341669D01*
X8620525Y363332D01*
X8627000Y387493D01*
Y412507D01*
X8620525Y436668D01*
X8608018Y458331D01*
X8590331Y476019D01*
X8568668Y488526D01*
X8544507Y495000D01*
D02*
G37*
G36*
X8290507D02*
X8265493D01*
X8241331Y488526D01*
X8219669Y476019D01*
X8201981Y458331D01*
X8189474Y436668D01*
X8183000Y412507D01*
Y387493D01*
X8189474Y363332D01*
X8201981Y341669D01*
X8219669Y323981D01*
X8241331Y311474D01*
X8265493Y305000D01*
X8290507D01*
X8314668Y311474D01*
X8336331Y323981D01*
X8354019Y341669D01*
X8366526Y363332D01*
X8373000Y387493D01*
Y412507D01*
X8366526Y436668D01*
X8354019Y458331D01*
X8336331Y476019D01*
X8314668Y488526D01*
X8290507Y495000D01*
D02*
G37*
G36*
X8036507D02*
X8011493D01*
X7987331Y488526D01*
X7965669Y476019D01*
X7947981Y458331D01*
X7935474Y436668D01*
X7929000Y412507D01*
Y387493D01*
X7935474Y363332D01*
X7947981Y341669D01*
X7965669Y323981D01*
X7987331Y311474D01*
X8011493Y305000D01*
X8036507D01*
X8060668Y311474D01*
X8082331Y323981D01*
X8100018Y341669D01*
X8112525Y363332D01*
X8119000Y387493D01*
Y412507D01*
X8112525Y436668D01*
X8100018Y458331D01*
X8082331Y476019D01*
X8060668Y488526D01*
X8036507Y495000D01*
D02*
G37*
G36*
X7782507D02*
X7757493D01*
X7733331Y488526D01*
X7711669Y476019D01*
X7693981Y458331D01*
X7681474Y436668D01*
X7675000Y412507D01*
Y387493D01*
X7681474Y363332D01*
X7693981Y341669D01*
X7711669Y323981D01*
X7733331Y311474D01*
X7757493Y305000D01*
X7782507D01*
X7806668Y311474D01*
X7828331Y323981D01*
X7846019Y341669D01*
X7858526Y363332D01*
X7865000Y387493D01*
Y412507D01*
X7858526Y436668D01*
X7846019Y458331D01*
X7828331Y476019D01*
X7806668Y488526D01*
X7782507Y495000D01*
D02*
G37*
G36*
X7528507D02*
X7503493D01*
X7479332Y488526D01*
X7457669Y476019D01*
X7439982Y458331D01*
X7427475Y436668D01*
X7421000Y412507D01*
Y387493D01*
X7427475Y363332D01*
X7439982Y341669D01*
X7457669Y323981D01*
X7479332Y311474D01*
X7503493Y305000D01*
X7528507D01*
X7552669Y311474D01*
X7574331Y323981D01*
X7592019Y341669D01*
X7604526Y363332D01*
X7611000Y387493D01*
Y412507D01*
X7604526Y436668D01*
X7592019Y458331D01*
X7574331Y476019D01*
X7552669Y488526D01*
X7528507Y495000D01*
D02*
G37*
G36*
X7274507D02*
X7249493D01*
X7225331Y488526D01*
X7203669Y476019D01*
X7185981Y458331D01*
X7173474Y436668D01*
X7167000Y412507D01*
Y387493D01*
X7173474Y363332D01*
X7185981Y341669D01*
X7203669Y323981D01*
X7225331Y311474D01*
X7249493Y305000D01*
X7274507D01*
X7298668Y311474D01*
X7320331Y323981D01*
X7338019Y341669D01*
X7350526Y363332D01*
X7357000Y387493D01*
Y412507D01*
X7350526Y436668D01*
X7338019Y458331D01*
X7320331Y476019D01*
X7298668Y488526D01*
X7274507Y495000D01*
D02*
G37*
G36*
X7020507D02*
X6995493D01*
X6971331Y488526D01*
X6949669Y476019D01*
X6931981Y458331D01*
X6919474Y436668D01*
X6913000Y412507D01*
Y387493D01*
X6919474Y363332D01*
X6931981Y341669D01*
X6949669Y323981D01*
X6971331Y311474D01*
X6995493Y305000D01*
X7020507D01*
X7044668Y311474D01*
X7066331Y323981D01*
X7084019Y341669D01*
X7096526Y363332D01*
X7103000Y387493D01*
Y412507D01*
X7096526Y436668D01*
X7084019Y458331D01*
X7066331Y476019D01*
X7044668Y488526D01*
X7020507Y495000D01*
D02*
G37*
G36*
X6766507D02*
X6741493D01*
X6717331Y488526D01*
X6695669Y476019D01*
X6677981Y458331D01*
X6665474Y436668D01*
X6659000Y412507D01*
Y387493D01*
X6665474Y363332D01*
X6677981Y341669D01*
X6695669Y323981D01*
X6717331Y311474D01*
X6741493Y305000D01*
X6766507D01*
X6790668Y311474D01*
X6812331Y323981D01*
X6830019Y341669D01*
X6842526Y363332D01*
X6849000Y387493D01*
Y412507D01*
X6842526Y436668D01*
X6830019Y458331D01*
X6812331Y476019D01*
X6790668Y488526D01*
X6766507Y495000D01*
D02*
G37*
G36*
X6512507D02*
X6487493D01*
X6463331Y488526D01*
X6441669Y476019D01*
X6423981Y458331D01*
X6411474Y436668D01*
X6405000Y412507D01*
Y387493D01*
X6411474Y363332D01*
X6423981Y341669D01*
X6441669Y323981D01*
X6463331Y311474D01*
X6487493Y305000D01*
X6512507D01*
X6536668Y311474D01*
X6558331Y323981D01*
X6576019Y341669D01*
X6588526Y363332D01*
X6595000Y387493D01*
Y412507D01*
X6588526Y436668D01*
X6576019Y458331D01*
X6558331Y476019D01*
X6536668Y488526D01*
X6512507Y495000D01*
D02*
G37*
G36*
X6012507D02*
X5987493D01*
X5963331Y488526D01*
X5941669Y476019D01*
X5923981Y458331D01*
X5911474Y436668D01*
X5905000Y412507D01*
Y387493D01*
X5911474Y363332D01*
X5923981Y341669D01*
X5941669Y323981D01*
X5963331Y311474D01*
X5987493Y305000D01*
X6012507D01*
X6036668Y311474D01*
X6058331Y323981D01*
X6076019Y341669D01*
X6088526Y363332D01*
X6095000Y387493D01*
Y412507D01*
X6088526Y436668D01*
X6076019Y458331D01*
X6058331Y476019D01*
X6036668Y488526D01*
X6012507Y495000D01*
D02*
G37*
G36*
X5758507D02*
X5733493D01*
X5709332Y488526D01*
X5687669Y476019D01*
X5669982Y458331D01*
X5657475Y436668D01*
X5651000Y412507D01*
Y387493D01*
X5657475Y363332D01*
X5669982Y341669D01*
X5687669Y323981D01*
X5709332Y311474D01*
X5733493Y305000D01*
X5758507D01*
X5782669Y311474D01*
X5804331Y323981D01*
X5822019Y341669D01*
X5834526Y363332D01*
X5841000Y387493D01*
Y412507D01*
X5834526Y436668D01*
X5822019Y458331D01*
X5804331Y476019D01*
X5782669Y488526D01*
X5758507Y495000D01*
D02*
G37*
G36*
X5504507D02*
X5479493D01*
X5455331Y488526D01*
X5433669Y476019D01*
X5415981Y458331D01*
X5403474Y436668D01*
X5397000Y412507D01*
Y387493D01*
X5403474Y363332D01*
X5415981Y341669D01*
X5433669Y323981D01*
X5455331Y311474D01*
X5479493Y305000D01*
X5504507D01*
X5528668Y311474D01*
X5550331Y323981D01*
X5568019Y341669D01*
X5580526Y363332D01*
X5587000Y387493D01*
Y412507D01*
X5580526Y436668D01*
X5568019Y458331D01*
X5550331Y476019D01*
X5528668Y488526D01*
X5504507Y495000D01*
D02*
G37*
G36*
X5250507D02*
X5225493D01*
X5201332Y488526D01*
X5179669Y476019D01*
X5161982Y458331D01*
X5149475Y436668D01*
X5143000Y412507D01*
Y387493D01*
X5149475Y363332D01*
X5161982Y341669D01*
X5179669Y323981D01*
X5201332Y311474D01*
X5225493Y305000D01*
X5250507D01*
X5274669Y311474D01*
X5296331Y323981D01*
X5314019Y341669D01*
X5326526Y363332D01*
X5333000Y387493D01*
Y412507D01*
X5326526Y436668D01*
X5314019Y458331D01*
X5296331Y476019D01*
X5274669Y488526D01*
X5250507Y495000D01*
D02*
G37*
G36*
X4996507D02*
X4971493D01*
X4947331Y488526D01*
X4925669Y476019D01*
X4907981Y458331D01*
X4895474Y436668D01*
X4889000Y412507D01*
Y387493D01*
X4895474Y363332D01*
X4907981Y341669D01*
X4925669Y323981D01*
X4947331Y311474D01*
X4971493Y305000D01*
X4996507D01*
X5020668Y311474D01*
X5042331Y323981D01*
X5060019Y341669D01*
X5072526Y363332D01*
X5079000Y387493D01*
Y412507D01*
X5072526Y436668D01*
X5060019Y458331D01*
X5042331Y476019D01*
X5020668Y488526D01*
X4996507Y495000D01*
D02*
G37*
G36*
X4742507D02*
X4717493D01*
X4693332Y488526D01*
X4671669Y476019D01*
X4653982Y458331D01*
X4641475Y436668D01*
X4635000Y412507D01*
Y387493D01*
X4641475Y363332D01*
X4653982Y341669D01*
X4671669Y323981D01*
X4693332Y311474D01*
X4717493Y305000D01*
X4742507D01*
X4766669Y311474D01*
X4788331Y323981D01*
X4806019Y341669D01*
X4818526Y363332D01*
X4825000Y387493D01*
Y412507D01*
X4818526Y436668D01*
X4806019Y458331D01*
X4788331Y476019D01*
X4766669Y488526D01*
X4742507Y495000D01*
D02*
G37*
G36*
X4488507D02*
X4463493D01*
X4439332Y488526D01*
X4417669Y476019D01*
X4399982Y458331D01*
X4387475Y436668D01*
X4381001Y412507D01*
Y387493D01*
X4387475Y363332D01*
X4399982Y341669D01*
X4417669Y323981D01*
X4439332Y311474D01*
X4463493Y305000D01*
X4488507D01*
X4512669Y311474D01*
X4534332Y323981D01*
X4552019Y341669D01*
X4564526Y363332D01*
X4571000Y387493D01*
Y412507D01*
X4564526Y436668D01*
X4552019Y458331D01*
X4534332Y476019D01*
X4512669Y488526D01*
X4488507Y495000D01*
D02*
G37*
G36*
X4234507D02*
X4209493D01*
X4185332Y488526D01*
X4163669Y476019D01*
X4145982Y458331D01*
X4133475Y436668D01*
X4127000Y412507D01*
Y387493D01*
X4133475Y363332D01*
X4145982Y341669D01*
X4163669Y323981D01*
X4185332Y311474D01*
X4209493Y305000D01*
X4234507D01*
X4258669Y311474D01*
X4280331Y323981D01*
X4298019Y341669D01*
X4310526Y363332D01*
X4317000Y387493D01*
Y412507D01*
X4310526Y436668D01*
X4298019Y458331D01*
X4280331Y476019D01*
X4258669Y488526D01*
X4234507Y495000D01*
D02*
G37*
G36*
X3980507D02*
X3955493D01*
X3931332Y488526D01*
X3909669Y476019D01*
X3891982Y458331D01*
X3879475Y436668D01*
X3873000Y412507D01*
Y387493D01*
X3879475Y363332D01*
X3891982Y341669D01*
X3909669Y323981D01*
X3931332Y311474D01*
X3955493Y305000D01*
X3980507D01*
X4004669Y311474D01*
X4026331Y323981D01*
X4044019Y341669D01*
X4056526Y363332D01*
X4063000Y387493D01*
Y412507D01*
X4056526Y436668D01*
X4044019Y458331D01*
X4026331Y476019D01*
X4004669Y488526D01*
X3980507Y495000D01*
D02*
G37*
G36*
X3726507D02*
X3701493D01*
X3677331Y488526D01*
X3655669Y476019D01*
X3637981Y458331D01*
X3625474Y436668D01*
X3619000Y412507D01*
Y387493D01*
X3625474Y363332D01*
X3637981Y341669D01*
X3655669Y323981D01*
X3677331Y311474D01*
X3701493Y305000D01*
X3726507D01*
X3750668Y311474D01*
X3772331Y323981D01*
X3790019Y341669D01*
X3802526Y363332D01*
X3809000Y387493D01*
Y412507D01*
X3802526Y436668D01*
X3790019Y458331D01*
X3772331Y476019D01*
X3750668Y488526D01*
X3726507Y495000D01*
D02*
G37*
G36*
X3472507D02*
X3447493D01*
X3423332Y488526D01*
X3401669Y476019D01*
X3383982Y458331D01*
X3371475Y436668D01*
X3365000Y412507D01*
Y387493D01*
X3371475Y363332D01*
X3383982Y341669D01*
X3401669Y323981D01*
X3423332Y311474D01*
X3447493Y305000D01*
X3472507D01*
X3496669Y311474D01*
X3518331Y323981D01*
X3536019Y341669D01*
X3548526Y363332D01*
X3555000Y387493D01*
Y412507D01*
X3548526Y436668D01*
X3536019Y458331D01*
X3518331Y476019D01*
X3496669Y488526D01*
X3472507Y495000D01*
D02*
G37*
G36*
X3218507D02*
X3193493D01*
X3169331Y488526D01*
X3147669Y476019D01*
X3129981Y458331D01*
X3117474Y436668D01*
X3111000Y412507D01*
Y387493D01*
X3117474Y363332D01*
X3129981Y341669D01*
X3147669Y323981D01*
X3169331Y311474D01*
X3193493Y305000D01*
X3218507D01*
X3242668Y311474D01*
X3264331Y323981D01*
X3282019Y341669D01*
X3294526Y363332D01*
X3301000Y387493D01*
Y412507D01*
X3294526Y436668D01*
X3282019Y458331D01*
X3264331Y476019D01*
X3242668Y488526D01*
X3218507Y495000D01*
D02*
G37*
G36*
X2964507D02*
X2939493D01*
X2915332Y488526D01*
X2893669Y476019D01*
X2875982Y458331D01*
X2863475Y436668D01*
X2857000Y412507D01*
Y387493D01*
X2863475Y363332D01*
X2875982Y341669D01*
X2893669Y323981D01*
X2915332Y311474D01*
X2939493Y305000D01*
X2964507D01*
X2988669Y311474D01*
X3010331Y323981D01*
X3028019Y341669D01*
X3040526Y363332D01*
X3047000Y387493D01*
Y412507D01*
X3040526Y436668D01*
X3028019Y458331D01*
X3010331Y476019D01*
X2988669Y488526D01*
X2964507Y495000D01*
D02*
G37*
G36*
X2710507D02*
X2685493D01*
X2661332Y488526D01*
X2639669Y476019D01*
X2621982Y458331D01*
X2609475Y436668D01*
X2603001Y412507D01*
Y387493D01*
X2609475Y363332D01*
X2621982Y341669D01*
X2639669Y323981D01*
X2661332Y311474D01*
X2685493Y305000D01*
X2710507D01*
X2734669Y311474D01*
X2756332Y323981D01*
X2774019Y341669D01*
X2786526Y363332D01*
X2793000Y387493D01*
Y412507D01*
X2786526Y436668D01*
X2774019Y458331D01*
X2756332Y476019D01*
X2734669Y488526D01*
X2710507Y495000D01*
D02*
G37*
G36*
X2202507D02*
X2177493D01*
X2153332Y488526D01*
X2131669Y476019D01*
X2113982Y458331D01*
X2101475Y436668D01*
X2095000Y412507D01*
Y387493D01*
X2101475Y363332D01*
X2113982Y341669D01*
X2131669Y323981D01*
X2153332Y311474D01*
X2177493Y305000D01*
X2202507D01*
X2226669Y311474D01*
X2248331Y323981D01*
X2266019Y341669D01*
X2278526Y363332D01*
X2285000Y387493D01*
Y412507D01*
X2278526Y436668D01*
X2266019Y458331D01*
X2248331Y476019D01*
X2226669Y488526D01*
X2202507Y495000D01*
D02*
G37*
G36*
X1948507D02*
X1923493D01*
X1899332Y488526D01*
X1877669Y476019D01*
X1859982Y458331D01*
X1847475Y436668D01*
X1841000Y412507D01*
Y387493D01*
X1847475Y363332D01*
X1859982Y341669D01*
X1877669Y323981D01*
X1899332Y311474D01*
X1923493Y305000D01*
X1948507D01*
X1972669Y311474D01*
X1994331Y323981D01*
X2012019Y341669D01*
X2024526Y363332D01*
X2031000Y387493D01*
Y412507D01*
X2024526Y436668D01*
X2012019Y458331D01*
X1994331Y476019D01*
X1972669Y488526D01*
X1948507Y495000D01*
D02*
G37*
G36*
X1694507D02*
X1669493D01*
X1645332Y488526D01*
X1623669Y476019D01*
X1605982Y458331D01*
X1593475Y436668D01*
X1587000Y412507D01*
Y387493D01*
X1593475Y363332D01*
X1605982Y341669D01*
X1623669Y323981D01*
X1645332Y311474D01*
X1669493Y305000D01*
X1694507D01*
X1718669Y311474D01*
X1740331Y323981D01*
X1758019Y341669D01*
X1770526Y363332D01*
X1777000Y387493D01*
Y412507D01*
X1770526Y436668D01*
X1758019Y458331D01*
X1740331Y476019D01*
X1718669Y488526D01*
X1694507Y495000D01*
D02*
G37*
G36*
X2544400Y387300D02*
X2456700D01*
Y299600D01*
X2457218D01*
X2482753Y306442D01*
X2505647Y319660D01*
X2524340Y338353D01*
X2537558Y361247D01*
X2544400Y386782D01*
Y387300D01*
D02*
G37*
G36*
X2431300D02*
X2343600D01*
Y386782D01*
X2350442Y361247D01*
X2363660Y338353D01*
X2382353Y319660D01*
X2405247Y306442D01*
X2430782Y299600D01*
X2431300D01*
Y387300D01*
D02*
G37*
G36*
X9053218Y246400D02*
X9052700D01*
Y158700D01*
X9140400D01*
Y159218D01*
X9133558Y184753D01*
X9120340Y207647D01*
X9101647Y226340D01*
X9078753Y239558D01*
X9053218Y246400D01*
D02*
G37*
G36*
X9027300D02*
X9026782D01*
X9001247Y239558D01*
X8978353Y226340D01*
X8959660Y207647D01*
X8946442Y184753D01*
X8939600Y159218D01*
Y158700D01*
X9027300D01*
Y246400D01*
D02*
G37*
G36*
X6013218D02*
X6012700D01*
Y158700D01*
X6100400D01*
Y159218D01*
X6093558Y184753D01*
X6080340Y207647D01*
X6061648Y226340D01*
X6038753Y239558D01*
X6013218Y246400D01*
D02*
G37*
G36*
X5987300D02*
X5986783D01*
X5961247Y239558D01*
X5938353Y226340D01*
X5919660Y207647D01*
X5906443Y184753D01*
X5899601Y159218D01*
Y158700D01*
X5987300D01*
Y246400D01*
D02*
G37*
G36*
X4235218D02*
X4234700D01*
Y158700D01*
X4322400D01*
Y159218D01*
X4315558Y184753D01*
X4302340Y207647D01*
X4283647Y226340D01*
X4260753Y239558D01*
X4235218Y246400D01*
D02*
G37*
G36*
X4209300D02*
X4208782D01*
X4183247Y239558D01*
X4160353Y226340D01*
X4141660Y207647D01*
X4128442Y184753D01*
X4121600Y159218D01*
Y158700D01*
X4209300D01*
Y246400D01*
D02*
G37*
G36*
X12217728Y480000D02*
X12182272D01*
X12147496Y473083D01*
X12114738Y459514D01*
X12085257Y439815D01*
X12060185Y414743D01*
X12040486Y385262D01*
X12026917Y352504D01*
X12020000Y317728D01*
Y282271D01*
X12026917Y247496D01*
X12040486Y214738D01*
X12060185Y185257D01*
X12085257Y160185D01*
X12114738Y140486D01*
X12147496Y126917D01*
X12182272Y120000D01*
X12217728D01*
X12252504Y126917D01*
X12285262Y140486D01*
X12314743Y160185D01*
X12339815Y185257D01*
X12359514Y214738D01*
X12373083Y247496D01*
X12380000Y282271D01*
Y317728D01*
X12373083Y352504D01*
X12359514Y385262D01*
X12339815Y414743D01*
X12314743Y439815D01*
X12285262Y459514D01*
X12252504Y473083D01*
X12217728Y480000D01*
D02*
G37*
G36*
X317728D02*
X282271D01*
X247496Y473083D01*
X214738Y459514D01*
X185257Y439815D01*
X160185Y414743D01*
X140486Y385262D01*
X126917Y352504D01*
X120000Y317728D01*
Y282271D01*
X126917Y247496D01*
X140486Y214738D01*
X160185Y185257D01*
X185257Y160185D01*
X214738Y140486D01*
X247496Y126917D01*
X282271Y120000D01*
X317728D01*
X352504Y126917D01*
X385262Y140486D01*
X414743Y160185D01*
X439815Y185257D01*
X459514Y214738D01*
X473083Y247496D01*
X480000Y282271D01*
Y317728D01*
X473083Y352504D01*
X459514Y385262D01*
X439815Y414743D01*
X414743Y439815D01*
X385262Y459514D01*
X352504Y473083D01*
X317728Y480000D01*
D02*
G37*
G36*
X10068507Y241000D02*
X10043493D01*
X10019331Y234526D01*
X9997669Y222019D01*
X9979981Y204331D01*
X9967474Y182668D01*
X9961000Y158507D01*
Y133493D01*
X9967474Y109332D01*
X9979981Y87669D01*
X9997669Y69981D01*
X10019331Y57474D01*
X10043493Y51000D01*
X10068507D01*
X10092668Y57474D01*
X10114331Y69981D01*
X10132019Y87669D01*
X10144526Y109332D01*
X10151000Y133493D01*
Y158507D01*
X10144526Y182668D01*
X10132019Y204331D01*
X10114331Y222019D01*
X10092668Y234526D01*
X10068507Y241000D01*
D02*
G37*
G36*
X9814507D02*
X9789493D01*
X9765331Y234526D01*
X9743669Y222019D01*
X9725981Y204331D01*
X9713474Y182668D01*
X9707000Y158507D01*
Y133493D01*
X9713474Y109332D01*
X9725981Y87669D01*
X9743669Y69981D01*
X9765331Y57474D01*
X9789493Y51000D01*
X9814507D01*
X9838668Y57474D01*
X9860331Y69981D01*
X9878019Y87669D01*
X9890526Y109332D01*
X9897000Y133493D01*
Y158507D01*
X9890526Y182668D01*
X9878019Y204331D01*
X9860331Y222019D01*
X9838668Y234526D01*
X9814507Y241000D01*
D02*
G37*
G36*
X9560507D02*
X9535493D01*
X9511332Y234526D01*
X9489669Y222019D01*
X9471982Y204331D01*
X9459475Y182668D01*
X9453000Y158507D01*
Y133493D01*
X9459475Y109332D01*
X9471982Y87669D01*
X9489669Y69981D01*
X9511332Y57474D01*
X9535493Y51000D01*
X9560507D01*
X9584669Y57474D01*
X9606331Y69981D01*
X9624019Y87669D01*
X9636526Y109332D01*
X9643000Y133493D01*
Y158507D01*
X9636526Y182668D01*
X9624019Y204331D01*
X9606331Y222019D01*
X9584669Y234526D01*
X9560507Y241000D01*
D02*
G37*
G36*
X9306507D02*
X9281493D01*
X9257331Y234526D01*
X9235669Y222019D01*
X9217981Y204331D01*
X9205474Y182668D01*
X9199000Y158507D01*
Y133493D01*
X9205474Y109332D01*
X9217981Y87669D01*
X9235669Y69981D01*
X9257331Y57474D01*
X9281493Y51000D01*
X9306507D01*
X9330668Y57474D01*
X9352331Y69981D01*
X9370019Y87669D01*
X9382526Y109332D01*
X9389000Y133493D01*
Y158507D01*
X9382526Y182668D01*
X9370019Y204331D01*
X9352331Y222019D01*
X9330668Y234526D01*
X9306507Y241000D01*
D02*
G37*
G36*
X8798507D02*
X8773493D01*
X8749331Y234526D01*
X8727669Y222019D01*
X8709981Y204331D01*
X8697474Y182668D01*
X8691000Y158507D01*
Y133493D01*
X8697474Y109332D01*
X8709981Y87669D01*
X8727669Y69981D01*
X8749331Y57474D01*
X8773493Y51000D01*
X8798507D01*
X8822668Y57474D01*
X8844331Y69981D01*
X8862019Y87669D01*
X8874526Y109332D01*
X8881000Y133493D01*
Y158507D01*
X8874526Y182668D01*
X8862019Y204331D01*
X8844331Y222019D01*
X8822668Y234526D01*
X8798507Y241000D01*
D02*
G37*
G36*
X8544507D02*
X8519493D01*
X8495331Y234526D01*
X8473669Y222019D01*
X8455981Y204331D01*
X8443474Y182668D01*
X8437000Y158507D01*
Y133493D01*
X8443474Y109332D01*
X8455981Y87669D01*
X8473669Y69981D01*
X8495331Y57474D01*
X8519493Y51000D01*
X8544507D01*
X8568668Y57474D01*
X8590331Y69981D01*
X8608018Y87669D01*
X8620525Y109332D01*
X8627000Y133493D01*
Y158507D01*
X8620525Y182668D01*
X8608018Y204331D01*
X8590331Y222019D01*
X8568668Y234526D01*
X8544507Y241000D01*
D02*
G37*
G36*
X8290507D02*
X8265493D01*
X8241331Y234526D01*
X8219669Y222019D01*
X8201981Y204331D01*
X8189474Y182668D01*
X8183000Y158507D01*
Y133493D01*
X8189474Y109332D01*
X8201981Y87669D01*
X8219669Y69981D01*
X8241331Y57474D01*
X8265493Y51000D01*
X8290507D01*
X8314668Y57474D01*
X8336331Y69981D01*
X8354019Y87669D01*
X8366526Y109332D01*
X8373000Y133493D01*
Y158507D01*
X8366526Y182668D01*
X8354019Y204331D01*
X8336331Y222019D01*
X8314668Y234526D01*
X8290507Y241000D01*
D02*
G37*
G36*
X8036507D02*
X8011493D01*
X7987331Y234526D01*
X7965669Y222019D01*
X7947981Y204331D01*
X7935474Y182668D01*
X7929000Y158507D01*
Y133493D01*
X7935474Y109332D01*
X7947981Y87669D01*
X7965669Y69981D01*
X7987331Y57474D01*
X8011493Y51000D01*
X8036507D01*
X8060668Y57474D01*
X8082331Y69981D01*
X8100019Y87669D01*
X8112526Y109332D01*
X8119000Y133493D01*
Y158507D01*
X8112526Y182668D01*
X8100019Y204331D01*
X8082331Y222019D01*
X8060668Y234526D01*
X8036507Y241000D01*
D02*
G37*
G36*
X7782507D02*
X7757493D01*
X7733331Y234526D01*
X7711669Y222019D01*
X7693981Y204331D01*
X7681474Y182668D01*
X7675000Y158507D01*
Y133493D01*
X7681474Y109332D01*
X7693981Y87669D01*
X7711669Y69981D01*
X7733331Y57474D01*
X7757493Y51000D01*
X7782507D01*
X7806668Y57474D01*
X7828331Y69981D01*
X7846019Y87669D01*
X7858526Y109332D01*
X7865000Y133493D01*
Y158507D01*
X7858526Y182668D01*
X7846019Y204331D01*
X7828331Y222019D01*
X7806668Y234526D01*
X7782507Y241000D01*
D02*
G37*
G36*
X7528507D02*
X7503493D01*
X7479331Y234526D01*
X7457669Y222019D01*
X7439981Y204331D01*
X7427474Y182668D01*
X7421000Y158507D01*
Y133493D01*
X7427474Y109332D01*
X7439981Y87669D01*
X7457669Y69981D01*
X7479331Y57474D01*
X7503493Y51000D01*
X7528507D01*
X7552668Y57474D01*
X7574331Y69981D01*
X7592019Y87669D01*
X7604526Y109332D01*
X7611000Y133493D01*
Y158507D01*
X7604526Y182668D01*
X7592019Y204331D01*
X7574331Y222019D01*
X7552668Y234526D01*
X7528507Y241000D01*
D02*
G37*
G36*
X7274507D02*
X7249493D01*
X7225332Y234526D01*
X7203669Y222019D01*
X7185982Y204331D01*
X7173475Y182668D01*
X7167000Y158507D01*
Y133493D01*
X7173475Y109332D01*
X7185982Y87669D01*
X7203669Y69981D01*
X7225332Y57474D01*
X7249493Y51000D01*
X7274507D01*
X7298669Y57474D01*
X7320331Y69981D01*
X7338019Y87669D01*
X7350526Y109332D01*
X7357000Y133493D01*
Y158507D01*
X7350526Y182668D01*
X7338019Y204331D01*
X7320331Y222019D01*
X7298669Y234526D01*
X7274507Y241000D01*
D02*
G37*
G36*
X7020507D02*
X6995493D01*
X6971331Y234526D01*
X6949669Y222019D01*
X6931981Y204331D01*
X6919474Y182668D01*
X6913000Y158507D01*
Y133493D01*
X6919474Y109332D01*
X6931981Y87669D01*
X6949669Y69981D01*
X6971331Y57474D01*
X6995493Y51000D01*
X7020507D01*
X7044668Y57474D01*
X7066331Y69981D01*
X7084019Y87669D01*
X7096526Y109332D01*
X7103000Y133493D01*
Y158507D01*
X7096526Y182668D01*
X7084019Y204331D01*
X7066331Y222019D01*
X7044668Y234526D01*
X7020507Y241000D01*
D02*
G37*
G36*
X6766507D02*
X6741493D01*
X6717331Y234526D01*
X6695669Y222019D01*
X6677981Y204331D01*
X6665474Y182668D01*
X6659000Y158507D01*
Y133493D01*
X6665474Y109332D01*
X6677981Y87669D01*
X6695669Y69981D01*
X6717331Y57474D01*
X6741493Y51000D01*
X6766507D01*
X6790668Y57474D01*
X6812331Y69981D01*
X6830019Y87669D01*
X6842526Y109332D01*
X6849000Y133493D01*
Y158507D01*
X6842526Y182668D01*
X6830019Y204331D01*
X6812331Y222019D01*
X6790668Y234526D01*
X6766507Y241000D01*
D02*
G37*
G36*
X6595000D02*
X6405000D01*
Y51000D01*
X6595000D01*
Y241000D01*
D02*
G37*
G36*
X5758507D02*
X5733493D01*
X5709331Y234526D01*
X5687669Y222019D01*
X5669981Y204331D01*
X5657474Y182668D01*
X5651000Y158507D01*
Y133493D01*
X5657474Y109332D01*
X5669981Y87669D01*
X5687669Y69981D01*
X5709331Y57474D01*
X5733493Y51000D01*
X5758507D01*
X5782668Y57474D01*
X5804331Y69981D01*
X5822019Y87669D01*
X5834526Y109332D01*
X5841000Y133493D01*
Y158507D01*
X5834526Y182668D01*
X5822019Y204331D01*
X5804331Y222019D01*
X5782668Y234526D01*
X5758507Y241000D01*
D02*
G37*
G36*
X5504507D02*
X5479493D01*
X5455332Y234526D01*
X5433669Y222019D01*
X5415982Y204331D01*
X5403475Y182668D01*
X5397000Y158507D01*
Y133493D01*
X5403475Y109332D01*
X5415982Y87669D01*
X5433669Y69981D01*
X5455332Y57474D01*
X5479493Y51000D01*
X5504507D01*
X5528669Y57474D01*
X5550331Y69981D01*
X5568019Y87669D01*
X5580526Y109332D01*
X5587000Y133493D01*
Y158507D01*
X5580526Y182668D01*
X5568019Y204331D01*
X5550331Y222019D01*
X5528669Y234526D01*
X5504507Y241000D01*
D02*
G37*
G36*
X5250507D02*
X5225493D01*
X5201332Y234526D01*
X5179669Y222019D01*
X5161982Y204331D01*
X5149475Y182668D01*
X5143000Y158507D01*
Y133493D01*
X5149475Y109332D01*
X5161982Y87669D01*
X5179669Y69981D01*
X5201332Y57474D01*
X5225493Y51000D01*
X5250507D01*
X5274669Y57474D01*
X5296331Y69981D01*
X5314019Y87669D01*
X5326526Y109332D01*
X5333000Y133493D01*
Y158507D01*
X5326526Y182668D01*
X5314019Y204331D01*
X5296331Y222019D01*
X5274669Y234526D01*
X5250507Y241000D01*
D02*
G37*
G36*
X4996507D02*
X4971493D01*
X4947331Y234526D01*
X4925669Y222019D01*
X4907981Y204331D01*
X4895474Y182668D01*
X4889000Y158507D01*
Y133493D01*
X4895474Y109332D01*
X4907981Y87669D01*
X4925669Y69981D01*
X4947331Y57474D01*
X4971493Y51000D01*
X4996507D01*
X5020668Y57474D01*
X5042331Y69981D01*
X5060019Y87669D01*
X5072526Y109332D01*
X5079000Y133493D01*
Y158507D01*
X5072526Y182668D01*
X5060019Y204331D01*
X5042331Y222019D01*
X5020668Y234526D01*
X4996507Y241000D01*
D02*
G37*
G36*
X4742507D02*
X4717493D01*
X4693332Y234526D01*
X4671669Y222019D01*
X4653982Y204331D01*
X4641475Y182668D01*
X4635001Y158507D01*
Y133493D01*
X4641475Y109332D01*
X4653982Y87669D01*
X4671669Y69981D01*
X4693332Y57474D01*
X4717493Y51000D01*
X4742507D01*
X4766669Y57474D01*
X4788332Y69981D01*
X4806019Y87669D01*
X4818526Y109332D01*
X4825000Y133493D01*
Y158507D01*
X4818526Y182668D01*
X4806019Y204331D01*
X4788332Y222019D01*
X4766669Y234526D01*
X4742507Y241000D01*
D02*
G37*
G36*
X4488508D02*
X4463494D01*
X4439332Y234526D01*
X4417670Y222019D01*
X4399982Y204331D01*
X4387475Y182668D01*
X4381001Y158507D01*
Y133493D01*
X4387475Y109332D01*
X4399982Y87669D01*
X4417670Y69981D01*
X4439332Y57474D01*
X4463494Y51000D01*
X4488508D01*
X4512669Y57474D01*
X4534332Y69981D01*
X4552019Y87669D01*
X4564526Y109332D01*
X4571001Y133493D01*
Y158507D01*
X4564526Y182668D01*
X4552019Y204331D01*
X4534332Y222019D01*
X4512669Y234526D01*
X4488508Y241000D01*
D02*
G37*
G36*
X3980507D02*
X3955493D01*
X3931332Y234526D01*
X3909669Y222019D01*
X3891982Y204331D01*
X3879475Y182668D01*
X3873000Y158507D01*
Y133493D01*
X3879475Y109332D01*
X3891982Y87669D01*
X3909669Y69981D01*
X3931332Y57474D01*
X3955493Y51000D01*
X3980507D01*
X4004669Y57474D01*
X4026331Y69981D01*
X4044019Y87669D01*
X4056526Y109332D01*
X4063000Y133493D01*
Y158507D01*
X4056526Y182668D01*
X4044019Y204331D01*
X4026331Y222019D01*
X4004669Y234526D01*
X3980507Y241000D01*
D02*
G37*
G36*
X3726507D02*
X3701493D01*
X3677331Y234526D01*
X3655669Y222019D01*
X3637981Y204331D01*
X3625474Y182668D01*
X3619000Y158507D01*
Y133493D01*
X3625474Y109332D01*
X3637981Y87669D01*
X3655669Y69981D01*
X3677331Y57474D01*
X3701493Y51000D01*
X3726507D01*
X3750668Y57474D01*
X3772331Y69981D01*
X3790019Y87669D01*
X3802526Y109332D01*
X3809000Y133493D01*
Y158507D01*
X3802526Y182668D01*
X3790019Y204331D01*
X3772331Y222019D01*
X3750668Y234526D01*
X3726507Y241000D01*
D02*
G37*
G36*
X3472507D02*
X3447493D01*
X3423331Y234526D01*
X3401669Y222019D01*
X3383981Y204331D01*
X3371474Y182668D01*
X3365000Y158507D01*
Y133493D01*
X3371474Y109332D01*
X3383981Y87669D01*
X3401669Y69981D01*
X3423331Y57474D01*
X3447493Y51000D01*
X3472507D01*
X3496668Y57474D01*
X3518331Y69981D01*
X3536019Y87669D01*
X3548526Y109332D01*
X3555000Y133493D01*
Y158507D01*
X3548526Y182668D01*
X3536019Y204331D01*
X3518331Y222019D01*
X3496668Y234526D01*
X3472507Y241000D01*
D02*
G37*
G36*
X3218507D02*
X3193493D01*
X3169332Y234526D01*
X3147669Y222019D01*
X3129982Y204331D01*
X3117475Y182668D01*
X3111000Y158507D01*
Y133493D01*
X3117475Y109332D01*
X3129982Y87669D01*
X3147669Y69981D01*
X3169332Y57474D01*
X3193493Y51000D01*
X3218507D01*
X3242669Y57474D01*
X3264331Y69981D01*
X3282019Y87669D01*
X3294526Y109332D01*
X3301000Y133493D01*
Y158507D01*
X3294526Y182668D01*
X3282019Y204331D01*
X3264331Y222019D01*
X3242669Y234526D01*
X3218507Y241000D01*
D02*
G37*
G36*
X2964507D02*
X2939493D01*
X2915332Y234526D01*
X2893669Y222019D01*
X2875982Y204331D01*
X2863475Y182668D01*
X2857000Y158507D01*
Y133493D01*
X2863475Y109332D01*
X2875982Y87669D01*
X2893669Y69981D01*
X2915332Y57474D01*
X2939493Y51000D01*
X2964507D01*
X2988669Y57474D01*
X3010331Y69981D01*
X3028019Y87669D01*
X3040526Y109332D01*
X3047000Y133493D01*
Y158507D01*
X3040526Y182668D01*
X3028019Y204331D01*
X3010331Y222019D01*
X2988669Y234526D01*
X2964507Y241000D01*
D02*
G37*
G36*
X2710507D02*
X2685493D01*
X2661331Y234526D01*
X2639669Y222019D01*
X2621981Y204331D01*
X2609474Y182668D01*
X2603000Y158507D01*
Y133493D01*
X2609474Y109332D01*
X2621981Y87669D01*
X2639669Y69981D01*
X2661331Y57474D01*
X2685493Y51000D01*
X2710507D01*
X2734668Y57474D01*
X2756331Y69981D01*
X2774019Y87669D01*
X2786526Y109332D01*
X2793000Y133493D01*
Y158507D01*
X2786526Y182668D01*
X2774019Y204331D01*
X2756331Y222019D01*
X2734668Y234526D01*
X2710507Y241000D01*
D02*
G37*
G36*
X2456507D02*
X2431493D01*
X2407332Y234526D01*
X2385669Y222019D01*
X2367982Y204331D01*
X2355475Y182668D01*
X2349001Y158507D01*
Y133493D01*
X2355475Y109332D01*
X2367982Y87669D01*
X2385669Y69981D01*
X2407332Y57474D01*
X2431493Y51000D01*
X2456507D01*
X2480669Y57474D01*
X2502332Y69981D01*
X2520019Y87669D01*
X2532526Y109332D01*
X2539000Y133493D01*
Y158507D01*
X2532526Y182668D01*
X2520019Y204331D01*
X2502332Y222019D01*
X2480669Y234526D01*
X2456507Y241000D01*
D02*
G37*
G36*
X2202508D02*
X2177494D01*
X2153332Y234526D01*
X2131670Y222019D01*
X2113982Y204331D01*
X2101475Y182668D01*
X2095001Y158507D01*
Y133493D01*
X2101475Y109332D01*
X2113982Y87669D01*
X2131670Y69981D01*
X2153332Y57474D01*
X2177494Y51000D01*
X2202508D01*
X2226669Y57474D01*
X2248332Y69981D01*
X2266019Y87669D01*
X2278526Y109332D01*
X2285001Y133493D01*
Y158507D01*
X2278526Y182668D01*
X2266019Y204331D01*
X2248332Y222019D01*
X2226669Y234526D01*
X2202508Y241000D01*
D02*
G37*
G36*
X1948507D02*
X1923493D01*
X1899332Y234526D01*
X1877669Y222019D01*
X1859982Y204331D01*
X1847475Y182668D01*
X1841000Y158507D01*
Y133493D01*
X1847475Y109332D01*
X1859982Y87669D01*
X1877669Y69981D01*
X1899332Y57474D01*
X1923493Y51000D01*
X1948507D01*
X1972669Y57474D01*
X1994331Y69981D01*
X2012019Y87669D01*
X2024526Y109332D01*
X2031000Y133493D01*
Y158507D01*
X2024526Y182668D01*
X2012019Y204331D01*
X1994331Y222019D01*
X1972669Y234526D01*
X1948507Y241000D01*
D02*
G37*
G36*
X1777000D02*
X1587000D01*
Y51000D01*
X1777000D01*
Y241000D01*
D02*
G37*
G36*
X10918400Y133300D02*
X10830700D01*
Y45600D01*
X10831218D01*
X10856753Y52442D01*
X10879647Y65660D01*
X10898340Y84353D01*
X10911558Y107247D01*
X10918400Y132782D01*
Y133300D01*
D02*
G37*
G36*
X10805300D02*
X10717600D01*
Y132782D01*
X10724442Y107247D01*
X10737660Y84353D01*
X10756353Y65660D01*
X10779247Y52442D01*
X10804782Y45600D01*
X10805300D01*
Y133300D01*
D02*
G37*
G36*
X9140400D02*
X9052700D01*
Y45600D01*
X9053218D01*
X9078753Y52442D01*
X9101647Y65660D01*
X9120340Y84353D01*
X9133558Y107247D01*
X9140400Y132782D01*
Y133300D01*
D02*
G37*
G36*
X9027300D02*
X8939600D01*
Y132782D01*
X8946442Y107247D01*
X8959660Y84353D01*
X8978353Y65660D01*
X9001247Y52442D01*
X9026782Y45600D01*
X9027300D01*
Y133300D01*
D02*
G37*
G36*
X6100400D02*
X6012700D01*
Y45600D01*
X6013218D01*
X6038753Y52442D01*
X6061648Y65660D01*
X6080340Y84353D01*
X6093558Y107247D01*
X6100400Y132782D01*
Y133300D01*
D02*
G37*
G36*
X5987300D02*
X5899601D01*
Y132782D01*
X5906443Y107247D01*
X5919660Y84353D01*
X5938353Y65660D01*
X5961247Y52442D01*
X5986783Y45600D01*
X5987300D01*
Y133300D01*
D02*
G37*
G36*
X4322400D02*
X4234700D01*
Y45600D01*
X4235218D01*
X4260753Y52442D01*
X4283647Y65660D01*
X4302340Y84353D01*
X4315558Y107247D01*
X4322400Y132782D01*
Y133300D01*
D02*
G37*
G36*
X4209300D02*
X4121600D01*
Y132782D01*
X4128442Y107247D01*
X4141660Y84353D01*
X4160353Y65660D01*
X4183247Y52442D01*
X4208782Y45600D01*
X4209300D01*
Y133300D01*
D02*
G37*
%LPD*%
G36*
X2086945Y1796712D02*
X2080000Y1779946D01*
Y1760054D01*
X2087612Y1741677D01*
X2101677Y1727612D01*
X2120054Y1720000D01*
X2138782D01*
X2141311Y1716960D01*
X2145153Y1708411D01*
X1987330Y1550588D01*
X1232670D01*
X1200588Y1582670D01*
Y1589877D01*
X1212388Y1601677D01*
X1212883Y1602871D01*
X1225583D01*
X1225703Y1602581D01*
X1242581Y1585703D01*
X1264634Y1576569D01*
X1288503D01*
X1310556Y1585703D01*
X1324646Y1599793D01*
X1333397Y1601065D01*
X1339871Y1599419D01*
X1351677Y1587612D01*
X1370054Y1580000D01*
X1389946D01*
X1408323Y1587612D01*
X1420123Y1599412D01*
X1734999D01*
X1735000Y1599412D01*
X1746706Y1601741D01*
X1756629Y1608371D01*
X1941946Y1793688D01*
X1952713Y1786494D01*
X1950000Y1779946D01*
Y1760054D01*
X1957612Y1741677D01*
X1971677Y1727612D01*
X1990054Y1720000D01*
X2009946D01*
X2028323Y1727612D01*
X2042388Y1741677D01*
X2050000Y1760054D01*
Y1779946D01*
X2043055Y1796712D01*
X2047892Y1809412D01*
X2082108D01*
X2086945Y1796712D01*
D02*
G37*
G36*
X8950000Y3003138D02*
Y2990054D01*
X8956925Y2973337D01*
X8952059Y2960637D01*
X8496226D01*
X8433431Y3023431D01*
X8428594Y3026663D01*
X8432446Y3039363D01*
X8913775D01*
X8950000Y3003138D01*
D02*
G37*
G36*
X9796863Y2526275D02*
Y1630000D01*
X9799386Y1617319D01*
X9806569Y1606569D01*
X10186569Y1226569D01*
X10197319Y1219386D01*
X10210000Y1216863D01*
X10278274D01*
X10333562Y1161576D01*
X10333582Y1157118D01*
X10321597Y1145000D01*
X10320640Y1145000D01*
X10189862D01*
X9753137Y1581725D01*
Y2510000D01*
X9750614Y2522681D01*
X9743431Y2533431D01*
X9253431Y3023431D01*
X9242681Y3030614D01*
X9230000Y3033137D01*
X9167574D01*
X9158323Y3042388D01*
X9139946Y3050000D01*
X9120054D01*
X9111124Y3046301D01*
X9103929Y3057068D01*
X9113725Y3066863D01*
X9256275D01*
X9796863Y2526275D01*
D02*
G37*
G36*
X2026070Y1022932D02*
X1876924Y873786D01*
X1869741Y863036D01*
X1867219Y850355D01*
Y779645D01*
X1869741Y766964D01*
X1876924Y756214D01*
X1916569Y716569D01*
X1927319Y709386D01*
X1940000Y706863D01*
X4690000D01*
X4702681Y709386D01*
X4708354Y713177D01*
X4716450Y703312D01*
X4706275Y693137D01*
X1893726D01*
X1833137Y753725D01*
Y866274D01*
X1996862Y1030000D01*
X2009946D01*
X2018876Y1033699D01*
X2026070Y1022932D01*
D02*
G37*
G36*
X1896071Y1022933D02*
X1776569Y903431D01*
X1769386Y892681D01*
X1766863Y880000D01*
Y740000D01*
X1769386Y727319D01*
X1776569Y716569D01*
X1856569Y636569D01*
X1867319Y629386D01*
X1880000Y626863D01*
X4720000D01*
X4732681Y629386D01*
X4738354Y633177D01*
X4746450Y623312D01*
X4736275Y613137D01*
X1823726D01*
X1733136Y703726D01*
Y886274D01*
X1876863Y1030000D01*
X1879946D01*
X1888877Y1033700D01*
X1896071Y1022933D01*
D02*
G37*
D51*
X1180000Y1210000D02*
X2250000D01*
X1140000Y2880000D02*
X1530000D01*
X1040000Y2430000D02*
Y2780000D01*
X1140000Y2880000D01*
X1040000Y2430000D02*
X1170000Y2300000D01*
X2520458Y1871864D02*
Y2229542D01*
X2520000Y2230000D02*
X2520458Y2229542D01*
Y1871864D02*
X2520916Y1871406D01*
X2507485Y1137309D02*
Y1140015D01*
X2519969Y982500D02*
Y1124825D01*
X2507485Y1137309D02*
X2519969Y1124825D01*
X1530000Y2880000D02*
X1950000D01*
X1870000Y3250000D02*
X1950000Y3170000D01*
Y2910000D02*
Y3170000D01*
X1170000Y2160000D02*
X1170000Y2160000D01*
X2250000D01*
X1170000Y2160000D02*
Y2300000D01*
X2250000Y2160000D02*
X2380000Y2030000D01*
X2250000Y1210000D02*
X2380000Y1080000D01*
D52*
X8720000Y2241612D02*
Y2770000D01*
X8645888Y2167500D02*
X8720000Y2241612D01*
X8350000Y2500000D02*
X8360000D01*
X7452500Y2167500D02*
X8645888D01*
X9830000Y1630000D02*
Y2540000D01*
X9270000Y3100000D02*
X9830000Y2540000D01*
X9100000Y3100000D02*
X9270000D01*
X7320000Y2300000D02*
X7452500Y2167500D01*
X9830000Y1630000D02*
X10210000Y1250000D01*
X9230000Y3000000D02*
X9720000Y2510000D01*
X9130000Y3000000D02*
X9230000D01*
X9720000Y1568000D02*
Y2510000D01*
X6990000Y3070000D02*
Y3090000D01*
X11925059Y1267059D02*
X12258000Y1600000D01*
X11447059Y1267059D02*
X11925059D01*
X12258000Y1600000D02*
X12258000D01*
X11200000Y1170000D02*
X11450000Y1420000D01*
X11200000Y907469D02*
Y1170000D01*
X11450000Y1420000D02*
X11824000D01*
X11290000Y870000D02*
Y1110000D01*
X11010000Y590000D02*
X11290000Y870000D01*
Y1110000D02*
X11447059Y1267059D01*
X10978059Y685528D02*
X11200000Y907469D01*
X10690000Y350000D02*
Y500000D01*
X10610000Y270000D02*
X10690000Y350000D01*
X10434000Y270000D02*
X10610000D01*
X10310000Y146000D02*
X10434000Y270000D01*
X10690000Y500000D02*
X10780000Y590000D01*
X11010000D01*
X11824000Y1420000D02*
X12004000Y1600000D01*
X11478000Y270000D02*
X12258000Y1050000D01*
X10570000Y152000D02*
X10688000Y270000D01*
X11478000D01*
X10595528Y685528D02*
X10978059D01*
X10310000Y400000D02*
X10595528Y685528D01*
X10310000Y400000D02*
Y400000D01*
X1900355Y779645D02*
X1940000Y740000D01*
X4690000D01*
X6580000Y2630000D01*
X1800000Y880000D02*
X2000000Y1080000D01*
X6640000Y2470000D02*
X7410000D01*
X1810000Y580000D02*
X4750000D01*
X6640000Y2470000D01*
X7410000D02*
X7512500Y2572500D01*
X7364976Y2550000D02*
X7440046Y2625069D01*
X4720000Y660000D02*
X6610000Y2550000D01*
X7364976D01*
X7440046Y2625069D02*
X7443946D01*
X7332531Y2630000D02*
X7390000Y2687469D01*
X6580000Y2630000D02*
X7332531D01*
X1700000Y690000D02*
X1810000Y580000D01*
X1800000Y740000D02*
X1880000Y660000D01*
X4720000D01*
X1900355Y779645D02*
Y850355D01*
X1700000Y690000D02*
Y900000D01*
X1863303Y1063303D01*
Y1063833D02*
X1869471Y1070000D01*
X1863303Y1063303D02*
Y1063833D01*
X1800000Y740000D02*
Y880000D01*
X1900355Y850355D02*
X2130000Y1080000D01*
X1869471Y1070000D02*
X1870000D01*
X7390000Y2687469D02*
Y2690000D01*
X5467500Y1987500D02*
X5520000Y2040000D01*
X4512500Y1987500D02*
X5467500D01*
X7220000Y2270000D02*
X7850000Y1640000D01*
X9380000D01*
X9760000Y1260000D01*
X11000000Y810000D02*
Y1050000D01*
Y790000D02*
Y810000D01*
X7443946Y2625069D02*
X7818877Y3000000D01*
X7512500Y2572500D02*
Y2622500D01*
X7790000Y2900000D02*
X8200000D01*
X7512500Y2622500D02*
X7790000Y2900000D01*
X8927500Y3072500D02*
X9000000Y3000000D01*
X9057500Y2927500D02*
X9130000Y3000000D01*
X8482500Y2927500D02*
X9057500D01*
X8410000Y3000000D02*
X8482500Y2927500D01*
X8300000Y3000000D02*
X8410000D01*
X8242500Y3072500D02*
X8927500D01*
X8170000Y3000000D02*
X8242500Y3072500D01*
X8200000Y2900000D02*
X8300000Y3000000D01*
X7818877D02*
X8170000D01*
X3850000Y1872972D02*
Y2160000D01*
X4229000Y1646000D02*
X4230000Y1645000D01*
Y1640000D02*
Y1645000D01*
X4680000Y2220000D02*
X4892500Y2432500D01*
X6207500D02*
X6210000Y2430000D01*
X4892500Y2432500D02*
X6207500D01*
X4160000Y2340000D02*
X4512500Y1987500D01*
X3850000Y2279000D02*
X4229000Y1900000D01*
X3850000Y2279000D02*
Y2350000D01*
X4112305Y1762695D02*
X4229000Y1646000D01*
X3960277Y1762695D02*
X4112305D01*
X3850000Y1872972D02*
X3960277Y1762695D01*
X10210000Y1250000D02*
X10292000D01*
X10482000Y1060000D01*
X10490000D01*
X9720000Y1568000D02*
X10230000Y1058000D01*
X9000000Y3000000D02*
X9100000Y3100000D01*
D54*
X1170000Y1570000D02*
Y1630000D01*
X1220000Y1520000D02*
X2000000D01*
X1170000Y1570000D02*
X1220000Y1520000D01*
X2000000D02*
X2250000Y1770000D01*
X1380000Y1630000D02*
X1735000D01*
X2310000Y1840000D02*
X2380000Y1770000D01*
X2250000Y830000D02*
X2260000D01*
X740000Y1500500D02*
X820000Y1580500D01*
X740000Y1280000D02*
Y1500500D01*
Y1280000D02*
X830000Y1190000D01*
X680000Y1885000D02*
Y2280000D01*
X590000Y1795000D02*
X680000Y1885000D01*
Y2280000D02*
X810000Y2410000D01*
X590000Y1780000D02*
Y1795000D01*
X820000Y1580500D02*
Y1590000D01*
X1945000Y1840000D02*
X2310000D01*
X1735000Y1630000D02*
X1945000Y1840000D01*
X830000Y1717500D02*
X835500Y1723000D01*
X830000Y1710000D02*
Y1717500D01*
X840000Y1600000D02*
Y1600500D01*
X580000Y1910000D02*
Y1912000D01*
X581500Y1913500D01*
D58*
X7008000Y146000D02*
D03*
X7262000D02*
D03*
X7262000Y400000D02*
D03*
X7516000Y146000D02*
D03*
X7516000Y400000D02*
D03*
X12258000Y1050000D02*
D03*
X12004000D02*
D03*
X11750000D02*
D03*
X12258000Y1600000D02*
D03*
X12004000D02*
D03*
X11750000D02*
D03*
X5492000Y146000D02*
D03*
X6500000Y400000D02*
D03*
X6754000Y146000D02*
D03*
Y400000D02*
D03*
X7008000D02*
D03*
X7770000Y146000D02*
D03*
Y400000D02*
D03*
X8024000Y146000D02*
D03*
X8024000Y400000D02*
D03*
X8278000Y146000D02*
D03*
Y400000D02*
D03*
X8532000Y146000D02*
D03*
Y400000D02*
D03*
X8786000Y146000D02*
D03*
Y400000D02*
D03*
X9040000Y146000D02*
D03*
Y400000D02*
D03*
X9294000Y146000D02*
D03*
X9294000Y400000D02*
D03*
X9548000Y146000D02*
D03*
X9548000Y400000D02*
D03*
X9802000Y146000D02*
D03*
Y400000D02*
D03*
X10056000Y146000D02*
D03*
Y400000D02*
D03*
X10310000Y146000D02*
D03*
X10310000Y400000D02*
D03*
X10564000Y146000D02*
D03*
Y400000D02*
D03*
X10818000Y146000D02*
D03*
Y400000D02*
D03*
X1682000D02*
D03*
X1936000Y146000D02*
D03*
Y400000D02*
D03*
X2190001Y146000D02*
D03*
X2190000Y400000D02*
D03*
X2444000Y146000D02*
D03*
X2444000Y400000D02*
D03*
X2698000Y146000D02*
D03*
X2698000Y400000D02*
D03*
X2952000Y146000D02*
D03*
Y400000D02*
D03*
X3206000Y146000D02*
D03*
X3206000Y400000D02*
D03*
X3460000Y146000D02*
D03*
X3460000Y400000D02*
D03*
X3714000Y146000D02*
D03*
Y400000D02*
D03*
X3968000Y146000D02*
D03*
Y400000D02*
D03*
X4222000Y146000D02*
D03*
Y400000D02*
D03*
X4476001Y146000D02*
D03*
X4476000Y400000D02*
D03*
X4730000Y146000D02*
D03*
X4730000Y400000D02*
D03*
X4984000Y146000D02*
D03*
Y400000D02*
D03*
X5238000Y146000D02*
D03*
Y400000D02*
D03*
X5492000D02*
D03*
X5746000Y146000D02*
D03*
X5746000Y400000D02*
D03*
X6000000Y146000D02*
D03*
X6000000Y400000D02*
D03*
X4229000Y1646000D02*
D03*
X3975000Y1900000D02*
D03*
Y1646000D02*
D03*
X3721000Y1900000D02*
D03*
Y1646000D02*
D03*
X11000000Y1600000D02*
D03*
X10746000D02*
D03*
X10492000D02*
D03*
X11000000Y1050000D02*
D03*
X10746000D02*
D03*
X10492000D02*
D03*
X6500000Y4596000D02*
D03*
X6500000Y4850000D02*
D03*
X6754000Y4596000D02*
D03*
Y4850000D02*
D03*
X7008000Y4596000D02*
D03*
X7008000Y4850000D02*
D03*
X7262000Y4596000D02*
D03*
Y4850000D02*
D03*
X7516000Y4596000D02*
D03*
Y4850000D02*
D03*
X7770000Y4596000D02*
D03*
X7770000Y4850000D02*
D03*
X8024000Y4596000D02*
D03*
X8024000Y4850000D02*
D03*
X8278000Y4596000D02*
D03*
Y4850000D02*
D03*
X8532000Y4596000D02*
D03*
Y4850000D02*
D03*
X8786000Y4596000D02*
D03*
X8786000Y4850000D02*
D03*
X9040000Y4596000D02*
D03*
Y4850000D02*
D03*
X9294000Y4596000D02*
D03*
X9294000Y4850000D02*
D03*
X9548000Y4596000D02*
D03*
Y4850000D02*
D03*
X9802000Y4596000D02*
D03*
X9802000Y4850000D02*
D03*
X10056000Y4596000D02*
D03*
X10056000Y4850000D02*
D03*
X10310000Y4596000D02*
D03*
Y4850000D02*
D03*
X10564000Y4596000D02*
D03*
Y4850000D02*
D03*
X10818000Y4596000D02*
D03*
X1682000D02*
D03*
Y4850000D02*
D03*
X1936000Y4596000D02*
D03*
X1936000Y4850000D02*
D03*
X2190000Y4596000D02*
D03*
Y4850000D02*
D03*
X2444000Y4596000D02*
D03*
Y4850000D02*
D03*
X2698000Y4596000D02*
D03*
Y4850000D02*
D03*
X2952000Y4596000D02*
D03*
X2952000Y4850000D02*
D03*
X3206000Y4596000D02*
D03*
X3206000Y4850000D02*
D03*
X3460000Y4596000D02*
D03*
Y4850000D02*
D03*
X3714000Y4596000D02*
D03*
Y4850000D02*
D03*
X3968000Y4596000D02*
D03*
Y4850000D02*
D03*
X4222000Y4596000D02*
D03*
X4222000Y4850000D02*
D03*
X4476000Y4596000D02*
D03*
Y4850000D02*
D03*
X4730000Y4596000D02*
D03*
Y4850000D02*
D03*
X4984000Y4596000D02*
D03*
Y4850000D02*
D03*
X5238000Y4596000D02*
D03*
Y4850000D02*
D03*
X5492000Y4596000D02*
D03*
X5492000Y4850000D02*
D03*
X5746000Y4596000D02*
D03*
Y4850000D02*
D03*
X6000000Y4596000D02*
D03*
D59*
X11496000Y1050000D02*
D03*
X11496000Y1600000D02*
D03*
X6500000Y146000D02*
D03*
X1682000D02*
D03*
X4229000Y1900000D02*
D03*
X10238000Y1600000D02*
D03*
Y1050000D02*
D03*
X10818000Y4850000D02*
D03*
X6000000D02*
D03*
D60*
X454500Y1132500D02*
D03*
Y2567500D02*
D03*
D61*
X835500Y1596000D02*
D03*
D62*
X835500Y1723000D02*
D03*
Y1850000D02*
D03*
Y1977000D02*
D03*
Y2104000D02*
D03*
X581500Y1659500D02*
D03*
X581500Y1786500D02*
D03*
Y1913500D02*
D03*
X581500Y2040500D02*
D03*
D63*
X12350000Y2155000D02*
D03*
Y2990000D02*
D03*
D64*
X12050000Y2795000D02*
D03*
X12050000Y2350000D02*
D03*
D65*
X12140000Y4030000D02*
D03*
Y3530000D02*
D03*
D66*
X3080000Y2520000D02*
D03*
X3333992Y2265992D02*
D03*
Y2773992D02*
D03*
X2825992D02*
D03*
Y2265992D02*
D03*
D67*
X1180000Y1210000D02*
D03*
X1276568Y1636568D02*
D03*
X3540000Y1430000D02*
D03*
X9970000Y1620000D02*
D03*
X1040000Y2780000D02*
D03*
X3530000Y2070000D02*
D03*
X8100000Y3170000D02*
D03*
X8370000D02*
D03*
X6990000Y2870000D02*
D03*
X9690000Y3350000D02*
D03*
X10520000D02*
D03*
X6600000Y3070000D02*
D03*
X11340000Y1850000D02*
D03*
X1950000Y2880000D02*
D03*
X1720000Y2470000D02*
D03*
X1170000Y2160000D02*
D03*
X6740000Y2730000D02*
D03*
X5670000Y2030000D02*
D03*
X2400000Y2500000D02*
D03*
X1730000Y3850000D02*
D03*
X5200000Y2350000D02*
D03*
X11380000Y3110000D02*
D03*
Y2960000D02*
D03*
X10870000Y2870000D02*
D03*
X10640000D02*
D03*
X6990000Y2222530D02*
D03*
X5910000Y3140000D02*
D03*
D68*
X8880000Y2770000D02*
D03*
X8570000Y2490000D02*
D03*
X8720000Y2770000D02*
D03*
X8800000Y2410000D02*
D03*
X8060000Y2710000D02*
D03*
X8360000Y2500000D02*
D03*
X7900000Y2430000D02*
D03*
Y2230000D02*
D03*
X7020000Y2720000D02*
D03*
X7130000Y2190000D02*
D03*
X7320000Y2300000D02*
D03*
X7240000Y2370000D02*
D03*
X7900000Y2330000D02*
D03*
X6630000Y1770000D02*
D03*
X6800000D02*
D03*
X1380000Y1630000D02*
D03*
X6160009Y1337500D02*
D03*
X6370000Y1330000D02*
D03*
X10050000Y1970000D02*
D03*
X3730000Y2520000D02*
D03*
X2520000Y2230000D02*
D03*
X9561265Y2561265D02*
D03*
X10100000Y2120000D02*
D03*
X6610000Y3340000D02*
D03*
X6760000Y3225000D02*
D03*
X6837978Y3080000D02*
D03*
X6685040Y3274960D02*
D03*
X6740000Y2950000D02*
D03*
X6980000Y3080000D02*
D03*
X5820000Y3062500D02*
D03*
X2750000Y1722500D02*
D03*
X2590000Y1680000D02*
D03*
X2380000Y1770000D02*
D03*
X2000000D02*
D03*
X2250000D02*
D03*
X2130000D02*
D03*
X2259794Y2029998D02*
D03*
X1870000Y2030000D02*
D03*
X2520916Y1871406D02*
D03*
X2883735Y1253735D02*
D03*
X2610000Y1300000D02*
D03*
X2510000Y1340000D02*
D03*
X2790000Y1260000D02*
D03*
X2507485Y1140015D02*
D03*
X2519969Y982500D02*
D03*
X5910000Y3250000D02*
D03*
X2059999Y3850000D02*
D03*
X5824936Y3224936D02*
D03*
X2380000Y822499D02*
D03*
X2254000Y834000D02*
D03*
X2127000Y830000D02*
D03*
X2000000D02*
D03*
Y1080000D02*
D03*
X1530000Y2880000D02*
D03*
X1550000Y2500000D02*
D03*
X6750000Y2230000D02*
D03*
X7310000Y2710000D02*
D03*
X5220000Y2750000D02*
D03*
X5140000Y2670000D02*
D03*
X2259896Y1079896D02*
D03*
X2380000Y1080000D02*
D03*
Y2030000D02*
D03*
X1270000Y680000D02*
D03*
X830000Y1190000D02*
D03*
Y1340000D02*
D03*
X810000Y2260000D02*
D03*
Y2410000D02*
D03*
X1750000Y1080000D02*
D03*
X5520000Y2040000D02*
D03*
X5785104Y2035104D02*
D03*
X7220000Y2270000D02*
D03*
X3750000Y2240000D02*
D03*
X1170000Y1630000D02*
D03*
Y680000D02*
D03*
X1370000D02*
D03*
X2130000Y2030000D02*
D03*
X1620000D02*
D03*
X1750000D02*
D03*
X2000000D02*
D03*
X1870000Y1080000D02*
D03*
X2130000D02*
D03*
X7250000Y2770000D02*
D03*
X8430000Y2000000D02*
D03*
X9760000Y1260000D02*
D03*
X11000000Y810000D02*
D03*
X7390000Y2690000D02*
D03*
X7150000Y2100000D02*
D03*
X7440046Y2625069D02*
D03*
X9020000Y3440000D02*
D03*
X6500000Y4070000D02*
D03*
X7710000Y2580000D02*
D03*
X1950000Y3850000D02*
D03*
X1510000Y3250000D02*
D03*
X6010634Y3519550D02*
D03*
X5580000Y3120000D02*
D03*
X5850000Y3460000D02*
D03*
X6420000Y3640000D02*
D03*
X6418808Y3538723D02*
D03*
X3850000Y2160000D02*
D03*
X2170000Y3250000D02*
D03*
X1870000Y3250000D02*
D03*
X5240000Y2250000D02*
D03*
X5060000Y2600000D02*
D03*
X1840000Y2440000D02*
D03*
X3730000Y2630000D02*
D03*
X3850000Y2350000D02*
D03*
X4160000Y2340000D02*
D03*
X360000Y4150000D02*
D03*
X6080000Y3580000D02*
D03*
X3240000Y3650000D02*
D03*
X360000Y3390000D02*
D03*
Y3500000D02*
D03*
Y3610000D02*
D03*
Y3830000D02*
D03*
Y4050000D02*
D03*
X320000Y3140000D02*
D03*
X350000Y4280000D02*
D03*
X360000Y3720000D02*
D03*
Y3940000D02*
D03*
X7512500Y2572500D02*
D03*
X8560000Y2000000D02*
D03*
X8170000Y3000000D02*
D03*
X8300000D02*
D03*
X9000000D02*
D03*
X9130000D02*
D03*
X9250000Y2000000D02*
D03*
X9380000D02*
D03*
X9020000Y3330000D02*
D03*
X1300000Y2380000D02*
D03*
X2120000Y2500000D02*
D03*
X1619000Y1081000D02*
D03*
X2279999Y3249999D02*
D03*
X1730103Y3249896D02*
D03*
X2390000Y3850000D02*
D03*
X5420000Y2060000D02*
D03*
X6210000Y2430000D02*
D03*
X4680000Y2220000D02*
D03*
X5750000Y4120000D02*
D03*
X5880000D02*
D03*
X6100000D02*
D03*
X5990000D02*
D03*
X5660000Y3040000D02*
D03*
X6910000Y2040000D02*
D03*
D69*
X11375000Y4450000D02*
D03*
X12175000Y2300000D02*
D03*
X6250000Y1150000D02*
D03*
D70*
X1350000Y1840000D02*
D03*
Y1940000D02*
D03*
X1250000Y1840000D02*
D03*
Y1940000D02*
D03*
X1350000Y890001D02*
D03*
X1350000Y990000D02*
D03*
X1250000Y890000D02*
D03*
Y990000D02*
D03*
D71*
X12200000Y300000D02*
D03*
Y4700000D02*
D03*
X300000Y300000D02*
D03*
Y4700000D02*
D03*
%TF.MD5,81e56ff283eb53fcd9ea78555fcb6e90*%
M02*
