%TF.GenerationSoftware,Altium Limited,Altium Designer,22.1.2 (22)*%
G04 Layer_Color=128*
%FSLAX45Y45*%
%MOMM*%
%TF.SameCoordinates,3CA235EB-07BA-4011-868A-CA015CDCDCF0*%
%TF.FilePolarity,Positive*%
%TF.FileFunction,Paste,Bot*%
%TF.Part,Single*%
G01*
G75*
%TA.AperFunction,SMDPad,CuDef*%
%ADD31R,0.90000X0.80000*%
%ADD73R,0.60000X1.55000*%
%ADD78R,1.60000X1.50000*%
G04:AMPARAMS|DCode=79|XSize=0.85mm|YSize=0.25mm|CornerRadius=0.125mm|HoleSize=0mm|Usage=FLASHONLY|Rotation=90.000|XOffset=0mm|YOffset=0mm|HoleType=Round|Shape=RoundedRectangle|*
%AMROUNDEDRECTD79*
21,1,0.85000,0.00000,0,0,90.0*
21,1,0.60000,0.25000,0,0,90.0*
1,1,0.25000,0.00000,0.30000*
1,1,0.25000,0.00000,-0.30000*
1,1,0.25000,0.00000,-0.30000*
1,1,0.25000,0.00000,0.30000*
%
%ADD79ROUNDEDRECTD79*%
%ADD104R,1.12000X1.02000*%
%ADD112R,0.92000X0.72000*%
%ADD113R,1.02000X1.12000*%
%ADD125R,0.72000X0.92000*%
%ADD163R,1.12000X1.07000*%
%ADD164R,0.52000X2.02000*%
%ADD165O,0.52000X2.02000*%
%ADD166R,0.72000X0.87000*%
%ADD167R,0.87000X0.72000*%
D31*
X2760000Y915000D02*
D03*
X2620000D02*
D03*
Y1025000D02*
D03*
X2760000D02*
D03*
X2750000Y1935000D02*
D03*
X2610000D02*
D03*
Y1825000D02*
D03*
X2750000D02*
D03*
D73*
X2381000Y680000D02*
D03*
X2254000D02*
D03*
X2127000D02*
D03*
X2000000D02*
D03*
X1873000D02*
D03*
X1746000D02*
D03*
X1619000D02*
D03*
Y1220000D02*
D03*
X1746000D02*
D03*
X1873000D02*
D03*
X2000000D02*
D03*
X2127000D02*
D03*
X2254000D02*
D03*
X2381000D02*
D03*
Y1630000D02*
D03*
X2254000D02*
D03*
X2127000D02*
D03*
X2000000D02*
D03*
X1873000D02*
D03*
X1746000D02*
D03*
X1619000D02*
D03*
Y2170000D02*
D03*
X1746000D02*
D03*
X1873000D02*
D03*
X2000000D02*
D03*
X2127000D02*
D03*
X2254000D02*
D03*
X2381000D02*
D03*
D78*
X1300000Y940000D02*
D03*
Y1890000D02*
D03*
D79*
X1375000Y1745000D02*
D03*
X1325000D02*
D03*
X1275000D02*
D03*
X1225000D02*
D03*
Y2035000D02*
D03*
X1275000D02*
D03*
X1325000D02*
D03*
X1375000D02*
D03*
X1374999Y795000D02*
D03*
X1324999D02*
D03*
X1275000D02*
D03*
X1225000D02*
D03*
Y1085000D02*
D03*
X1275000D02*
D03*
X1324999D02*
D03*
X1374999D02*
D03*
D104*
X3880000Y2460000D02*
D03*
Y2640000D02*
D03*
X9380000Y3230000D02*
D03*
Y3050000D02*
D03*
X8550000Y3230000D02*
D03*
Y3050000D02*
D03*
X540000Y3920000D02*
D03*
Y3740000D02*
D03*
X1200000Y2610000D02*
D03*
Y2790000D02*
D03*
X1640000D02*
D03*
Y2610000D02*
D03*
X1420000Y2790000D02*
D03*
Y2610000D02*
D03*
X6290000Y2600000D02*
D03*
Y2780000D02*
D03*
X6450000Y3325000D02*
D03*
Y3145000D02*
D03*
X6250000Y3325000D02*
D03*
Y3145000D02*
D03*
X6150000Y1625000D02*
D03*
Y1805000D02*
D03*
X6350000Y1625000D02*
D03*
Y1805000D02*
D03*
X6050000Y3325000D02*
D03*
Y3145000D02*
D03*
D112*
X2120000Y2605000D02*
D03*
Y2755000D02*
D03*
X930000Y2255000D02*
D03*
Y2405000D02*
D03*
X940000Y1190000D02*
D03*
Y1340000D02*
D03*
X6630000Y2025000D02*
D03*
Y1875000D02*
D03*
X6800000Y2025000D02*
D03*
Y1875000D02*
D03*
D113*
X1060000Y510000D02*
D03*
X1240000D02*
D03*
X1080425Y1450000D02*
D03*
X1260425D02*
D03*
X3150000Y830000D02*
D03*
X2970000D02*
D03*
X3150000Y1140000D02*
D03*
X2970000D02*
D03*
X3140000Y1910000D02*
D03*
X2960000D02*
D03*
X3140000Y1620000D02*
D03*
X2960000D02*
D03*
X10820000Y3020000D02*
D03*
X10640000D02*
D03*
X11190000Y3250000D02*
D03*
X11370000D02*
D03*
X10415000Y1850000D02*
D03*
X10235000D02*
D03*
X11485000D02*
D03*
X11665000D02*
D03*
X1550000Y4021925D02*
D03*
X1730000D02*
D03*
X5910000Y2610000D02*
D03*
X6090000D02*
D03*
X5910000Y2430000D02*
D03*
X6090000D02*
D03*
D125*
X5925000Y2790000D02*
D03*
X6075000D02*
D03*
D163*
X1020000Y1010000D02*
D03*
Y870000D02*
D03*
Y1980000D02*
D03*
Y1840000D02*
D03*
D164*
X9381000Y2190000D02*
D03*
X8554000Y2200000D02*
D03*
D165*
X9254000Y2190000D02*
D03*
X9127000D02*
D03*
X9000000D02*
D03*
X9381000Y2790000D02*
D03*
X9254000D02*
D03*
X9127000D02*
D03*
X9000000D02*
D03*
X8173000Y2800000D02*
D03*
X8300000D02*
D03*
X8427000D02*
D03*
X8554000D02*
D03*
X8173000Y2200000D02*
D03*
X8300000D02*
D03*
X8427000D02*
D03*
D166*
X6500000Y2785000D02*
D03*
Y2630000D02*
D03*
D167*
X6067500Y2250000D02*
D03*
X5912500D02*
D03*
%TF.MD5,6954b061a08dc7fa798e07eb763b38ff*%
M02*
