%TF.GenerationSoftware,Altium Limited,Altium Designer,22.1.2 (22)*%
G04 Layer_Color=16711935*
%FSLAX45Y45*%
%MOMM*%
%TF.SameCoordinates,5EC5152B-D9DC-4A70-AFCB-378F050BE7B4*%
%TF.FilePolarity,Negative*%
%TF.FileFunction,Soldermask,Bot*%
%TF.Part,Single*%
G01*
G75*
%TA.AperFunction,SMDPad,CuDef*%
%ADD21R,0.90000X0.80000*%
%TA.AperFunction,ComponentPad*%
%ADD64C,1.12000*%
%ADD65R,1.12000X1.12000*%
%ADD66C,4.24000*%
%TA.AperFunction,ViaPad*%
%ADD71C,0.50000*%
%TA.AperFunction,SMDPad,CuDef*%
%ADD73R,0.60000X1.55000*%
%ADD78R,1.60000X1.50000*%
G04:AMPARAMS|DCode=79|XSize=0.85mm|YSize=0.25mm|CornerRadius=0.125mm|HoleSize=0mm|Usage=FLASHONLY|Rotation=90.000|XOffset=0mm|YOffset=0mm|HoleType=Round|Shape=RoundedRectangle|*
%AMROUNDEDRECTD79*
21,1,0.85000,0.00000,0,0,90.0*
21,1,0.60000,0.25000,0,0,90.0*
1,1,0.25000,0.00000,0.30000*
1,1,0.25000,0.00000,-0.30000*
1,1,0.25000,0.00000,-0.30000*
1,1,0.25000,0.00000,0.30000*
%
%ADD79ROUNDEDRECTD79*%
%ADD80R,1.10000X1.20000*%
%ADD81R,0.80000X1.00000*%
%ADD82R,1.20000X1.10000*%
%ADD83R,0.80000X0.95000*%
%ADD84R,0.95000X0.80000*%
%ADD85R,1.00000X0.80000*%
%ADD86O,0.60000X2.10000*%
%ADD87R,0.60000X2.10000*%
%TA.AperFunction,ComponentPad*%
%ADD88O,2.00000X1.30000*%
%ADD89O,1.35000X1.15000*%
%ADD90C,1.60000*%
%ADD91R,1.60000X1.60000*%
%ADD92C,4.40000*%
%ADD93C,2.30000*%
%TA.AperFunction,ViaPad*%
%ADD94C,1.00320*%
%ADD95C,0.80320*%
%ADD96C,1.20320*%
%ADD97C,3.30000*%
D21*
X2770000Y1845000D02*
D03*
X2630000D02*
D03*
Y1955000D02*
D03*
X2770000D02*
D03*
Y1005000D02*
D03*
X2630000D02*
D03*
Y895000D02*
D03*
X2770000D02*
D03*
D64*
X581500Y2040500D02*
D03*
X581500Y1913500D02*
D03*
Y1786500D02*
D03*
X581500Y1659500D02*
D03*
X835500Y2104000D02*
D03*
Y1977000D02*
D03*
Y1850000D02*
D03*
Y1723000D02*
D03*
D65*
X835500Y1596000D02*
D03*
D66*
X454500Y2567500D02*
D03*
Y1132500D02*
D03*
D71*
X1350000Y900000D02*
D03*
Y1000000D02*
D03*
X1250000Y900000D02*
D03*
Y1000000D02*
D03*
X1350000Y1850000D02*
D03*
X1350000Y1950000D02*
D03*
X1250000Y1850000D02*
D03*
Y1950000D02*
D03*
D73*
X2381000Y680000D02*
D03*
X2254000D02*
D03*
X2127000D02*
D03*
X2000000D02*
D03*
X1873000D02*
D03*
X1746000D02*
D03*
X1619000D02*
D03*
Y1220000D02*
D03*
X1746000D02*
D03*
X1873000D02*
D03*
X2000000D02*
D03*
X2127000D02*
D03*
X2254000D02*
D03*
X2381000D02*
D03*
Y2170000D02*
D03*
X2254000D02*
D03*
X2127000D02*
D03*
X2000000D02*
D03*
X1873000D02*
D03*
X1746000D02*
D03*
X1619000D02*
D03*
Y1630000D02*
D03*
X1746000D02*
D03*
X1873000D02*
D03*
X2000000D02*
D03*
X2127000D02*
D03*
X2254000D02*
D03*
X2381000D02*
D03*
D78*
X1300000Y1900000D02*
D03*
Y950000D02*
D03*
D79*
X1375000Y805000D02*
D03*
X1325000D02*
D03*
X1275000D02*
D03*
X1225000D02*
D03*
Y1095000D02*
D03*
X1275000D02*
D03*
X1325000D02*
D03*
X1375000D02*
D03*
X1374999Y1755000D02*
D03*
X1324999D02*
D03*
X1275000D02*
D03*
X1225000D02*
D03*
Y2045000D02*
D03*
X1275000D02*
D03*
X1324999D02*
D03*
X1374999D02*
D03*
D80*
X10820000Y3020000D02*
D03*
X10640000D02*
D03*
X11190000Y3250000D02*
D03*
X11370000D02*
D03*
X10415000Y1850000D02*
D03*
X10235000D02*
D03*
X11485000D02*
D03*
X11665000D02*
D03*
X1550000Y4021925D02*
D03*
X1730000D02*
D03*
X5910000Y2610000D02*
D03*
X6090000D02*
D03*
X5910000Y2430000D02*
D03*
X6090000D02*
D03*
D81*
X5925000Y2790000D02*
D03*
X6075000D02*
D03*
D82*
X6290000Y2600000D02*
D03*
Y2780000D02*
D03*
X6450000Y3325000D02*
D03*
Y3145000D02*
D03*
X6250000Y3325000D02*
D03*
Y3145000D02*
D03*
X6150000Y1625000D02*
D03*
Y1805000D02*
D03*
X6350000Y1625000D02*
D03*
Y1805000D02*
D03*
X6050000Y3325000D02*
D03*
Y3145000D02*
D03*
D83*
X6500000Y2785000D02*
D03*
Y2630000D02*
D03*
D84*
X6067500Y2250000D02*
D03*
X5912500D02*
D03*
D85*
X6780000Y2030000D02*
D03*
Y1880000D02*
D03*
X6630000Y2030000D02*
D03*
Y1880000D02*
D03*
D86*
X8719000Y2800000D02*
D03*
X8846000D02*
D03*
X8973000D02*
D03*
X9100000D02*
D03*
X8719000Y2200000D02*
D03*
X8846000D02*
D03*
X8973000D02*
D03*
X8119000Y2800000D02*
D03*
X8246000D02*
D03*
X8373000D02*
D03*
X8500000D02*
D03*
X8119000Y2200000D02*
D03*
X8246000D02*
D03*
X8373000D02*
D03*
D87*
X9100000D02*
D03*
X8500000D02*
D03*
D88*
X12350000Y2155000D02*
D03*
Y2990000D02*
D03*
D89*
X12050000Y2795000D02*
D03*
X12050000Y2350000D02*
D03*
D90*
X12258000Y1600000D02*
D03*
X12004000D02*
D03*
X11750000D02*
D03*
X12258000Y1050000D02*
D03*
X12004000D02*
D03*
X11750000D02*
D03*
X5492000Y146000D02*
D03*
X6500000Y400000D02*
D03*
X6754000Y146000D02*
D03*
Y400000D02*
D03*
X7008000Y146000D02*
D03*
Y400000D02*
D03*
X7262000Y146000D02*
D03*
X7262000Y400000D02*
D03*
X7516000Y146000D02*
D03*
X7516000Y400000D02*
D03*
X7770000Y146000D02*
D03*
Y400000D02*
D03*
X8024000Y146000D02*
D03*
X8024000Y400000D02*
D03*
X8278000Y146000D02*
D03*
Y400000D02*
D03*
X8532000Y146000D02*
D03*
Y400000D02*
D03*
X8786000Y146000D02*
D03*
Y400000D02*
D03*
X9040000Y146000D02*
D03*
Y400000D02*
D03*
X9294000Y146000D02*
D03*
X9294000Y400000D02*
D03*
X9548000Y146000D02*
D03*
X9548000Y400000D02*
D03*
X9802000Y146000D02*
D03*
Y400000D02*
D03*
X10056000Y146000D02*
D03*
Y400000D02*
D03*
X10310000Y146000D02*
D03*
X10310000Y400000D02*
D03*
X10564000Y146000D02*
D03*
Y400000D02*
D03*
X10818000Y146000D02*
D03*
Y400000D02*
D03*
X1682000D02*
D03*
X1936000Y146000D02*
D03*
Y400000D02*
D03*
X2190001Y146000D02*
D03*
X2190000Y400000D02*
D03*
X2444000Y146000D02*
D03*
X2444000Y400000D02*
D03*
X2698000Y146000D02*
D03*
X2698000Y400000D02*
D03*
X2952000Y146000D02*
D03*
Y400000D02*
D03*
X3206000Y146000D02*
D03*
X3206000Y400000D02*
D03*
X3460000Y146000D02*
D03*
X3460000Y400000D02*
D03*
X3714000Y146000D02*
D03*
Y400000D02*
D03*
X3968000Y146000D02*
D03*
Y400000D02*
D03*
X4222000Y146000D02*
D03*
Y400000D02*
D03*
X4476001Y146000D02*
D03*
X4476000Y400000D02*
D03*
X4730000Y146000D02*
D03*
X4730000Y400000D02*
D03*
X4984000Y146000D02*
D03*
Y400000D02*
D03*
X5238000Y146000D02*
D03*
Y400000D02*
D03*
X5492000D02*
D03*
X5746000Y146000D02*
D03*
X5746000Y400000D02*
D03*
X6000000Y146000D02*
D03*
X6000000Y400000D02*
D03*
X4229000Y1646000D02*
D03*
X3975000Y1900000D02*
D03*
Y1646000D02*
D03*
X3721000Y1900000D02*
D03*
Y1646000D02*
D03*
X11000000Y1600000D02*
D03*
X10746000D02*
D03*
X10492000D02*
D03*
X11000000Y1050000D02*
D03*
X10746000D02*
D03*
X10492000D02*
D03*
X6500000Y4596000D02*
D03*
X6500000Y4850000D02*
D03*
X6754000Y4596000D02*
D03*
Y4850000D02*
D03*
X7008000Y4596000D02*
D03*
X7008000Y4850000D02*
D03*
X7262000Y4596000D02*
D03*
Y4850000D02*
D03*
X7516000Y4596000D02*
D03*
Y4850000D02*
D03*
X7770000Y4596000D02*
D03*
X7770000Y4850000D02*
D03*
X8024000Y4596000D02*
D03*
X8024000Y4850000D02*
D03*
X8278000Y4596000D02*
D03*
Y4850000D02*
D03*
X8532000Y4596000D02*
D03*
Y4850000D02*
D03*
X8786000Y4596000D02*
D03*
X8786000Y4850000D02*
D03*
X9040000Y4596000D02*
D03*
Y4850000D02*
D03*
X9294000Y4596000D02*
D03*
X9294000Y4850000D02*
D03*
X9548000Y4596000D02*
D03*
Y4850000D02*
D03*
X9802000Y4596000D02*
D03*
X9802000Y4850000D02*
D03*
X10056000Y4596000D02*
D03*
X10056000Y4850000D02*
D03*
X10310000Y4596000D02*
D03*
Y4850000D02*
D03*
X10564000Y4596000D02*
D03*
Y4850000D02*
D03*
X10818000Y4596000D02*
D03*
X1682000D02*
D03*
Y4850000D02*
D03*
X1936000Y4596000D02*
D03*
X1936000Y4850000D02*
D03*
X2190000Y4596000D02*
D03*
Y4850000D02*
D03*
X2444000Y4596000D02*
D03*
Y4850000D02*
D03*
X2698000Y4596000D02*
D03*
Y4850000D02*
D03*
X2952000Y4596000D02*
D03*
X2952000Y4850000D02*
D03*
X3206000Y4596000D02*
D03*
X3206000Y4850000D02*
D03*
X3460000Y4596000D02*
D03*
Y4850000D02*
D03*
X3714000Y4596000D02*
D03*
Y4850000D02*
D03*
X3968000Y4596000D02*
D03*
Y4850000D02*
D03*
X4222000Y4596000D02*
D03*
X4222000Y4850000D02*
D03*
X4476000Y4596000D02*
D03*
Y4850000D02*
D03*
X4730000Y4596000D02*
D03*
Y4850000D02*
D03*
X4984000Y4596000D02*
D03*
Y4850000D02*
D03*
X5238000Y4596000D02*
D03*
Y4850000D02*
D03*
X5492000Y4596000D02*
D03*
X5492000Y4850000D02*
D03*
X5746000Y4596000D02*
D03*
Y4850000D02*
D03*
X6000000Y4596000D02*
D03*
D91*
X11496000Y1600000D02*
D03*
X11496000Y1050000D02*
D03*
X6500000Y146000D02*
D03*
X1682000D02*
D03*
X4229000Y1900000D02*
D03*
X10238000Y1600000D02*
D03*
Y1050000D02*
D03*
X10818000Y4850000D02*
D03*
X6000000D02*
D03*
D92*
X12140000Y4030000D02*
D03*
Y3530000D02*
D03*
D93*
X3100008Y2500000D02*
D03*
X3354000Y2245992D02*
D03*
Y2753992D02*
D03*
X2846000D02*
D03*
Y2245992D02*
D03*
D94*
X1670000Y2500000D02*
D03*
X11380000Y3110000D02*
D03*
Y2960000D02*
D03*
X10870000Y2870000D02*
D03*
X10640000D02*
D03*
X2400000Y2500000D02*
D03*
X5200000Y2350000D02*
D03*
X1730000Y4250000D02*
D03*
X6810520Y2489481D02*
D03*
X6810000Y2880000D02*
D03*
X5840000Y2000000D02*
D03*
X6990000Y2222530D02*
D03*
X6600000Y3150000D02*
D03*
X5910000Y3140000D02*
D03*
X6990000Y2870000D02*
D03*
D95*
X3240000Y3650000D02*
D03*
X9320000Y3180000D02*
D03*
X10060000Y3530000D02*
D03*
X1170000Y690000D02*
D03*
X1270000D02*
D03*
X1370333D02*
D03*
X2127000Y833000D02*
D03*
X2000000Y830000D02*
D03*
X1619000Y1081000D02*
D03*
X1746000Y1076000D02*
D03*
X1873000Y1083000D02*
D03*
X2000000Y1080000D02*
D03*
X2127000Y1087000D02*
D03*
X2254000Y1084000D02*
D03*
X2381000Y1081000D02*
D03*
Y829000D02*
D03*
X2254000Y834000D02*
D03*
X2525191Y895891D02*
D03*
X1380000Y1260000D02*
D03*
X1275000Y1265000D02*
D03*
X1170000Y1260000D02*
D03*
X2530000Y1850000D02*
D03*
X2279999Y3249999D02*
D03*
X5220000Y2750000D02*
D03*
X6630000Y1780000D02*
D03*
X1620000Y3850000D02*
D03*
X1950000Y3850000D02*
D03*
X2059999Y3850000D02*
D03*
X1950000Y3250000D02*
D03*
X2170000D02*
D03*
X1730103Y3249896D02*
D03*
X1510000Y3250000D02*
D03*
X2390000Y3850000D02*
D03*
X5520000Y2040000D02*
D03*
X5420000Y2060000D02*
D03*
X5340000Y2140000D02*
D03*
X5240000Y2250000D02*
D03*
X5140000Y2670000D02*
D03*
X5060000Y2600000D02*
D03*
X6210000Y2430000D02*
D03*
X4680000Y2220000D02*
D03*
X6980000Y3080000D02*
D03*
X6840000Y3130000D02*
D03*
X6760000Y3200000D02*
D03*
X6685040Y3274960D02*
D03*
X5750000Y4120000D02*
D03*
X5880000D02*
D03*
X6100000D02*
D03*
X5990000D02*
D03*
X6057422Y3529856D02*
D03*
X5957169Y3527169D02*
D03*
X6087500Y3618735D02*
D03*
X5660000Y3040000D02*
D03*
X5580000Y3120000D02*
D03*
X5590000Y1910000D02*
D03*
X5885942Y1684058D02*
D03*
X5960000Y1620000D02*
D03*
X6032500Y1560000D02*
D03*
X6180000Y1430000D02*
D03*
X6110000Y1497841D02*
D03*
X6160009Y1337500D02*
D03*
X6310104Y1279896D02*
D03*
X6550000Y1560000D02*
D03*
X6910000Y2040000D02*
D03*
X6780000Y1780000D02*
D03*
X7130000Y2190000D02*
D03*
X7150000Y2100000D02*
D03*
X7320000Y2300000D02*
D03*
X5839896Y1879896D02*
D03*
X7240000Y2370000D02*
D03*
X6610000Y3340000D02*
D03*
X5820000Y3060000D02*
D03*
D96*
X11375000Y4450000D02*
D03*
X12175000Y2300000D02*
D03*
X6250000Y1150000D02*
D03*
D97*
X12200000Y300000D02*
D03*
Y4700000D02*
D03*
X300000Y300000D02*
D03*
Y4700000D02*
D03*
%TF.MD5,0fb397575e2465753e633a205ab454cb*%
M02*
