%TF.GenerationSoftware,Altium Limited,Altium Designer,22.1.2 (22)*%
G04 Layer_Physical_Order=3*
G04 Layer_Color=16440176*
%FSLAX45Y45*%
%MOMM*%
%TF.SameCoordinates,69A41402-0A08-4178-9E70-C708664AA264*%
%TF.FilePolarity,Positive*%
%TF.FileFunction,Copper,L3,Inr,Signal*%
%TF.Part,Single*%
G01*
G75*
%TA.AperFunction,Conductor*%
%ADD51C,0.25000*%
%ADD52C,0.30000*%
%ADD53C,0.50000*%
%ADD54C,0.20000*%
%TA.AperFunction,ComponentPad*%
%ADD58C,1.50000*%
%ADD59R,1.50000X1.50000*%
%ADD60C,4.24000*%
%ADD61R,1.12000X1.12000*%
%ADD62C,1.12000*%
%ADD63O,1.90000X1.20000*%
%ADD64O,1.25000X1.05000*%
%ADD65C,4.30000*%
%ADD66C,2.20000*%
%TA.AperFunction,ViaPad*%
%ADD67C,0.60000*%
%ADD68C,0.80000*%
%ADD69C,1.00000*%
%ADD70C,0.50000*%
%ADD71C,3.20000*%
D51*
X7507500Y3412500D02*
X8080000Y2840000D01*
X9180000D01*
X10050000Y1970000D01*
X8360000Y2500000D02*
X8450000Y2410000D01*
X8800000D01*
X8430000Y1990000D02*
Y2000000D01*
X8060000Y2710000D02*
X8430000Y2340000D01*
Y2000000D02*
Y2340000D01*
X7900000Y2430000D02*
Y2910000D01*
X7837500Y2392500D02*
X7900000Y2330000D01*
X7837500Y2392500D02*
Y2877500D01*
X8502500Y2072500D02*
X9177500D01*
X6696472Y3273528D02*
X6700000Y3270000D01*
X7470000Y3340000D02*
X7900000Y2910000D01*
X7962584Y2000000D02*
X8430000D01*
X6886651Y2853348D02*
X7020000Y2720000D01*
X6886651Y2853348D02*
Y2913349D01*
X6760000Y3040000D02*
X6886651Y2913349D01*
X6760000Y3040000D02*
Y3225000D01*
X7100000Y2390000D02*
Y2960000D01*
Y2390000D02*
X7220000Y2270000D01*
X6980000Y3080000D02*
X7100000Y2960000D01*
X7130000Y2190000D02*
X7220000D01*
X7190000Y2540000D02*
Y2710000D01*
Y2540000D02*
X7870000Y1860000D01*
X9240000D01*
X6840000Y3080000D02*
Y3082022D01*
X7032978Y3275000D02*
X7440000D01*
X6840000Y3082022D02*
X7032978Y3275000D01*
X7440000D02*
X7837500Y2877500D01*
X6696472Y3273528D02*
Y3286392D01*
X6750080Y3340000D01*
X7470000D01*
X7360000Y2602584D02*
X7962584Y2000000D01*
X7270000Y2580000D02*
X7922500Y1927500D01*
X8487500D01*
X6390000Y2010000D02*
X6630000Y1770000D01*
X6070000Y2010000D02*
X6390000D01*
X6480000Y2090000D02*
X6800000Y1770000D01*
X6120000Y2090000D02*
X6480000D01*
X6430000Y1390000D02*
X6432909Y1387091D01*
X4230000Y1899000D02*
X5801000D01*
X6370000Y1330000D01*
X3750000Y2240000D02*
X4495000D01*
X4675000Y2060000D01*
X5660000Y2920000D02*
X6087470D01*
X5580000Y3000000D02*
Y3110000D01*
Y3000000D02*
X5660000Y2920000D01*
X6087470D02*
X6579970Y3412500D01*
X8139969Y2927500D02*
X9297561D01*
X10100000Y2120000D02*
Y2125061D01*
X9297561Y2927500D02*
X10100000Y2125061D01*
X6579970Y3412500D02*
X7507500D01*
X6500000Y3500000D02*
X7567469D01*
X5990000Y2990000D02*
X6500000Y3500000D01*
X5710000Y2990000D02*
X5990000D01*
X7567469Y3500000D02*
X8139969Y2927500D01*
X5660000Y3040000D02*
X5710000Y2990000D01*
X3758639Y795000D02*
X6511028D01*
X6870000Y436028D01*
Y280000D02*
Y436028D01*
Y280000D02*
X7010000Y140000D01*
X3020000Y1470000D02*
X3740000Y750000D01*
X3710000Y690000D02*
X5100028D01*
X5380000Y410028D01*
X3690000Y630000D02*
X5008000D01*
X2977501Y1422500D02*
X3710000Y690000D01*
X2883735Y1253735D02*
X3607469Y530000D01*
X5380000Y250000D02*
Y410028D01*
X3665000Y575000D02*
X4961028D01*
X5121305Y414722D01*
X5008000Y630000D02*
X5238000Y400000D01*
X5121305Y248695D02*
Y414722D01*
X3038639Y1515000D02*
X3758639Y795000D01*
X4854000Y530000D02*
X4980000Y404000D01*
X2907500Y1332500D02*
X3665000Y575000D01*
X2942500Y1377500D02*
X3690000Y630000D01*
X3740000Y750000D02*
X5142000D01*
X3607469Y530000D02*
X4854000D01*
X4980000Y400000D02*
Y404000D01*
X5142000Y750000D02*
X5480000Y412000D01*
Y400000D02*
Y412000D01*
X6884028Y930000D02*
X7380000Y434028D01*
Y290000D02*
X7520000Y150000D01*
X7380000Y290000D02*
Y434028D01*
X7145305Y264695D02*
X7270000Y140000D01*
X7145305Y264695D02*
Y414723D01*
X6941001Y975000D02*
X7506000Y410000D01*
X3833198Y975000D02*
X6941001D01*
X7506000Y410000D02*
X7510000D01*
X3814558Y930000D02*
X6884028D01*
X6720028Y840000D02*
X7145305Y414723D01*
X7262000Y400000D02*
X7270000D01*
X3795918Y885000D02*
X6777000D01*
X7262000Y400000D01*
X3777279Y840000D02*
X6720028D01*
X3057279Y1560000D02*
X3777279Y840000D01*
X3075918Y1605000D02*
X3795918Y885000D01*
X3113197Y1695000D02*
X3833198Y975000D01*
X3094558Y1650000D02*
X3814558Y930000D01*
X3010000Y1650000D02*
X3094558D01*
X3010000Y1650000D02*
X3010000Y1650000D01*
X2340000Y1560000D02*
X3057279D01*
X2732500Y1422500D02*
X2977501D01*
X2859970Y1332500D02*
X2907500D01*
X2640000Y1470000D02*
X3020000D01*
X2255000Y1515000D02*
X3038639D01*
X2804969Y1377500D02*
X2942500D01*
X2790000Y1262530D02*
X2859970Y1332500D01*
X2510000Y1340000D02*
X2640000Y1470000D01*
X2610000Y1300000D02*
X2732500Y1422500D01*
X2777500Y1695000D02*
X3113197D01*
X2750000Y1722500D02*
X2777500Y1695000D01*
X2629471Y1650000D02*
X3010000D01*
X2590000Y1680000D02*
X2599471D01*
X2629471Y1650000D01*
X2555000Y1605000D02*
X3075918D01*
X2000000Y1770000D02*
X2255000Y1515000D01*
X2130000Y1770000D02*
X2340000Y1560000D01*
X2480000Y1680000D02*
X2555000Y1605000D01*
X2480000Y1680000D02*
Y1809792D01*
X2259794Y2029998D02*
X2480000Y1809792D01*
X2639985Y1212515D02*
X2804969Y1377500D01*
X1790000Y1950000D02*
X1868861Y2028861D01*
X5121305Y248695D02*
X5227473Y142527D01*
X5380000Y250000D02*
X5481472Y148528D01*
X2392515Y1212515D02*
X2639985D01*
X2259896Y1079896D02*
X2392515Y1212515D01*
X2790000Y1260000D02*
Y1262530D01*
X12248000Y1590000D02*
X12260000D01*
X3710000Y140000D02*
Y150000D01*
X3960000Y1631000D02*
X3975000Y1616000D01*
X4860000Y3350000D02*
X6120000Y2090000D01*
X4830001Y3249999D02*
X6070000Y2010000D01*
X2170000Y3250000D02*
X2270000Y3350000D01*
X2279999Y3249999D02*
X4830001D01*
X2270000Y3350000D02*
X4860000D01*
X1860000Y1220000D02*
X2000000Y1080000D01*
X1840000Y2440000D02*
Y2682531D01*
X1590000Y2932530D02*
Y3826672D01*
Y2932530D02*
X1840000Y2682531D01*
X7310000Y2707855D02*
Y2710000D01*
X3190000Y400000D02*
X3206000D01*
X3960000Y1631000D02*
X3975000Y1646000D01*
X1790000Y1169471D02*
X1870000Y1089471D01*
X1790000Y1169471D02*
Y1950000D01*
X1860000Y1890000D02*
X2000000Y2030000D01*
X1860000Y1220000D02*
Y1890000D01*
X1870000Y1080000D02*
Y1089471D01*
X1927500Y1282500D02*
X2130000Y1080000D01*
X1927500Y1282500D02*
Y1827500D01*
X2130000Y2030000D01*
X7190000Y2710000D02*
X7250000Y2770000D01*
X7270000Y2667855D02*
X7310000Y2707855D01*
X9760000Y1260000D02*
Y1260000D01*
Y1260000D02*
X10210000Y810000D01*
X11000000D01*
X7270000Y2580000D02*
Y2667855D01*
X9240000Y1860000D02*
X9380000Y2000000D01*
X8487500Y1927500D02*
X8560000Y2000000D01*
X7390000Y2680529D02*
Y2690000D01*
X7360000Y2650529D02*
X7390000Y2680529D01*
X7360000Y2602584D02*
Y2650529D01*
X7620000Y1790000D02*
X10810000D01*
X7220000Y2190000D02*
X7620000Y1790000D01*
X10810000D02*
X11000000Y1600000D01*
X7150000Y2100000D02*
X7542500Y1707500D01*
X10638500D02*
X10746000Y1600000D01*
X7542500Y1707500D02*
X10638500D01*
X6500000Y4070000D02*
X8390000D01*
X9020000Y3440000D01*
X6350000Y3640000D02*
X6420000D01*
X5772500Y3387500D02*
X6097500D01*
X6350000Y3640000D01*
X5060000Y4100000D02*
X5772500Y3387500D01*
X1863328Y4100000D02*
X5060000D01*
X1590000Y3826672D02*
X1863328Y4100000D01*
X6001163Y3519550D02*
X6010634D01*
X5360184Y4170000D02*
X6010634Y3519550D01*
X5144235Y4165765D02*
X5850000Y3460000D01*
X1135765Y4165765D02*
X5144235D01*
X1090000Y4230000D02*
X5300000D01*
X5360000Y4170000D01*
X4675000Y2060000D02*
X5420000D01*
X360000Y3390000D02*
X1135765Y4165765D01*
X360000Y3500000D02*
X1090000Y4230000D01*
X5660000Y4290000D02*
X5750000Y4200000D01*
X1040000Y4290000D02*
X5660000D01*
X360000Y3610000D02*
X1040000Y4290000D01*
X5750000Y4350000D02*
X5880000Y4220000D01*
X880000Y4350000D02*
X5750000D01*
X360000Y3830000D02*
X880000Y4350000D01*
X362530Y4050000D02*
X722530Y4410000D01*
X5820000D02*
X5990000Y4240000D01*
X722530Y4410000D02*
X5820000D01*
X360000Y4050000D02*
X362530D01*
X360000Y4150000D02*
X680000Y4470000D01*
X5750000Y4120000D02*
Y4200000D01*
X5880000Y4120000D02*
Y4220000D01*
X680000Y4470000D02*
X5890000D01*
X6100000Y4260000D01*
X5990000Y4120000D02*
Y4240000D01*
X6100000Y4120000D02*
Y4260000D01*
X9177500Y2072500D02*
X9250000Y2000000D01*
X8430000D02*
X8502500Y2072500D01*
X11603101Y897500D02*
X11750000Y1044399D01*
Y1050000D01*
X10492000D02*
X10644500Y897500D01*
X11603101D01*
X12004000Y1050000D02*
X12010000Y1044000D01*
X11874000Y1180000D02*
X12004000Y1050000D01*
X11681876Y1180000D02*
X11874000D01*
X12010000Y1040000D02*
Y1044000D01*
X11627231Y985269D02*
Y1125355D01*
X11681876Y1180000D01*
X11584462Y942500D02*
X11627231Y985269D01*
X10746000Y1050000D02*
X10853500Y942500D01*
X11584462D01*
X11496000Y1050000D02*
X11500000D01*
X11366000Y1180000D02*
X11496000Y1050000D01*
X10368000Y1180000D02*
X11366000D01*
X10238000Y1050000D02*
X10368000Y1180000D01*
X6207500Y2432500D02*
X6210000Y2430000D01*
D52*
X1150000Y880000D02*
X1189287Y840713D01*
X1270000Y680000D02*
Y686066D01*
X1189287Y766779D02*
Y840713D01*
Y766779D02*
X1270000Y686066D01*
Y1630000D02*
X1276568Y1636568D01*
X1270000Y1160000D02*
Y1630000D01*
X5197426Y2350000D02*
X5200000D01*
X1150000Y880000D02*
Y1040000D01*
X1270000Y1160000D01*
D53*
X3540000Y1430000D02*
X3925000Y1045000D01*
X9395000D01*
X9970000Y1620000D01*
X4480000Y2310000D02*
X5157426D01*
X5197426Y2350000D01*
X3730000Y2630000D02*
X4160000D01*
X4480000Y2310000D01*
X3530000Y2440208D02*
X3717879Y2628087D01*
X3530000Y2070000D02*
Y2440208D01*
X3717879Y2628087D02*
X3728087D01*
X3730000Y2630000D01*
X8100000Y3170000D02*
X8370000D01*
X9690000Y3350000D02*
X10520000D01*
X11340000Y1850000D02*
X11475000Y1985000D01*
X11340000Y1850000D02*
X11340000D01*
X11475000Y1985000D02*
Y3015000D01*
X11380000Y3110000D02*
X11475000Y3015000D01*
X1070000Y1320000D02*
Y2060000D01*
X1170000Y2160000D01*
X1070000Y1320000D02*
X1180000Y1210000D01*
D54*
X1456005Y295000D02*
X2595000D01*
X2700000Y400000D01*
X2698000Y146000D02*
X2700000Y144000D01*
X2589000Y255000D02*
X2698000Y146000D01*
X1439437Y255000D02*
X2589000D01*
X2700000Y140000D02*
Y144000D01*
X736500Y1014505D02*
X1456005Y295000D01*
X696500Y997937D02*
X1439437Y255000D01*
X736500Y1014505D02*
Y1336172D01*
X581500Y1491173D02*
X736500Y1336172D01*
X581500Y1491173D02*
Y1659500D01*
X696500Y997937D02*
Y1232740D01*
X495500Y1433740D02*
X696500Y1232740D01*
X495500Y1433740D02*
Y1954500D01*
X581500Y2040500D01*
X1950000Y904000D02*
X2306000D01*
X1726000Y680000D02*
X1950000Y904000D01*
X2306000D02*
X2380000Y830000D01*
X5360000Y3560000D02*
X5625065Y3294936D01*
X2059999Y3850000D02*
X2350000Y3560000D01*
X5360000D01*
X2310000Y3490000D02*
X5330001D01*
X1950000Y3850000D02*
X2310000Y3490000D01*
X5330001D02*
X5595065Y3224936D01*
X5824936D01*
X5865064Y3294936D02*
X5910000Y3250000D01*
X5625065Y3294936D02*
X5865064D01*
X6215021Y3334936D02*
X6418808Y3538723D01*
X5675065Y3334936D02*
X6215021D01*
X4980000Y4030000D02*
X5675065Y3334936D01*
X2380000Y822499D02*
Y830000D01*
X2030000Y610000D02*
X2250000Y830000D01*
X1240000Y610000D02*
X2030000D01*
X1170000Y680000D02*
X1240000Y610000D01*
X680000Y1490000D02*
X820000Y1350000D01*
X680000Y1490000D02*
Y1815000D01*
X581500Y1913500D02*
X680000Y1815000D01*
X740000Y2190000D02*
X810000Y2260000D01*
X740000Y1818501D02*
X835500Y1723000D01*
X740000Y1818501D02*
Y2190000D01*
X835500Y1723000D02*
X840000Y1718501D01*
Y1710000D02*
Y1718501D01*
X820000Y1340000D02*
Y1350000D01*
X1370000Y680000D02*
X1726000D01*
X840000Y1730000D02*
X853396D01*
X1660000Y3660000D02*
X2030000Y4030000D01*
X4980000D01*
X1660000Y2960000D02*
Y3660000D01*
Y2960000D02*
X2120000Y2500000D01*
D58*
X7008000Y146000D02*
D03*
X7262000D02*
D03*
X7262000Y400000D02*
D03*
X7516000Y146000D02*
D03*
X7516000Y400000D02*
D03*
X12258000Y1050000D02*
D03*
X12004000D02*
D03*
X11750000D02*
D03*
X12258000Y1600000D02*
D03*
X12004000D02*
D03*
X11750000D02*
D03*
X5492000Y146000D02*
D03*
X6500000Y400000D02*
D03*
X6754000Y146000D02*
D03*
Y400000D02*
D03*
X7008000D02*
D03*
X7770000Y146000D02*
D03*
Y400000D02*
D03*
X8024000Y146000D02*
D03*
X8024000Y400000D02*
D03*
X8278000Y146000D02*
D03*
Y400000D02*
D03*
X8532000Y146000D02*
D03*
Y400000D02*
D03*
X8786000Y146000D02*
D03*
Y400000D02*
D03*
X9040000Y146000D02*
D03*
Y400000D02*
D03*
X9294000Y146000D02*
D03*
X9294000Y400000D02*
D03*
X9548000Y146000D02*
D03*
X9548000Y400000D02*
D03*
X9802000Y146000D02*
D03*
Y400000D02*
D03*
X10056000Y146000D02*
D03*
Y400000D02*
D03*
X10310000Y146000D02*
D03*
X10310000Y400000D02*
D03*
X10564000Y146000D02*
D03*
Y400000D02*
D03*
X10818000Y146000D02*
D03*
Y400000D02*
D03*
X1682000D02*
D03*
X1936000Y146000D02*
D03*
Y400000D02*
D03*
X2190001Y146000D02*
D03*
X2190000Y400000D02*
D03*
X2444000Y146000D02*
D03*
X2444000Y400000D02*
D03*
X2698000Y146000D02*
D03*
X2698000Y400000D02*
D03*
X2952000Y146000D02*
D03*
Y400000D02*
D03*
X3206000Y146000D02*
D03*
X3206000Y400000D02*
D03*
X3460000Y146000D02*
D03*
X3460000Y400000D02*
D03*
X3714000Y146000D02*
D03*
Y400000D02*
D03*
X3968000Y146000D02*
D03*
Y400000D02*
D03*
X4222000Y146000D02*
D03*
Y400000D02*
D03*
X4476001Y146000D02*
D03*
X4476000Y400000D02*
D03*
X4730000Y146000D02*
D03*
X4730000Y400000D02*
D03*
X4984000Y146000D02*
D03*
Y400000D02*
D03*
X5238000Y146000D02*
D03*
Y400000D02*
D03*
X5492000D02*
D03*
X5746000Y146000D02*
D03*
X5746000Y400000D02*
D03*
X6000000Y146000D02*
D03*
X6000000Y400000D02*
D03*
X4229000Y1646000D02*
D03*
X3975000Y1900000D02*
D03*
Y1646000D02*
D03*
X3721000Y1900000D02*
D03*
Y1646000D02*
D03*
X11000000Y1600000D02*
D03*
X10746000D02*
D03*
X10492000D02*
D03*
X11000000Y1050000D02*
D03*
X10746000D02*
D03*
X10492000D02*
D03*
X6500000Y4596000D02*
D03*
X6500000Y4850000D02*
D03*
X6754000Y4596000D02*
D03*
Y4850000D02*
D03*
X7008000Y4596000D02*
D03*
X7008000Y4850000D02*
D03*
X7262000Y4596000D02*
D03*
Y4850000D02*
D03*
X7516000Y4596000D02*
D03*
Y4850000D02*
D03*
X7770000Y4596000D02*
D03*
X7770000Y4850000D02*
D03*
X8024000Y4596000D02*
D03*
X8024000Y4850000D02*
D03*
X8278000Y4596000D02*
D03*
Y4850000D02*
D03*
X8532000Y4596000D02*
D03*
Y4850000D02*
D03*
X8786000Y4596000D02*
D03*
X8786000Y4850000D02*
D03*
X9040000Y4596000D02*
D03*
Y4850000D02*
D03*
X9294000Y4596000D02*
D03*
X9294000Y4850000D02*
D03*
X9548000Y4596000D02*
D03*
Y4850000D02*
D03*
X9802000Y4596000D02*
D03*
X9802000Y4850000D02*
D03*
X10056000Y4596000D02*
D03*
X10056000Y4850000D02*
D03*
X10310000Y4596000D02*
D03*
Y4850000D02*
D03*
X10564000Y4596000D02*
D03*
Y4850000D02*
D03*
X10818000Y4596000D02*
D03*
X1682000D02*
D03*
Y4850000D02*
D03*
X1936000Y4596000D02*
D03*
X1936000Y4850000D02*
D03*
X2190000Y4596000D02*
D03*
Y4850000D02*
D03*
X2444000Y4596000D02*
D03*
Y4850000D02*
D03*
X2698000Y4596000D02*
D03*
Y4850000D02*
D03*
X2952000Y4596000D02*
D03*
X2952000Y4850000D02*
D03*
X3206000Y4596000D02*
D03*
X3206000Y4850000D02*
D03*
X3460000Y4596000D02*
D03*
Y4850000D02*
D03*
X3714000Y4596000D02*
D03*
Y4850000D02*
D03*
X3968000Y4596000D02*
D03*
Y4850000D02*
D03*
X4222000Y4596000D02*
D03*
X4222000Y4850000D02*
D03*
X4476000Y4596000D02*
D03*
Y4850000D02*
D03*
X4730000Y4596000D02*
D03*
Y4850000D02*
D03*
X4984000Y4596000D02*
D03*
Y4850000D02*
D03*
X5238000Y4596000D02*
D03*
Y4850000D02*
D03*
X5492000Y4596000D02*
D03*
X5492000Y4850000D02*
D03*
X5746000Y4596000D02*
D03*
Y4850000D02*
D03*
X6000000Y4596000D02*
D03*
D59*
X11496000Y1050000D02*
D03*
X11496000Y1600000D02*
D03*
X6500000Y146000D02*
D03*
X1682000D02*
D03*
X4229000Y1900000D02*
D03*
X10238000Y1600000D02*
D03*
Y1050000D02*
D03*
X10818000Y4850000D02*
D03*
X6000000D02*
D03*
D60*
X454500Y1132500D02*
D03*
Y2567500D02*
D03*
D61*
X835500Y1596000D02*
D03*
D62*
X835500Y1723000D02*
D03*
Y1850000D02*
D03*
Y1977000D02*
D03*
Y2104000D02*
D03*
X581500Y1659500D02*
D03*
X581500Y1786500D02*
D03*
Y1913500D02*
D03*
X581500Y2040500D02*
D03*
D63*
X12350000Y2155000D02*
D03*
Y2990000D02*
D03*
D64*
X12050000Y2795000D02*
D03*
X12050000Y2350000D02*
D03*
D65*
X12140000Y4030000D02*
D03*
Y3530000D02*
D03*
D66*
X3100008Y2500000D02*
D03*
X3354000Y2245992D02*
D03*
Y2753992D02*
D03*
X2846000D02*
D03*
Y2245992D02*
D03*
D67*
X8880000Y2770000D02*
D03*
X8570000Y2490000D02*
D03*
X8720000Y2770000D02*
D03*
X8800000Y2410000D02*
D03*
X8060000Y2710000D02*
D03*
X8360000Y2500000D02*
D03*
X7900000Y2430000D02*
D03*
Y2230000D02*
D03*
X7020000Y2720000D02*
D03*
X7130000Y2190000D02*
D03*
X7320000Y2300000D02*
D03*
X7240000Y2370000D02*
D03*
X7900000Y2330000D02*
D03*
X6630000Y1770000D02*
D03*
X6800000D02*
D03*
X1380000Y1630000D02*
D03*
X6160009Y1337500D02*
D03*
X6370000Y1330000D02*
D03*
X10050000Y1970000D02*
D03*
X3730000Y2520000D02*
D03*
X2520000Y2230000D02*
D03*
X9561265Y2561265D02*
D03*
X10100000Y2120000D02*
D03*
X6610000Y3340000D02*
D03*
X6760000Y3225000D02*
D03*
X6837978Y3080000D02*
D03*
X6685040Y3274960D02*
D03*
X6740000Y2950000D02*
D03*
X6980000Y3080000D02*
D03*
X5820000Y3062500D02*
D03*
X2750000Y1722500D02*
D03*
X2590000Y1680000D02*
D03*
X2380000Y1770000D02*
D03*
X2000000D02*
D03*
X2250000D02*
D03*
X2130000D02*
D03*
X2259794Y2029998D02*
D03*
X1870000Y2030000D02*
D03*
X2520916Y1871406D02*
D03*
X2883735Y1253735D02*
D03*
X2610000Y1300000D02*
D03*
X2510000Y1340000D02*
D03*
X2790000Y1260000D02*
D03*
X2507485Y1140015D02*
D03*
X2519969Y982500D02*
D03*
X5910000Y3250000D02*
D03*
X2059999Y3850000D02*
D03*
X5824936Y3224936D02*
D03*
X2380000Y822499D02*
D03*
X2254000Y834000D02*
D03*
X2127000Y830000D02*
D03*
X2000000D02*
D03*
Y1080000D02*
D03*
X1530000Y2880000D02*
D03*
X1550000Y2500000D02*
D03*
X6750000Y2230000D02*
D03*
X7310000Y2710000D02*
D03*
X5220000Y2750000D02*
D03*
X5140000Y2670000D02*
D03*
X2259896Y1079896D02*
D03*
X2380000Y1080000D02*
D03*
Y2030000D02*
D03*
X1270000Y680000D02*
D03*
X830000Y1190000D02*
D03*
Y1340000D02*
D03*
X810000Y2260000D02*
D03*
Y2410000D02*
D03*
X1750000Y1080000D02*
D03*
X5520000Y2040000D02*
D03*
X5785104Y2035104D02*
D03*
X7220000Y2270000D02*
D03*
X3750000Y2240000D02*
D03*
X1170000Y1630000D02*
D03*
X1180000Y1210000D02*
D03*
X1170000Y680000D02*
D03*
X1370000D02*
D03*
X2130000Y2030000D02*
D03*
X1620000D02*
D03*
X1750000D02*
D03*
X2000000D02*
D03*
X1870000Y1080000D02*
D03*
X2130000D02*
D03*
X7250000Y2770000D02*
D03*
X8430000Y2000000D02*
D03*
X9760000Y1260000D02*
D03*
X11000000Y810000D02*
D03*
X7390000Y2690000D02*
D03*
X7150000Y2100000D02*
D03*
X7440046Y2625069D02*
D03*
X9020000Y3440000D02*
D03*
X6500000Y4070000D02*
D03*
X7710000Y2580000D02*
D03*
X1950000Y3850000D02*
D03*
X1510000Y3250000D02*
D03*
X6010634Y3519550D02*
D03*
X5580000Y3120000D02*
D03*
X5850000Y3460000D02*
D03*
X6420000Y3640000D02*
D03*
X6418808Y3538723D02*
D03*
X3850000Y2160000D02*
D03*
X2170000Y3250000D02*
D03*
X1870000Y3250000D02*
D03*
X5240000Y2250000D02*
D03*
X5060000Y2600000D02*
D03*
X1840000Y2440000D02*
D03*
X3730000Y2630000D02*
D03*
X3850000Y2350000D02*
D03*
X4160000Y2340000D02*
D03*
X360000Y4150000D02*
D03*
X6080000Y3580000D02*
D03*
X3240000Y3650000D02*
D03*
X360000Y3390000D02*
D03*
Y3500000D02*
D03*
Y3610000D02*
D03*
Y3830000D02*
D03*
Y4050000D02*
D03*
X320000Y3140000D02*
D03*
X350000Y4280000D02*
D03*
X360000Y3720000D02*
D03*
Y3940000D02*
D03*
X7512500Y2572500D02*
D03*
X8560000Y2000000D02*
D03*
X8170000Y3000000D02*
D03*
X8300000D02*
D03*
X9000000D02*
D03*
X9130000D02*
D03*
X9250000Y2000000D02*
D03*
X9380000D02*
D03*
X9020000Y3330000D02*
D03*
X1300000Y2380000D02*
D03*
X2120000Y2500000D02*
D03*
X1619000Y1081000D02*
D03*
X2279999Y3249999D02*
D03*
X1730103Y3249896D02*
D03*
X2390000Y3850000D02*
D03*
X5420000Y2060000D02*
D03*
X6210000Y2430000D02*
D03*
X4680000Y2220000D02*
D03*
X5750000Y4120000D02*
D03*
X5880000D02*
D03*
X6100000D02*
D03*
X5990000D02*
D03*
X5660000Y3040000D02*
D03*
X6910000Y2040000D02*
D03*
D68*
X1276568Y1636568D02*
D03*
X3540000Y1430000D02*
D03*
X9970000Y1620000D02*
D03*
X1040000Y2780000D02*
D03*
X3530000Y2070000D02*
D03*
X8100000Y3170000D02*
D03*
X8370000D02*
D03*
X6990000Y2870000D02*
D03*
X9690000Y3350000D02*
D03*
X10520000D02*
D03*
X6600000Y3070000D02*
D03*
X11340000Y1850000D02*
D03*
X1950000Y2880000D02*
D03*
X1720000Y2470000D02*
D03*
X1170000Y2160000D02*
D03*
X6740000Y2730000D02*
D03*
X5670000Y2030000D02*
D03*
X2400000Y2500000D02*
D03*
X1730000Y3850000D02*
D03*
X5200000Y2350000D02*
D03*
X11380000Y3110000D02*
D03*
Y2960000D02*
D03*
X10870000Y2870000D02*
D03*
X10640000D02*
D03*
X6990000Y2222530D02*
D03*
X5910000Y3140000D02*
D03*
D69*
X11375000Y4450000D02*
D03*
X12175000Y2300000D02*
D03*
X6250000Y1150000D02*
D03*
D70*
X1350000Y1840000D02*
D03*
Y1940000D02*
D03*
X1250000Y1840000D02*
D03*
Y1940000D02*
D03*
X1350000Y890001D02*
D03*
X1350000Y990000D02*
D03*
X1250000Y890000D02*
D03*
Y990000D02*
D03*
D71*
X12200000Y300000D02*
D03*
Y4700000D02*
D03*
X300000Y300000D02*
D03*
Y4700000D02*
D03*
%TF.MD5,07c985a12a8bf1dcb9f920922a297e5c*%
M02*
