%TF.GenerationSoftware,Altium Limited,Altium Designer,22.1.2 (22)*%
G04 Layer_Color=128*
%FSLAX45Y45*%
%MOMM*%
%TF.SameCoordinates,5EC5152B-D9DC-4A70-AFCB-378F050BE7B4*%
%TF.FilePolarity,Positive*%
%TF.FileFunction,Paste,Bot*%
%TF.Part,Single*%
G01*
G75*
%TA.AperFunction,SMDPad,CuDef*%
%ADD13R,1.00000X1.10000*%
%ADD18R,0.90000X0.70000*%
%ADD21R,0.90000X0.80000*%
%ADD35R,1.10000X1.00000*%
%ADD44R,0.70000X0.90000*%
%ADD73R,0.60000X1.55000*%
%ADD74R,0.70000X0.85000*%
%ADD75R,0.85000X0.70000*%
%ADD76O,0.50000X2.00000*%
%ADD77R,0.50000X2.00000*%
%ADD78R,1.60000X1.50000*%
G04:AMPARAMS|DCode=79|XSize=0.85mm|YSize=0.25mm|CornerRadius=0.125mm|HoleSize=0mm|Usage=FLASHONLY|Rotation=90.000|XOffset=0mm|YOffset=0mm|HoleType=Round|Shape=RoundedRectangle|*
%AMROUNDEDRECTD79*
21,1,0.85000,0.00000,0,0,90.0*
21,1,0.60000,0.25000,0,0,90.0*
1,1,0.25000,0.00000,0.30000*
1,1,0.25000,0.00000,-0.30000*
1,1,0.25000,0.00000,-0.30000*
1,1,0.25000,0.00000,0.30000*
%
%ADD79ROUNDEDRECTD79*%
D13*
X10820000Y3020000D02*
D03*
X10640000D02*
D03*
X11190000Y3250000D02*
D03*
X11370000D02*
D03*
X10415000Y1850000D02*
D03*
X10235000D02*
D03*
X11485000D02*
D03*
X11665000D02*
D03*
X1550000Y4021925D02*
D03*
X1730000D02*
D03*
X5910000Y2610000D02*
D03*
X6090000D02*
D03*
X5910000Y2430000D02*
D03*
X6090000D02*
D03*
D18*
X6780000Y2030000D02*
D03*
Y1880000D02*
D03*
X6630000Y2030000D02*
D03*
Y1880000D02*
D03*
D21*
X2770000Y1845000D02*
D03*
X2630000D02*
D03*
Y1955000D02*
D03*
X2770000D02*
D03*
Y1005000D02*
D03*
X2630000D02*
D03*
Y895000D02*
D03*
X2770000D02*
D03*
D35*
X6290000Y2600000D02*
D03*
Y2780000D02*
D03*
X6450000Y3325000D02*
D03*
Y3145000D02*
D03*
X6250000Y3325000D02*
D03*
Y3145000D02*
D03*
X6150000Y1625000D02*
D03*
Y1805000D02*
D03*
X6350000Y1625000D02*
D03*
Y1805000D02*
D03*
X6050000Y3325000D02*
D03*
Y3145000D02*
D03*
D44*
X5925000Y2790000D02*
D03*
X6075000D02*
D03*
D73*
X2381000Y680000D02*
D03*
X2254000D02*
D03*
X2127000D02*
D03*
X2000000D02*
D03*
X1873000D02*
D03*
X1746000D02*
D03*
X1619000D02*
D03*
Y1220000D02*
D03*
X1746000D02*
D03*
X1873000D02*
D03*
X2000000D02*
D03*
X2127000D02*
D03*
X2254000D02*
D03*
X2381000D02*
D03*
Y2170000D02*
D03*
X2254000D02*
D03*
X2127000D02*
D03*
X2000000D02*
D03*
X1873000D02*
D03*
X1746000D02*
D03*
X1619000D02*
D03*
Y1630000D02*
D03*
X1746000D02*
D03*
X1873000D02*
D03*
X2000000D02*
D03*
X2127000D02*
D03*
X2254000D02*
D03*
X2381000D02*
D03*
D74*
X6500000Y2785000D02*
D03*
Y2630000D02*
D03*
D75*
X6067500Y2250000D02*
D03*
X5912500D02*
D03*
D76*
X8719000Y2800000D02*
D03*
X8846000D02*
D03*
X8973000D02*
D03*
X9100000D02*
D03*
X8719000Y2200000D02*
D03*
X8846000D02*
D03*
X8973000D02*
D03*
X8119000Y2800000D02*
D03*
X8246000D02*
D03*
X8373000D02*
D03*
X8500000D02*
D03*
X8119000Y2200000D02*
D03*
X8246000D02*
D03*
X8373000D02*
D03*
D77*
X9100000D02*
D03*
X8500000D02*
D03*
D78*
X1300000Y1900000D02*
D03*
Y950000D02*
D03*
D79*
X1375000Y805000D02*
D03*
X1325000D02*
D03*
X1275000D02*
D03*
X1225000D02*
D03*
Y1095000D02*
D03*
X1275000D02*
D03*
X1325000D02*
D03*
X1375000D02*
D03*
X1374999Y1755000D02*
D03*
X1324999D02*
D03*
X1275000D02*
D03*
X1225000D02*
D03*
Y2045000D02*
D03*
X1275000D02*
D03*
X1324999D02*
D03*
X1374999D02*
D03*
%TF.MD5,705c0ef44aad91bc20b872478866960e*%
M02*
