%TF.GenerationSoftware,Altium Limited,Altium Designer,22.1.2 (22)*%
G04 Layer_Color=2752767*
%FSLAX45Y45*%
%MOMM*%
%TF.SameCoordinates,69A41402-0A08-4178-9E70-C708664AA264*%
%TF.FilePolarity,Positive*%
%TF.FileFunction,Drawing*%
%TF.Part,Single*%
G01*
G75*
%TA.AperFunction,NonConductor*%
%ADD177C,0.12700*%
%ADD178C,0.16933*%
%ADD179C,0.10160*%
D177*
X6957200Y95200D02*
Y196800D01*
X7058800D01*
Y95200D01*
X6957200D01*
X7211200D02*
Y196800D01*
X7312800D01*
Y95200D01*
X7211200D01*
X7211200Y349200D02*
Y450800D01*
X7312800D01*
Y349200D01*
X7211200D01*
X7465200Y95200D02*
Y196800D01*
X7566800D01*
Y95200D01*
X7465200D01*
X7465200Y349200D02*
Y450800D01*
X7566800D01*
Y349200D01*
X7465200D01*
X12207200Y999200D02*
Y1100800D01*
X12308800D01*
Y999200D01*
X12207200D01*
X11953200D02*
Y1100800D01*
X12054800D01*
Y999200D01*
X11953200D01*
X11699200D02*
Y1100800D01*
X11800800D01*
Y999200D01*
X11699200D01*
X11445200D02*
Y1100800D01*
X11546800D01*
Y999200D01*
X11445200D01*
X835500Y1545200D02*
X784700Y1646800D01*
X886300D01*
X835500Y1545200D01*
X835500Y1672200D02*
X784700Y1773800D01*
X886300D01*
X835500Y1672200D01*
Y1799200D02*
X784700Y1900800D01*
X886300D01*
X835500Y1799200D01*
Y1926200D02*
X784700Y2027800D01*
X886300D01*
X835500Y1926200D01*
Y2053200D02*
X784700Y2154800D01*
X886300D01*
X835500Y2053200D01*
X581500Y1608700D02*
X530700Y1710300D01*
X632300D01*
X581500Y1608700D01*
X581500Y1735700D02*
X530700Y1837300D01*
X632300D01*
X581500Y1735700D01*
Y1862700D02*
X530700Y1964300D01*
X632300D01*
X581500Y1862700D01*
X581500Y1989700D02*
X530700Y2091300D01*
X632300D01*
X581500Y1989700D01*
X12350000Y2104200D02*
X12375400Y2129600D01*
X12400800D01*
X12375400Y2155000D01*
X12400800Y2180400D01*
X12375400D01*
X12350000Y2205800D01*
X12324600Y2180400D01*
X12299200D01*
X12324600Y2155000D01*
X12299200Y2129600D01*
X12324600D01*
X12350000Y2104200D01*
Y2939200D02*
X12375400Y2964600D01*
X12400800D01*
X12375400Y2990000D01*
X12400800Y3015400D01*
X12375400D01*
X12350000Y3040800D01*
X12324600Y3015400D01*
X12299200D01*
X12324600Y2990000D01*
X12299200Y2964600D01*
X12324600D01*
X12350000Y2939200D01*
X11999200Y2744200D02*
X12024600Y2795000D01*
X11999200Y2845800D01*
X12050000Y2820400D01*
X12100800Y2845800D01*
X12075400Y2795000D01*
X12100800Y2744200D01*
X12050000Y2769600D01*
X11999200Y2744200D01*
X11999200Y2299200D02*
X12024600Y2350000D01*
X11999200Y2400800D01*
X12050000Y2375400D01*
X12100800Y2400800D01*
X12075400Y2350000D01*
X12100800Y2299200D01*
X12050000Y2324600D01*
X11999200Y2299200D01*
X12207200Y1549200D02*
Y1650800D01*
X12308800D01*
Y1549200D01*
X12207200D01*
X11953200D02*
Y1650800D01*
X12054800D01*
Y1549200D01*
X11953200D01*
X11699200D02*
Y1650800D01*
X11800800D01*
Y1549200D01*
X11699200D01*
X11445200D02*
Y1650800D01*
X11546800D01*
Y1549200D01*
X11445200D01*
X12114600Y4004600D02*
Y3979200D01*
X12165400D01*
Y4004600D01*
X12190800D01*
Y4055400D01*
X12165400D01*
Y4080800D01*
X12114600D01*
Y4055400D01*
X12089200D01*
Y4004600D01*
X12114600D01*
Y3504600D02*
Y3479200D01*
X12165400D01*
Y3504600D01*
X12190800D01*
Y3555400D01*
X12165400D01*
Y3580800D01*
X12114600D01*
Y3555400D01*
X12089200D01*
Y3504600D01*
X12114600D01*
X3049208Y2449200D02*
X3074608D01*
X3100008Y2474600D01*
X3125408Y2449200D01*
X3150808D01*
Y2474600D01*
X3125408Y2500000D01*
X3150808Y2525400D01*
Y2550800D01*
X3125408D01*
X3100008Y2525400D01*
X3074608Y2550800D01*
X3049208D01*
Y2525400D01*
X3074608Y2500000D01*
X3049208Y2474600D01*
Y2449200D01*
X3303200Y2195192D02*
X3328600D01*
X3354000Y2220592D01*
X3379400Y2195192D01*
X3404800D01*
Y2220592D01*
X3379400Y2245992D01*
X3404800Y2271392D01*
Y2296792D01*
X3379400D01*
X3354000Y2271392D01*
X3328600Y2296792D01*
X3303200D01*
Y2271392D01*
X3328600Y2245992D01*
X3303200Y2220592D01*
Y2195192D01*
Y2703192D02*
X3328600D01*
X3354000Y2728592D01*
X3379400Y2703192D01*
X3404800D01*
Y2728592D01*
X3379400Y2753992D01*
X3404800Y2779392D01*
Y2804792D01*
X3379400D01*
X3354000Y2779392D01*
X3328600Y2804792D01*
X3303200D01*
Y2779392D01*
X3328600Y2753992D01*
X3303200Y2728592D01*
Y2703192D01*
X2795200D02*
X2820600D01*
X2846000Y2728592D01*
X2871400Y2703192D01*
X2896800D01*
Y2728592D01*
X2871400Y2753992D01*
X2896800Y2779392D01*
Y2804792D01*
X2871400D01*
X2846000Y2779392D01*
X2820600Y2804792D01*
X2795200D01*
Y2779392D01*
X2820600Y2753992D01*
X2795200Y2728592D01*
Y2703192D01*
Y2195192D02*
X2820600D01*
X2846000Y2220592D01*
X2871400Y2195192D01*
X2896800D01*
Y2220592D01*
X2871400Y2245992D01*
X2896800Y2271392D01*
Y2296792D01*
X2871400D01*
X2846000Y2271392D01*
X2820600Y2296792D01*
X2795200D01*
Y2271392D01*
X2820600Y2245992D01*
X2795200Y2220592D01*
Y2195192D01*
X5441200Y95200D02*
Y196800D01*
X5542800D01*
Y95200D01*
X5441200D01*
X6449200D02*
Y196800D01*
X6550800D01*
Y95200D01*
X6449200D01*
Y349200D02*
Y450800D01*
X6550800D01*
Y349200D01*
X6449200D01*
X6703200Y95200D02*
Y196800D01*
X6804800D01*
Y95200D01*
X6703200D01*
Y349200D02*
Y450800D01*
X6804800D01*
Y349200D01*
X6703200D01*
X6957200D02*
Y450800D01*
X7058800D01*
Y349200D01*
X6957200D01*
X7719200Y95200D02*
Y196800D01*
X7820800D01*
Y95200D01*
X7719200D01*
Y349200D02*
Y450800D01*
X7820800D01*
Y349200D01*
X7719200D01*
X7973200Y95200D02*
Y196800D01*
X8074800D01*
Y95200D01*
X7973200D01*
X7973200Y349200D02*
Y450800D01*
X8074800D01*
Y349200D01*
X7973200D01*
X8227200Y95200D02*
Y196800D01*
X8328800D01*
Y95200D01*
X8227200D01*
Y349200D02*
Y450800D01*
X8328800D01*
Y349200D01*
X8227200D01*
X8481200Y95200D02*
Y196800D01*
X8582800D01*
Y95200D01*
X8481200D01*
Y349200D02*
Y450800D01*
X8582800D01*
Y349200D01*
X8481200D01*
X8735200Y95200D02*
Y196800D01*
X8836800D01*
Y95200D01*
X8735200D01*
Y349200D02*
Y450800D01*
X8836800D01*
Y349200D01*
X8735200D01*
X8989200Y95200D02*
Y196800D01*
X9090800D01*
Y95200D01*
X8989200D01*
Y349200D02*
Y450800D01*
X9090800D01*
Y349200D01*
X8989200D01*
X9243200Y95200D02*
Y196800D01*
X9344800D01*
Y95200D01*
X9243200D01*
X9243200Y349200D02*
Y450800D01*
X9344800D01*
Y349200D01*
X9243200D01*
X9497200Y95200D02*
Y196800D01*
X9598800D01*
Y95200D01*
X9497200D01*
X9497200Y349200D02*
Y450800D01*
X9598800D01*
Y349200D01*
X9497200D01*
X9751200Y95200D02*
Y196800D01*
X9852800D01*
Y95200D01*
X9751200D01*
Y349200D02*
Y450800D01*
X9852800D01*
Y349200D01*
X9751200D01*
X10005200Y95200D02*
Y196800D01*
X10106800D01*
Y95200D01*
X10005200D01*
Y349200D02*
Y450800D01*
X10106800D01*
Y349200D01*
X10005200D01*
X10259200Y95200D02*
Y196800D01*
X10360800D01*
Y95200D01*
X10259200D01*
X10259200Y349200D02*
Y450800D01*
X10360800D01*
Y349200D01*
X10259200D01*
X10513200Y95200D02*
Y196800D01*
X10614800D01*
Y95200D01*
X10513200D01*
Y349200D02*
Y450800D01*
X10614800D01*
Y349200D01*
X10513200D01*
X10767200Y95200D02*
Y196800D01*
X10868800D01*
Y95200D01*
X10767200D01*
Y349200D02*
Y450800D01*
X10868800D01*
Y349200D01*
X10767200D01*
X1631200Y95200D02*
Y196800D01*
X1732800D01*
Y95200D01*
X1631200D01*
Y349200D02*
Y450800D01*
X1732800D01*
Y349200D01*
X1631200D01*
X1885200Y95200D02*
Y196800D01*
X1986800D01*
Y95200D01*
X1885200D01*
Y349200D02*
Y450800D01*
X1986800D01*
Y349200D01*
X1885200D01*
X2139201Y95200D02*
Y196800D01*
X2240801D01*
Y95200D01*
X2139201D01*
X2139200Y349200D02*
Y450800D01*
X2240800D01*
Y349200D01*
X2139200D01*
X2393200Y95200D02*
Y196800D01*
X2494800D01*
Y95200D01*
X2393200D01*
X2393200Y349200D02*
Y450800D01*
X2494800D01*
Y349200D01*
X2393200D01*
X2647200Y95200D02*
Y196800D01*
X2748800D01*
Y95200D01*
X2647200D01*
X2647200Y349200D02*
Y450800D01*
X2748800D01*
Y349200D01*
X2647200D01*
X2901200Y95200D02*
Y196800D01*
X3002800D01*
Y95200D01*
X2901200D01*
Y349200D02*
Y450800D01*
X3002800D01*
Y349200D01*
X2901200D01*
X3155200Y95200D02*
Y196800D01*
X3256800D01*
Y95200D01*
X3155200D01*
X3155200Y349200D02*
Y450800D01*
X3256800D01*
Y349200D01*
X3155200D01*
X3409200Y95200D02*
Y196800D01*
X3510800D01*
Y95200D01*
X3409200D01*
X3409200Y349200D02*
Y450800D01*
X3510800D01*
Y349200D01*
X3409200D01*
X3663200Y95200D02*
Y196800D01*
X3764800D01*
Y95200D01*
X3663200D01*
Y349200D02*
Y450800D01*
X3764800D01*
Y349200D01*
X3663200D01*
X3917200Y95200D02*
Y196800D01*
X4018800D01*
Y95200D01*
X3917200D01*
Y349200D02*
Y450800D01*
X4018800D01*
Y349200D01*
X3917200D01*
X4171200Y95200D02*
Y196800D01*
X4272800D01*
Y95200D01*
X4171200D01*
Y349200D02*
Y450800D01*
X4272800D01*
Y349200D01*
X4171200D01*
X4425201Y95200D02*
Y196800D01*
X4526801D01*
Y95200D01*
X4425201D01*
X4425200Y349200D02*
Y450800D01*
X4526800D01*
Y349200D01*
X4425200D01*
X4679200Y95200D02*
Y196800D01*
X4780800D01*
Y95200D01*
X4679200D01*
X4679200Y349200D02*
Y450800D01*
X4780800D01*
Y349200D01*
X4679200D01*
X4933200Y95200D02*
Y196800D01*
X5034800D01*
Y95200D01*
X4933200D01*
Y349200D02*
Y450800D01*
X5034800D01*
Y349200D01*
X4933200D01*
X5187200Y95200D02*
Y196800D01*
X5288800D01*
Y95200D01*
X5187200D01*
Y349200D02*
Y450800D01*
X5288800D01*
Y349200D01*
X5187200D01*
X5441200D02*
Y450800D01*
X5542800D01*
Y349200D01*
X5441200D01*
X5695200Y95200D02*
Y196800D01*
X5796800D01*
Y95200D01*
X5695200D01*
X5695200Y349200D02*
Y450800D01*
X5796800D01*
Y349200D01*
X5695200D01*
X5949200Y95200D02*
Y196800D01*
X6050800D01*
Y95200D01*
X5949200D01*
X5949200Y349200D02*
Y450800D01*
X6050800D01*
Y349200D01*
X5949200D01*
X4178200Y1849200D02*
Y1950800D01*
X4279800D01*
Y1849200D01*
X4178200D01*
Y1595200D02*
Y1696800D01*
X4279800D01*
Y1595200D01*
X4178200D01*
X3924200Y1849200D02*
Y1950800D01*
X4025800D01*
Y1849200D01*
X3924200D01*
Y1595200D02*
Y1696800D01*
X4025800D01*
Y1595200D01*
X3924200D01*
X3670200Y1849200D02*
Y1950800D01*
X3771800D01*
Y1849200D01*
X3670200D01*
Y1595200D02*
Y1696800D01*
X3771800D01*
Y1595200D01*
X3670200D01*
X10949200Y1549200D02*
Y1650800D01*
X11050800D01*
Y1549200D01*
X10949200D01*
X10695200D02*
Y1650800D01*
X10796800D01*
Y1549200D01*
X10695200D01*
X10441200D02*
Y1650800D01*
X10542800D01*
Y1549200D01*
X10441200D01*
X10187200D02*
Y1650800D01*
X10288800D01*
Y1549200D01*
X10187200D01*
X10949200Y999200D02*
Y1100800D01*
X11050800D01*
Y999200D01*
X10949200D01*
X10695200D02*
Y1100800D01*
X10796800D01*
Y999200D01*
X10695200D01*
X10441200D02*
Y1100800D01*
X10542800D01*
Y999200D01*
X10441200D01*
X10187200D02*
Y1100800D01*
X10288800D01*
Y999200D01*
X10187200D01*
X6449200Y4545200D02*
Y4646800D01*
X6550800D01*
Y4545200D01*
X6449200D01*
X6449200Y4799200D02*
Y4900800D01*
X6550800D01*
Y4799200D01*
X6449200D01*
X6703200Y4545200D02*
Y4646800D01*
X6804800D01*
Y4545200D01*
X6703200D01*
Y4799200D02*
Y4900800D01*
X6804800D01*
Y4799200D01*
X6703200D01*
X6957200Y4545200D02*
Y4646800D01*
X7058800D01*
Y4545200D01*
X6957200D01*
X6957200Y4799200D02*
Y4900800D01*
X7058800D01*
Y4799200D01*
X6957200D01*
X7211200Y4545200D02*
Y4646800D01*
X7312800D01*
Y4545200D01*
X7211200D01*
Y4799200D02*
Y4900800D01*
X7312800D01*
Y4799200D01*
X7211200D01*
X7465200Y4545200D02*
Y4646800D01*
X7566800D01*
Y4545200D01*
X7465200D01*
Y4799200D02*
Y4900800D01*
X7566800D01*
Y4799200D01*
X7465200D01*
X7719200Y4545200D02*
Y4646800D01*
X7820800D01*
Y4545200D01*
X7719200D01*
X7719200Y4799200D02*
Y4900800D01*
X7820800D01*
Y4799200D01*
X7719200D01*
X7973200Y4545200D02*
Y4646800D01*
X8074800D01*
Y4545200D01*
X7973200D01*
X7973200Y4799200D02*
Y4900800D01*
X8074800D01*
Y4799200D01*
X7973200D01*
X8227200Y4545200D02*
Y4646800D01*
X8328800D01*
Y4545200D01*
X8227200D01*
Y4799200D02*
Y4900800D01*
X8328800D01*
Y4799200D01*
X8227200D01*
X8481200Y4545200D02*
Y4646800D01*
X8582800D01*
Y4545200D01*
X8481200D01*
Y4799200D02*
Y4900800D01*
X8582800D01*
Y4799200D01*
X8481200D01*
X8735200Y4545200D02*
Y4646800D01*
X8836800D01*
Y4545200D01*
X8735200D01*
X8735200Y4799200D02*
Y4900800D01*
X8836800D01*
Y4799200D01*
X8735200D01*
X8989200Y4545200D02*
Y4646800D01*
X9090800D01*
Y4545200D01*
X8989200D01*
Y4799200D02*
Y4900800D01*
X9090800D01*
Y4799200D01*
X8989200D01*
X9243200Y4545200D02*
Y4646800D01*
X9344800D01*
Y4545200D01*
X9243200D01*
X9243200Y4799200D02*
Y4900800D01*
X9344800D01*
Y4799200D01*
X9243200D01*
X9497200Y4545200D02*
Y4646800D01*
X9598800D01*
Y4545200D01*
X9497200D01*
Y4799200D02*
Y4900800D01*
X9598800D01*
Y4799200D01*
X9497200D01*
X9751200Y4545200D02*
Y4646800D01*
X9852800D01*
Y4545200D01*
X9751200D01*
X9751200Y4799200D02*
Y4900800D01*
X9852800D01*
Y4799200D01*
X9751200D01*
X10005200Y4545200D02*
Y4646800D01*
X10106800D01*
Y4545200D01*
X10005200D01*
X10005200Y4799200D02*
Y4900800D01*
X10106800D01*
Y4799200D01*
X10005200D01*
X10259200Y4545200D02*
Y4646800D01*
X10360800D01*
Y4545200D01*
X10259200D01*
Y4799200D02*
Y4900800D01*
X10360800D01*
Y4799200D01*
X10259200D01*
X10513200Y4545200D02*
Y4646800D01*
X10614800D01*
Y4545200D01*
X10513200D01*
Y4799200D02*
Y4900800D01*
X10614800D01*
Y4799200D01*
X10513200D01*
X10767200Y4545200D02*
Y4646800D01*
X10868800D01*
Y4545200D01*
X10767200D01*
Y4799200D02*
Y4900800D01*
X10868800D01*
Y4799200D01*
X10767200D01*
X1631200Y4545200D02*
Y4646800D01*
X1732800D01*
Y4545200D01*
X1631200D01*
Y4799200D02*
Y4900800D01*
X1732800D01*
Y4799200D01*
X1631200D01*
X1885200Y4545200D02*
Y4646800D01*
X1986800D01*
Y4545200D01*
X1885200D01*
X1885200Y4799200D02*
Y4900800D01*
X1986800D01*
Y4799200D01*
X1885200D01*
X2139200Y4545200D02*
Y4646800D01*
X2240800D01*
Y4545200D01*
X2139200D01*
Y4799200D02*
Y4900800D01*
X2240800D01*
Y4799200D01*
X2139200D01*
X2393200Y4545200D02*
Y4646800D01*
X2494800D01*
Y4545200D01*
X2393200D01*
Y4799200D02*
Y4900800D01*
X2494800D01*
Y4799200D01*
X2393200D01*
X2647200Y4545200D02*
Y4646800D01*
X2748800D01*
Y4545200D01*
X2647200D01*
Y4799200D02*
Y4900800D01*
X2748800D01*
Y4799200D01*
X2647200D01*
X2901200Y4545200D02*
Y4646800D01*
X3002800D01*
Y4545200D01*
X2901200D01*
X2901200Y4799200D02*
Y4900800D01*
X3002800D01*
Y4799200D01*
X2901200D01*
X3155200Y4545200D02*
Y4646800D01*
X3256800D01*
Y4545200D01*
X3155200D01*
X3155200Y4799200D02*
Y4900800D01*
X3256800D01*
Y4799200D01*
X3155200D01*
X3409200Y4545200D02*
Y4646800D01*
X3510800D01*
Y4545200D01*
X3409200D01*
Y4799200D02*
Y4900800D01*
X3510800D01*
Y4799200D01*
X3409200D01*
X3663200Y4545200D02*
Y4646800D01*
X3764800D01*
Y4545200D01*
X3663200D01*
Y4799200D02*
Y4900800D01*
X3764800D01*
Y4799200D01*
X3663200D01*
X3917200Y4545200D02*
Y4646800D01*
X4018800D01*
Y4545200D01*
X3917200D01*
Y4799200D02*
Y4900800D01*
X4018800D01*
Y4799200D01*
X3917200D01*
X4171200Y4545200D02*
Y4646800D01*
X4272800D01*
Y4545200D01*
X4171200D01*
X4171200Y4799200D02*
Y4900800D01*
X4272800D01*
Y4799200D01*
X4171200D01*
X4425200Y4545200D02*
Y4646800D01*
X4526800D01*
Y4545200D01*
X4425200D01*
Y4799200D02*
Y4900800D01*
X4526800D01*
Y4799200D01*
X4425200D01*
X4679200Y4545200D02*
Y4646800D01*
X4780800D01*
Y4545200D01*
X4679200D01*
Y4799200D02*
Y4900800D01*
X4780800D01*
Y4799200D01*
X4679200D01*
X4933200Y4545200D02*
Y4646800D01*
X5034800D01*
Y4545200D01*
X4933200D01*
Y4799200D02*
Y4900800D01*
X5034800D01*
Y4799200D01*
X4933200D01*
X5187200Y4545200D02*
Y4646800D01*
X5288800D01*
Y4545200D01*
X5187200D01*
Y4799200D02*
Y4900800D01*
X5288800D01*
Y4799200D01*
X5187200D01*
X5441200Y4545200D02*
Y4646800D01*
X5542800D01*
Y4545200D01*
X5441200D01*
X5441200Y4799200D02*
Y4900800D01*
X5542800D01*
Y4799200D01*
X5441200D01*
X5695200Y4545200D02*
Y4646800D01*
X5796800D01*
Y4545200D01*
X5695200D01*
Y4799200D02*
Y4900800D01*
X5796800D01*
Y4799200D01*
X5695200D01*
X5949200Y4545200D02*
Y4646800D01*
X6050800D01*
Y4545200D01*
X5949200D01*
Y4799200D02*
Y4900800D01*
X6050800D01*
Y4799200D01*
X5949200D01*
X8829200Y2770000D02*
X8880000Y2820800D01*
X8930800Y2770000D01*
X8880000Y2719200D01*
X8829200Y2770000D01*
X8519200Y2490000D02*
X8570000Y2540800D01*
X8620800Y2490000D01*
X8570000Y2439200D01*
X8519200Y2490000D01*
X8669200Y2770000D02*
X8720000Y2820800D01*
X8770800Y2770000D01*
X8720000Y2719200D01*
X8669200Y2770000D01*
X8749200Y2410000D02*
X8800000Y2460800D01*
X8850800Y2410000D01*
X8800000Y2359200D01*
X8749200Y2410000D01*
X8009200Y2710000D02*
X8060000Y2760800D01*
X8110800Y2710000D01*
X8060000Y2659200D01*
X8009200Y2710000D01*
X8309200Y2500000D02*
X8360000Y2550800D01*
X8410800Y2500000D01*
X8360000Y2449200D01*
X8309200Y2500000D01*
X7849200Y2430000D02*
X7900000Y2480800D01*
X7950800Y2430000D01*
X7900000Y2379200D01*
X7849200Y2430000D01*
Y2230000D02*
X7900000Y2280800D01*
X7950800Y2230000D01*
X7900000Y2179200D01*
X7849200Y2230000D01*
X6969200Y2720000D02*
X7020000Y2770800D01*
X7070800Y2720000D01*
X7020000Y2669200D01*
X6969200Y2720000D01*
X7079200Y2190000D02*
X7130000Y2240800D01*
X7180800Y2190000D01*
X7130000Y2139200D01*
X7079200Y2190000D01*
X7269200Y2300000D02*
X7320000Y2350800D01*
X7370800Y2300000D01*
X7320000Y2249200D01*
X7269200Y2300000D01*
X7189200Y2370000D02*
X7240000Y2420800D01*
X7290800Y2370000D01*
X7240000Y2319200D01*
X7189200Y2370000D01*
X7849200Y2330000D02*
X7900000Y2380800D01*
X7950800Y2330000D01*
X7900000Y2279200D01*
X7849200Y2330000D01*
X6579200Y1770000D02*
X6630000Y1820800D01*
X6680800Y1770000D01*
X6630000Y1719200D01*
X6579200Y1770000D01*
X6749200D02*
X6800000Y1820800D01*
X6850800Y1770000D01*
X6800000Y1719200D01*
X6749200Y1770000D01*
X1225768Y1585768D02*
Y1687368D01*
X1327368D01*
Y1585768D01*
X1225768D01*
X1246088Y1606088D02*
Y1667048D01*
X1307048D01*
Y1606088D01*
X1246088D01*
X1329200Y1630000D02*
X1380000Y1680800D01*
X1430800Y1630000D01*
X1380000Y1579200D01*
X1329200Y1630000D01*
X3489200Y1379200D02*
Y1480800D01*
X3590800D01*
Y1379200D01*
X3489200D01*
X3509520Y1399520D02*
Y1460480D01*
X3570480D01*
Y1399520D01*
X3509520D01*
X6109209Y1337500D02*
X6160009Y1388300D01*
X6210809Y1337500D01*
X6160009Y1286700D01*
X6109209Y1337500D01*
X6319200Y1330000D02*
X6370000Y1380800D01*
X6420800Y1330000D01*
X6370000Y1279200D01*
X6319200Y1330000D01*
X9919200Y1569200D02*
Y1670800D01*
X10020800D01*
Y1569200D01*
X9919200D01*
X9939520Y1589520D02*
Y1650480D01*
X10000480D01*
Y1589520D01*
X9939520D01*
X9999200Y1970000D02*
X10050000Y2020800D01*
X10100800Y1970000D01*
X10050000Y1919200D01*
X9999200Y1970000D01*
X989200Y2729200D02*
Y2830800D01*
X1090800D01*
Y2729200D01*
X989200D01*
X1009520Y2749520D02*
Y2810480D01*
X1070480D01*
Y2749520D01*
X1009520D01*
X3679200Y2520000D02*
X3730000Y2570800D01*
X3780800Y2520000D01*
X3730000Y2469200D01*
X3679200Y2520000D01*
X3479200Y2019200D02*
Y2120800D01*
X3580800D01*
Y2019200D01*
X3479200D01*
X3499520Y2039520D02*
Y2100480D01*
X3560480D01*
Y2039520D01*
X3499520D01*
X2469200Y2230000D02*
X2520000Y2280800D01*
X2570800Y2230000D01*
X2520000Y2179200D01*
X2469200Y2230000D01*
X8049200Y3119200D02*
Y3220800D01*
X8150800D01*
Y3119200D01*
X8049200D01*
X8069520Y3139520D02*
Y3200480D01*
X8130480D01*
Y3139520D01*
X8069520D01*
X8319200Y3119200D02*
Y3220800D01*
X8420800D01*
Y3119200D01*
X8319200D01*
X8339520Y3139520D02*
Y3200480D01*
X8400480D01*
Y3139520D01*
X8339520D01*
X6939200Y2870000D02*
X6990000Y2920800D01*
X7040800Y2870000D01*
X6990000Y2819200D01*
X6939200Y2870000D01*
X9639200Y3299200D02*
Y3400800D01*
X9740800D01*
Y3299200D01*
X9639200D01*
X9659520Y3319520D02*
Y3380480D01*
X9720480D01*
Y3319520D01*
X9659520D01*
X10469200Y3299200D02*
Y3400800D01*
X10570800D01*
Y3299200D01*
X10469200D01*
X10489520Y3319520D02*
Y3380480D01*
X10550480D01*
Y3319520D01*
X10489520D01*
X9510465Y2561265D02*
X9561265Y2612065D01*
X9612065Y2561265D01*
X9561265Y2510465D01*
X9510465Y2561265D01*
X10049200Y2120000D02*
X10100000Y2170800D01*
X10150800Y2120000D01*
X10100000Y2069200D01*
X10049200Y2120000D01*
X6559200Y3340000D02*
X6610000Y3390800D01*
X6660800Y3340000D01*
X6610000Y3289200D01*
X6559200Y3340000D01*
X6549200Y3019200D02*
Y3120800D01*
X6650800D01*
Y3019200D01*
X6549200D01*
X6569520Y3039520D02*
Y3100480D01*
X6630480D01*
Y3039520D01*
X6569520D01*
X6709200Y3225000D02*
X6760000Y3275800D01*
X6810800Y3225000D01*
X6760000Y3174200D01*
X6709200Y3225000D01*
X6787178Y3080000D02*
X6837978Y3130800D01*
X6888778Y3080000D01*
X6837978Y3029200D01*
X6787178Y3080000D01*
X6634240Y3274960D02*
X6685040Y3325760D01*
X6735840Y3274960D01*
X6685040Y3224160D01*
X6634240Y3274960D01*
X6689200Y2950000D02*
X6740000Y3000800D01*
X6790800Y2950000D01*
X6740000Y2899200D01*
X6689200Y2950000D01*
X6929200Y3080000D02*
X6980000Y3130800D01*
X7030800Y3080000D01*
X6980000Y3029200D01*
X6929200Y3080000D01*
X5769200Y3062500D02*
X5820000Y3113300D01*
X5870800Y3062500D01*
X5820000Y3011700D01*
X5769200Y3062500D01*
X11289200Y1799200D02*
Y1900800D01*
X11390800D01*
Y1799200D01*
X11289200D01*
X11309520Y1819520D02*
Y1880480D01*
X11370480D01*
Y1819520D01*
X11309520D01*
X2699200Y1722500D02*
X2750000Y1773300D01*
X2800800Y1722500D01*
X2750000Y1671700D01*
X2699200Y1722500D01*
X2539200Y1680000D02*
X2590000Y1730800D01*
X2640800Y1680000D01*
X2590000Y1629200D01*
X2539200Y1680000D01*
X2329200Y1770000D02*
X2380000Y1820800D01*
X2430800Y1770000D01*
X2380000Y1719200D01*
X2329200Y1770000D01*
X1949200D02*
X2000000Y1820800D01*
X2050800Y1770000D01*
X2000000Y1719200D01*
X1949200Y1770000D01*
X2199200D02*
X2250000Y1820800D01*
X2300800Y1770000D01*
X2250000Y1719200D01*
X2199200Y1770000D01*
X2079200D02*
X2130000Y1820800D01*
X2180800Y1770000D01*
X2130000Y1719200D01*
X2079200Y1770000D01*
X2208994Y2029998D02*
X2259794Y2080798D01*
X2310594Y2029998D01*
X2259794Y1979198D01*
X2208994Y2029998D01*
X1819200Y2030000D02*
X1870000Y2080800D01*
X1920800Y2030000D01*
X1870000Y1979200D01*
X1819200Y2030000D01*
X2470116Y1871406D02*
X2520916Y1922206D01*
X2571716Y1871406D01*
X2520916Y1820606D01*
X2470116Y1871406D01*
X2832935Y1253735D02*
X2883735Y1304535D01*
X2934535Y1253735D01*
X2883735Y1202935D01*
X2832935Y1253735D01*
X2559200Y1300000D02*
X2610000Y1350800D01*
X2660800Y1300000D01*
X2610000Y1249200D01*
X2559200Y1300000D01*
X2459200Y1340000D02*
X2510000Y1390800D01*
X2560800Y1340000D01*
X2510000Y1289200D01*
X2459200Y1340000D01*
X2739200Y1260000D02*
X2790000Y1310800D01*
X2840800Y1260000D01*
X2790000Y1209200D01*
X2739200Y1260000D01*
X2456685Y1140015D02*
X2507485Y1190815D01*
X2558285Y1140015D01*
X2507485Y1089215D01*
X2456685Y1140015D01*
X2469169Y982500D02*
X2519969Y1033300D01*
X2570769Y982500D01*
X2519969Y931700D01*
X2469169Y982500D01*
X5859200Y3250000D02*
X5910000Y3300800D01*
X5960800Y3250000D01*
X5910000Y3199200D01*
X5859200Y3250000D01*
X2009199Y3850000D02*
X2059999Y3900800D01*
X2110799Y3850000D01*
X2059999Y3799200D01*
X2009199Y3850000D01*
X5774136Y3224936D02*
X5824936Y3275736D01*
X5875736Y3224936D01*
X5824936Y3174136D01*
X5774136Y3224936D01*
X2329200Y822499D02*
X2380000Y873299D01*
X2430800Y822499D01*
X2380000Y771699D01*
X2329200Y822499D01*
X2203200Y834000D02*
X2254000Y884800D01*
X2304800Y834000D01*
X2254000Y783200D01*
X2203200Y834000D01*
X2076200Y830000D02*
X2127000Y880800D01*
X2177800Y830000D01*
X2127000Y779200D01*
X2076200Y830000D01*
X1949200D02*
X2000000Y880800D01*
X2050800Y830000D01*
X2000000Y779200D01*
X1949200Y830000D01*
Y1080000D02*
X2000000Y1130800D01*
X2050800Y1080000D01*
X2000000Y1029200D01*
X1949200Y1080000D01*
X1899200Y2829200D02*
Y2930800D01*
X2000800D01*
Y2829200D01*
X1899200D01*
X1919520Y2849520D02*
Y2910480D01*
X1980480D01*
Y2849520D01*
X1919520D01*
X1479200Y2880000D02*
X1530000Y2930800D01*
X1580800Y2880000D01*
X1530000Y2829200D01*
X1479200Y2880000D01*
X1669200Y2419200D02*
Y2520800D01*
X1770800D01*
Y2419200D01*
X1669200D01*
X1689520Y2439520D02*
Y2500480D01*
X1750480D01*
Y2439520D01*
X1689520D01*
X1499200Y2500000D02*
X1550000Y2550800D01*
X1600800Y2500000D01*
X1550000Y2449200D01*
X1499200Y2500000D01*
X1119200Y2109200D02*
Y2210800D01*
X1220800D01*
Y2109200D01*
X1119200D01*
X1139520Y2129520D02*
Y2190480D01*
X1200480D01*
Y2129520D01*
X1139520D01*
X6699200Y2230000D02*
X6750000Y2280800D01*
X6800800Y2230000D01*
X6750000Y2179200D01*
X6699200Y2230000D01*
X6689200Y2679200D02*
Y2780800D01*
X6790800D01*
Y2679200D01*
X6689200D01*
X6709520Y2699520D02*
Y2760480D01*
X6770480D01*
Y2699520D01*
X6709520D01*
X7259200Y2710000D02*
X7310000Y2760800D01*
X7360800Y2710000D01*
X7310000Y2659200D01*
X7259200Y2710000D01*
X5169200Y2750000D02*
X5220000Y2800800D01*
X5270800Y2750000D01*
X5220000Y2699200D01*
X5169200Y2750000D01*
X5089200Y2670000D02*
X5140000Y2720800D01*
X5190800Y2670000D01*
X5140000Y2619200D01*
X5089200Y2670000D01*
X2209096Y1079896D02*
X2259896Y1130696D01*
X2310696Y1079896D01*
X2259896Y1029096D01*
X2209096Y1079896D01*
X2329200Y1080000D02*
X2380000Y1130800D01*
X2430800Y1080000D01*
X2380000Y1029200D01*
X2329200Y1080000D01*
Y2030000D02*
X2380000Y2080800D01*
X2430800Y2030000D01*
X2380000Y1979200D01*
X2329200Y2030000D01*
X1219200Y680000D02*
X1270000Y730800D01*
X1320800Y680000D01*
X1270000Y629200D01*
X1219200Y680000D01*
X779200Y1190000D02*
X830000Y1240800D01*
X880800Y1190000D01*
X830000Y1139200D01*
X779200Y1190000D01*
Y1340000D02*
X830000Y1390800D01*
X880800Y1340000D01*
X830000Y1289200D01*
X779200Y1340000D01*
X759200Y2260000D02*
X810000Y2310800D01*
X860800Y2260000D01*
X810000Y2209200D01*
X759200Y2260000D01*
Y2410000D02*
X810000Y2460800D01*
X860800Y2410000D01*
X810000Y2359200D01*
X759200Y2410000D01*
X1699200Y1080000D02*
X1750000Y1130800D01*
X1800800Y1080000D01*
X1750000Y1029200D01*
X1699200Y1080000D01*
X5619200Y1979200D02*
Y2080800D01*
X5720800D01*
Y1979200D01*
X5619200D01*
X5639520Y1999520D02*
Y2060480D01*
X5700480D01*
Y1999520D01*
X5639520D01*
X5469200Y2040000D02*
X5520000Y2090800D01*
X5570800Y2040000D01*
X5520000Y1989200D01*
X5469200Y2040000D01*
X5734304Y2035104D02*
X5785104Y2085904D01*
X5835904Y2035104D01*
X5785104Y1984304D01*
X5734304Y2035104D01*
X7169200Y2270000D02*
X7220000Y2320800D01*
X7270800Y2270000D01*
X7220000Y2219200D01*
X7169200Y2270000D01*
X2349200Y2449200D02*
Y2550800D01*
X2450800D01*
Y2449200D01*
X2349200D01*
X2369520Y2469520D02*
Y2530480D01*
X2430480D01*
Y2469520D01*
X2369520D01*
X3699200Y2240000D02*
X3750000Y2290800D01*
X3800800Y2240000D01*
X3750000Y2189200D01*
X3699200Y2240000D01*
X1119200Y1630000D02*
X1170000Y1680800D01*
X1220800Y1630000D01*
X1170000Y1579200D01*
X1119200Y1630000D01*
X1129200Y1210000D02*
X1180000Y1260800D01*
X1230800Y1210000D01*
X1180000Y1159200D01*
X1129200Y1210000D01*
X1119200Y680000D02*
X1170000Y730800D01*
X1220800Y680000D01*
X1170000Y629200D01*
X1119200Y680000D01*
X1319200D02*
X1370000Y730800D01*
X1420800Y680000D01*
X1370000Y629200D01*
X1319200Y680000D01*
X2079200Y2030000D02*
X2130000Y2080800D01*
X2180800Y2030000D01*
X2130000Y1979200D01*
X2079200Y2030000D01*
X1569200D02*
X1620000Y2080800D01*
X1670800Y2030000D01*
X1620000Y1979200D01*
X1569200Y2030000D01*
X1699200D02*
X1750000Y2080800D01*
X1800800Y2030000D01*
X1750000Y1979200D01*
X1699200Y2030000D01*
X1949200D02*
X2000000Y2080800D01*
X2050800Y2030000D01*
X2000000Y1979200D01*
X1949200Y2030000D01*
X1819200Y1080000D02*
X1870000Y1130800D01*
X1920800Y1080000D01*
X1870000Y1029200D01*
X1819200Y1080000D01*
X2079200D02*
X2130000Y1130800D01*
X2180800Y1080000D01*
X2130000Y1029200D01*
X2079200Y1080000D01*
X7199200Y2770000D02*
X7250000Y2820800D01*
X7300800Y2770000D01*
X7250000Y2719200D01*
X7199200Y2770000D01*
X8379200Y2000000D02*
X8430000Y2050800D01*
X8480800Y2000000D01*
X8430000Y1949200D01*
X8379200Y2000000D01*
X9709200Y1260000D02*
X9760000Y1310800D01*
X9810800Y1260000D01*
X9760000Y1209200D01*
X9709200Y1260000D01*
X10949200Y810000D02*
X11000000Y860800D01*
X11050800Y810000D01*
X11000000Y759200D01*
X10949200Y810000D01*
X7339200Y2690000D02*
X7390000Y2740800D01*
X7440800Y2690000D01*
X7390000Y2639200D01*
X7339200Y2690000D01*
X7099200Y2100000D02*
X7150000Y2150800D01*
X7200800Y2100000D01*
X7150000Y2049200D01*
X7099200Y2100000D01*
X7389246Y2625069D02*
X7440046Y2675869D01*
X7490846Y2625069D01*
X7440046Y2574269D01*
X7389246Y2625069D01*
X8969200Y3440000D02*
X9020000Y3490800D01*
X9070800Y3440000D01*
X9020000Y3389200D01*
X8969200Y3440000D01*
X6449200Y4070000D02*
X6500000Y4120800D01*
X6550800Y4070000D01*
X6500000Y4019200D01*
X6449200Y4070000D01*
X7659200Y2580000D02*
X7710000Y2630800D01*
X7760800Y2580000D01*
X7710000Y2529200D01*
X7659200Y2580000D01*
X1679200Y3799200D02*
Y3900800D01*
X1780800D01*
Y3799200D01*
X1679200D01*
X1699520Y3819520D02*
Y3880480D01*
X1760480D01*
Y3819520D01*
X1699520D01*
X1899200Y3850000D02*
X1950000Y3900800D01*
X2000800Y3850000D01*
X1950000Y3799200D01*
X1899200Y3850000D01*
X1459200Y3250000D02*
X1510000Y3300800D01*
X1560800Y3250000D01*
X1510000Y3199200D01*
X1459200Y3250000D01*
X5959834Y3519550D02*
X6010634Y3570350D01*
X6061434Y3519550D01*
X6010634Y3468750D01*
X5959834Y3519550D01*
X5529200Y3120000D02*
X5580000Y3170800D01*
X5630800Y3120000D01*
X5580000Y3069200D01*
X5529200Y3120000D01*
X5799200Y3460000D02*
X5850000Y3510800D01*
X5900800Y3460000D01*
X5850000Y3409200D01*
X5799200Y3460000D01*
X6369200Y3640000D02*
X6420000Y3690800D01*
X6470800Y3640000D01*
X6420000Y3589200D01*
X6369200Y3640000D01*
X6368008Y3538723D02*
X6418808Y3589523D01*
X6469608Y3538723D01*
X6418808Y3487923D01*
X6368008Y3538723D01*
X3799200Y2160000D02*
X3850000Y2210800D01*
X3900800Y2160000D01*
X3850000Y2109200D01*
X3799200Y2160000D01*
X2119200Y3250000D02*
X2170000Y3300800D01*
X2220800Y3250000D01*
X2170000Y3199200D01*
X2119200Y3250000D01*
X1819200Y3250000D02*
X1870000Y3300800D01*
X1920800Y3250000D01*
X1870000Y3199200D01*
X1819200Y3250000D01*
X5189200Y2250000D02*
X5240000Y2300800D01*
X5290800Y2250000D01*
X5240000Y2199200D01*
X5189200Y2250000D01*
X5149200Y2299200D02*
Y2400800D01*
X5250800D01*
Y2299200D01*
X5149200D01*
X5169520Y2319520D02*
Y2380480D01*
X5230480D01*
Y2319520D01*
X5169520D01*
X5009200Y2600000D02*
X5060000Y2650800D01*
X5110800Y2600000D01*
X5060000Y2549200D01*
X5009200Y2600000D01*
X1789200Y2440000D02*
X1840000Y2490800D01*
X1890800Y2440000D01*
X1840000Y2389200D01*
X1789200Y2440000D01*
X3679200Y2630000D02*
X3730000Y2680800D01*
X3780800Y2630000D01*
X3730000Y2579200D01*
X3679200Y2630000D01*
X3799200Y2350000D02*
X3850000Y2400800D01*
X3900800Y2350000D01*
X3850000Y2299200D01*
X3799200Y2350000D01*
X4109200Y2340000D02*
X4160000Y2390800D01*
X4210800Y2340000D01*
X4160000Y2289200D01*
X4109200Y2340000D01*
X309200Y4150000D02*
X360000Y4200800D01*
X410800Y4150000D01*
X360000Y4099200D01*
X309200Y4150000D01*
X6029200Y3580000D02*
X6080000Y3630800D01*
X6130800Y3580000D01*
X6080000Y3529200D01*
X6029200Y3580000D01*
X3189200Y3650000D02*
X3240000Y3700800D01*
X3290800Y3650000D01*
X3240000Y3599200D01*
X3189200Y3650000D01*
X309200Y3390000D02*
X360000Y3440800D01*
X410800Y3390000D01*
X360000Y3339200D01*
X309200Y3390000D01*
Y3500000D02*
X360000Y3550800D01*
X410800Y3500000D01*
X360000Y3449200D01*
X309200Y3500000D01*
Y3610000D02*
X360000Y3660800D01*
X410800Y3610000D01*
X360000Y3559200D01*
X309200Y3610000D01*
Y3830000D02*
X360000Y3880800D01*
X410800Y3830000D01*
X360000Y3779200D01*
X309200Y3830000D01*
Y4050000D02*
X360000Y4100800D01*
X410800Y4050000D01*
X360000Y3999200D01*
X309200Y4050000D01*
X269200Y3140000D02*
X320000Y3190800D01*
X370800Y3140000D01*
X320000Y3089200D01*
X269200Y3140000D01*
X299200Y4280000D02*
X350000Y4330800D01*
X400800Y4280000D01*
X350000Y4229200D01*
X299200Y4280000D01*
X309200Y3720000D02*
X360000Y3770800D01*
X410800Y3720000D01*
X360000Y3669200D01*
X309200Y3720000D01*
Y3940000D02*
X360000Y3990800D01*
X410800Y3940000D01*
X360000Y3889200D01*
X309200Y3940000D01*
X7461700Y2572500D02*
X7512500Y2623300D01*
X7563300Y2572500D01*
X7512500Y2521700D01*
X7461700Y2572500D01*
X8509200Y2000000D02*
X8560000Y2050800D01*
X8610800Y2000000D01*
X8560000Y1949200D01*
X8509200Y2000000D01*
X8119200Y3000000D02*
X8170000Y3050800D01*
X8220800Y3000000D01*
X8170000Y2949200D01*
X8119200Y3000000D01*
X8249200D02*
X8300000Y3050800D01*
X8350800Y3000000D01*
X8300000Y2949200D01*
X8249200Y3000000D01*
X8949200D02*
X9000000Y3050800D01*
X9050800Y3000000D01*
X9000000Y2949200D01*
X8949200Y3000000D01*
X9079200D02*
X9130000Y3050800D01*
X9180800Y3000000D01*
X9130000Y2949200D01*
X9079200Y3000000D01*
X9199200Y2000000D02*
X9250000Y2050800D01*
X9300800Y2000000D01*
X9250000Y1949200D01*
X9199200Y2000000D01*
X9329200D02*
X9380000Y2050800D01*
X9430800Y2000000D01*
X9380000Y1949200D01*
X9329200Y2000000D01*
X8969200Y3330000D02*
X9020000Y3380800D01*
X9070800Y3330000D01*
X9020000Y3279200D01*
X8969200Y3330000D01*
X1249200Y2380000D02*
X1300000Y2430800D01*
X1350800Y2380000D01*
X1300000Y2329200D01*
X1249200Y2380000D01*
X2069200Y2500000D02*
X2120000Y2550800D01*
X2170800Y2500000D01*
X2120000Y2449200D01*
X2069200Y2500000D01*
X11329200Y3059200D02*
Y3160800D01*
X11430800D01*
Y3059200D01*
X11329200D01*
X11349520Y3079520D02*
Y3140480D01*
X11410480D01*
Y3079520D01*
X11349520D01*
X11329200Y2909200D02*
Y3010800D01*
X11430800D01*
Y2909200D01*
X11329200D01*
X11349520Y2929520D02*
Y2990480D01*
X11410480D01*
Y2929520D01*
X11349520D01*
X10819200Y2819200D02*
Y2920800D01*
X10920800D01*
Y2819200D01*
X10819200D01*
X10839520Y2839520D02*
Y2900480D01*
X10900480D01*
Y2839520D01*
X10839520D01*
X10589200Y2819200D02*
Y2920800D01*
X10690800D01*
Y2819200D01*
X10589200D01*
X10609520Y2839520D02*
Y2900480D01*
X10670480D01*
Y2839520D01*
X10609520D01*
X1568200Y1081000D02*
X1619000Y1131800D01*
X1669800Y1081000D01*
X1619000Y1030200D01*
X1568200Y1081000D01*
X2229199Y3249999D02*
X2279999Y3300799D01*
X2330799Y3249999D01*
X2279999Y3199199D01*
X2229199Y3249999D01*
X1679303Y3249896D02*
X1730103Y3300696D01*
X1780903Y3249896D01*
X1730103Y3199096D01*
X1679303Y3249896D01*
X2339200Y3850000D02*
X2390000Y3900800D01*
X2440800Y3850000D01*
X2390000Y3799200D01*
X2339200Y3850000D01*
X5369200Y2060000D02*
X5420000Y2110800D01*
X5470800Y2060000D01*
X5420000Y2009200D01*
X5369200Y2060000D01*
X6159200Y2430000D02*
X6210000Y2480800D01*
X6260800Y2430000D01*
X6210000Y2379200D01*
X6159200Y2430000D01*
X4629200Y2220000D02*
X4680000Y2270800D01*
X4730800Y2220000D01*
X4680000Y2169200D01*
X4629200Y2220000D01*
X5699200Y4120000D02*
X5750000Y4170800D01*
X5800800Y4120000D01*
X5750000Y4069200D01*
X5699200Y4120000D01*
X5829200D02*
X5880000Y4170800D01*
X5930800Y4120000D01*
X5880000Y4069200D01*
X5829200Y4120000D01*
X6049200D02*
X6100000Y4170800D01*
X6150800Y4120000D01*
X6100000Y4069200D01*
X6049200Y4120000D01*
X5939200D02*
X5990000Y4170800D01*
X6040800Y4120000D01*
X5990000Y4069200D01*
X5939200Y4120000D01*
X5609200Y3040000D02*
X5660000Y3090800D01*
X5710800Y3040000D01*
X5660000Y2989200D01*
X5609200Y3040000D01*
X6859200Y2040000D02*
X6910000Y2090800D01*
X6960800Y2040000D01*
X6910000Y1989200D01*
X6859200Y2040000D01*
X6939200Y2171730D02*
Y2273330D01*
X7040800D01*
Y2171730D01*
X6939200D01*
X6959520Y2192050D02*
Y2253010D01*
X7020480D01*
Y2192050D01*
X6959520D01*
X5859200Y3089200D02*
Y3190800D01*
X5960800D01*
Y3089200D01*
X5859200D01*
X5879520Y3109520D02*
Y3170480D01*
X5940480D01*
Y3109520D01*
X5879520D01*
X1299200Y1840000D02*
X1350000Y1890800D01*
X1400800Y1840000D01*
X1350000Y1789200D01*
X1299200Y1840000D01*
Y1940000D02*
X1350000Y1990800D01*
X1400800Y1940000D01*
X1350000Y1889200D01*
X1299200Y1940000D01*
X1199200Y1840000D02*
X1250000Y1890800D01*
X1300800Y1840000D01*
X1250000Y1789200D01*
X1199200Y1840000D01*
Y1940000D02*
X1250000Y1990800D01*
X1300800Y1940000D01*
X1250000Y1889200D01*
X1199200Y1940000D01*
X1299200Y890001D02*
X1350000Y940801D01*
X1400800Y890001D01*
X1350000Y839201D01*
X1299200Y890001D01*
X1299200Y990000D02*
X1350000Y1040800D01*
X1400800Y990000D01*
X1350000Y939200D01*
X1299200Y990000D01*
X1199200Y890000D02*
X1250000Y940800D01*
X1300800Y890000D01*
X1250000Y839200D01*
X1199200Y890000D01*
Y990000D02*
X1250000Y1040800D01*
X1300800Y990000D01*
X1250000Y939200D01*
X1199200Y990000D01*
X12200000Y249200D02*
X12149200Y350800D01*
X12250800D01*
X12200000Y249200D01*
Y269520D02*
X12169520Y330480D01*
X12230480D01*
X12200000Y269520D01*
Y4649200D02*
X12149200Y4750800D01*
X12250800D01*
X12200000Y4649200D01*
Y4669520D02*
X12169520Y4730480D01*
X12230480D01*
X12200000Y4669520D01*
X300000Y249200D02*
X249200Y350800D01*
X350800D01*
X300000Y249200D01*
Y269520D02*
X269520Y330480D01*
X330480D01*
X300000Y269520D01*
Y4649200D02*
X249200Y4750800D01*
X350800D01*
X300000Y4649200D01*
Y4669520D02*
X269520Y4730480D01*
X330480D01*
X300000Y4669520D01*
D178*
X505300Y1132500D02*
G03*
X505300Y1132500I-50800J0D01*
G01*
Y2567500D02*
G03*
X505300Y2567500I-50800J0D01*
G01*
X11425800Y4450000D02*
G03*
X11425800Y4450000I-50800J0D01*
G01*
X12225800Y2300000D02*
G03*
X12225800Y2300000I-50800J0D01*
G01*
X6300800Y1150000D02*
G03*
X6300800Y1150000I-50800J0D01*
G01*
D179*
X11405480Y4450000D02*
G03*
X11405480Y4450000I-30480J0D01*
G01*
X12205480Y2300000D02*
G03*
X12205480Y2300000I-30480J0D01*
G01*
X6280480Y1150000D02*
G03*
X6280480Y1150000I-30480J0D01*
G01*
%TF.MD5,62e44e81f499d2e613e2913ea17a9a6d*%
M02*
