%TF.GenerationSoftware,Altium Limited,Altium Designer,22.1.2 (22)*%
G04 Layer_Physical_Order=1*
G04 Layer_Color=255*
%FSLAX45Y45*%
%MOMM*%
%TF.SameCoordinates,5EC5152B-D9DC-4A70-AFCB-378F050BE7B4*%
%TF.FilePolarity,Positive*%
%TF.FileFunction,Copper,L1,Top,Signal*%
%TF.Part,Single*%
G01*
G75*
%TA.AperFunction,SMDPad,CuDef*%
%ADD10R,2.50000X2.30000*%
%ADD11R,0.58000X1.73000*%
%ADD12C,1.73970*%
%ADD13R,1.00000X1.10000*%
%ADD14R,1.90000X1.80000*%
%ADD15R,1.35000X0.40000*%
%TA.AperFunction,SMDPad,SMDef*%
%ADD16R,0.35000X0.47500*%
%ADD17R,0.47500X0.25000*%
%TA.AperFunction,SMDPad,CuDef*%
%ADD18R,0.90000X0.70000*%
%ADD19R,0.80000X0.80000*%
G04:AMPARAMS|DCode=20|XSize=0.325mm|YSize=0.4mm|CornerRadius=0mm|HoleSize=0mm|Usage=FLASHONLY|Rotation=45.000|XOffset=0mm|YOffset=0mm|HoleType=Round|Shape=Rectangle|*
%AMROTATEDRECTD20*
4,1,4,0.02652,-0.25633,-0.25633,0.02652,-0.02652,0.25633,0.25633,-0.02652,0.02652,-0.25633,0.0*
%
%ADD20ROTATEDRECTD20*%

%ADD21R,0.90000X0.80000*%
%TA.AperFunction,ConnectorPad*%
%ADD22R,0.90000X0.70000*%
%ADD23R,1.10000X1.00000*%
%TA.AperFunction,SMDPad,CuDef*%
%ADD24R,2.50000X2.50000*%
G04:AMPARAMS|DCode=25|XSize=0.3mm|YSize=1.5mm|CornerRadius=0mm|HoleSize=0mm|Usage=FLASHONLY|Rotation=315.000|XOffset=0mm|YOffset=0mm|HoleType=Round|Shape=Rectangle|*
%AMROTATEDRECTD25*
4,1,4,-0.63640,-0.42426,0.42426,0.63640,0.63640,0.42426,-0.42426,-0.63640,-0.63640,-0.42426,0.0*
%
%ADD25ROTATEDRECTD25*%

G04:AMPARAMS|DCode=26|XSize=0.3mm|YSize=1.5mm|CornerRadius=0mm|HoleSize=0mm|Usage=FLASHONLY|Rotation=45.000|XOffset=0mm|YOffset=0mm|HoleType=Round|Shape=Rectangle|*
%AMROTATEDRECTD26*
4,1,4,0.42426,-0.63640,-0.63640,0.42426,-0.42426,0.63640,0.63640,-0.42426,0.42426,-0.63640,0.0*
%
%ADD26ROTATEDRECTD26*%

%ADD27R,1.80000X1.17000*%
%ADD28R,1.10000X0.75000*%
%ADD29R,1.10000X0.85000*%
%ADD30R,1.35000X1.55000*%
%ADD31R,1.00000X1.20000*%
%ADD32R,1.35000X1.90000*%
%ADD33R,2.00000X2.00000*%
%ADD34R,1.20000X1.00000*%
%ADD35R,1.10000X1.00000*%
G04:AMPARAMS|DCode=36|XSize=1mm|YSize=1.1mm|CornerRadius=0mm|HoleSize=0mm|Usage=FLASHONLY|Rotation=45.000|XOffset=0mm|YOffset=0mm|HoleType=Round|Shape=Rectangle|*
%AMROTATEDRECTD36*
4,1,4,0.03535,-0.74246,-0.74246,0.03535,-0.03535,0.74246,0.74246,-0.03535,0.03535,-0.74246,0.0*
%
%ADD36ROTATEDRECTD36*%

%ADD37R,0.25000X0.27500*%
%ADD38R,0.27500X0.25000*%
%ADD39R,1.10000X0.60000*%
%ADD40R,1.95580X3.14960*%
%ADD41R,1.00000X1.15000*%
%ADD42R,0.65000X0.25000*%
%ADD43R,0.25000X0.65000*%
%ADD44R,0.70000X0.90000*%
%ADD45R,1.00000X2.50000*%
%ADD46R,3.30000X2.50000*%
%ADD47R,1.05000X1.00000*%
%ADD48R,2.20000X1.05000*%
%TA.AperFunction,SMDPad,SMDef*%
%ADD49R,0.70000X1.80000*%
%ADD50R,0.80000X1.80000*%
%TA.AperFunction,SMDPad,CuDef*%
%ADD51R,0.80000X0.80000*%
%TA.AperFunction,Conductor*%
%ADD52C,0.20000*%
%ADD53C,0.50000*%
%ADD54C,0.25000*%
%ADD55C,0.30000*%
%ADD56C,0.40000*%
%ADD57C,0.70000*%
%ADD58R,1.90000X1.57500*%
%TA.AperFunction,ComponentPad*%
%ADD59O,1.90000X1.20000*%
%ADD60O,1.25000X1.05000*%
%ADD61C,1.50000*%
%ADD62R,1.50000X1.50000*%
%ADD63C,4.30000*%
%ADD64C,1.12000*%
%ADD65R,1.12000X1.12000*%
%ADD66C,4.24000*%
%ADD67C,2.20000*%
%TA.AperFunction,ViaPad*%
%ADD68C,0.80000*%
%ADD69C,0.60000*%
%ADD70C,1.00000*%
%ADD71C,0.50000*%
%ADD72C,3.20000*%
G36*
X11525351Y2705403D02*
Y2855403D01*
X11466700D01*
Y3158403D01*
X11660001D01*
Y2855403D01*
X11601350D01*
Y2705403D01*
X11525351D01*
D02*
G37*
D10*
X11399074Y3635000D02*
D03*
X10969074D02*
D03*
D11*
X11413351Y2791903D02*
D03*
X11713350D02*
D03*
D12*
X11563351Y2970000D02*
D03*
D13*
X10870000Y2300000D02*
D03*
X11050000D02*
D03*
X15139999Y1960000D02*
D03*
X15320000D02*
D03*
X15310001Y2910000D02*
D03*
X15489999D02*
D03*
X12025800Y1932075D02*
D03*
X12205800D02*
D03*
D14*
X12350000Y2687500D02*
D03*
Y2457500D02*
D03*
D15*
X12082500Y2442500D02*
D03*
X12082500Y2507500D02*
D03*
X12082500Y2702501D02*
D03*
Y2572500D02*
D03*
Y2637500D02*
D03*
D16*
X1475000Y2343750D02*
D03*
X1525000D02*
D03*
X1575000D02*
D03*
X1625000D02*
D03*
X1675000D02*
D03*
X1725000D02*
D03*
X1775000D02*
D03*
X1825000D02*
D03*
X1875000D02*
D03*
X1925000D02*
D03*
Y2656250D02*
D03*
X1875000D02*
D03*
X1825000D02*
D03*
X1775000D02*
D03*
X1725000D02*
D03*
X1675000D02*
D03*
X1625000D02*
D03*
X1575000D02*
D03*
X1525000D02*
D03*
X1475000D02*
D03*
D17*
X1468750Y2575000D02*
D03*
Y2525000D02*
D03*
Y2475000D02*
D03*
Y2425000D02*
D03*
X1931250D02*
D03*
Y2475000D02*
D03*
Y2525000D02*
D03*
Y2575000D02*
D03*
D18*
X10390000Y2655000D02*
D03*
Y2505000D02*
D03*
X15200000Y3805000D02*
D03*
Y3955000D02*
D03*
X14550000Y3835000D02*
D03*
Y3985000D02*
D03*
X11650000Y4725000D02*
D03*
Y4575000D02*
D03*
X11380000Y4575000D02*
D03*
Y4725000D02*
D03*
X11557000Y2414200D02*
D03*
Y2564200D02*
D03*
X14939999Y3815000D02*
D03*
Y3965000D02*
D03*
D19*
X10119215Y2500000D02*
D03*
Y2660000D02*
D03*
X11413351Y2580000D02*
D03*
Y2420000D02*
D03*
D20*
X2960000Y3380000D02*
D03*
X2898128Y3318128D02*
D03*
D21*
X9370000Y3420000D02*
D03*
X9170000Y3325000D02*
D03*
Y3515000D02*
D03*
D22*
X15500000Y3825000D02*
D03*
Y3975000D02*
D03*
D23*
X1050000Y5420000D02*
D03*
Y5600000D02*
D03*
X750000Y5420000D02*
D03*
Y5600000D02*
D03*
X1340000Y5420000D02*
D03*
Y5600000D02*
D03*
D24*
X10310000Y3080000D02*
D03*
Y3780000D02*
D03*
X9610000Y3080000D02*
D03*
Y3780000D02*
D03*
D25*
X6390843Y3900000D02*
D03*
X6426198Y3864645D02*
D03*
X6461553Y3829290D02*
D03*
X6496909Y3793934D02*
D03*
X6532264Y3758579D02*
D03*
X6567619Y3723224D02*
D03*
X6602974Y3687868D02*
D03*
X6638330Y3652513D02*
D03*
X6673685Y3617158D02*
D03*
X6709040Y3581803D02*
D03*
X6744395Y3546447D02*
D03*
X6779751Y3511092D02*
D03*
X6815106Y3475737D02*
D03*
X6850461Y3440381D02*
D03*
X6885817Y3405026D02*
D03*
X6921172Y3369671D02*
D03*
X6956527Y3334316D02*
D03*
X6991882Y3298961D02*
D03*
X7027238Y3263605D02*
D03*
X7062593Y3228250D02*
D03*
X7097948Y3192895D02*
D03*
X7133304Y3157540D02*
D03*
X7168659Y3122184D02*
D03*
X7204014Y3086829D02*
D03*
X7239370Y3051473D02*
D03*
X7274725Y3016118D02*
D03*
X7310080Y2980763D02*
D03*
X7345435Y2945408D02*
D03*
X7380790Y2910052D02*
D03*
X7416146Y2874697D02*
D03*
X7451501Y2839342D02*
D03*
X7486856Y2803987D02*
D03*
X7522212Y2768631D02*
D03*
X7557567Y2733276D02*
D03*
X7592922Y2697921D02*
D03*
X7628277Y2662566D02*
D03*
X6108000Y1142289D02*
D03*
X6072645Y1177644D02*
D03*
X6037289Y1212999D02*
D03*
X6001934Y1248354D02*
D03*
X5966579Y1283709D02*
D03*
X5931224Y1319065D02*
D03*
X5895868Y1354420D02*
D03*
X5860513Y1389775D02*
D03*
X5825158Y1425130D02*
D03*
X5789802Y1460486D02*
D03*
X5754447Y1495841D02*
D03*
X5719092Y1531196D02*
D03*
X5683737Y1566552D02*
D03*
X5648381Y1601907D02*
D03*
X5613026Y1637262D02*
D03*
X5577671Y1672617D02*
D03*
X5542316Y1707973D02*
D03*
X5506961Y1743328D02*
D03*
X5471605Y1778683D02*
D03*
X5436250Y1814038D02*
D03*
X5400894Y1849394D02*
D03*
X5365539Y1884749D02*
D03*
X5330184Y1920104D02*
D03*
X5294829Y1955459D02*
D03*
X5259474Y1990815D02*
D03*
X5224118Y2026170D02*
D03*
X5188763Y2061525D02*
D03*
X5153408Y2096880D02*
D03*
X5118053Y2132236D02*
D03*
X5082697Y2167591D02*
D03*
X5047342Y2202946D02*
D03*
X5011987Y2238302D02*
D03*
X4976631Y2273657D02*
D03*
X4941276Y2309012D02*
D03*
X4905921Y2344367D02*
D03*
X4870566Y2379723D02*
D03*
D26*
X7628277D02*
D03*
X7592922Y2344367D02*
D03*
X7557567Y2309012D02*
D03*
X7522212Y2273657D02*
D03*
X7486856Y2238302D02*
D03*
X7451501Y2202946D02*
D03*
X7416146Y2167591D02*
D03*
X7380790Y2132236D02*
D03*
X7345435Y2096880D02*
D03*
X7310080Y2061525D02*
D03*
X7274725Y2026170D02*
D03*
X7239370Y1990815D02*
D03*
X7204014Y1955459D02*
D03*
X7168659Y1920104D02*
D03*
X7133303Y1884749D02*
D03*
X7097948Y1849394D02*
D03*
X7062593Y1814038D02*
D03*
X7027238Y1778683D02*
D03*
X6991882Y1743328D02*
D03*
X6956527Y1707973D02*
D03*
X6921172Y1672617D02*
D03*
X6885817Y1637262D02*
D03*
X6850461Y1601907D02*
D03*
X6815106Y1566552D02*
D03*
X6779751Y1531196D02*
D03*
X6744395Y1495841D02*
D03*
X6709040Y1460486D02*
D03*
X6673685Y1425130D02*
D03*
X6638330Y1389775D02*
D03*
X6602974Y1354420D02*
D03*
X6567619Y1319065D02*
D03*
X6532264Y1283709D02*
D03*
X6496909Y1248354D02*
D03*
X6461553Y1212999D02*
D03*
X6426198Y1177644D02*
D03*
X6390843Y1142288D02*
D03*
X4870566Y2662566D02*
D03*
X4905921Y2697921D02*
D03*
X4941276Y2733276D02*
D03*
X4976631Y2768631D02*
D03*
X5011987Y2803987D02*
D03*
X5047342Y2839342D02*
D03*
X5082697Y2874697D02*
D03*
X5118053Y2910052D02*
D03*
X5153408Y2945408D02*
D03*
X5188763Y2980763D02*
D03*
X5224118Y3016118D02*
D03*
X5259474Y3051473D02*
D03*
X5294829Y3086829D02*
D03*
X5330184Y3122184D02*
D03*
X5365539Y3157539D02*
D03*
X5400894Y3192895D02*
D03*
X5436250Y3228250D02*
D03*
X5471605Y3263605D02*
D03*
X5506960Y3298960D02*
D03*
X5542316Y3334316D02*
D03*
X5577671Y3369671D02*
D03*
X5613026Y3405026D02*
D03*
X5648381Y3440381D02*
D03*
X5683737Y3475737D02*
D03*
X5719092Y3511092D02*
D03*
X5754447Y3546447D02*
D03*
X5789802Y3581803D02*
D03*
X5825158Y3617158D02*
D03*
X5860513Y3652513D02*
D03*
X5895868Y3687868D02*
D03*
X5931224Y3723224D02*
D03*
X5966579Y3758579D02*
D03*
X6001934Y3793934D02*
D03*
X6037289Y3829290D02*
D03*
X6072645Y3864645D02*
D03*
X6108000Y3900000D02*
D03*
D27*
X193750Y4274750D02*
D03*
D28*
X158750Y4153750D02*
D03*
D29*
Y4048750D02*
D03*
X158751Y3938750D02*
D03*
X158750Y3828750D02*
D03*
X158751Y3718750D02*
D03*
X158750Y3608750D02*
D03*
X158751Y3498750D02*
D03*
X158750Y3388750D02*
D03*
D30*
X171250Y3142750D02*
D03*
D31*
X1143750Y3125250D02*
D03*
X773750Y3125250D02*
D03*
D32*
X1241251Y3475250D02*
D03*
X1241250Y4072250D02*
D03*
D33*
X3900000Y2500000D02*
D03*
D34*
X6165000Y735000D02*
D03*
X6335000D02*
D03*
Y865000D02*
D03*
X6165000D02*
D03*
D35*
X14250000Y1810000D02*
D03*
Y1990000D02*
D03*
X13960001Y1790000D02*
D03*
Y1970000D02*
D03*
X13680000Y1760000D02*
D03*
Y1940000D02*
D03*
X14830000Y1830000D02*
D03*
Y2010000D02*
D03*
X14530000Y1840000D02*
D03*
Y2020000D02*
D03*
X15030000Y2830000D02*
D03*
Y3010000D02*
D03*
X14699922Y2812000D02*
D03*
Y2992000D02*
D03*
X3920000Y2920000D02*
D03*
Y3100000D02*
D03*
X13970000Y2820000D02*
D03*
Y3000000D02*
D03*
X13710001Y2820000D02*
D03*
Y3000000D02*
D03*
D36*
X11726361Y2526360D02*
D03*
X11853640Y2653640D02*
D03*
D37*
X8275000Y2576250D02*
D03*
X8325000D02*
D03*
Y2423750D02*
D03*
X8275000D02*
D03*
D38*
X8376250Y2575000D02*
D03*
Y2525000D02*
D03*
Y2475000D02*
D03*
Y2425000D02*
D03*
X8223750D02*
D03*
Y2475000D02*
D03*
Y2525000D02*
D03*
Y2575000D02*
D03*
D39*
X8980000Y2567500D02*
D03*
Y2442500D02*
D03*
Y2317500D02*
D03*
Y2192500D02*
D03*
X8760000D02*
D03*
Y2317500D02*
D03*
Y2442500D02*
D03*
Y2567500D02*
D03*
X4600000Y2570000D02*
D03*
Y2430000D02*
D03*
D40*
X10939890Y4160000D02*
D03*
X11430110D02*
D03*
D41*
X10660000Y4027499D02*
D03*
Y3792500D02*
D03*
D42*
X3745000Y2575000D02*
D03*
Y2525000D02*
D03*
Y2475000D02*
D03*
Y2425000D02*
D03*
X4055000D02*
D03*
Y2475000D02*
D03*
Y2525000D02*
D03*
Y2575000D02*
D03*
D43*
X3825000Y2345000D02*
D03*
X3875000D02*
D03*
X3925000D02*
D03*
X3975000D02*
D03*
Y2655000D02*
D03*
X3925000D02*
D03*
X3875000D02*
D03*
X3825000D02*
D03*
D44*
X10825000Y1970000D02*
D03*
X10975000D02*
D03*
X10825000Y2120000D02*
D03*
X10975000D02*
D03*
X2802075Y3650000D02*
D03*
X2652075D02*
D03*
D45*
X10637925Y2565000D02*
D03*
X10867925Y2565000D02*
D03*
X11097925Y2565000D02*
D03*
D46*
X10867925Y3175000D02*
D03*
D47*
X2552500Y2500000D02*
D03*
D48*
X2400000Y2352500D02*
D03*
Y2647500D02*
D03*
D49*
X2390000Y3071925D02*
D03*
X1510000D02*
D03*
Y4021925D02*
D03*
X2390000D02*
D03*
D50*
X2279999Y3071925D02*
D03*
X2170000D02*
D03*
X2060000D02*
D03*
X1950000D02*
D03*
X1839999D02*
D03*
X1730000D02*
D03*
X1620000D02*
D03*
X1620000Y4021926D02*
D03*
X1730000Y4021925D02*
D03*
X1840000Y4021926D02*
D03*
X1950000Y4021925D02*
D03*
X2059999Y4021926D02*
D03*
X2170000Y4021925D02*
D03*
X2280000Y4021926D02*
D03*
D51*
X3090000Y3650000D02*
D03*
X2930000D02*
D03*
D52*
X1680824Y2500000D02*
X1705824Y2475000D01*
X1931250D01*
X1670000Y2500000D02*
X1680824D01*
X1595000Y2575000D02*
X1670000Y2500000D01*
X1468750Y2575000D02*
X1595000D01*
X1475000Y2415000D02*
X1480000Y2420000D01*
X1595000Y2425000D02*
X1670000Y2500000D01*
X1468750Y2425000D02*
X1595000D01*
X1670000Y2500000D02*
X1675000Y2505000D01*
Y2656250D01*
X1475000Y2343750D02*
Y2415000D01*
X2390000Y2500000D02*
X2400000Y2510000D01*
X1930000Y2476250D02*
Y2520000D01*
Y2476250D02*
X1931250Y2475000D01*
X2280000Y2912500D02*
Y3080000D01*
X1942500Y2575000D02*
X2280000Y2912500D01*
X1931250Y2575000D02*
X1942500D01*
X2170000Y2907500D02*
Y3070000D01*
X1925000Y2656250D02*
Y2662500D01*
X2170000Y2907500D01*
X3090000Y3640000D02*
X3100000Y3650000D01*
X3240000D01*
X3090000Y3510000D02*
Y3640000D01*
X2960000Y3380000D02*
X3090000Y3510000D01*
X2962651Y3377349D02*
X2971491D01*
X2960000Y3380000D02*
X2962651Y3377349D01*
X2802075Y3650000D02*
X2930000D01*
X2802075Y3650000D02*
X2802075Y3650000D01*
X2260000Y3650000D02*
X2652075D01*
X2060000Y3850000D02*
X2260000Y3650000D01*
X10630000Y2570000D02*
X10640000Y2580000D01*
X12050000Y2800000D02*
X12065000D01*
X11558351Y2975000D02*
X11563351Y2970000D01*
X12050000Y2350000D02*
X12060000D01*
X12050000Y2795000D02*
Y2800000D01*
X12322499Y2702501D02*
X12325000Y2700000D01*
X10490200Y1634800D02*
X10500000Y1625000D01*
X11413351Y2580000D02*
Y2777351D01*
X11557000Y2565400D02*
Y2794000D01*
X2059999Y3850000D02*
Y4021926D01*
X5428341Y1576321D02*
Y1664709D01*
X4609520Y757500D02*
X5428341Y1576321D01*
Y1664709D02*
X5506961Y1743328D01*
X4357500Y757500D02*
X4609520D01*
X4125000Y525000D02*
X4357500Y757500D01*
X3944508Y525000D02*
X4125000D01*
X3863000Y443492D02*
X3944508Y525000D01*
X3863000Y251000D02*
Y443492D01*
Y251000D02*
X3968000Y146000D01*
D53*
X2400000Y2510000D02*
Y2647500D01*
Y2500000D02*
Y2510000D01*
X2852500Y3350000D02*
X2860499D01*
X2955250Y3255250D02*
X3100008Y3110491D01*
X2552500Y2500000D02*
X3100000D01*
X3100008Y2500008D01*
Y3110491D01*
X2860499Y3350000D02*
X2955250Y3255250D01*
X10867925Y2565000D02*
Y3175000D01*
X11380000Y3110000D02*
X11385740Y3104260D01*
X11545740D01*
X9530000Y3700000D02*
Y3710000D01*
X9170000Y3325000D02*
X9175000D01*
X10868963Y2298962D02*
Y2563963D01*
Y2298962D02*
X10870000Y2300000D01*
X10860000Y2290000D02*
X10868963Y2298962D01*
X10329215Y2290000D02*
X10860000D01*
X10119215Y2500000D02*
X10329215Y2290000D01*
X10112500Y2657500D02*
X10387500D01*
X10110000Y2660000D02*
X10112500Y2657500D01*
X10387500D02*
X10390000Y2655000D01*
X10390000Y2510000D02*
X10395000Y2505000D01*
X10612925D02*
Y2510000D01*
X10395000Y2505000D02*
X10612925D01*
X10637925Y2535000D02*
Y2565000D01*
X10612925Y2510000D02*
X10637925Y2535000D01*
X10867925Y2565000D02*
X10868963Y2563963D01*
X11050000Y2300000D02*
Y2305000D01*
Y2290000D02*
Y2300000D01*
X11097925Y2352926D02*
Y2565000D01*
X11050000Y2305000D02*
X11097925Y2352926D01*
Y2565000D02*
Y3343851D01*
X11050000Y2300000D02*
X11050000Y2300000D01*
X12044477Y2784477D02*
X12050000Y2790000D01*
X11853640Y2653640D02*
X11984477Y2784477D01*
X12044477D01*
X11710000Y2540000D02*
X11722825Y2552825D01*
Y2565252D01*
X11713350Y2574726D02*
Y2791903D01*
Y2574726D02*
X11722825Y2565252D01*
X11380000Y2960000D02*
X11413351Y2926649D01*
Y2791903D02*
Y2926649D01*
X11545740Y3104260D02*
X11599110Y3050890D01*
X10640000Y2580000D02*
Y2870000D01*
X11462674Y3581400D02*
X11713350Y3330724D01*
Y2791903D02*
Y3330724D01*
X11097925Y3343851D02*
X11360875Y3606800D01*
X11408700Y2417100D02*
X11554100D01*
X11557000Y2414200D01*
X11404600Y2413000D02*
X11408700Y2417100D01*
X1620000Y3260000D02*
X1710000Y3350000D01*
X2852500D01*
X1620000Y3071925D02*
Y3260000D01*
X2400000Y2352500D02*
Y2500000D01*
X1730000Y4021926D02*
Y4250000D01*
X1730000Y4021925D02*
X1730000Y4021926D01*
Y4250000D02*
X1730000Y4250000D01*
X6810260Y2489741D02*
Y2879740D01*
X6810000Y2880000D02*
X6810260Y2879740D01*
Y2489741D02*
X6810520Y2489481D01*
X6165000Y865000D02*
Y1065000D01*
X6250000Y1150000D01*
X6000000Y146000D02*
X6335000Y481000D01*
Y735000D01*
D54*
X2279999Y3071925D02*
Y3249999D01*
X11430000Y3581400D02*
X11462674D01*
X11360875Y3606800D02*
X11379200D01*
X10975000Y2120000D02*
X11540000D01*
X11992234Y2572234D01*
X11460000Y1970000D02*
X11994734Y2504734D01*
X10975000Y1970000D02*
X11460000D01*
X11992234Y2572234D02*
X12082234D01*
X12082500Y2572500D01*
X11994734Y2504734D02*
X12079734D01*
X12082500Y2507500D01*
X11650000Y4575000D02*
X11660000D01*
X12125000Y4075000D02*
Y4110000D01*
X11425000Y4200000D02*
Y4224800D01*
X12082500Y2442500D02*
X12130000D01*
X1574500Y444528D02*
X1879972Y750000D01*
X2514136D01*
X1574500Y253500D02*
Y444528D01*
X5492000Y4162448D02*
X6029016Y3625431D01*
X5137099Y2750000D02*
X5220000D01*
X6630000Y1610237D02*
Y1780000D01*
Y1610237D02*
X6744395Y1495841D01*
X1950000Y3071925D02*
Y3250000D01*
X2170000Y3071925D02*
Y3250000D01*
X1620000Y3850000D02*
Y4021926D01*
X1950000Y3850000D02*
Y4021925D01*
X1730000Y3071925D02*
X1730103Y3072029D01*
Y3249896D01*
X2390000Y3850000D02*
Y4021925D01*
X1510000Y3071925D02*
Y3250000D01*
X5520000Y1968499D02*
Y2040000D01*
X5400894Y1849394D02*
X5520000Y1968499D01*
X5295842Y1744341D02*
X5400894Y1849394D01*
X5365539Y1884749D02*
Y1887679D01*
X5428394Y1950533D01*
Y2042135D01*
X5420000Y2050529D02*
X5428394Y2042135D01*
X5420000Y2050529D02*
Y2060000D01*
X5250842Y1770051D02*
X5365539Y1884749D01*
X5338974Y2140000D02*
X5340000D01*
X5225144Y2026170D02*
X5338974Y2140000D01*
X5120144Y2132236D02*
X5237908Y2250000D01*
X5118053Y2132236D02*
X5120144D01*
X5237908Y2250000D02*
X5240000D01*
X5140000Y2670000D02*
Y2672987D01*
X5011987Y2801000D02*
Y2803987D01*
Y2801000D02*
X5140000Y2672987D01*
X4890842Y2117158D02*
X5088329Y2314645D01*
Y2377627D01*
X4895956Y2570000D02*
X5088329Y2377627D01*
X4600000Y2570000D02*
X4895956D01*
X5060000Y2600000D02*
Y2685263D01*
X4976631Y2768631D02*
X5060000Y2685263D01*
X4926454Y2475862D02*
X5039645Y2362672D01*
Y2336671D02*
Y2362672D01*
X4976631Y2273657D02*
X5039645Y2336671D01*
X4976631Y2273657D02*
Y2273657D01*
X4807408Y2475862D02*
X4926454D01*
X4710843Y1873518D02*
Y2099157D01*
X4680000Y2130000D02*
X4710843Y2099157D01*
X4680000Y2130000D02*
Y2220000D01*
X4750000Y2290000D01*
X4780843D01*
X4870566Y2379723D01*
X4442800Y1159999D02*
X5025842Y1743041D01*
X5160842Y1687123D02*
Y1821472D01*
X5205842Y1668483D02*
Y1795762D01*
X4755843Y2194289D02*
X4905921Y2344367D01*
X4424161Y1204999D02*
X4980842Y1761681D01*
Y1924315D02*
X5153408Y2096880D01*
X5160842Y1821472D02*
X5294829Y1955459D01*
X5385841Y1692919D02*
X5471605Y1778683D01*
X4845842Y1817599D02*
Y2142868D01*
X5115842Y1847183D02*
X5259474Y1990815D01*
X5340841Y1718630D02*
X5436250Y1814038D01*
X5115842Y1705762D02*
Y1847183D01*
X4349602Y1384999D02*
X4800843Y1836239D01*
X5250842Y1649844D02*
Y1770051D01*
X4405521Y1249999D02*
X4935842Y1780320D01*
X5025842Y1743041D02*
Y1898604D01*
X5070842Y1724402D02*
Y1872894D01*
X5295842Y1631204D02*
Y1744341D01*
X4755843Y1854878D02*
Y2194289D01*
X5385841Y1593925D02*
Y1692919D01*
X4890842Y1798960D02*
Y2117158D01*
X5025842Y1898604D02*
X5188763Y2061525D01*
X5205842Y1795762D02*
X5330184Y1920104D01*
X4554637Y890000D02*
X5295842Y1631204D01*
X4800843Y2168579D02*
X4941276Y2309012D01*
X4573277Y845000D02*
X5340841Y1612564D01*
X4480079Y1069999D02*
X5115842Y1705762D01*
X5470841Y1632963D02*
X5542316Y1704437D01*
X4935842Y2020736D02*
X5082697Y2167591D01*
X4368242Y1339999D02*
X4845842Y1817599D01*
X5340841Y1612564D02*
Y1718630D01*
X4312323Y1474999D02*
X4710843Y1873518D01*
X4627124Y715000D02*
X5470841Y1558717D01*
Y1632963D01*
X4330963Y1429999D02*
X4755843Y1854878D01*
X4386881Y1294999D02*
X4890842Y1798960D01*
X4591916Y800000D02*
X5385841Y1593925D01*
X4517358Y980000D02*
X5205842Y1668483D01*
X4461440Y1114999D02*
X5070842Y1724402D01*
X4535998Y935000D02*
X5250842Y1649844D01*
X4845842Y2142868D02*
X4976631Y2273657D01*
X4800843Y1836239D02*
Y2168579D01*
X4935842Y1780320D02*
Y2020736D01*
X5070842Y1872894D02*
X5224118Y2026170D01*
X4980842Y1761681D02*
Y1924315D01*
X4498719Y1024999D02*
X5160842Y1687123D01*
X6990000Y2222530D02*
X7229759Y2462290D01*
X6990000Y2028052D02*
Y2222530D01*
X7229759Y2462290D02*
X7545710D01*
X6537500Y3212500D02*
Y3410262D01*
X6709040Y3581803D01*
X6920000Y3140000D02*
Y3223543D01*
X6991882Y3295425D01*
X6920000Y3140000D02*
X6980000Y3080000D01*
X6840000Y3130000D02*
Y3284964D01*
X6921172Y3366136D01*
X6760000Y3200000D02*
Y3279210D01*
X6921172Y3366136D02*
Y3369671D01*
X7846501Y4295000D01*
X6760000Y3279210D02*
X7820791Y4340000D01*
X6685040Y3274960D02*
X6850461Y3440381D01*
X6991882Y3295425D02*
Y3298961D01*
X6100000Y4120000D02*
Y4125145D01*
X6127000Y4152145D01*
Y4723000D01*
X5748000Y4047868D02*
Y4594000D01*
Y4047868D02*
X6001934Y3793934D01*
X5746000Y4596000D02*
X5748000Y4594000D01*
X5881506Y4121506D02*
Y4714494D01*
X5880000Y4120000D02*
X5881506Y4121506D01*
X5880000Y3986579D02*
Y4120000D01*
Y3986579D02*
X6037289Y3829290D01*
X5746000Y4850000D02*
X5881506Y4714494D01*
X6040000Y4060000D02*
X6100000Y4120000D01*
X6040000Y3968000D02*
Y4060000D01*
Y3968000D02*
X6108000Y3900000D01*
X5990000Y3947290D02*
Y4120000D01*
Y3947290D02*
X6072645Y3864645D01*
X5995000Y4125000D02*
Y4591000D01*
X6000000Y4596000D01*
X5990000Y4120000D02*
X5995000Y4125000D01*
X5899000Y3687868D02*
X6057012Y3529856D01*
X5950472Y3533865D02*
X5957169Y3527169D01*
X6057012Y3529856D02*
X6057422D01*
X5238000Y4275026D02*
X5950472Y3562554D01*
Y3533865D02*
Y3562554D01*
X6080803Y3625431D02*
X6087500Y3618735D01*
X6029016Y3625431D02*
X6080803D01*
X5895868Y3687868D02*
X5899000D01*
X5384500Y4199237D02*
X5895868Y3687868D01*
X6112205Y3697794D02*
X6160000Y3650000D01*
Y3255000D02*
Y3650000D01*
X6045000Y3140000D02*
X6160000Y3255000D01*
X6030899Y3697794D02*
X6112205D01*
X5966579Y3758579D02*
X5970114D01*
X6030899Y3697794D01*
X5638500Y4086658D02*
X5966579Y3758579D01*
X5472604Y3263605D02*
X5537389Y3198819D01*
X5611181D02*
X5660000Y3150000D01*
X5471605Y3263605D02*
X5472604D01*
X5537389Y3198819D02*
X5611181D01*
X5660000Y3040000D02*
Y3150000D01*
X5537803Y3126697D02*
X5573303D01*
X5580000Y3120000D01*
X5544000Y3334316D02*
X5818315Y3060000D01*
X5542316Y3334316D02*
X5544000D01*
X5818315Y3060000D02*
X5820000D01*
X5807342Y3140000D02*
X5910000D01*
X4517342Y4430000D02*
X5577671Y3369671D01*
X5807342Y3140000D01*
X5355000Y3309499D02*
X5537803Y3126697D01*
X5683789Y2910000D02*
X5780000D01*
X5310000Y3283789D02*
X5400894Y3192895D01*
X5683789Y2910000D01*
X5047342Y2839342D02*
X5047758D01*
X5137099Y2750000D01*
X4815001Y3000972D02*
X5011987Y2803987D01*
X5224118Y2026170D02*
X5225144D01*
X5590000Y1826367D02*
Y1910000D01*
X5506961Y1743328D02*
X5590000Y1826367D01*
X5577671Y1672617D02*
X5784950Y1879896D01*
X5839896D01*
X5960000Y1489262D02*
Y1620000D01*
X5885942Y1489450D02*
Y1684058D01*
X4984000Y583973D02*
X5825158Y1425130D01*
Y1428666D01*
X5885942Y1489450D01*
X5895868Y1354420D02*
X6032500Y1491052D01*
Y1560000D01*
X6175341Y1425341D02*
X6180000Y1430000D01*
X6108211Y1425341D02*
X6175341D01*
X5966579Y1283709D02*
X6108211Y1425341D01*
X5860513Y1389775D02*
X5960000Y1489262D01*
X5931224Y1319065D02*
X6110000Y1497841D01*
X6037289Y1213890D02*
X6160009Y1336610D01*
Y1337500D01*
X6037289Y1212999D02*
Y1213890D01*
X6311293Y1221838D02*
X6475000Y1058131D01*
X6310104Y1279896D02*
X6311293Y1278707D01*
Y1221838D02*
Y1278707D01*
X6556697Y1553303D02*
X6616223D01*
X7516000Y653526D01*
X6550000Y1560000D02*
X6556697Y1553303D01*
X6744395Y1495841D02*
X7623500Y616736D01*
X6910000Y2037342D02*
X7097948Y1849394D01*
X6910000Y2037342D02*
Y2040000D01*
X6700000Y1700000D02*
X6780000Y1780000D01*
X6700000Y1610947D02*
Y1700000D01*
Y1610947D02*
X6779751Y1531196D01*
X7060000Y2028763D02*
Y2120000D01*
X7130000Y2190000D01*
X7060000Y2028763D02*
X7168659Y1920104D01*
X7120529Y2190000D02*
X7130000D01*
X6990000Y2028052D02*
X7133303Y1884749D01*
X7124464Y2035009D02*
Y2064994D01*
X7150000Y2090529D01*
Y2100000D01*
X7124464Y2035009D02*
X7285135Y1874338D01*
X7320000Y2300000D02*
X7389797Y2369797D01*
X7493247D02*
X7554031Y2309012D01*
X7557567D01*
X7389797Y2369797D02*
X7493247D01*
X7168659Y3122184D02*
X8026475Y3980000D01*
X6998975Y2952500D02*
X7168659Y3122184D01*
X5837171Y2000000D02*
X5840000D01*
X5542316Y1707973D02*
X5545144D01*
X5837171Y2000000D01*
X5542316Y1704437D02*
Y1707973D01*
X5746000Y921710D02*
X6037289Y1212999D01*
X7240000Y2370000D02*
X7287290Y2417290D01*
X7520000D01*
X7545710Y2462290D02*
X7628277Y2379723D01*
X7520000Y2417290D02*
X7592922Y2344368D01*
Y2344367D02*
Y2344368D01*
X6610000Y3340000D02*
Y3412052D01*
X6744395Y3546447D01*
X6537500Y3212500D02*
X6600000Y3150000D01*
X6709040Y3581803D02*
X7623500Y4496262D01*
X6744395Y3546447D02*
Y3549982D01*
X5780000Y2910000D02*
X5910000Y3040000D01*
Y3140000D01*
X6045000D01*
X6600000Y3050000D02*
X6697500Y2952500D01*
X6600000Y3050000D02*
Y3150000D01*
X6990000Y2871407D02*
X7204014Y3085422D01*
Y3086829D01*
X6990000Y2870000D02*
Y2871407D01*
X6697500Y2952500D02*
X6998975D01*
X4761546Y2430000D02*
X4807408Y2475862D01*
X4600000Y2430000D02*
X4761546D01*
X10417500Y292500D02*
Y444528D01*
Y292500D02*
X10564000Y146000D01*
X9939305Y262695D02*
X10056000Y146000D01*
X9939305Y262695D02*
Y414723D01*
X9685305Y262695D02*
Y414723D01*
Y262695D02*
X9802000Y146000D01*
X9431305Y262695D02*
Y414723D01*
Y262695D02*
X9548000Y146000D01*
X9177305Y262695D02*
X9294000Y146000D01*
X9177305Y262695D02*
Y414723D01*
X8669305Y262695D02*
Y414723D01*
Y262695D02*
X8786000Y146000D01*
X8415305Y262695D02*
Y414723D01*
Y262695D02*
X8532000Y146000D01*
X8152555Y271445D02*
Y423472D01*
Y271445D02*
X8278000Y146000D01*
X2190001D02*
Y146813D01*
X2082500Y254313D02*
Y444528D01*
Y254313D02*
X2190001Y146813D01*
X1574500Y253500D02*
X1682000Y146000D01*
Y400000D02*
X1987000Y705000D01*
X2532775D01*
X2043972Y660000D02*
X2551415D01*
X2151000Y615000D02*
X2570054D01*
X1936000Y400000D02*
X2151000Y615000D01*
X1828500Y296500D02*
Y444528D01*
X2043972Y660000D01*
X2514136Y750000D02*
X3006635Y1242499D01*
X3827803D01*
X4060303Y1474999D01*
X4312323D01*
X2532775Y705000D02*
X3025274Y1197499D01*
X3846442D01*
X4078942Y1429999D01*
X4330963D01*
X3043914Y1152499D02*
X3865082D01*
X4097582Y1384999D01*
X4349602D01*
X1828500Y296500D02*
X1912083Y212917D01*
Y169917D02*
Y212917D01*
Y169917D02*
X1936000Y146000D01*
X2551415Y660000D02*
X3043914Y1152499D01*
X2082500Y444528D02*
X2207972Y570000D01*
X2588694D01*
X2570054Y615000D02*
X3062553Y1107499D01*
X3883721D01*
X4116221Y1339999D01*
X4368242D01*
X2315000Y525000D02*
X2607333D01*
X2190000Y400000D02*
X2315000Y525000D01*
X2588694Y570000D02*
X3081193Y1062499D01*
X3902361D01*
X2607333Y525000D02*
X3099833Y1017499D01*
X2590501Y253499D02*
Y444528D01*
X3118472Y972499D02*
X3939640D01*
X2590501Y444528D02*
X3118472Y972499D01*
X3902361Y1062499D02*
X4134861Y1294999D01*
X4386881D01*
X2190000Y400000D02*
X2444000Y146000D01*
X2444000D01*
X5384500Y253500D02*
X5492000Y146000D01*
X5384500Y253500D02*
Y772341D01*
X5931224Y1319065D01*
X3714000Y4850000D02*
X3837445Y4726555D01*
X3714000Y4596000D02*
X3880000Y4430000D01*
X3837445Y4574527D02*
X3936972Y4475000D01*
X3837445Y4574527D02*
Y4726555D01*
X3936972Y4475000D02*
X4275000D01*
X8342502Y1182499D02*
X8728284D01*
X7600134Y1924866D02*
Y2054313D01*
Y1924866D02*
X8342502Y1182499D01*
X8274609Y1047499D02*
X8672365D01*
X8218690Y912499D02*
X8616447D01*
X7330135Y1801054D02*
Y1900049D01*
X8255969Y1002499D02*
X8653726D01*
X8181411Y822499D02*
X8579168D01*
X7375135Y1819694D02*
Y1925760D01*
X8293248Y1092499D02*
X8691005D01*
X8162771Y777499D02*
X8560528D01*
X8312501Y1137499D02*
X8709645D01*
X8118421Y687500D02*
X8396528D01*
X7195135Y1745135D02*
Y1819382D01*
X7510135Y1875612D02*
Y2002892D01*
X7420135Y1838333D02*
X8255969Y1002499D01*
X8200050Y867499D02*
X8597807D01*
X7555134Y1894865D02*
Y2028602D01*
Y1894865D02*
X8312501Y1137499D01*
X7465135Y1856973D02*
Y1977181D01*
X7510135Y1875612D02*
X8293248Y1092499D01*
X7195135Y1745135D02*
X8162771Y777499D01*
X7240135Y1763775D02*
Y1845092D01*
Y1763775D02*
X8181411Y822499D01*
X7330135Y1801054D02*
X8218690Y912499D01*
X7285135Y1782415D02*
Y1874338D01*
X7420135Y1838333D02*
Y1951471D01*
X7375135Y1819694D02*
X8237329Y957499D01*
X7465135Y1856973D02*
X8274609Y1047499D01*
X7027238Y1778683D02*
X8118421Y687500D01*
X8237329Y957499D02*
X8635086D01*
X7062593Y1814038D02*
X8144132Y732499D01*
X7285135Y1782415D02*
X8200050Y867499D01*
X8144132Y732499D02*
X8453500D01*
X10691680Y526320D02*
X10818000Y400000D01*
X10501319Y526320D02*
X10691680D01*
X9962640Y1064999D02*
X10501319Y526320D01*
X8802842Y1362498D02*
X9100341Y1064999D01*
X9962640D01*
X9887028Y974999D02*
X10417500Y444528D01*
X9081702Y1019999D02*
X9944001D01*
X9063062Y974999D02*
X9887028D01*
X9944001Y1019999D02*
X10564000Y400000D01*
X8419730Y1362498D02*
X8802842D01*
X7780134Y2002094D02*
X8419730Y1362498D01*
X7780134Y2002094D02*
Y2150084D01*
X7557567Y2309012D02*
X7735134Y2131445D01*
Y1983455D02*
Y2131445D01*
X7702609Y2227609D02*
X7780134Y2150084D01*
X7702609Y2227609D02*
Y2305391D01*
X7628277Y2379722D02*
Y2379723D01*
Y2379722D02*
X7702609Y2305391D01*
X7522212Y2273657D02*
X7690134Y2105734D01*
Y1964815D02*
Y2105734D01*
X8784203Y1317498D02*
X9081702Y1019999D01*
X8401091Y1317498D02*
X8784203D01*
X7735134Y1983455D02*
X8401091Y1317498D01*
X7451501Y2202946D02*
X7600134Y2054313D01*
X7645134Y1946176D02*
Y2080024D01*
X7486856Y2238302D02*
X7645134Y2080024D01*
X9044423Y929999D02*
X9780001D01*
X9723028Y884999D02*
X10163500Y444528D01*
X9780001Y929999D02*
X10310000Y400000D01*
X9025783Y884999D02*
X9723028D01*
X10163500Y336500D02*
Y444528D01*
X8765563Y1272498D02*
X9063062Y974999D01*
X8382451Y1272498D02*
X8765563D01*
X7690134Y1964815D02*
X8382451Y1272498D01*
X8746924Y1227498D02*
X9044423Y929999D01*
X8363812Y1227498D02*
X8746924D01*
X7645134Y1946176D02*
X8363812Y1227498D01*
X10286083Y169917D02*
Y213917D01*
X10163500Y336500D02*
X10286083Y213917D01*
Y169917D02*
X10310000Y146000D01*
X8728284Y1182499D02*
X9025783Y884999D01*
X8691005Y1092499D02*
X8988504Y794999D01*
X8579168Y822499D02*
X8876667Y525000D01*
X8672365Y1047499D02*
X8969865Y750000D01*
X8396528Y687500D02*
X8669305Y414723D01*
X8653726Y1002499D02*
X8951225Y705000D01*
X8709645Y1137499D02*
X9007144Y839999D01*
X8597807Y867499D02*
X8895307Y570000D01*
X8635086Y957499D02*
X8932586Y660000D01*
X8453500Y732499D02*
X8786000Y400000D01*
X8616447Y912499D02*
X8913946Y615000D01*
X8560528Y777499D02*
X8927500Y410527D01*
X9007144Y839999D02*
X9616001D01*
X10056000Y400000D01*
X8988504Y794999D02*
X9559028D01*
X9452000Y750000D02*
X9802000Y400000D01*
X8969865Y750000D02*
X9452000D01*
X9559028Y794999D02*
X9939305Y414723D01*
X7416146Y2167591D02*
X7555134Y2028602D01*
X9395028Y705000D02*
X9685305Y414723D01*
X8951225Y705000D02*
X9395028D01*
X7380790Y2132236D02*
X7510135Y2002892D01*
X8932586Y660000D02*
X9288000D01*
X9548000Y400000D01*
X7345435Y2096880D02*
X7465135Y1977181D01*
X8913946Y615000D02*
X9231028D01*
X9431305Y414723D01*
X9029472Y410527D02*
X9040000Y400000D01*
X8876667Y525000D02*
X9067028D01*
X8895307Y570000D02*
X9124000D01*
X8927500Y410527D02*
X9029472D01*
X7310080Y2061525D02*
X7420135Y1951471D01*
X7274725Y2026170D02*
X7375135Y1925760D01*
X7239370Y1990815D02*
X7330135Y1900049D01*
X9124000Y570000D02*
X9294000Y400000D01*
X9067028Y525000D02*
X9177305Y414723D01*
X8092711Y642500D02*
X8289500D01*
X8532000Y400000D01*
X7168659Y1916568D02*
X7240135Y1845092D01*
X7168659Y1916568D02*
Y1920104D01*
X8067000Y597500D02*
X8232528D01*
X8415305Y414723D01*
X7133303Y1881213D02*
X7195135Y1819382D01*
X7133303Y1881213D02*
Y1884749D01*
X6991882Y1743328D02*
X8092711Y642500D01*
X6956527Y1707973D02*
X8067000Y597500D01*
X8125500Y552500D02*
X8278000Y400000D01*
X8041289Y552500D02*
X8125500D01*
X8015579Y507500D02*
X8068527D01*
X8152555Y423472D01*
X6885817Y1637262D02*
X8015579Y507500D01*
X6921172Y1672617D02*
X8041289Y552500D01*
X6850461Y1598372D02*
X8024000Y424833D01*
Y400000D02*
Y424833D01*
X6850461Y1598372D02*
Y1601907D01*
X6815106Y1566552D02*
X7877500Y504158D01*
Y292500D02*
Y504158D01*
Y292500D02*
X8024000Y146000D01*
X7770000Y400000D02*
Y540947D01*
X6779751Y1531196D02*
X7770000Y540947D01*
X7623500Y292500D02*
Y616736D01*
Y292500D02*
X7770000Y146000D01*
X7516000Y400000D02*
Y653526D01*
X6673685Y1425130D02*
X7369500Y729316D01*
Y292500D02*
Y729316D01*
Y292500D02*
X7516000Y146000D01*
X6638330Y1389775D02*
X7262000Y766105D01*
Y400000D02*
Y766105D01*
X6602974Y1354420D02*
X7115500Y841894D01*
Y292500D02*
Y841894D01*
Y292500D02*
X7262000Y146000D01*
X6567619Y1319065D02*
X7008000Y878684D01*
Y400000D02*
Y878684D01*
X6861500Y292500D02*
Y954473D01*
X6532264Y1283709D02*
X6861500Y954473D01*
Y292500D02*
X7008000Y146000D01*
X6496909Y1248354D02*
X6754000Y991263D01*
Y400000D02*
Y991263D01*
X6500000Y427145D02*
X6575000Y502145D01*
X6426198Y1177644D02*
X6575000Y1028841D01*
Y502145D02*
Y1028841D01*
X6461553Y1212999D02*
X6625000Y1049552D01*
Y275000D02*
X6754000Y146000D01*
X6625000Y275000D02*
Y1049552D01*
X6500000Y400000D02*
Y427145D01*
X6475000Y900000D02*
Y1058131D01*
X6440000Y865000D02*
X6475000Y900000D01*
X10818000Y4850000D02*
X10950000Y4718000D01*
Y4550000D02*
Y4718000D01*
X10875000Y4475000D02*
X10950000Y4550000D01*
X10775000Y4475000D02*
X10875000D01*
X10280001Y3980001D02*
X10775000Y4475000D01*
X9455035Y3980001D02*
X10280001D01*
X10671500Y4551472D02*
Y4742500D01*
X10564000Y4850000D02*
X10671500Y4742500D01*
X10310000Y4850000D02*
X10417500Y4742500D01*
Y4551472D02*
Y4742500D01*
X10163500Y4551472D02*
Y4742500D01*
X10056000Y4850000D02*
X10163500Y4742500D01*
X10056000Y4850000D02*
Y4850000D01*
X9802000Y4850000D02*
X9909500Y4742500D01*
Y4551472D02*
Y4742500D01*
X9548000Y4850000D02*
Y4850000D01*
X9655500Y4551472D02*
Y4742500D01*
X9548000Y4850000D02*
X9655500Y4742500D01*
X9040000Y4850000D02*
X9147500Y4742500D01*
Y4551472D02*
Y4742500D01*
X8893500Y4551472D02*
Y4742500D01*
X8786000Y4850000D02*
X8893500Y4742500D01*
X8532000Y4850000D02*
X8639500Y4742500D01*
Y4551472D02*
Y4742500D01*
X8278000Y4850000D02*
X8385500Y4742500D01*
Y4551472D02*
Y4742500D01*
X8024000Y4850000D02*
X8131500Y4742500D01*
Y4551472D02*
Y4742500D01*
X8915036Y3440002D02*
X9455035Y3980001D01*
X8250150Y3440002D02*
X8915036D01*
X7825056Y3014908D02*
X8250150Y3440002D01*
X7825056Y2859345D02*
Y3014908D01*
X7628277Y2662566D02*
X7825056Y2859345D01*
X10247001Y4025001D02*
X10818000Y4596000D01*
X9436395Y4025001D02*
X10247001D01*
X10026028Y4160001D02*
X10417500Y4551472D01*
X9380477Y4160001D02*
X10026028D01*
X10083001Y4115001D02*
X10564000Y4596000D01*
X9399116Y4115001D02*
X10083001D01*
X10190028Y4070001D02*
X10671500Y4551472D01*
X9417756Y4070001D02*
X10190028D01*
X8896396Y3485001D02*
X9436395Y4025001D01*
X8231510Y3485001D02*
X8896396D01*
X7780056Y3033547D02*
X8231510Y3485001D01*
X7780056Y2885055D02*
Y3033547D01*
X7592922Y2697921D02*
X7780056Y2885055D01*
X8877756Y3530001D02*
X9417756Y4070001D01*
X8212871Y3530001D02*
X8877756D01*
X7735056Y3052187D02*
X8212871Y3530001D01*
X7735056Y2910766D02*
Y3052187D01*
X7557567Y2733276D02*
X7735056Y2910766D01*
X8859117Y3575001D02*
X9399116Y4115001D01*
X8194231Y3575001D02*
X8859117D01*
X7690057Y3070826D02*
X8194231Y3575001D01*
X7690057Y2936476D02*
Y3070826D01*
X7522212Y2768631D02*
X7690057Y2936476D01*
X9343198Y4250000D02*
X9862028D01*
X9361837Y4205000D02*
X9919000D01*
X10310000Y4596000D01*
X9862028Y4250000D02*
X10163500Y4551472D01*
X8840477Y3620001D02*
X9380477Y4160001D01*
X8175592Y3620001D02*
X8840477D01*
X7645057Y3089466D02*
X8175592Y3620001D01*
X7645057Y2962187D02*
Y3089466D01*
X7486856Y2803987D02*
X7645057Y2962187D01*
X8821838Y3665001D02*
X9361837Y4205000D01*
X8156952Y3665001D02*
X8821838D01*
X7600057Y3108106D02*
X8156952Y3665001D01*
X7600057Y2987898D02*
Y3108106D01*
X7451501Y2839342D02*
X7600057Y2987898D01*
X8803198Y3710001D02*
X9343198Y4250000D01*
X8138313Y3710001D02*
X8803198D01*
X7555057Y3126745D02*
X8138313Y3710001D01*
X7555057Y3013608D02*
Y3126745D01*
X7416146Y2874697D02*
X7555057Y3013608D01*
X9324558Y4295000D02*
X9755000D01*
X10056000Y4596000D01*
X9698028Y4340000D02*
X9909500Y4551472D01*
X9305919Y4340000D02*
X9698028D01*
X8784559Y3755001D02*
X9324558Y4295000D01*
X8119673Y3755001D02*
X8784559D01*
X7510057Y3145385D02*
X8119673Y3755001D01*
X7510057Y3039319D02*
Y3145385D01*
X7380790Y2910052D02*
X7510057Y3039319D01*
X9591000Y4385000D02*
X9802000Y4596000D01*
X9287279Y4385000D02*
X9591000D01*
X8765919Y3800001D02*
X9305919Y4340000D01*
X8101034Y3800001D02*
X8765919D01*
X8678000Y3980000D02*
X9294000Y4596000D01*
X8747280Y3845001D02*
X9287279Y4385000D01*
X9250000Y4475000D02*
X9427000D01*
X8063755Y3890001D02*
X8728640D01*
X8710001Y3935001D02*
X9250000Y4475000D01*
X8728640Y3890001D02*
X9268640Y4430000D01*
X8621028Y4025000D02*
X9147500Y4551472D01*
X8082394Y3845001D02*
X8747280D01*
X9427000Y4475000D02*
X9548000Y4596000D01*
X8045115Y3935001D02*
X8710001D01*
X9268640Y4430000D02*
X9534028D01*
X8026475Y3980000D02*
X8678000D01*
X8000765Y4025000D02*
X8621028D01*
X7465057Y3164024D02*
X8101034Y3800001D01*
X7465057Y3065029D02*
Y3164024D01*
X7345435Y2945408D02*
X7465057Y3065029D01*
X9534028Y4430000D02*
X9655500Y4551472D01*
X7420057Y3182664D02*
X8082394Y3845001D01*
X7420057Y3090740D02*
Y3182664D01*
X7310080Y2980763D02*
X7420057Y3090740D01*
X7375057Y3201303D02*
X8063755Y3890001D01*
X7375057Y3116450D02*
Y3201303D01*
X7274725Y3016118D02*
X7375057Y3116450D01*
X7330057Y3219943D02*
X8045115Y3935001D01*
X7330057Y3142161D02*
Y3219943D01*
X7239370Y3051473D02*
X7330057Y3142161D01*
X7975053Y4070000D02*
X8514000D01*
X9040000Y4596000D01*
X8457028Y4115000D02*
X8893500Y4551472D01*
X7949343Y4115000D02*
X8457028D01*
X7133304Y3157540D02*
X8000765Y4025000D01*
X7097948Y3192895D02*
X7975053Y4070000D01*
X7062593Y3228250D02*
X7949343Y4115000D01*
X7923632Y4160000D02*
X8350000D01*
X8786000Y4596000D01*
X7897922Y4205000D02*
X8293028D01*
X8639500Y4551472D01*
X7027238Y3263605D02*
X7923632Y4160000D01*
X6991882Y3298961D02*
X7897922Y4205000D01*
X7872211Y4250000D02*
X8186000D01*
X8532000Y4596000D01*
X6956527Y3334316D02*
X7872211Y4250000D01*
X8129028Y4295000D02*
X8385500Y4551472D01*
X7846501Y4295000D02*
X8129028D01*
X8022000Y4340000D02*
X8278000Y4596000D01*
X7820791Y4340000D02*
X8022000D01*
X7965027Y4385000D02*
X8131500Y4551472D01*
X7795080Y4385000D02*
X7965027D01*
X7743659Y4475000D02*
X7801027D01*
X7769369Y4430000D02*
X7858000D01*
X8024000Y4596000D01*
X7801027Y4475000D02*
X7877500Y4551472D01*
Y4742500D01*
X6850461Y3440381D02*
X7795080Y4385000D01*
X6779751Y3511092D02*
X7743659Y4475000D01*
X6815106Y3475737D02*
X7769369Y4430000D01*
X7770000Y4850000D02*
X7877500Y4742500D01*
X7770000Y4575587D02*
Y4596000D01*
X6744395Y3549982D02*
X7770000Y4575587D01*
X7516000Y4850000D02*
X7623500Y4742500D01*
Y4496262D02*
Y4742500D01*
X7369500Y4383683D02*
Y4742500D01*
X6638330Y3652513D02*
X7369500Y4383683D01*
X7516000Y4459473D02*
Y4596000D01*
X6673685Y3617158D02*
X7516000Y4459473D01*
X7262000Y4850000D02*
X7369500Y4742500D01*
X7262000Y4346894D02*
Y4596000D01*
X6602974Y3687868D02*
X7262000Y4346894D01*
X6567619Y3723224D02*
X7115500Y4271105D01*
Y4742500D01*
X7008000Y4850000D02*
X7115500Y4742500D01*
X6532264Y3758579D02*
X7008000Y4234315D01*
Y4596000D01*
X6496909Y3793934D02*
X6861500Y4158526D01*
Y4742500D01*
X6754000Y4850000D02*
X6861500Y4742500D01*
X6500000Y4850000D02*
X6625000Y4725000D01*
Y4063447D02*
Y4725000D01*
X6426198Y3864645D02*
X6625000Y4063447D01*
X6754000Y4121736D02*
Y4596000D01*
X6461553Y3829290D02*
X6754000Y4121736D01*
X6390843Y3900000D02*
X6500000Y4009157D01*
Y4596000D01*
X6072645Y1177644D02*
X6076180D01*
X6136965Y1238428D01*
X6163888D01*
X6250000Y1152317D01*
Y1150000D02*
Y1152317D01*
X5892500Y253500D02*
Y997499D01*
Y253500D02*
X6000000Y146000D01*
X5892500Y997499D02*
X6072645Y1177644D01*
X5492000Y4162448D02*
Y4596000D01*
X5384500Y4199237D02*
Y4703500D01*
X5238000Y4850000D02*
X5384500Y4703500D01*
X4222000Y4850000D02*
X4345445Y4726554D01*
Y4574527D02*
Y4726554D01*
X4222000Y4850000D02*
Y4850000D01*
X3606500Y4551472D02*
Y4703500D01*
X3460000Y4850000D02*
X3606500Y4703500D01*
X3068695Y4581277D02*
Y4733305D01*
X2952000Y4850000D02*
X3068695Y4733305D01*
X2698000Y4850000D02*
X2814695Y4733305D01*
Y4581278D02*
Y4733305D01*
X2560695Y4581277D02*
Y4733305D01*
X2444000Y4850000D02*
X2560695Y4733305D01*
X2190000Y4850000D02*
X2306695Y4733305D01*
Y4581277D02*
Y4733305D01*
X1798695Y4581277D02*
X1951292Y4428680D01*
X1682000Y4596000D02*
X1894320Y4383680D01*
X1798695Y4581277D02*
Y4733305D01*
X1951292Y4428680D02*
X2230041D01*
X1894320Y4383680D02*
X2211401D01*
X1682000Y4850000D02*
X1798695Y4733305D01*
X2211401Y4383680D02*
X2840080Y3755001D01*
X3976768D01*
X4066767Y3665002D01*
X4200470D01*
X4680002Y3185470D01*
Y2853130D02*
Y3185470D01*
X4725001Y2878840D02*
Y3204109D01*
X4680002Y2853130D02*
X4870566Y2662566D01*
X4725001Y2878840D02*
X4905921Y2697921D01*
X4219109Y3710001D02*
X4725001Y3204109D01*
X3995407Y3800001D02*
X4085407Y3710001D01*
X2858720Y3800001D02*
X3995407D01*
X4085407Y3710001D02*
X4219109D01*
X1936000Y4596000D02*
X2058320Y4473680D01*
X2248681D01*
X2877359Y3845001D01*
X2230041Y4428680D02*
X2858720Y3800001D01*
X2444000Y4596000D02*
X3059999Y3980001D01*
X2306695Y4581277D02*
X2952971Y3935001D01*
X2877359Y3845001D02*
X4014047D01*
X2952971Y3935001D02*
X4051326D01*
X3223999Y4070001D02*
X4107244D01*
X3116971Y4025001D02*
X4088605D01*
X2190000Y4596000D02*
X2895999Y3890001D01*
X3059999Y3980001D02*
X4069965D01*
X2895999Y3890001D02*
X4032686D01*
X2560695Y4581277D02*
X3116971Y4025001D01*
X2698000Y4596000D02*
X3223999Y4070001D01*
X4860001Y3026682D02*
Y3260028D01*
X4770001Y2975261D02*
X4976631Y2768631D01*
X4860001Y3026682D02*
X5047342Y2839342D01*
X4770001Y2975261D02*
Y3222749D01*
X4815001Y3000972D02*
Y3241388D01*
X4941276Y2733276D02*
X4941276D01*
X4014047Y3845001D02*
X4104046Y3755001D01*
X4237749D01*
X4770001Y3222749D01*
X4032686Y3890001D02*
X4122686Y3800001D01*
X4256388D01*
X4815001Y3241388D01*
X4051326Y3935001D02*
X4141325Y3845001D01*
X4275028D01*
X4860001Y3260028D01*
X4069965Y3980001D02*
X4159965Y3890001D01*
X4293667D01*
X4905001Y3278667D01*
Y3052393D02*
Y3278667D01*
Y3052393D02*
X5082697Y2874697D01*
X2814695Y4581278D02*
X3280972Y4115001D01*
X4125884D01*
X2952000Y4596000D02*
X3388000Y4160001D01*
X4144523D01*
X4088605Y4025001D02*
X4178605Y3935001D01*
X4312307D01*
X4950001Y3297307D01*
Y3078104D02*
Y3297307D01*
Y3078104D02*
X5118053Y2910052D01*
X4107244Y4070001D02*
X4197244Y3980001D01*
X4330946D01*
X4995001Y3315946D01*
Y3103815D02*
Y3315946D01*
Y3103815D02*
X5153408Y2945408D01*
X3068695Y4581277D02*
X3444972Y4205000D01*
X4163163D01*
X4125884Y4115001D02*
X4215884Y4025001D01*
X4349586D01*
X5040001Y3334586D01*
Y3129525D02*
Y3334586D01*
Y3129525D02*
X5188763Y2980763D01*
X3552000Y4250000D02*
X4181802D01*
X3460000Y4596000D02*
X3716000Y4340000D01*
X3352500Y4551472D02*
X3608972Y4295000D01*
X3206000Y4596000D02*
X3552000Y4250000D01*
X3716000Y4340000D02*
X4219081D01*
X3352500Y4551472D02*
Y4703500D01*
X3608972Y4295000D02*
X4200442D01*
X4144523Y4160001D02*
X4234523Y4070001D01*
X4368225D01*
X5085001Y3353225D01*
Y3155236D02*
Y3353225D01*
Y3155236D02*
X5224118Y3016118D01*
X3606500Y4551472D02*
X3772972Y4385000D01*
X3880000Y4430000D02*
X4256361D01*
X3206000Y4850000D02*
X3352500Y4703500D01*
X3772972Y4385000D02*
X4237721D01*
X4163163Y4205000D02*
X4253163Y4115001D01*
X4386865D01*
X4271802Y4160001D02*
X4405505D01*
X4327721Y4295000D02*
X4461423D01*
X4309081Y4250000D02*
X4442784D01*
X4275000Y4475000D02*
X4365000Y4385000D01*
X4256361Y4430000D02*
X4346360Y4340000D01*
X4365000Y4385000D02*
X4498702D01*
X4200442Y4295000D02*
X4290442Y4205000D01*
X4424144D01*
X4346360Y4340000D02*
X4480063D01*
X4222000Y4596000D02*
X4388000Y4430000D01*
X4345445Y4574527D02*
X4444973Y4475000D01*
X4181802Y4250000D02*
X4271802Y4160001D01*
X4219081Y4340000D02*
X4309081Y4250000D01*
X4237721Y4385000D02*
X4327721Y4295000D01*
X4388000Y4430000D02*
X4517342D01*
X4444973Y4475000D02*
X4543052D01*
X4386865Y4115001D02*
X5130001Y3371865D01*
Y3180946D02*
Y3371865D01*
Y3180946D02*
X5259474Y3051473D01*
X4480063Y4340000D02*
X5355000Y3465063D01*
Y3309499D02*
Y3465063D01*
X4424144Y4205000D02*
X5220000Y3409144D01*
X4461423Y4295000D02*
X5310000Y3446423D01*
X5220000Y3232368D02*
Y3409144D01*
X4498702Y4385000D02*
X5400000Y3483702D01*
X5265000Y3258078D02*
Y3427784D01*
X4442784Y4250000D02*
X5265000Y3427784D01*
X4543052Y4475000D02*
X5613026Y3405026D01*
X5310000Y3283789D02*
Y3446423D01*
X5400000Y3338745D02*
Y3483702D01*
X4405505Y4160001D02*
X5175001Y3390505D01*
Y3206657D02*
Y3390505D01*
Y3206657D02*
X5294829Y3086829D01*
X5220000Y3232368D02*
X5330184Y3122184D01*
X5265000Y3258078D02*
X5365539Y3157539D01*
X5471605Y3263605D02*
Y3267141D01*
X5400000Y3338745D02*
X5471605Y3267141D01*
X4489227Y4596000D02*
X5644846Y3440381D01*
X5648381D01*
X4476000Y4596000D02*
X4489227D01*
X4622500Y4536973D02*
Y4703500D01*
X4476000Y4850000D02*
X4622500Y4703500D01*
Y4536973D02*
X5683737Y3475737D01*
X4730000Y4596000D02*
X4746684Y4579316D01*
Y4483500D02*
X5719092Y3511092D01*
X4746684Y4483500D02*
Y4579316D01*
X4876500Y4424395D02*
X5754447Y3546447D01*
X4876500Y4424395D02*
Y4703500D01*
X4730000Y4850000D02*
X4876500Y4703500D01*
X4984000Y4387605D02*
Y4596000D01*
Y4387605D02*
X5789802Y3581803D01*
X4984000Y4850000D02*
X5130500Y4703500D01*
Y4311816D02*
X5825158Y3617158D01*
X5130500Y4311816D02*
Y4703500D01*
X5238000Y4275026D02*
Y4596000D01*
X5638500Y4086658D02*
Y4703500D01*
X5492000Y4850000D02*
X5638500Y4703500D01*
X6000000Y4850000D02*
X6127000Y4723000D01*
X4622500Y253500D02*
Y472500D01*
X4730000Y146000D02*
Y146000D01*
X4622500Y253500D02*
X4730000Y146000D01*
X4368501Y253500D02*
Y444528D01*
Y253500D02*
X4476001Y146000D01*
X3606500Y253500D02*
X3714000Y146000D01*
X3606500Y253500D02*
Y444528D01*
X3352500Y253500D02*
Y444528D01*
Y253500D02*
X3460000Y146000D01*
X3098500Y253500D02*
Y444528D01*
Y253500D02*
X3206000Y146000D01*
X2590501Y253499D02*
X2698000Y146000D01*
X4032838Y747500D02*
X4265338Y980000D01*
X4384972Y715000D02*
X4627124D01*
X4283977Y935000D02*
X4535998D01*
X4153500Y1249999D02*
X4405521D01*
X4088756Y612500D02*
X4321256Y845000D01*
X3939640Y972499D02*
X4172140Y1204999D01*
X3976919Y882499D02*
X4209419Y1114999D01*
X4461440D01*
X3282472Y882499D02*
X3976919D01*
X3446472Y792500D02*
X4014198D01*
X4080500Y410527D02*
X4384972Y715000D01*
X3553500Y747500D02*
X4032838D01*
X4302617Y890000D02*
X4554637D01*
X4222000Y400000D02*
X4492000Y670000D01*
X3958280Y927499D02*
X4190780Y1159999D01*
X3881500Y567500D02*
X4107396D01*
X4014198Y792500D02*
X4246698Y1024999D01*
X3921001Y1017499D02*
X4153500Y1249999D01*
X3995559Y837499D02*
X4228059Y1069999D01*
X4070117Y657500D02*
X4302617Y890000D01*
X3389500Y837499D02*
X3995559D01*
X4107396Y567500D02*
X4339896Y800000D01*
X4228059Y1069999D02*
X4480079D01*
X4246698Y1024999D02*
X4498719D01*
X4190780Y1159999D02*
X4442800D01*
X3774472Y612500D02*
X4088756D01*
X4339896Y800000D02*
X4591916D01*
X4492000Y670000D02*
X4645764D01*
X4265338Y980000D02*
X4517358D01*
X4321256Y845000D02*
X4573277D01*
X3717500Y657500D02*
X4070117D01*
X3099833Y1017499D02*
X3921001D01*
X4051477Y702500D02*
X4283977Y935000D01*
X4172140Y1204999D02*
X4424161D01*
X3610472Y702500D02*
X4051477D01*
X3225500Y927499D02*
X3958280D01*
X4548973Y625000D02*
X4671475D01*
X4476000Y400000D02*
X4652763Y576763D01*
X4693948D01*
X4368501Y444528D02*
X4548973Y625000D01*
X2844500Y253500D02*
Y444528D01*
X3282472Y882499D01*
X2698000Y400000D02*
X3225500Y927499D01*
X3098500Y444528D02*
X3446472Y792500D01*
X2952000Y400000D02*
X3389500Y837499D01*
X3206000Y400000D02*
X3553500Y747500D01*
X3352500Y444528D02*
X3610472Y702500D01*
X2844500Y253500D02*
X2952000Y146000D01*
X3460000Y400000D02*
X3717500Y657500D01*
X3714000Y400000D02*
X3881500Y567500D01*
X3606500Y444528D02*
X3774472Y612500D01*
X4675000Y525000D02*
X4712896D01*
X4622500Y472500D02*
X4675000Y525000D01*
X4645764Y670000D02*
X5613026Y1637262D01*
X4671475Y625000D02*
X5648381Y1601907D01*
X3978528Y410527D02*
X4080500D01*
X3968000Y400000D02*
X3978528Y410527D01*
X4693948Y576763D02*
X5683737Y1566552D01*
X4712896Y525000D02*
X5719092Y1531196D01*
X4753918Y495311D02*
X5754447Y1495841D01*
X4730000Y400000D02*
X4753918Y423917D01*
Y495311D01*
X4876500Y253500D02*
X4984000Y146000D01*
X4876500Y253500D02*
Y547183D01*
X5789802Y1460486D01*
X4984000Y400000D02*
Y583973D01*
X5130500Y253500D02*
X5238000Y146000D01*
X5130500Y659762D02*
X5860513Y1389775D01*
X5130500Y253500D02*
Y659762D01*
X5238000Y696552D02*
X5895868Y1354420D01*
X5238000Y400000D02*
Y696552D01*
X5492000Y809130D02*
X5966579Y1283709D01*
X5492000Y400000D02*
Y809130D01*
X5638500Y253500D02*
X5746000Y146000D01*
X5638500Y253500D02*
Y884920D01*
X6001934Y1248354D01*
X5746000Y400000D02*
Y921710D01*
X6025000Y775000D02*
X6065000Y735000D01*
X6025000Y775000D02*
Y1059288D01*
X6065000Y735000D02*
X6165000D01*
Y565000D02*
Y735000D01*
X6000000Y400000D02*
X6165000Y565000D01*
X6025000Y1059288D02*
X6108000Y1142289D01*
X6335000Y865000D02*
X6440000D01*
D55*
X9370000Y3540000D02*
X9530000Y3700000D01*
X9370000Y3420000D02*
Y3540000D01*
X9175000Y3325000D02*
X9320000Y3180000D01*
X10060000Y3530000D02*
X10310000Y3780000D01*
X5194396Y2350000D02*
X5200000D01*
X5047342Y2202946D02*
X5194396Y2350000D01*
X5506960Y3298960D02*
X5542316Y3334316D01*
X5047342Y2202946D02*
X5082697Y2167591D01*
X4941276Y2733276D02*
X4976631Y2768631D01*
D56*
X11375000Y4575000D02*
X11377500Y4572500D01*
Y4452500D02*
Y4572500D01*
X11375000Y4450000D02*
X11377500Y4452500D01*
X12175000Y2300000D02*
Y2397500D01*
Y2225000D02*
Y2300000D01*
X12025000Y1925000D02*
Y2075000D01*
X12175000Y2225000D01*
X12130000Y2442500D02*
X12175000Y2397500D01*
X12350000Y2225000D02*
Y2925000D01*
X12082500Y2702501D02*
X12322499D01*
X12350000Y2000000D02*
Y2150000D01*
X12282075Y1932075D02*
X12350000Y2000000D01*
X12205800Y1932075D02*
X12282075D01*
D57*
X11660000Y4575000D02*
X12125000Y4110000D01*
X11375000Y4725000D02*
X11650000D01*
X11175000Y4474800D02*
X11425000Y4224800D01*
X11175000Y4474800D02*
Y4650000D01*
X11250000Y4725000D01*
X11380000D01*
X10660000Y3785000D02*
X10810000Y3635000D01*
X10969074D01*
X10785001Y4160000D02*
X10939890D01*
X10660000Y4034999D02*
X10785001Y4160000D01*
D58*
X12350004Y2233754D02*
D03*
X12349999Y2911247D02*
D03*
D59*
X12350000Y2155000D02*
D03*
Y2990000D02*
D03*
D60*
X12050000Y2795000D02*
D03*
X12050000Y2350000D02*
D03*
D61*
X12258000Y1600000D02*
D03*
X12004000D02*
D03*
X11750000D02*
D03*
X12258000Y1050000D02*
D03*
X12004000D02*
D03*
X11750000D02*
D03*
X5492000Y146000D02*
D03*
X6500000Y400000D02*
D03*
X6754000Y146000D02*
D03*
Y400000D02*
D03*
X7008000Y146000D02*
D03*
Y400000D02*
D03*
X7262000Y146000D02*
D03*
X7262000Y400000D02*
D03*
X7516000Y146000D02*
D03*
X7516000Y400000D02*
D03*
X7770000Y146000D02*
D03*
Y400000D02*
D03*
X8024000Y146000D02*
D03*
X8024000Y400000D02*
D03*
X8278000Y146000D02*
D03*
Y400000D02*
D03*
X8532000Y146000D02*
D03*
Y400000D02*
D03*
X8786000Y146000D02*
D03*
Y400000D02*
D03*
X9040000Y146000D02*
D03*
Y400000D02*
D03*
X9294000Y146000D02*
D03*
X9294000Y400000D02*
D03*
X9548000Y146000D02*
D03*
X9548000Y400000D02*
D03*
X9802000Y146000D02*
D03*
Y400000D02*
D03*
X10056000Y146000D02*
D03*
Y400000D02*
D03*
X10310000Y146000D02*
D03*
X10310000Y400000D02*
D03*
X10564000Y146000D02*
D03*
Y400000D02*
D03*
X10818000Y146000D02*
D03*
Y400000D02*
D03*
X1682000D02*
D03*
X1936000Y146000D02*
D03*
Y400000D02*
D03*
X2190001Y146000D02*
D03*
X2190000Y400000D02*
D03*
X2444000Y146000D02*
D03*
X2444000Y400000D02*
D03*
X2698000Y146000D02*
D03*
X2698000Y400000D02*
D03*
X2952000Y146000D02*
D03*
Y400000D02*
D03*
X3206000Y146000D02*
D03*
X3206000Y400000D02*
D03*
X3460000Y146000D02*
D03*
X3460000Y400000D02*
D03*
X3714000Y146000D02*
D03*
Y400000D02*
D03*
X3968000Y146000D02*
D03*
Y400000D02*
D03*
X4222000Y146000D02*
D03*
Y400000D02*
D03*
X4476001Y146000D02*
D03*
X4476000Y400000D02*
D03*
X4730000Y146000D02*
D03*
X4730000Y400000D02*
D03*
X4984000Y146000D02*
D03*
Y400000D02*
D03*
X5238000Y146000D02*
D03*
Y400000D02*
D03*
X5492000D02*
D03*
X5746000Y146000D02*
D03*
X5746000Y400000D02*
D03*
X6000000Y146000D02*
D03*
X6000000Y400000D02*
D03*
X4229000Y1646000D02*
D03*
X3975000Y1900000D02*
D03*
Y1646000D02*
D03*
X3721000Y1900000D02*
D03*
Y1646000D02*
D03*
X11000000Y1600000D02*
D03*
X10746000D02*
D03*
X10492000D02*
D03*
X11000000Y1050000D02*
D03*
X10746000D02*
D03*
X10492000D02*
D03*
X6500000Y4596000D02*
D03*
X6500000Y4850000D02*
D03*
X6754000Y4596000D02*
D03*
Y4850000D02*
D03*
X7008000Y4596000D02*
D03*
X7008000Y4850000D02*
D03*
X7262000Y4596000D02*
D03*
Y4850000D02*
D03*
X7516000Y4596000D02*
D03*
Y4850000D02*
D03*
X7770000Y4596000D02*
D03*
X7770000Y4850000D02*
D03*
X8024000Y4596000D02*
D03*
X8024000Y4850000D02*
D03*
X8278000Y4596000D02*
D03*
Y4850000D02*
D03*
X8532000Y4596000D02*
D03*
Y4850000D02*
D03*
X8786000Y4596000D02*
D03*
X8786000Y4850000D02*
D03*
X9040000Y4596000D02*
D03*
Y4850000D02*
D03*
X9294000Y4596000D02*
D03*
X9294000Y4850000D02*
D03*
X9548000Y4596000D02*
D03*
Y4850000D02*
D03*
X9802000Y4596000D02*
D03*
X9802000Y4850000D02*
D03*
X10056000Y4596000D02*
D03*
X10056000Y4850000D02*
D03*
X10310000Y4596000D02*
D03*
Y4850000D02*
D03*
X10564000Y4596000D02*
D03*
Y4850000D02*
D03*
X10818000Y4596000D02*
D03*
X1682000D02*
D03*
Y4850000D02*
D03*
X1936000Y4596000D02*
D03*
X1936000Y4850000D02*
D03*
X2190000Y4596000D02*
D03*
Y4850000D02*
D03*
X2444000Y4596000D02*
D03*
Y4850000D02*
D03*
X2698000Y4596000D02*
D03*
Y4850000D02*
D03*
X2952000Y4596000D02*
D03*
X2952000Y4850000D02*
D03*
X3206000Y4596000D02*
D03*
X3206000Y4850000D02*
D03*
X3460000Y4596000D02*
D03*
Y4850000D02*
D03*
X3714000Y4596000D02*
D03*
Y4850000D02*
D03*
X3968000Y4596000D02*
D03*
Y4850000D02*
D03*
X4222000Y4596000D02*
D03*
X4222000Y4850000D02*
D03*
X4476000Y4596000D02*
D03*
Y4850000D02*
D03*
X4730000Y4596000D02*
D03*
Y4850000D02*
D03*
X4984000Y4596000D02*
D03*
Y4850000D02*
D03*
X5238000Y4596000D02*
D03*
Y4850000D02*
D03*
X5492000Y4596000D02*
D03*
X5492000Y4850000D02*
D03*
X5746000Y4596000D02*
D03*
Y4850000D02*
D03*
X6000000Y4596000D02*
D03*
D62*
X11496000Y1600000D02*
D03*
X11496000Y1050000D02*
D03*
X6500000Y146000D02*
D03*
X1682000D02*
D03*
X4229000Y1900000D02*
D03*
X10238000Y1600000D02*
D03*
Y1050000D02*
D03*
X10818000Y4850000D02*
D03*
X6000000D02*
D03*
D63*
X12140000Y4030000D02*
D03*
Y3530000D02*
D03*
D64*
X581500Y2040500D02*
D03*
X581500Y1913500D02*
D03*
Y1786500D02*
D03*
X581500Y1659500D02*
D03*
X835500Y2104000D02*
D03*
Y1977000D02*
D03*
Y1850000D02*
D03*
Y1723000D02*
D03*
D65*
X835500Y1596000D02*
D03*
D66*
X454500Y2567500D02*
D03*
Y1132500D02*
D03*
D67*
X3100008Y2500000D02*
D03*
X3354000Y2245992D02*
D03*
Y2753992D02*
D03*
X2846000D02*
D03*
Y2245992D02*
D03*
D68*
X1670000Y2500000D02*
D03*
X11380000Y3110000D02*
D03*
Y2960000D02*
D03*
X10870000Y2870000D02*
D03*
X10640000D02*
D03*
X2400000Y2500000D02*
D03*
X5200000Y2350000D02*
D03*
X1730000Y4250000D02*
D03*
X6810520Y2489481D02*
D03*
X6810000Y2880000D02*
D03*
X5840000Y2000000D02*
D03*
X6990000Y2222530D02*
D03*
X6600000Y3150000D02*
D03*
X5910000Y3140000D02*
D03*
X6990000Y2870000D02*
D03*
D69*
X3240000Y3650000D02*
D03*
X9320000Y3180000D02*
D03*
X10060000Y3530000D02*
D03*
X1170000Y690000D02*
D03*
X1270000D02*
D03*
X1370333D02*
D03*
X2127000Y833000D02*
D03*
X2000000Y830000D02*
D03*
X1619000Y1081000D02*
D03*
X1746000Y1076000D02*
D03*
X1873000Y1083000D02*
D03*
X2000000Y1080000D02*
D03*
X2127000Y1087000D02*
D03*
X2254000Y1084000D02*
D03*
X2381000Y1081000D02*
D03*
Y829000D02*
D03*
X2254000Y834000D02*
D03*
X2525191Y895891D02*
D03*
X1380000Y1260000D02*
D03*
X1275000Y1265000D02*
D03*
X1170000Y1260000D02*
D03*
X2530000Y1850000D02*
D03*
X2279999Y3249999D02*
D03*
X5220000Y2750000D02*
D03*
X6630000Y1780000D02*
D03*
X1620000Y3850000D02*
D03*
X1950000Y3850000D02*
D03*
X2059999Y3850000D02*
D03*
X1950000Y3250000D02*
D03*
X2170000D02*
D03*
X1730103Y3249896D02*
D03*
X1510000Y3250000D02*
D03*
X2390000Y3850000D02*
D03*
X5520000Y2040000D02*
D03*
X5420000Y2060000D02*
D03*
X5340000Y2140000D02*
D03*
X5240000Y2250000D02*
D03*
X5140000Y2670000D02*
D03*
X5060000Y2600000D02*
D03*
X6210000Y2430000D02*
D03*
X4680000Y2220000D02*
D03*
X6980000Y3080000D02*
D03*
X6840000Y3130000D02*
D03*
X6760000Y3200000D02*
D03*
X6685040Y3274960D02*
D03*
X5750000Y4120000D02*
D03*
X5880000D02*
D03*
X6100000D02*
D03*
X5990000D02*
D03*
X6057422Y3529856D02*
D03*
X5957169Y3527169D02*
D03*
X6087500Y3618735D02*
D03*
X5660000Y3040000D02*
D03*
X5580000Y3120000D02*
D03*
X5590000Y1910000D02*
D03*
X5885942Y1684058D02*
D03*
X5960000Y1620000D02*
D03*
X6032500Y1560000D02*
D03*
X6180000Y1430000D02*
D03*
X6110000Y1497841D02*
D03*
X6160009Y1337500D02*
D03*
X6310104Y1279896D02*
D03*
X6550000Y1560000D02*
D03*
X6910000Y2040000D02*
D03*
X6780000Y1780000D02*
D03*
X7130000Y2190000D02*
D03*
X7150000Y2100000D02*
D03*
X7320000Y2300000D02*
D03*
X5839896Y1879896D02*
D03*
X7240000Y2370000D02*
D03*
X6610000Y3340000D02*
D03*
X5820000Y3060000D02*
D03*
D70*
X11375000Y4450000D02*
D03*
X12175000Y2300000D02*
D03*
X6250000Y1150000D02*
D03*
D71*
X1350000Y900000D02*
D03*
Y1000000D02*
D03*
X1250000Y900000D02*
D03*
Y1000000D02*
D03*
X1350000Y1850000D02*
D03*
X1350000Y1950000D02*
D03*
X1250000Y1850000D02*
D03*
Y1950000D02*
D03*
D72*
X12200000Y300000D02*
D03*
Y4700000D02*
D03*
X300000Y300000D02*
D03*
Y4700000D02*
D03*
%TF.MD5,96ae6d98d867cb4bc43dd8f6601aa8b6*%
M02*
