%TF.GenerationSoftware,Altium Limited,Altium Designer,22.1.2 (22)*%
G04 Layer_Color=2752767*
%FSLAX45Y45*%
%MOMM*%
%TF.SameCoordinates,5EC5152B-D9DC-4A70-AFCB-378F050BE7B4*%
%TF.FilePolarity,Positive*%
%TF.FileFunction,Drawing*%
%TF.Part,Single*%
G01*
G75*
%TA.AperFunction,NonConductor*%
%ADD150C,0.12700*%
%ADD151C,0.16933*%
%ADD152C,0.10160*%
D150*
X12299200Y2104200D02*
Y2205800D01*
X12400800D01*
Y2104200D01*
X12299200D01*
Y2939200D02*
Y3040800D01*
X12400800D01*
Y2939200D01*
X12299200D01*
X12258000Y1549200D02*
X12207200Y1650800D01*
X12308800D01*
X12258000Y1549200D01*
X12004000D02*
X11953200Y1650800D01*
X12054800D01*
X12004000Y1549200D01*
X11750000D02*
X11699200Y1650800D01*
X11800800D01*
X11750000Y1549200D01*
X11496000D02*
X11445200Y1650800D01*
X11546800D01*
X11496000Y1549200D01*
X12258000Y999200D02*
X12207200Y1100800D01*
X12308800D01*
X12258000Y999200D01*
X12004000D02*
X11953200Y1100800D01*
X12054800D01*
X12004000Y999200D01*
X11750000D02*
X11699200Y1100800D01*
X11800800D01*
X11750000Y999200D01*
X11496000D02*
X11445200Y1100800D01*
X11546800D01*
X11496000Y999200D01*
X12140000Y3979200D02*
X12165400Y4004600D01*
X12190800D01*
X12165400Y4030000D01*
X12190800Y4055400D01*
X12165400D01*
X12140000Y4080800D01*
X12114600Y4055400D01*
X12089200D01*
X12114600Y4030000D01*
X12089200Y4004600D01*
X12114600D01*
X12140000Y3979200D01*
Y3479200D02*
X12165400Y3504600D01*
X12190800D01*
X12165400Y3530000D01*
X12190800Y3555400D01*
X12165400D01*
X12140000Y3580800D01*
X12114600Y3555400D01*
X12089200D01*
X12114600Y3530000D01*
X12089200Y3504600D01*
X12114600D01*
X12140000Y3479200D01*
X530700Y1989700D02*
X556100Y2040500D01*
X530700Y2091300D01*
X581500Y2065900D01*
X632300Y2091300D01*
X606900Y2040500D01*
X632300Y1989700D01*
X581500Y2015100D01*
X530700Y1989700D01*
X530700Y1862700D02*
X556100Y1913500D01*
X530700Y1964300D01*
X581500Y1938900D01*
X632300Y1964300D01*
X606900Y1913500D01*
X632300Y1862700D01*
X581500Y1888100D01*
X530700Y1862700D01*
Y1735700D02*
X556100Y1786500D01*
X530700Y1837300D01*
X581500Y1811900D01*
X632300Y1837300D01*
X606900Y1786500D01*
X632300Y1735700D01*
X581500Y1761100D01*
X530700Y1735700D01*
X530700Y1608700D02*
X556100Y1659500D01*
X530700Y1710300D01*
X581500Y1684900D01*
X632300Y1710300D01*
X606900Y1659500D01*
X632300Y1608700D01*
X581500Y1634100D01*
X530700Y1608700D01*
X784700Y2053200D02*
X810100Y2104000D01*
X784700Y2154800D01*
X835500Y2129400D01*
X886300Y2154800D01*
X860900Y2104000D01*
X886300Y2053200D01*
X835500Y2078600D01*
X784700Y2053200D01*
Y1926200D02*
X810100Y1977000D01*
X784700Y2027800D01*
X835500Y2002400D01*
X886300Y2027800D01*
X860900Y1977000D01*
X886300Y1926200D01*
X835500Y1951600D01*
X784700Y1926200D01*
Y1799200D02*
X810100Y1850000D01*
X784700Y1900800D01*
X835500Y1875400D01*
X886300Y1900800D01*
X860900Y1850000D01*
X886300Y1799200D01*
X835500Y1824600D01*
X784700Y1799200D01*
Y1672200D02*
X810100Y1723000D01*
X784700Y1773800D01*
X835500Y1748400D01*
X886300Y1773800D01*
X860900Y1723000D01*
X886300Y1672200D01*
X835500Y1697600D01*
X784700Y1672200D01*
X784700Y1545200D02*
X810100Y1596000D01*
X784700Y1646800D01*
X835500Y1621400D01*
X886300Y1646800D01*
X860900Y1596000D01*
X886300Y1545200D01*
X835500Y1570600D01*
X784700Y1545200D01*
X429100Y2542100D02*
Y2516700D01*
X479900D01*
Y2542100D01*
X505300D01*
Y2592900D01*
X479900D01*
Y2618300D01*
X429100D01*
Y2592900D01*
X403700D01*
Y2542100D01*
X429100D01*
Y1107100D02*
Y1081700D01*
X479900D01*
Y1107100D01*
X505300D01*
Y1157900D01*
X479900D01*
Y1183300D01*
X429100D01*
Y1157900D01*
X403700D01*
Y1107100D01*
X429100D01*
X3049208Y2449200D02*
X3074608D01*
X3100008Y2474600D01*
X3125408Y2449200D01*
X3150808D01*
Y2474600D01*
X3125408Y2500000D01*
X3150808Y2525400D01*
Y2550800D01*
X3125408D01*
X3100008Y2525400D01*
X3074608Y2550800D01*
X3049208D01*
Y2525400D01*
X3074608Y2500000D01*
X3049208Y2474600D01*
Y2449200D01*
X3303200Y2195192D02*
X3328600D01*
X3354000Y2220592D01*
X3379400Y2195192D01*
X3404800D01*
Y2220592D01*
X3379400Y2245992D01*
X3404800Y2271392D01*
Y2296792D01*
X3379400D01*
X3354000Y2271392D01*
X3328600Y2296792D01*
X3303200D01*
Y2271392D01*
X3328600Y2245992D01*
X3303200Y2220592D01*
Y2195192D01*
Y2703192D02*
X3328600D01*
X3354000Y2728592D01*
X3379400Y2703192D01*
X3404800D01*
Y2728592D01*
X3379400Y2753992D01*
X3404800Y2779392D01*
Y2804792D01*
X3379400D01*
X3354000Y2779392D01*
X3328600Y2804792D01*
X3303200D01*
Y2779392D01*
X3328600Y2753992D01*
X3303200Y2728592D01*
Y2703192D01*
X2795200D02*
X2820600D01*
X2846000Y2728592D01*
X2871400Y2703192D01*
X2896800D01*
Y2728592D01*
X2871400Y2753992D01*
X2896800Y2779392D01*
Y2804792D01*
X2871400D01*
X2846000Y2779392D01*
X2820600Y2804792D01*
X2795200D01*
Y2779392D01*
X2820600Y2753992D01*
X2795200Y2728592D01*
Y2703192D01*
Y2195192D02*
X2820600D01*
X2846000Y2220592D01*
X2871400Y2195192D01*
X2896800D01*
Y2220592D01*
X2871400Y2245992D01*
X2896800Y2271392D01*
Y2296792D01*
X2871400D01*
X2846000Y2271392D01*
X2820600Y2296792D01*
X2795200D01*
Y2271392D01*
X2820600Y2245992D01*
X2795200Y2220592D01*
Y2195192D01*
X5492000Y95200D02*
X5441200Y196800D01*
X5542800D01*
X5492000Y95200D01*
X6500000D02*
X6449200Y196800D01*
X6550800D01*
X6500000Y95200D01*
Y349200D02*
X6449200Y450800D01*
X6550800D01*
X6500000Y349200D01*
X6754000Y95200D02*
X6703200Y196800D01*
X6804800D01*
X6754000Y95200D01*
Y349200D02*
X6703200Y450800D01*
X6804800D01*
X6754000Y349200D01*
X7008000Y95200D02*
X6957200Y196800D01*
X7058800D01*
X7008000Y95200D01*
Y349200D02*
X6957200Y450800D01*
X7058800D01*
X7008000Y349200D01*
X7262000Y95200D02*
X7211200Y196800D01*
X7312800D01*
X7262000Y95200D01*
X7262000Y349200D02*
X7211200Y450800D01*
X7312800D01*
X7262000Y349200D01*
X7516000Y95200D02*
X7465200Y196800D01*
X7566800D01*
X7516000Y95200D01*
X7516000Y349200D02*
X7465200Y450800D01*
X7566800D01*
X7516000Y349200D01*
X7770000Y95200D02*
X7719200Y196800D01*
X7820800D01*
X7770000Y95200D01*
Y349200D02*
X7719200Y450800D01*
X7820800D01*
X7770000Y349200D01*
X8024000Y95200D02*
X7973200Y196800D01*
X8074800D01*
X8024000Y95200D01*
X8024000Y349200D02*
X7973200Y450800D01*
X8074800D01*
X8024000Y349200D01*
X8278000Y95200D02*
X8227200Y196800D01*
X8328800D01*
X8278000Y95200D01*
Y349200D02*
X8227200Y450800D01*
X8328800D01*
X8278000Y349200D01*
X8532000Y95200D02*
X8481200Y196800D01*
X8582800D01*
X8532000Y95200D01*
Y349200D02*
X8481200Y450800D01*
X8582800D01*
X8532000Y349200D01*
X8786000Y95200D02*
X8735200Y196800D01*
X8836800D01*
X8786000Y95200D01*
Y349200D02*
X8735200Y450800D01*
X8836800D01*
X8786000Y349200D01*
X9040000Y95200D02*
X8989200Y196800D01*
X9090800D01*
X9040000Y95200D01*
Y349200D02*
X8989200Y450800D01*
X9090800D01*
X9040000Y349200D01*
X9294000Y95200D02*
X9243200Y196800D01*
X9344800D01*
X9294000Y95200D01*
X9294000Y349200D02*
X9243200Y450800D01*
X9344800D01*
X9294000Y349200D01*
X9548000Y95200D02*
X9497200Y196800D01*
X9598800D01*
X9548000Y95200D01*
X9548000Y349200D02*
X9497200Y450800D01*
X9598800D01*
X9548000Y349200D01*
X9802000Y95200D02*
X9751200Y196800D01*
X9852800D01*
X9802000Y95200D01*
Y349200D02*
X9751200Y450800D01*
X9852800D01*
X9802000Y349200D01*
X10056000Y95200D02*
X10005200Y196800D01*
X10106800D01*
X10056000Y95200D01*
Y349200D02*
X10005200Y450800D01*
X10106800D01*
X10056000Y349200D01*
X10310000Y95200D02*
X10259200Y196800D01*
X10360800D01*
X10310000Y95200D01*
X10310000Y349200D02*
X10259200Y450800D01*
X10360800D01*
X10310000Y349200D01*
X10564000Y95200D02*
X10513200Y196800D01*
X10614800D01*
X10564000Y95200D01*
Y349200D02*
X10513200Y450800D01*
X10614800D01*
X10564000Y349200D01*
X10818000Y95200D02*
X10767200Y196800D01*
X10868800D01*
X10818000Y95200D01*
Y349200D02*
X10767200Y450800D01*
X10868800D01*
X10818000Y349200D01*
X1682000Y95200D02*
X1631200Y196800D01*
X1732800D01*
X1682000Y95200D01*
Y349200D02*
X1631200Y450800D01*
X1732800D01*
X1682000Y349200D01*
X1936000Y95200D02*
X1885200Y196800D01*
X1986800D01*
X1936000Y95200D01*
Y349200D02*
X1885200Y450800D01*
X1986800D01*
X1936000Y349200D01*
X2190001Y95200D02*
X2139201Y196800D01*
X2240801D01*
X2190001Y95200D01*
X2190000Y349200D02*
X2139200Y450800D01*
X2240800D01*
X2190000Y349200D01*
X2444000Y95200D02*
X2393200Y196800D01*
X2494800D01*
X2444000Y95200D01*
X2444000Y349200D02*
X2393200Y450800D01*
X2494800D01*
X2444000Y349200D01*
X2698000Y95200D02*
X2647200Y196800D01*
X2748800D01*
X2698000Y95200D01*
X2698000Y349200D02*
X2647200Y450800D01*
X2748800D01*
X2698000Y349200D01*
X2952000Y95200D02*
X2901200Y196800D01*
X3002800D01*
X2952000Y95200D01*
Y349200D02*
X2901200Y450800D01*
X3002800D01*
X2952000Y349200D01*
X3206000Y95200D02*
X3155200Y196800D01*
X3256800D01*
X3206000Y95200D01*
X3206000Y349200D02*
X3155200Y450800D01*
X3256800D01*
X3206000Y349200D01*
X3460000Y95200D02*
X3409200Y196800D01*
X3510800D01*
X3460000Y95200D01*
X3460000Y349200D02*
X3409200Y450800D01*
X3510800D01*
X3460000Y349200D01*
X3714000Y95200D02*
X3663200Y196800D01*
X3764800D01*
X3714000Y95200D01*
Y349200D02*
X3663200Y450800D01*
X3764800D01*
X3714000Y349200D01*
X3968000Y95200D02*
X3917200Y196800D01*
X4018800D01*
X3968000Y95200D01*
Y349200D02*
X3917200Y450800D01*
X4018800D01*
X3968000Y349200D01*
X4222000Y95200D02*
X4171200Y196800D01*
X4272800D01*
X4222000Y95200D01*
Y349200D02*
X4171200Y450800D01*
X4272800D01*
X4222000Y349200D01*
X4476001Y95200D02*
X4425201Y196800D01*
X4526801D01*
X4476001Y95200D01*
X4476000Y349200D02*
X4425200Y450800D01*
X4526800D01*
X4476000Y349200D01*
X4730000Y95200D02*
X4679200Y196800D01*
X4780800D01*
X4730000Y95200D01*
X4730000Y349200D02*
X4679200Y450800D01*
X4780800D01*
X4730000Y349200D01*
X4984000Y95200D02*
X4933200Y196800D01*
X5034800D01*
X4984000Y95200D01*
Y349200D02*
X4933200Y450800D01*
X5034800D01*
X4984000Y349200D01*
X5238000Y95200D02*
X5187200Y196800D01*
X5288800D01*
X5238000Y95200D01*
Y349200D02*
X5187200Y450800D01*
X5288800D01*
X5238000Y349200D01*
X5492000D02*
X5441200Y450800D01*
X5542800D01*
X5492000Y349200D01*
X5746000Y95200D02*
X5695200Y196800D01*
X5796800D01*
X5746000Y95200D01*
X5746000Y349200D02*
X5695200Y450800D01*
X5796800D01*
X5746000Y349200D01*
X6000000Y95200D02*
X5949200Y196800D01*
X6050800D01*
X6000000Y95200D01*
X6000000Y349200D02*
X5949200Y450800D01*
X6050800D01*
X6000000Y349200D01*
X4229000Y1849200D02*
X4178200Y1950800D01*
X4279800D01*
X4229000Y1849200D01*
Y1595200D02*
X4178200Y1696800D01*
X4279800D01*
X4229000Y1595200D01*
X3975000Y1849200D02*
X3924200Y1950800D01*
X4025800D01*
X3975000Y1849200D01*
Y1595200D02*
X3924200Y1696800D01*
X4025800D01*
X3975000Y1595200D01*
X3721000Y1849200D02*
X3670200Y1950800D01*
X3771800D01*
X3721000Y1849200D01*
Y1595200D02*
X3670200Y1696800D01*
X3771800D01*
X3721000Y1595200D01*
X11000000Y1549200D02*
X10949200Y1650800D01*
X11050800D01*
X11000000Y1549200D01*
X10746000D02*
X10695200Y1650800D01*
X10796800D01*
X10746000Y1549200D01*
X10492000D02*
X10441200Y1650800D01*
X10542800D01*
X10492000Y1549200D01*
X10238000D02*
X10187200Y1650800D01*
X10288800D01*
X10238000Y1549200D01*
X11000000Y999200D02*
X10949200Y1100800D01*
X11050800D01*
X11000000Y999200D01*
X10746000D02*
X10695200Y1100800D01*
X10796800D01*
X10746000Y999200D01*
X10492000D02*
X10441200Y1100800D01*
X10542800D01*
X10492000Y999200D01*
X10238000D02*
X10187200Y1100800D01*
X10288800D01*
X10238000Y999200D01*
X6500000Y4545200D02*
X6449200Y4646800D01*
X6550800D01*
X6500000Y4545200D01*
X6500000Y4799200D02*
X6449200Y4900800D01*
X6550800D01*
X6500000Y4799200D01*
X6754000Y4545200D02*
X6703200Y4646800D01*
X6804800D01*
X6754000Y4545200D01*
Y4799200D02*
X6703200Y4900800D01*
X6804800D01*
X6754000Y4799200D01*
X7008000Y4545200D02*
X6957200Y4646800D01*
X7058800D01*
X7008000Y4545200D01*
X7008000Y4799200D02*
X6957200Y4900800D01*
X7058800D01*
X7008000Y4799200D01*
X7262000Y4545200D02*
X7211200Y4646800D01*
X7312800D01*
X7262000Y4545200D01*
Y4799200D02*
X7211200Y4900800D01*
X7312800D01*
X7262000Y4799200D01*
X7516000Y4545200D02*
X7465200Y4646800D01*
X7566800D01*
X7516000Y4545200D01*
Y4799200D02*
X7465200Y4900800D01*
X7566800D01*
X7516000Y4799200D01*
X7770000Y4545200D02*
X7719200Y4646800D01*
X7820800D01*
X7770000Y4545200D01*
X7770000Y4799200D02*
X7719200Y4900800D01*
X7820800D01*
X7770000Y4799200D01*
X8024000Y4545200D02*
X7973200Y4646800D01*
X8074800D01*
X8024000Y4545200D01*
X8024000Y4799200D02*
X7973200Y4900800D01*
X8074800D01*
X8024000Y4799200D01*
X8278000Y4545200D02*
X8227200Y4646800D01*
X8328800D01*
X8278000Y4545200D01*
Y4799200D02*
X8227200Y4900800D01*
X8328800D01*
X8278000Y4799200D01*
X8532000Y4545200D02*
X8481200Y4646800D01*
X8582800D01*
X8532000Y4545200D01*
Y4799200D02*
X8481200Y4900800D01*
X8582800D01*
X8532000Y4799200D01*
X8786000Y4545200D02*
X8735200Y4646800D01*
X8836800D01*
X8786000Y4545200D01*
X8786000Y4799200D02*
X8735200Y4900800D01*
X8836800D01*
X8786000Y4799200D01*
X9040000Y4545200D02*
X8989200Y4646800D01*
X9090800D01*
X9040000Y4545200D01*
Y4799200D02*
X8989200Y4900800D01*
X9090800D01*
X9040000Y4799200D01*
X9294000Y4545200D02*
X9243200Y4646800D01*
X9344800D01*
X9294000Y4545200D01*
X9294000Y4799200D02*
X9243200Y4900800D01*
X9344800D01*
X9294000Y4799200D01*
X9548000Y4545200D02*
X9497200Y4646800D01*
X9598800D01*
X9548000Y4545200D01*
Y4799200D02*
X9497200Y4900800D01*
X9598800D01*
X9548000Y4799200D01*
X9802000Y4545200D02*
X9751200Y4646800D01*
X9852800D01*
X9802000Y4545200D01*
X9802000Y4799200D02*
X9751200Y4900800D01*
X9852800D01*
X9802000Y4799200D01*
X10056000Y4545200D02*
X10005200Y4646800D01*
X10106800D01*
X10056000Y4545200D01*
X10056000Y4799200D02*
X10005200Y4900800D01*
X10106800D01*
X10056000Y4799200D01*
X10310000Y4545200D02*
X10259200Y4646800D01*
X10360800D01*
X10310000Y4545200D01*
Y4799200D02*
X10259200Y4900800D01*
X10360800D01*
X10310000Y4799200D01*
X10564000Y4545200D02*
X10513200Y4646800D01*
X10614800D01*
X10564000Y4545200D01*
Y4799200D02*
X10513200Y4900800D01*
X10614800D01*
X10564000Y4799200D01*
X10818000Y4545200D02*
X10767200Y4646800D01*
X10868800D01*
X10818000Y4545200D01*
Y4799200D02*
X10767200Y4900800D01*
X10868800D01*
X10818000Y4799200D01*
X1682000Y4545200D02*
X1631200Y4646800D01*
X1732800D01*
X1682000Y4545200D01*
Y4799200D02*
X1631200Y4900800D01*
X1732800D01*
X1682000Y4799200D01*
X1936000Y4545200D02*
X1885200Y4646800D01*
X1986800D01*
X1936000Y4545200D01*
X1936000Y4799200D02*
X1885200Y4900800D01*
X1986800D01*
X1936000Y4799200D01*
X2190000Y4545200D02*
X2139200Y4646800D01*
X2240800D01*
X2190000Y4545200D01*
Y4799200D02*
X2139200Y4900800D01*
X2240800D01*
X2190000Y4799200D01*
X2444000Y4545200D02*
X2393200Y4646800D01*
X2494800D01*
X2444000Y4545200D01*
Y4799200D02*
X2393200Y4900800D01*
X2494800D01*
X2444000Y4799200D01*
X2698000Y4545200D02*
X2647200Y4646800D01*
X2748800D01*
X2698000Y4545200D01*
Y4799200D02*
X2647200Y4900800D01*
X2748800D01*
X2698000Y4799200D01*
X2952000Y4545200D02*
X2901200Y4646800D01*
X3002800D01*
X2952000Y4545200D01*
X2952000Y4799200D02*
X2901200Y4900800D01*
X3002800D01*
X2952000Y4799200D01*
X3206000Y4545200D02*
X3155200Y4646800D01*
X3256800D01*
X3206000Y4545200D01*
X3206000Y4799200D02*
X3155200Y4900800D01*
X3256800D01*
X3206000Y4799200D01*
X3460000Y4545200D02*
X3409200Y4646800D01*
X3510800D01*
X3460000Y4545200D01*
Y4799200D02*
X3409200Y4900800D01*
X3510800D01*
X3460000Y4799200D01*
X3714000Y4545200D02*
X3663200Y4646800D01*
X3764800D01*
X3714000Y4545200D01*
Y4799200D02*
X3663200Y4900800D01*
X3764800D01*
X3714000Y4799200D01*
X3968000Y4545200D02*
X3917200Y4646800D01*
X4018800D01*
X3968000Y4545200D01*
Y4799200D02*
X3917200Y4900800D01*
X4018800D01*
X3968000Y4799200D01*
X4222000Y4545200D02*
X4171200Y4646800D01*
X4272800D01*
X4222000Y4545200D01*
X4222000Y4799200D02*
X4171200Y4900800D01*
X4272800D01*
X4222000Y4799200D01*
X4476000Y4545200D02*
X4425200Y4646800D01*
X4526800D01*
X4476000Y4545200D01*
Y4799200D02*
X4425200Y4900800D01*
X4526800D01*
X4476000Y4799200D01*
X4730000Y4545200D02*
X4679200Y4646800D01*
X4780800D01*
X4730000Y4545200D01*
Y4799200D02*
X4679200Y4900800D01*
X4780800D01*
X4730000Y4799200D01*
X4984000Y4545200D02*
X4933200Y4646800D01*
X5034800D01*
X4984000Y4545200D01*
Y4799200D02*
X4933200Y4900800D01*
X5034800D01*
X4984000Y4799200D01*
X5238000Y4545200D02*
X5187200Y4646800D01*
X5288800D01*
X5238000Y4545200D01*
Y4799200D02*
X5187200Y4900800D01*
X5288800D01*
X5238000Y4799200D01*
X5492000Y4545200D02*
X5441200Y4646800D01*
X5542800D01*
X5492000Y4545200D01*
X5492000Y4799200D02*
X5441200Y4900800D01*
X5542800D01*
X5492000Y4799200D01*
X5746000Y4545200D02*
X5695200Y4646800D01*
X5796800D01*
X5746000Y4545200D01*
Y4799200D02*
X5695200Y4900800D01*
X5796800D01*
X5746000Y4799200D01*
X6000000Y4545200D02*
X5949200Y4646800D01*
X6050800D01*
X6000000Y4545200D01*
Y4799200D02*
X5949200Y4900800D01*
X6050800D01*
X6000000Y4799200D01*
X1619200Y2500000D02*
X1670000Y2550800D01*
X1720800Y2500000D01*
X1670000Y2449200D01*
X1619200Y2500000D01*
X3189200Y3599200D02*
Y3700800D01*
X3290800D01*
Y3599200D01*
X3189200D01*
X3209520Y3619520D02*
Y3680480D01*
X3270480D01*
Y3619520D01*
X3209520D01*
X11329200Y3110000D02*
X11380000Y3160800D01*
X11430800Y3110000D01*
X11380000Y3059200D01*
X11329200Y3110000D01*
X9269200Y3129200D02*
Y3230800D01*
X9370800D01*
Y3129200D01*
X9269200D01*
X9289520Y3149520D02*
Y3210480D01*
X9350480D01*
Y3149520D01*
X9289520D01*
X10009200Y3479200D02*
Y3580800D01*
X10110800D01*
Y3479200D01*
X10009200D01*
X10029520Y3499520D02*
Y3560480D01*
X10090480D01*
Y3499520D01*
X10029520D01*
X11329200Y2960000D02*
X11380000Y3010800D01*
X11430800Y2960000D01*
X11380000Y2909200D01*
X11329200Y2960000D01*
X10819200Y2870000D02*
X10870000Y2920800D01*
X10920800Y2870000D01*
X10870000Y2819200D01*
X10819200Y2870000D01*
X10589200D02*
X10640000Y2920800D01*
X10690800Y2870000D01*
X10640000Y2819200D01*
X10589200Y2870000D01*
X1119200Y639200D02*
Y740800D01*
X1220800D01*
Y639200D01*
X1119200D01*
X1139520Y659520D02*
Y720480D01*
X1200480D01*
Y659520D01*
X1139520D01*
X1219200Y639200D02*
Y740800D01*
X1320800D01*
Y639200D01*
X1219200D01*
X1239520Y659520D02*
Y720480D01*
X1300480D01*
Y659520D01*
X1239520D01*
X1319533Y639200D02*
Y740800D01*
X1421133D01*
Y639200D01*
X1319533D01*
X1339853Y659520D02*
Y720480D01*
X1400813D01*
Y659520D01*
X1339853D01*
X2076200Y782200D02*
Y883800D01*
X2177800D01*
Y782200D01*
X2076200D01*
X2096520Y802520D02*
Y863480D01*
X2157480D01*
Y802520D01*
X2096520D01*
X1949200Y779200D02*
Y880800D01*
X2050800D01*
Y779200D01*
X1949200D01*
X1969520Y799520D02*
Y860480D01*
X2030480D01*
Y799520D01*
X1969520D01*
X1568200Y1030200D02*
Y1131800D01*
X1669800D01*
Y1030200D01*
X1568200D01*
X1588520Y1050520D02*
Y1111480D01*
X1649480D01*
Y1050520D01*
X1588520D01*
X1695200Y1025200D02*
Y1126800D01*
X1796800D01*
Y1025200D01*
X1695200D01*
X1715520Y1045520D02*
Y1106480D01*
X1776480D01*
Y1045520D01*
X1715520D01*
X1822200Y1032200D02*
Y1133800D01*
X1923800D01*
Y1032200D01*
X1822200D01*
X1842520Y1052520D02*
Y1113480D01*
X1903480D01*
Y1052520D01*
X1842520D01*
X1949200Y1029200D02*
Y1130800D01*
X2050800D01*
Y1029200D01*
X1949200D01*
X1969520Y1049520D02*
Y1110480D01*
X2030480D01*
Y1049520D01*
X1969520D01*
X2076200Y1036200D02*
Y1137800D01*
X2177800D01*
Y1036200D01*
X2076200D01*
X2096520Y1056520D02*
Y1117480D01*
X2157480D01*
Y1056520D01*
X2096520D01*
X2203200Y1033200D02*
Y1134800D01*
X2304800D01*
Y1033200D01*
X2203200D01*
X2223520Y1053520D02*
Y1114480D01*
X2284480D01*
Y1053520D01*
X2223520D01*
X2330200Y1030200D02*
Y1131800D01*
X2431800D01*
Y1030200D01*
X2330200D01*
X2350520Y1050520D02*
Y1111480D01*
X2411480D01*
Y1050520D01*
X2350520D01*
X2330200Y778200D02*
Y879800D01*
X2431800D01*
Y778200D01*
X2330200D01*
X2350520Y798520D02*
Y859480D01*
X2411480D01*
Y798520D01*
X2350520D01*
X2203200Y783200D02*
Y884800D01*
X2304800D01*
Y783200D01*
X2203200D01*
X2223520Y803520D02*
Y864480D01*
X2284480D01*
Y803520D01*
X2223520D01*
X2474391Y845091D02*
Y946691D01*
X2575991D01*
Y845091D01*
X2474391D01*
X2494711Y865411D02*
Y926371D01*
X2555671D01*
Y865411D01*
X2494711D01*
X1329200Y1209200D02*
Y1310800D01*
X1430800D01*
Y1209200D01*
X1329200D01*
X1349520Y1229520D02*
Y1290480D01*
X1410480D01*
Y1229520D01*
X1349520D01*
X1224200Y1214200D02*
Y1315800D01*
X1325800D01*
Y1214200D01*
X1224200D01*
X1244520Y1234520D02*
Y1295480D01*
X1305480D01*
Y1234520D01*
X1244520D01*
X1119200Y1209200D02*
Y1310800D01*
X1220800D01*
Y1209200D01*
X1119200D01*
X1139520Y1229520D02*
Y1290480D01*
X1200480D01*
Y1229520D01*
X1139520D01*
X2479200Y1799200D02*
Y1900800D01*
X2580800D01*
Y1799200D01*
X2479200D01*
X2499520Y1819520D02*
Y1880480D01*
X2560480D01*
Y1819520D01*
X2499520D01*
X2229199Y3199199D02*
Y3300799D01*
X2330799D01*
Y3199199D01*
X2229199D01*
X2249519Y3219519D02*
Y3280479D01*
X2310479D01*
Y3219519D01*
X2249519D01*
X5169200Y2699200D02*
Y2800800D01*
X5270800D01*
Y2699200D01*
X5169200D01*
X5189520Y2719520D02*
Y2780480D01*
X5250480D01*
Y2719520D01*
X5189520D01*
X6579200Y1729200D02*
Y1830800D01*
X6680800D01*
Y1729200D01*
X6579200D01*
X6599520Y1749520D02*
Y1810480D01*
X6660480D01*
Y1749520D01*
X6599520D01*
X1569200Y3799200D02*
Y3900800D01*
X1670800D01*
Y3799200D01*
X1569200D01*
X1589520Y3819520D02*
Y3880480D01*
X1650480D01*
Y3819520D01*
X1589520D01*
X1899200Y3799200D02*
Y3900800D01*
X2000800D01*
Y3799200D01*
X1899200D01*
X1919520Y3819520D02*
Y3880480D01*
X1980480D01*
Y3819520D01*
X1919520D01*
X2009199Y3799200D02*
Y3900800D01*
X2110799D01*
Y3799200D01*
X2009199D01*
X2029519Y3819520D02*
Y3880480D01*
X2090479D01*
Y3819520D01*
X2029519D01*
X1899200Y3199200D02*
Y3300800D01*
X2000800D01*
Y3199200D01*
X1899200D01*
X1919520Y3219520D02*
Y3280480D01*
X1980480D01*
Y3219520D01*
X1919520D01*
X2119200Y3199200D02*
Y3300800D01*
X2220800D01*
Y3199200D01*
X2119200D01*
X2139520Y3219520D02*
Y3280480D01*
X2200480D01*
Y3219520D01*
X2139520D01*
X1679303Y3199096D02*
Y3300696D01*
X1780903D01*
Y3199096D01*
X1679303D01*
X1699623Y3219416D02*
Y3280376D01*
X1760583D01*
Y3219416D01*
X1699623D01*
X2349200Y2500000D02*
X2400000Y2550800D01*
X2450800Y2500000D01*
X2400000Y2449200D01*
X2349200Y2500000D01*
X5149200Y2350000D02*
X5200000Y2400800D01*
X5250800Y2350000D01*
X5200000Y2299200D01*
X5149200Y2350000D01*
X1679200Y4250000D02*
X1730000Y4300800D01*
X1780800Y4250000D01*
X1730000Y4199200D01*
X1679200Y4250000D01*
X1459200Y3199200D02*
Y3300800D01*
X1560800D01*
Y3199200D01*
X1459200D01*
X1479520Y3219520D02*
Y3280480D01*
X1540480D01*
Y3219520D01*
X1479520D01*
X2339200Y3799200D02*
Y3900800D01*
X2440800D01*
Y3799200D01*
X2339200D01*
X2359520Y3819520D02*
Y3880480D01*
X2420480D01*
Y3819520D01*
X2359520D01*
X5469200Y1989200D02*
Y2090800D01*
X5570800D01*
Y1989200D01*
X5469200D01*
X5489520Y2009520D02*
Y2070480D01*
X5550480D01*
Y2009520D01*
X5489520D01*
X5369200Y2009200D02*
Y2110800D01*
X5470800D01*
Y2009200D01*
X5369200D01*
X5389520Y2029520D02*
Y2090480D01*
X5450480D01*
Y2029520D01*
X5389520D01*
X5289200Y2089200D02*
Y2190800D01*
X5390800D01*
Y2089200D01*
X5289200D01*
X5309520Y2109520D02*
Y2170480D01*
X5370480D01*
Y2109520D01*
X5309520D01*
X5189200Y2199200D02*
Y2300800D01*
X5290800D01*
Y2199200D01*
X5189200D01*
X5209520Y2219520D02*
Y2280480D01*
X5270480D01*
Y2219520D01*
X5209520D01*
X5089200Y2619200D02*
Y2720800D01*
X5190800D01*
Y2619200D01*
X5089200D01*
X5109520Y2639520D02*
Y2700480D01*
X5170480D01*
Y2639520D01*
X5109520D01*
X5009200Y2549200D02*
Y2650800D01*
X5110800D01*
Y2549200D01*
X5009200D01*
X5029520Y2569520D02*
Y2630480D01*
X5090480D01*
Y2569520D01*
X5029520D01*
X6159200Y2379200D02*
Y2480800D01*
X6260800D01*
Y2379200D01*
X6159200D01*
X6179520Y2399520D02*
Y2460480D01*
X6240480D01*
Y2399520D01*
X6179520D01*
X4629200Y2169200D02*
Y2270800D01*
X4730800D01*
Y2169200D01*
X4629200D01*
X4649520Y2189520D02*
Y2250480D01*
X4710480D01*
Y2189520D01*
X4649520D01*
X6759720Y2489481D02*
X6810520Y2540281D01*
X6861320Y2489481D01*
X6810520Y2438681D01*
X6759720Y2489481D01*
X6759200Y2880000D02*
X6810000Y2930800D01*
X6860800Y2880000D01*
X6810000Y2829200D01*
X6759200Y2880000D01*
X6929200Y3029200D02*
Y3130800D01*
X7030800D01*
Y3029200D01*
X6929200D01*
X6949520Y3049520D02*
Y3110480D01*
X7010480D01*
Y3049520D01*
X6949520D01*
X6789200Y3079200D02*
Y3180800D01*
X6890800D01*
Y3079200D01*
X6789200D01*
X6809520Y3099520D02*
Y3160480D01*
X6870480D01*
Y3099520D01*
X6809520D01*
X6709200Y3149200D02*
Y3250800D01*
X6810800D01*
Y3149200D01*
X6709200D01*
X6729520Y3169520D02*
Y3230480D01*
X6790480D01*
Y3169520D01*
X6729520D01*
X6634240Y3224160D02*
Y3325760D01*
X6735840D01*
Y3224160D01*
X6634240D01*
X6654560Y3244480D02*
Y3305440D01*
X6715520D01*
Y3244480D01*
X6654560D01*
X5699200Y4069200D02*
Y4170800D01*
X5800800D01*
Y4069200D01*
X5699200D01*
X5719520Y4089520D02*
Y4150480D01*
X5780480D01*
Y4089520D01*
X5719520D01*
X5829200Y4069200D02*
Y4170800D01*
X5930800D01*
Y4069200D01*
X5829200D01*
X5849520Y4089520D02*
Y4150480D01*
X5910480D01*
Y4089520D01*
X5849520D01*
X6049200Y4069200D02*
Y4170800D01*
X6150800D01*
Y4069200D01*
X6049200D01*
X6069520Y4089520D02*
Y4150480D01*
X6130480D01*
Y4089520D01*
X6069520D01*
X5939200Y4069200D02*
Y4170800D01*
X6040800D01*
Y4069200D01*
X5939200D01*
X5959520Y4089520D02*
Y4150480D01*
X6020480D01*
Y4089520D01*
X5959520D01*
X6006622Y3479056D02*
Y3580656D01*
X6108222D01*
Y3479056D01*
X6006622D01*
X6026942Y3499376D02*
Y3560336D01*
X6087902D01*
Y3499376D01*
X6026942D01*
X5906369Y3476369D02*
Y3577969D01*
X6007969D01*
Y3476369D01*
X5906369D01*
X5926689Y3496689D02*
Y3557649D01*
X5987649D01*
Y3496689D01*
X5926689D01*
X6036700Y3567935D02*
Y3669535D01*
X6138300D01*
Y3567935D01*
X6036700D01*
X6057020Y3588255D02*
Y3649215D01*
X6117980D01*
Y3588255D01*
X6057020D01*
X5609200Y2989200D02*
Y3090800D01*
X5710800D01*
Y2989200D01*
X5609200D01*
X5629520Y3009520D02*
Y3070480D01*
X5690480D01*
Y3009520D01*
X5629520D01*
X5529200Y3069200D02*
Y3170800D01*
X5630800D01*
Y3069200D01*
X5529200D01*
X5549520Y3089520D02*
Y3150480D01*
X5610480D01*
Y3089520D01*
X5549520D01*
X5539200Y1859200D02*
Y1960800D01*
X5640800D01*
Y1859200D01*
X5539200D01*
X5559520Y1879520D02*
Y1940480D01*
X5620480D01*
Y1879520D01*
X5559520D01*
X5835142Y1633258D02*
Y1734858D01*
X5936742D01*
Y1633258D01*
X5835142D01*
X5855462Y1653578D02*
Y1714538D01*
X5916422D01*
Y1653578D01*
X5855462D01*
X5909200Y1569200D02*
Y1670800D01*
X6010800D01*
Y1569200D01*
X5909200D01*
X5929520Y1589520D02*
Y1650480D01*
X5990480D01*
Y1589520D01*
X5929520D01*
X5981700Y1509200D02*
Y1610800D01*
X6083300D01*
Y1509200D01*
X5981700D01*
X6002020Y1529520D02*
Y1590480D01*
X6062980D01*
Y1529520D01*
X6002020D01*
X6129200Y1379200D02*
Y1480800D01*
X6230800D01*
Y1379200D01*
X6129200D01*
X6149520Y1399520D02*
Y1460480D01*
X6210480D01*
Y1399520D01*
X6149520D01*
X6059200Y1447041D02*
Y1548641D01*
X6160800D01*
Y1447041D01*
X6059200D01*
X6079520Y1467361D02*
Y1528321D01*
X6140480D01*
Y1467361D01*
X6079520D01*
X6109209Y1286700D02*
Y1388300D01*
X6210809D01*
Y1286700D01*
X6109209D01*
X6129529Y1307020D02*
Y1367980D01*
X6190489D01*
Y1307020D01*
X6129529D01*
X6259304Y1229096D02*
Y1330696D01*
X6360904D01*
Y1229096D01*
X6259304D01*
X6279624Y1249416D02*
Y1310376D01*
X6340584D01*
Y1249416D01*
X6279624D01*
X6499200Y1509200D02*
Y1610800D01*
X6600800D01*
Y1509200D01*
X6499200D01*
X6519520Y1529520D02*
Y1590480D01*
X6580480D01*
Y1529520D01*
X6519520D01*
X6859200Y1989200D02*
Y2090800D01*
X6960800D01*
Y1989200D01*
X6859200D01*
X6879520Y2009520D02*
Y2070480D01*
X6940480D01*
Y2009520D01*
X6879520D01*
X6729200Y1729200D02*
Y1830800D01*
X6830800D01*
Y1729200D01*
X6729200D01*
X6749520Y1749520D02*
Y1810480D01*
X6810480D01*
Y1749520D01*
X6749520D01*
X7079200Y2139200D02*
Y2240800D01*
X7180800D01*
Y2139200D01*
X7079200D01*
X7099520Y2159520D02*
Y2220480D01*
X7160480D01*
Y2159520D01*
X7099520D01*
X7099200Y2049200D02*
Y2150800D01*
X7200800D01*
Y2049200D01*
X7099200D01*
X7119520Y2069520D02*
Y2130480D01*
X7180480D01*
Y2069520D01*
X7119520D01*
X7269200Y2249200D02*
Y2350800D01*
X7370800D01*
Y2249200D01*
X7269200D01*
X7289520Y2269520D02*
Y2330480D01*
X7350480D01*
Y2269520D01*
X7289520D01*
X5789200Y2000000D02*
X5840000Y2050800D01*
X5890800Y2000000D01*
X5840000Y1949200D01*
X5789200Y2000000D01*
X5789096Y1829096D02*
Y1930696D01*
X5890696D01*
Y1829096D01*
X5789096D01*
X5809416Y1849416D02*
Y1910376D01*
X5870376D01*
Y1849416D01*
X5809416D01*
X6939200Y2222530D02*
X6990000Y2273330D01*
X7040800Y2222530D01*
X6990000Y2171730D01*
X6939200Y2222530D01*
X7189200Y2319200D02*
Y2420800D01*
X7290800D01*
Y2319200D01*
X7189200D01*
X7209520Y2339520D02*
Y2400480D01*
X7270480D01*
Y2339520D01*
X7209520D01*
X6559200Y3289200D02*
Y3390800D01*
X6660800D01*
Y3289200D01*
X6559200D01*
X6579520Y3309520D02*
Y3370480D01*
X6640480D01*
Y3309520D01*
X6579520D01*
X5769200Y3009200D02*
Y3110800D01*
X5870800D01*
Y3009200D01*
X5769200D01*
X5789520Y3029520D02*
Y3090480D01*
X5850480D01*
Y3029520D01*
X5789520D01*
X6549200Y3150000D02*
X6600000Y3200800D01*
X6650800Y3150000D01*
X6600000Y3099200D01*
X6549200Y3150000D01*
X5859200Y3140000D02*
X5910000Y3190800D01*
X5960800Y3140000D01*
X5910000Y3089200D01*
X5859200Y3140000D01*
X6939200Y2819200D02*
Y2920800D01*
X7040800D01*
Y2819200D01*
X6939200D01*
X6959520Y2839520D02*
Y2900480D01*
X7020480D01*
Y2839520D01*
X6959520D01*
X1299200Y849200D02*
Y950800D01*
X1400800D01*
Y849200D01*
X1299200D01*
X1319520Y869520D02*
Y930480D01*
X1380480D01*
Y869520D01*
X1319520D01*
X1299200Y949200D02*
Y1050800D01*
X1400800D01*
Y949200D01*
X1299200D01*
X1319520Y969520D02*
Y1030480D01*
X1380480D01*
Y969520D01*
X1319520D01*
X1199200Y849200D02*
Y950800D01*
X1300800D01*
Y849200D01*
X1199200D01*
X1219520Y869520D02*
Y930480D01*
X1280480D01*
Y869520D01*
X1219520D01*
X1199200Y949200D02*
Y1050800D01*
X1300800D01*
Y949200D01*
X1199200D01*
X1219520Y969520D02*
Y1030480D01*
X1280480D01*
Y969520D01*
X1219520D01*
X1299200Y1799200D02*
Y1900800D01*
X1400800D01*
Y1799200D01*
X1299200D01*
X1319520Y1819520D02*
Y1880480D01*
X1380480D01*
Y1819520D01*
X1319520D01*
X1299200Y1899200D02*
Y2000800D01*
X1400800D01*
Y1899200D01*
X1299200D01*
X1319520Y1919520D02*
Y1980480D01*
X1380480D01*
Y1919520D01*
X1319520D01*
X1199200Y1799200D02*
Y1900800D01*
X1300800D01*
Y1799200D01*
X1199200D01*
X1219520Y1819520D02*
Y1880480D01*
X1280480D01*
Y1819520D01*
X1219520D01*
X1199200Y1899200D02*
Y2000800D01*
X1300800D01*
Y1899200D01*
X1199200D01*
X1219520Y1919520D02*
Y1980480D01*
X1280480D01*
Y1919520D01*
X1219520D01*
X12200000Y249200D02*
X12149200Y350800D01*
X12250800D01*
X12200000Y249200D01*
Y269520D02*
X12169520Y330480D01*
X12230480D01*
X12200000Y269520D01*
Y4649200D02*
X12149200Y4750800D01*
X12250800D01*
X12200000Y4649200D01*
Y4669520D02*
X12169520Y4730480D01*
X12230480D01*
X12200000Y4669520D01*
X300000Y249200D02*
X249200Y350800D01*
X350800D01*
X300000Y249200D01*
Y269520D02*
X269520Y330480D01*
X330480D01*
X300000Y269520D01*
Y4649200D02*
X249200Y4750800D01*
X350800D01*
X300000Y4649200D01*
Y4669520D02*
X269520Y4730480D01*
X330480D01*
X300000Y4669520D01*
D151*
X12100800Y2795000D02*
G03*
X12100800Y2795000I-50800J0D01*
G01*
X12100800Y2350000D02*
G03*
X12100800Y2350000I-50800J0D01*
G01*
X11425800Y4450000D02*
G03*
X11425800Y4450000I-50800J0D01*
G01*
X12225800Y2300000D02*
G03*
X12225800Y2300000I-50800J0D01*
G01*
X6300800Y1150000D02*
G03*
X6300800Y1150000I-50800J0D01*
G01*
D152*
X11405480Y4450000D02*
G03*
X11405480Y4450000I-30480J0D01*
G01*
X12205480Y2300000D02*
G03*
X12205480Y2300000I-30480J0D01*
G01*
X6280480Y1150000D02*
G03*
X6280480Y1150000I-30480J0D01*
G01*
%TF.MD5,9476571758ebc6ddfb3a0288b043ec5d*%
M02*
