%TF.GenerationSoftware,Altium Limited,Altium Designer,22.1.2 (22)*%
G04 Layer_Color=0*
%FSLAX45Y45*%
%MOMM*%
%TF.SameCoordinates,3CA235EB-07BA-4011-868A-CA015CDCDCF0*%
%TF.FilePolarity,Positive*%
%TF.FileFunction,Plated,1,4,PTH,Drill*%
%TF.Part,Single*%
G01*
G75*
%TA.AperFunction,ComponentDrill*%
%ADD169C,0.90000*%
%ADD170C,2.79000*%
%ADD171C,0.71000*%
%ADD172O,1.30000X0.60000*%
%ADD173O,0.85000X0.65000*%
%ADD174C,2.70000*%
%ADD175C,1.65000*%
%TA.AperFunction,ViaDrill,NotFilled*%
%ADD176C,0.40000*%
%ADD177C,0.30000*%
%ADD178C,0.50000*%
%ADD179C,3.20000*%
D169*
X7008000Y146000D02*
D03*
X7262000D02*
D03*
X7262000Y400000D02*
D03*
X7516000Y146000D02*
D03*
X7516000Y400000D02*
D03*
X12258000Y1050000D02*
D03*
X12004000D02*
D03*
X11750000D02*
D03*
X11496000D02*
D03*
X12258000Y1600000D02*
D03*
X12004000D02*
D03*
X11750000D02*
D03*
X11496000D02*
D03*
X5492000Y146000D02*
D03*
X6500000D02*
D03*
Y400000D02*
D03*
X6754000Y146000D02*
D03*
Y400000D02*
D03*
X7008000D02*
D03*
X7770000Y146000D02*
D03*
Y400000D02*
D03*
X8024000Y146000D02*
D03*
X8024000Y400000D02*
D03*
X8278000Y146000D02*
D03*
Y400000D02*
D03*
X8532000Y146000D02*
D03*
Y400000D02*
D03*
X8786000Y146000D02*
D03*
Y400000D02*
D03*
X9040000Y146000D02*
D03*
Y400000D02*
D03*
X9294000Y146000D02*
D03*
X9294000Y400000D02*
D03*
X9548000Y146000D02*
D03*
X9548000Y400000D02*
D03*
X9802000Y146000D02*
D03*
Y400000D02*
D03*
X10056000Y146000D02*
D03*
Y400000D02*
D03*
X10310000Y146000D02*
D03*
X10310000Y400000D02*
D03*
X10564000Y146000D02*
D03*
Y400000D02*
D03*
X10818000Y146000D02*
D03*
Y400000D02*
D03*
X1682000Y146000D02*
D03*
Y400000D02*
D03*
X1936000Y146000D02*
D03*
Y400000D02*
D03*
X2190001Y146000D02*
D03*
X2190000Y400000D02*
D03*
X2444000Y146000D02*
D03*
X2444000Y400000D02*
D03*
X2698000Y146000D02*
D03*
X2698000Y400000D02*
D03*
X2952000Y146000D02*
D03*
Y400000D02*
D03*
X3206000Y146000D02*
D03*
X3206000Y400000D02*
D03*
X3460000Y146000D02*
D03*
X3460000Y400000D02*
D03*
X3714000Y146000D02*
D03*
Y400000D02*
D03*
X3968000Y146000D02*
D03*
Y400000D02*
D03*
X4222000Y146000D02*
D03*
Y400000D02*
D03*
X4476001Y146000D02*
D03*
X4476000Y400000D02*
D03*
X4730000Y146000D02*
D03*
X4730000Y400000D02*
D03*
X4984000Y146000D02*
D03*
Y400000D02*
D03*
X5238000Y146000D02*
D03*
Y400000D02*
D03*
X5492000D02*
D03*
X5746000Y146000D02*
D03*
X5746000Y400000D02*
D03*
X6000000Y146000D02*
D03*
X6000000Y400000D02*
D03*
X4229000Y1900000D02*
D03*
Y1646000D02*
D03*
X3975000Y1900000D02*
D03*
Y1646000D02*
D03*
X3721000Y1900000D02*
D03*
Y1646000D02*
D03*
X11000000Y1600000D02*
D03*
X10746000D02*
D03*
X10492000D02*
D03*
X10238000D02*
D03*
X11000000Y1050000D02*
D03*
X10746000D02*
D03*
X10492000D02*
D03*
X10238000D02*
D03*
X6500000Y4596000D02*
D03*
X6500000Y4850000D02*
D03*
X6754000Y4596000D02*
D03*
Y4850000D02*
D03*
X7008000Y4596000D02*
D03*
X7008000Y4850000D02*
D03*
X7262000Y4596000D02*
D03*
Y4850000D02*
D03*
X7516000Y4596000D02*
D03*
Y4850000D02*
D03*
X7770000Y4596000D02*
D03*
X7770000Y4850000D02*
D03*
X8024000Y4596000D02*
D03*
X8024000Y4850000D02*
D03*
X8278000Y4596000D02*
D03*
Y4850000D02*
D03*
X8532000Y4596000D02*
D03*
Y4850000D02*
D03*
X8786000Y4596000D02*
D03*
X8786000Y4850000D02*
D03*
X9040000Y4596000D02*
D03*
Y4850000D02*
D03*
X9294000Y4596000D02*
D03*
X9294000Y4850000D02*
D03*
X9548000Y4596000D02*
D03*
Y4850000D02*
D03*
X9802000Y4596000D02*
D03*
X9802000Y4850000D02*
D03*
X10056000Y4596000D02*
D03*
X10056000Y4850000D02*
D03*
X10310000Y4596000D02*
D03*
Y4850000D02*
D03*
X10564000Y4596000D02*
D03*
Y4850000D02*
D03*
X10818000Y4596000D02*
D03*
Y4850000D02*
D03*
X1682000Y4596000D02*
D03*
Y4850000D02*
D03*
X1936000Y4596000D02*
D03*
X1936000Y4850000D02*
D03*
X2190000Y4596000D02*
D03*
Y4850000D02*
D03*
X2444000Y4596000D02*
D03*
Y4850000D02*
D03*
X2698000Y4596000D02*
D03*
Y4850000D02*
D03*
X2952000Y4596000D02*
D03*
X2952000Y4850000D02*
D03*
X3206000Y4596000D02*
D03*
X3206000Y4850000D02*
D03*
X3460000Y4596000D02*
D03*
Y4850000D02*
D03*
X3714000Y4596000D02*
D03*
Y4850000D02*
D03*
X3968000Y4596000D02*
D03*
Y4850000D02*
D03*
X4222000Y4596000D02*
D03*
X4222000Y4850000D02*
D03*
X4476000Y4596000D02*
D03*
Y4850000D02*
D03*
X4730000Y4596000D02*
D03*
Y4850000D02*
D03*
X4984000Y4596000D02*
D03*
Y4850000D02*
D03*
X5238000Y4596000D02*
D03*
Y4850000D02*
D03*
X5492000Y4596000D02*
D03*
X5492000Y4850000D02*
D03*
X5746000Y4596000D02*
D03*
Y4850000D02*
D03*
X6000000Y4596000D02*
D03*
Y4850000D02*
D03*
D170*
X454500Y1132500D02*
D03*
Y2567500D02*
D03*
D171*
X835500Y1596000D02*
D03*
X835500Y1723000D02*
D03*
Y1850000D02*
D03*
Y1977000D02*
D03*
Y2104000D02*
D03*
X581500Y1659500D02*
D03*
X581500Y1786500D02*
D03*
Y1913500D02*
D03*
X581500Y2040500D02*
D03*
D172*
X12350000Y2155000D02*
D03*
Y2990000D02*
D03*
D173*
X12050000Y2795000D02*
D03*
X12050000Y2350000D02*
D03*
D174*
X12140000Y4030000D02*
D03*
Y3530000D02*
D03*
D175*
X3080000Y2520000D02*
D03*
X3333992Y2265992D02*
D03*
Y2773992D02*
D03*
X2825992D02*
D03*
Y2265992D02*
D03*
D176*
X1180000Y1210000D02*
D03*
X1276568Y1636568D02*
D03*
X3540000Y1430000D02*
D03*
X9970000Y1620000D02*
D03*
X1040000Y2780000D02*
D03*
X3530000Y2070000D02*
D03*
X8100000Y3170000D02*
D03*
X8370000D02*
D03*
X9690000Y3350000D02*
D03*
X10520000D02*
D03*
X6600000Y3070000D02*
D03*
X11340000Y1850000D02*
D03*
X1950000Y2880000D02*
D03*
X1720000Y2470000D02*
D03*
X1170000Y2160000D02*
D03*
X6740000Y2730000D02*
D03*
X5670000Y2030000D02*
D03*
X2400000Y2500000D02*
D03*
X1730000Y3850000D02*
D03*
X5200000Y2350000D02*
D03*
X11380000Y3110000D02*
D03*
Y2960000D02*
D03*
X10870000Y2870000D02*
D03*
X10640000D02*
D03*
X6990000Y2222530D02*
D03*
X5910000Y3140000D02*
D03*
D177*
X8880000Y2770000D02*
D03*
X8570000Y2490000D02*
D03*
X8720000Y2770000D02*
D03*
X8800000Y2410000D02*
D03*
X8060000Y2710000D02*
D03*
X8360000Y2500000D02*
D03*
X7900000Y2430000D02*
D03*
Y2230000D02*
D03*
X7020000Y2720000D02*
D03*
X7130000Y2190000D02*
D03*
X7320000Y2300000D02*
D03*
X7240000Y2370000D02*
D03*
X7900000Y2330000D02*
D03*
X6630000Y1770000D02*
D03*
X6800000D02*
D03*
X1380000Y1630000D02*
D03*
X6160009Y1337500D02*
D03*
X6370000Y1330000D02*
D03*
X10050000Y1970000D02*
D03*
X3730000Y2520000D02*
D03*
X2520000Y2230000D02*
D03*
X6990000Y2870000D02*
D03*
X9561265Y2561265D02*
D03*
X10100000Y2120000D02*
D03*
X6610000Y3340000D02*
D03*
X6760000Y3225000D02*
D03*
X6837978Y3080000D02*
D03*
X6685040Y3274960D02*
D03*
X6740000Y2950000D02*
D03*
X6980000Y3080000D02*
D03*
X5820000Y3062500D02*
D03*
X2750000Y1722500D02*
D03*
X2590000Y1680000D02*
D03*
X2380000Y1770000D02*
D03*
X2000000D02*
D03*
X2250000D02*
D03*
X2130000D02*
D03*
X2259794Y2029998D02*
D03*
X1870000Y2030000D02*
D03*
X2520916Y1871406D02*
D03*
X2883735Y1253735D02*
D03*
X2610000Y1300000D02*
D03*
X2510000Y1340000D02*
D03*
X2790000Y1260000D02*
D03*
X2507485Y1140015D02*
D03*
X2519969Y982500D02*
D03*
X5910000Y3250000D02*
D03*
X2059999Y3850000D02*
D03*
X5824936Y3224936D02*
D03*
X2380000Y822499D02*
D03*
X2254000Y834000D02*
D03*
X2127000Y830000D02*
D03*
X2000000D02*
D03*
Y1080000D02*
D03*
X1530000Y2880000D02*
D03*
X1550000Y2500000D02*
D03*
X6750000Y2230000D02*
D03*
X7310000Y2710000D02*
D03*
X5220000Y2750000D02*
D03*
X5140000Y2670000D02*
D03*
X2259896Y1079896D02*
D03*
X2380000Y1080000D02*
D03*
Y2030000D02*
D03*
X1270000Y680000D02*
D03*
X830000Y1190000D02*
D03*
Y1340000D02*
D03*
X810000Y2260000D02*
D03*
Y2410000D02*
D03*
X1750000Y1080000D02*
D03*
X5520000Y2040000D02*
D03*
X5785104Y2035104D02*
D03*
X7220000Y2270000D02*
D03*
X3750000Y2240000D02*
D03*
X1170000Y1630000D02*
D03*
Y680000D02*
D03*
X1370000D02*
D03*
X2130000Y2030000D02*
D03*
X1620000D02*
D03*
X1750000D02*
D03*
X2000000D02*
D03*
X1870000Y1080000D02*
D03*
X2130000D02*
D03*
X7250000Y2770000D02*
D03*
X8430000Y2000000D02*
D03*
X9760000Y1260000D02*
D03*
X11000000Y810000D02*
D03*
X7390000Y2690000D02*
D03*
X7150000Y2100000D02*
D03*
X7440046Y2625069D02*
D03*
X9020000Y3440000D02*
D03*
X6500000Y4070000D02*
D03*
X7710000Y2580000D02*
D03*
X1950000Y3850000D02*
D03*
X1510000Y3250000D02*
D03*
X6010634Y3519550D02*
D03*
X5580000Y3120000D02*
D03*
X5850000Y3460000D02*
D03*
X6420000Y3640000D02*
D03*
X6418808Y3538723D02*
D03*
X3850000Y2160000D02*
D03*
X2170000Y3250000D02*
D03*
X1870000Y3250000D02*
D03*
X5240000Y2250000D02*
D03*
X5060000Y2600000D02*
D03*
X1840000Y2440000D02*
D03*
X3730000Y2630000D02*
D03*
X3850000Y2350000D02*
D03*
X4160000Y2340000D02*
D03*
X360000Y4150000D02*
D03*
X6080000Y3580000D02*
D03*
X3240000Y3650000D02*
D03*
X360000Y3390000D02*
D03*
Y3500000D02*
D03*
Y3610000D02*
D03*
Y3830000D02*
D03*
Y4050000D02*
D03*
X320000Y3140000D02*
D03*
X350000Y4280000D02*
D03*
X360000Y3720000D02*
D03*
Y3940000D02*
D03*
X7512500Y2572500D02*
D03*
X8560000Y2000000D02*
D03*
X8170000Y3000000D02*
D03*
X8300000D02*
D03*
X9000000D02*
D03*
X9130000D02*
D03*
X9250000Y2000000D02*
D03*
X9380000D02*
D03*
X9020000Y3330000D02*
D03*
X1300000Y2380000D02*
D03*
X2120000Y2500000D02*
D03*
X1619000Y1081000D02*
D03*
X2279999Y3249999D02*
D03*
X1730103Y3249896D02*
D03*
X2390000Y3850000D02*
D03*
X5420000Y2060000D02*
D03*
X6210000Y2430000D02*
D03*
X4680000Y2220000D02*
D03*
X5750000Y4120000D02*
D03*
X5880000D02*
D03*
X6100000D02*
D03*
X5990000D02*
D03*
X5660000Y3040000D02*
D03*
X6910000Y2040000D02*
D03*
X1350000Y1840000D02*
D03*
Y1940000D02*
D03*
X1250000Y1840000D02*
D03*
Y1940000D02*
D03*
X1350000Y890001D02*
D03*
X1350000Y990000D02*
D03*
X1250000Y890000D02*
D03*
Y990000D02*
D03*
D178*
X11375000Y4450000D02*
D03*
X12175000Y2300000D02*
D03*
X6250000Y1150000D02*
D03*
D179*
X12200000Y300000D02*
D03*
Y4700000D02*
D03*
X300000Y300000D02*
D03*
Y4700000D02*
D03*
%TF.MD5,c9923483375de0f06bdf627c525676ee*%
M02*
