%TF.GenerationSoftware,Altium Limited,Altium Designer,22.1.2 (22)*%
G04 Layer_Color=128*
%FSLAX45Y45*%
%MOMM*%
%TF.SameCoordinates,3CA235EB-07BA-4011-868A-CA015CDCDCF0*%
%TF.FilePolarity,Positive*%
%TF.FileFunction,Drillmap*%
%TF.Part,Single*%
G01*
G75*
%TA.AperFunction,NonConductor*%
%ADD181C,0.12700*%
D181*
X6963000Y146000D02*
X7053000D01*
X7008000Y101000D02*
Y191000D01*
X7217000Y146000D02*
X7307000D01*
X7262000Y101000D02*
Y191000D01*
X7217000Y400000D02*
X7307000D01*
X7262000Y355000D02*
Y445000D01*
X7471000Y146000D02*
X7561000D01*
X7516000Y101000D02*
Y191000D01*
X7471000Y400000D02*
X7561000D01*
X7516000Y355000D02*
Y445000D01*
X12213000Y1050000D02*
X12303000D01*
X12258000Y1005000D02*
Y1095000D01*
X11959000Y1050000D02*
X12049000D01*
X12004000Y1005000D02*
Y1095000D01*
X11705000Y1050000D02*
X11795000D01*
X11750000Y1005000D02*
Y1095000D01*
X11451000Y1050000D02*
X11541000D01*
X11496000Y1005000D02*
Y1095000D01*
X315000Y1132500D02*
X594000D01*
X454500Y993001D02*
Y1272000D01*
X315000Y2567500D02*
X594000D01*
X454500Y2428000D02*
Y2707000D01*
X800000Y1596000D02*
X871000D01*
X835500Y1560500D02*
Y1631500D01*
X800000Y1723000D02*
X871000D01*
X835500Y1687500D02*
Y1758500D01*
X800000Y1850000D02*
X871000D01*
X835500Y1814500D02*
Y1885500D01*
X800000Y1977000D02*
X871000D01*
X835500Y1941500D02*
Y2012500D01*
X800000Y2104000D02*
X871000D01*
X835500Y2068500D02*
Y2139500D01*
X546000Y1659500D02*
X617000D01*
X581500Y1624000D02*
Y1695000D01*
X546000Y1786500D02*
X617000D01*
X581500Y1751000D02*
Y1822000D01*
X546000Y1913500D02*
X617000D01*
X581500Y1878000D02*
Y1949000D01*
X546000Y2040500D02*
X617000D01*
X581500Y2005000D02*
Y2076000D01*
X12320000Y2155000D02*
X12380000D01*
X12350000Y2125000D02*
Y2185000D01*
X12320000Y2990000D02*
X12380000D01*
X12350000Y2960000D02*
Y3020000D01*
X12017500Y2795000D02*
X12082500D01*
X12050000Y2762500D02*
Y2827500D01*
X12017500Y2350000D02*
X12082500D01*
X12050000Y2317500D02*
Y2382500D01*
X12213000Y1600000D02*
X12303000D01*
X12258000Y1555000D02*
Y1645000D01*
X11959000Y1600000D02*
X12049000D01*
X12004000Y1555000D02*
Y1645000D01*
X11705000Y1600000D02*
X11795000D01*
X11750000Y1555000D02*
Y1645000D01*
X11451000Y1600000D02*
X11541000D01*
X11496000Y1555000D02*
Y1645000D01*
X12005000Y4030000D02*
X12275000D01*
X12140000Y3895000D02*
Y4165000D01*
X12005000Y3530000D02*
X12275000D01*
X12140000Y3395000D02*
Y3665000D01*
X2997500Y2520000D02*
X3162500D01*
X3080000Y2437500D02*
Y2602500D01*
X3251492Y2265992D02*
X3416492D01*
X3333992Y2183492D02*
Y2348492D01*
X3251492Y2773992D02*
X3416492D01*
X3333992Y2691492D02*
Y2856492D01*
X2743492Y2773992D02*
X2908492D01*
X2825992Y2691492D02*
Y2856492D01*
X2743492Y2265992D02*
X2908492D01*
X2825992Y2183492D02*
Y2348492D01*
X5447000Y146000D02*
X5537000D01*
X5492000Y101000D02*
Y191000D01*
X6455000Y146000D02*
X6545000D01*
X6500000Y101000D02*
Y191000D01*
X6455000Y400000D02*
X6545000D01*
X6500000Y355000D02*
Y445000D01*
X6709000Y146000D02*
X6799000D01*
X6754000Y101000D02*
Y191000D01*
X6709000Y400000D02*
X6799000D01*
X6754000Y355000D02*
Y445000D01*
X6963000Y400000D02*
X7053000D01*
X7008000Y355000D02*
Y445000D01*
X7725000Y146000D02*
X7815000D01*
X7770000Y101000D02*
Y191000D01*
X7725000Y400000D02*
X7815000D01*
X7770000Y355000D02*
Y445000D01*
X7979000Y146000D02*
X8069000D01*
X8024000Y101000D02*
Y191000D01*
X7979000Y400000D02*
X8069000D01*
X8024000Y355000D02*
Y445000D01*
X8233000Y146000D02*
X8323000D01*
X8278000Y101000D02*
Y191000D01*
X8233000Y400000D02*
X8323000D01*
X8278000Y355000D02*
Y445000D01*
X8487000Y146000D02*
X8577000D01*
X8532000Y101000D02*
Y191000D01*
X8487000Y400000D02*
X8577000D01*
X8532000Y355000D02*
Y445000D01*
X8741000Y146000D02*
X8831000D01*
X8786000Y101000D02*
Y191000D01*
X8741000Y400000D02*
X8831000D01*
X8786000Y355000D02*
Y445000D01*
X8995000Y146000D02*
X9085000D01*
X9040000Y101000D02*
Y191000D01*
X8995000Y400000D02*
X9085000D01*
X9040000Y355000D02*
Y445000D01*
X9249000Y146000D02*
X9339000D01*
X9294000Y101000D02*
Y191000D01*
X9249000Y400000D02*
X9339000D01*
X9294000Y355000D02*
Y445000D01*
X9503000Y146000D02*
X9593000D01*
X9548000Y101000D02*
Y191000D01*
X9503000Y400000D02*
X9593000D01*
X9548000Y355000D02*
Y445000D01*
X9757000Y146000D02*
X9847000D01*
X9802000Y101000D02*
Y191000D01*
X9757000Y400000D02*
X9847000D01*
X9802000Y355000D02*
Y445000D01*
X10011000Y146000D02*
X10101000D01*
X10056000Y101000D02*
Y191000D01*
X10011000Y400000D02*
X10101000D01*
X10056000Y355000D02*
Y445000D01*
X10265000Y146000D02*
X10355000D01*
X10310000Y101000D02*
Y191000D01*
X10265000Y400000D02*
X10355000D01*
X10310000Y355000D02*
Y445000D01*
X10519000Y146000D02*
X10609000D01*
X10564000Y101000D02*
Y191000D01*
X10519000Y400000D02*
X10609000D01*
X10564000Y355000D02*
Y445000D01*
X10773000Y146000D02*
X10863000D01*
X10818000Y101000D02*
Y191000D01*
X10773000Y400000D02*
X10863000D01*
X10818000Y355000D02*
Y445000D01*
X1637000Y146000D02*
X1727000D01*
X1682000Y101000D02*
Y191000D01*
X1637000Y400000D02*
X1727000D01*
X1682000Y355000D02*
Y445000D01*
X1891000Y146000D02*
X1981000D01*
X1936000Y101000D02*
Y191000D01*
X1891000Y400000D02*
X1981000D01*
X1936000Y355000D02*
Y445000D01*
X2145001Y146000D02*
X2235001D01*
X2190001Y101000D02*
Y191000D01*
X2145000Y400000D02*
X2235000D01*
X2190000Y355000D02*
Y445000D01*
X2399001Y146000D02*
X2489000D01*
X2444000Y101000D02*
Y191000D01*
X2399000Y400000D02*
X2489000D01*
X2444000Y355000D02*
Y445000D01*
X2653000Y146000D02*
X2743000D01*
X2698000Y101000D02*
Y191000D01*
X2653001Y400000D02*
X2743000D01*
X2698000Y355000D02*
Y445000D01*
X2907000Y146000D02*
X2997000D01*
X2952000Y101000D02*
Y191000D01*
X2907000Y400000D02*
X2997000D01*
X2952000Y355000D02*
Y445000D01*
X3161000Y146000D02*
X3251000D01*
X3206000Y101000D02*
Y191000D01*
X3161000Y400000D02*
X3251000D01*
X3206000Y355000D02*
Y445000D01*
X3415000Y146000D02*
X3505000D01*
X3460000Y101000D02*
Y191000D01*
X3415000Y400000D02*
X3505000D01*
X3460000Y355000D02*
Y445000D01*
X3669000Y146000D02*
X3759000D01*
X3714000Y101000D02*
Y191000D01*
X3669000Y400000D02*
X3759000D01*
X3714000Y355000D02*
Y445000D01*
X3923000Y146000D02*
X4013000D01*
X3968000Y101000D02*
Y191000D01*
X3923000Y400000D02*
X4013000D01*
X3968000Y355000D02*
Y445000D01*
X4177000Y146000D02*
X4267000D01*
X4222000Y101000D02*
Y191000D01*
X4177000Y400000D02*
X4267000D01*
X4222000Y355000D02*
Y445000D01*
X4431001Y146000D02*
X4521001D01*
X4476001Y101000D02*
Y191000D01*
X4431001Y400000D02*
X4521000D01*
X4476000Y355000D02*
Y445000D01*
X4685001Y146000D02*
X4775000D01*
X4730000Y101000D02*
Y191000D01*
X4685000Y400000D02*
X4775000D01*
X4730000Y355000D02*
Y445000D01*
X4939000Y146000D02*
X5029000D01*
X4984000Y101000D02*
Y191000D01*
X4939000Y400000D02*
X5029000D01*
X4984000Y355000D02*
Y445000D01*
X5193000Y146000D02*
X5283000D01*
X5238000Y101000D02*
Y191000D01*
X5193000Y400000D02*
X5283000D01*
X5238000Y355000D02*
Y445000D01*
X5447000Y400000D02*
X5537000D01*
X5492000Y355000D02*
Y445000D01*
X5701000Y146000D02*
X5791000D01*
X5746000Y101000D02*
Y191000D01*
X5701000Y400000D02*
X5791000D01*
X5746000Y355000D02*
Y445000D01*
X5955001Y146000D02*
X6045000D01*
X6000000Y101000D02*
Y191000D01*
X5955000Y400000D02*
X6045000D01*
X6000000Y355000D02*
Y445000D01*
X4184000Y1900000D02*
X4274000D01*
X4229000Y1855000D02*
Y1945000D01*
X4184000Y1646000D02*
X4274000D01*
X4229000Y1601000D02*
Y1691000D01*
X3930000Y1900000D02*
X4020000D01*
X3975000Y1855000D02*
Y1945000D01*
X3930000Y1646000D02*
X4020000D01*
X3975000Y1601000D02*
Y1691000D01*
X3676000Y1900000D02*
X3766000D01*
X3721000Y1855000D02*
Y1945000D01*
X3676000Y1646000D02*
X3766000D01*
X3721000Y1601000D02*
Y1691000D01*
X10955000Y1600000D02*
X11045000D01*
X11000000Y1555000D02*
Y1645000D01*
X10701000Y1600000D02*
X10791000D01*
X10746000Y1555000D02*
Y1645000D01*
X10447000Y1600000D02*
X10537000D01*
X10492000Y1555000D02*
Y1645000D01*
X10193000Y1600000D02*
X10283000D01*
X10238000Y1555000D02*
Y1645000D01*
X10955000Y1050000D02*
X11045000D01*
X11000000Y1005000D02*
Y1095000D01*
X10701000Y1050000D02*
X10791000D01*
X10746000Y1005000D02*
Y1095000D01*
X10447000Y1050000D02*
X10537000D01*
X10492000Y1005000D02*
Y1095000D01*
X10193000Y1050000D02*
X10283000D01*
X10238000Y1005000D02*
Y1095000D01*
X6455000Y4596000D02*
X6545000D01*
X6500000Y4551000D02*
Y4641000D01*
X6455000Y4850000D02*
X6545000D01*
X6500000Y4805000D02*
Y4895000D01*
X6709000Y4596000D02*
X6799000D01*
X6754000Y4551000D02*
Y4641000D01*
X6709000Y4850000D02*
X6799000D01*
X6754000Y4805000D02*
Y4895000D01*
X6963000Y4596000D02*
X7053000D01*
X7008000Y4551000D02*
Y4641000D01*
X6963000Y4850000D02*
X7053000D01*
X7008000Y4805000D02*
Y4895000D01*
X7217000Y4596000D02*
X7307000D01*
X7262000Y4551000D02*
Y4641000D01*
X7217000Y4850000D02*
X7307000D01*
X7262000Y4805000D02*
Y4895000D01*
X7471000Y4596000D02*
X7561000D01*
X7516000Y4551000D02*
Y4641000D01*
X7471000Y4850000D02*
X7561000D01*
X7516000Y4805000D02*
Y4895000D01*
X7725000Y4596000D02*
X7815000D01*
X7770000Y4551000D02*
Y4641000D01*
X7725000Y4850000D02*
X7815000D01*
X7770000Y4805000D02*
Y4895000D01*
X7979000Y4596000D02*
X8069000D01*
X8024000Y4551000D02*
Y4641000D01*
X7979000Y4850000D02*
X8069000D01*
X8024000Y4805000D02*
Y4895000D01*
X8233000Y4596000D02*
X8323000D01*
X8278000Y4551000D02*
Y4641000D01*
X8233000Y4850000D02*
X8323000D01*
X8278000Y4805000D02*
Y4895000D01*
X8487000Y4596000D02*
X8577000D01*
X8532000Y4551000D02*
Y4641000D01*
X8487000Y4850000D02*
X8577000D01*
X8532000Y4805000D02*
Y4895000D01*
X8741000Y4596000D02*
X8831000D01*
X8786000Y4551000D02*
Y4641000D01*
X8741000Y4850000D02*
X8831000D01*
X8786000Y4805000D02*
Y4895000D01*
X8995000Y4596000D02*
X9085000D01*
X9040000Y4551000D02*
Y4641000D01*
X8995000Y4850000D02*
X9085000D01*
X9040000Y4805000D02*
Y4895000D01*
X9249000Y4596000D02*
X9339000D01*
X9294000Y4551000D02*
Y4641000D01*
X9249000Y4850000D02*
X9339000D01*
X9294000Y4805000D02*
Y4895000D01*
X9503000Y4596000D02*
X9593000D01*
X9548000Y4551000D02*
Y4641000D01*
X9503000Y4850000D02*
X9593000D01*
X9548000Y4805000D02*
Y4895000D01*
X9757000Y4596000D02*
X9847000D01*
X9802000Y4551000D02*
Y4641000D01*
X9757000Y4850000D02*
X9847000D01*
X9802000Y4805000D02*
Y4895000D01*
X10011000Y4596000D02*
X10101000D01*
X10056000Y4551000D02*
Y4641000D01*
X10011000Y4850000D02*
X10101000D01*
X10056000Y4805000D02*
Y4895000D01*
X10265000Y4596000D02*
X10355000D01*
X10310000Y4551000D02*
Y4641000D01*
X10265000Y4850000D02*
X10355000D01*
X10310000Y4805000D02*
Y4895000D01*
X10519000Y4596000D02*
X10609000D01*
X10564000Y4551000D02*
Y4641000D01*
X10519000Y4850000D02*
X10609000D01*
X10564000Y4805000D02*
Y4895000D01*
X10773000Y4596000D02*
X10863000D01*
X10818000Y4551000D02*
Y4641000D01*
X10773000Y4850000D02*
X10863000D01*
X10818000Y4805000D02*
Y4895000D01*
X1637000Y4596000D02*
X1727000D01*
X1682000Y4551000D02*
Y4641000D01*
X1637000Y4850000D02*
X1727000D01*
X1682000Y4805000D02*
Y4895000D01*
X1891000Y4596000D02*
X1981000D01*
X1936000Y4551000D02*
Y4641000D01*
X1891000Y4850000D02*
X1981000D01*
X1936000Y4805000D02*
Y4895000D01*
X2145000Y4596000D02*
X2235000D01*
X2190000Y4551000D02*
Y4641000D01*
X2145000Y4850000D02*
X2235000D01*
X2190000Y4805000D02*
Y4895000D01*
X2399000Y4596000D02*
X2489000D01*
X2444000Y4551000D02*
Y4641000D01*
X2399000Y4850000D02*
X2489000D01*
X2444000Y4805000D02*
Y4895000D01*
X2653000Y4596000D02*
X2743000D01*
X2698000Y4551000D02*
Y4641000D01*
X2653000Y4850000D02*
X2743000D01*
X2698000Y4805000D02*
Y4895000D01*
X2907000Y4596000D02*
X2997000D01*
X2952000Y4551000D02*
Y4641000D01*
X2907000Y4850000D02*
X2997000D01*
X2952000Y4805000D02*
Y4895000D01*
X3161000Y4596000D02*
X3251000D01*
X3206000Y4551000D02*
Y4641000D01*
X3161000Y4850000D02*
X3251000D01*
X3206000Y4805000D02*
Y4895000D01*
X3415000Y4596000D02*
X3505000D01*
X3460000Y4551000D02*
Y4641000D01*
X3415000Y4850000D02*
X3505000D01*
X3460000Y4805000D02*
Y4895000D01*
X3669000Y4596000D02*
X3759000D01*
X3714000Y4551000D02*
Y4641000D01*
X3669000Y4850000D02*
X3759000D01*
X3714000Y4805000D02*
Y4895000D01*
X3923000Y4596000D02*
X4013000D01*
X3968000Y4551000D02*
Y4641000D01*
X3923000Y4850000D02*
X4013000D01*
X3968000Y4805000D02*
Y4895000D01*
X4177000Y4596000D02*
X4267000D01*
X4222000Y4551000D02*
Y4641000D01*
X4177000Y4850000D02*
X4267000D01*
X4222000Y4805000D02*
Y4895000D01*
X4431000Y4596000D02*
X4521000D01*
X4476000Y4551000D02*
Y4641000D01*
X4431000Y4850000D02*
X4521000D01*
X4476000Y4805000D02*
Y4895000D01*
X4685000Y4596000D02*
X4775000D01*
X4730000Y4551000D02*
Y4641000D01*
X4685000Y4850000D02*
X4775000D01*
X4730000Y4805000D02*
Y4895000D01*
X4939000Y4596000D02*
X5029000D01*
X4984000Y4551000D02*
Y4641000D01*
X4939000Y4850000D02*
X5029000D01*
X4984000Y4805000D02*
Y4895000D01*
X5193000Y4596000D02*
X5283000D01*
X5238000Y4551000D02*
Y4641000D01*
X5193000Y4850000D02*
X5283000D01*
X5238000Y4805000D02*
Y4895000D01*
X5447000Y4596000D02*
X5537000D01*
X5492000Y4551000D02*
Y4641000D01*
X5447000Y4850000D02*
X5537000D01*
X5492000Y4805000D02*
Y4895000D01*
X5701000Y4596000D02*
X5791000D01*
X5746000Y4551000D02*
Y4641000D01*
X5701000Y4850000D02*
X5791000D01*
X5746000Y4805000D02*
Y4895000D01*
X5955000Y4596000D02*
X6045000D01*
X6000000Y4551000D02*
Y4641000D01*
X5955000Y4850000D02*
X6045000D01*
X6000000Y4805000D02*
Y4895000D01*
X1160000Y1210000D02*
X1200000D01*
X1180000Y1190000D02*
Y1230000D01*
X8865000Y2770000D02*
X8895000D01*
X8880000Y2755000D02*
Y2785000D01*
X8555000Y2490000D02*
X8585000D01*
X8570000Y2475000D02*
Y2505000D01*
X8705000Y2770000D02*
X8735000D01*
X8720000Y2755000D02*
Y2785000D01*
X8785000Y2410000D02*
X8815000D01*
X8800000Y2395000D02*
Y2425000D01*
X8045000Y2710000D02*
X8075000D01*
X8060000Y2695000D02*
Y2725000D01*
X8345000Y2500000D02*
X8375000D01*
X8360000Y2485000D02*
Y2515000D01*
X7885000Y2430000D02*
X7915000D01*
X7900000Y2415000D02*
Y2445000D01*
X7885000Y2230000D02*
X7915000D01*
X7900000Y2215000D02*
Y2245000D01*
X7005000Y2720000D02*
X7035000D01*
X7020000Y2705000D02*
Y2735000D01*
X7115000Y2190000D02*
X7145000D01*
X7130000Y2175000D02*
Y2205000D01*
X7305000Y2300000D02*
X7335000D01*
X7320000Y2285000D02*
Y2315000D01*
X7225000Y2370000D02*
X7255000D01*
X7240000Y2355000D02*
Y2385000D01*
X7885000Y2330000D02*
X7915000D01*
X7900000Y2315000D02*
Y2345000D01*
X6615000Y1770000D02*
X6645000D01*
X6630000Y1755000D02*
Y1785000D01*
X6785000Y1770000D02*
X6815000D01*
X6800000Y1755000D02*
Y1785000D01*
X1256568Y1636568D02*
X1296568D01*
X1276568Y1616569D02*
Y1656568D01*
X1365000Y1630000D02*
X1395000D01*
X1380000Y1615000D02*
Y1645000D01*
X3520000Y1430000D02*
X3560000D01*
X3540000Y1410000D02*
Y1450000D01*
X6145009Y1337500D02*
X6175009D01*
X6160009Y1322501D02*
Y1352500D01*
X6355000Y1330000D02*
X6385000D01*
X6370000Y1315000D02*
Y1345000D01*
X9950000Y1620000D02*
X9990000D01*
X9970000Y1600000D02*
Y1640000D01*
X10035000Y1970000D02*
X10065000D01*
X10050000Y1955000D02*
Y1985000D01*
X1020000Y2780000D02*
X1060000D01*
X1040000Y2760000D02*
Y2800000D01*
X3715000Y2520000D02*
X3745000D01*
X3730000Y2505000D02*
Y2535000D01*
X3510000Y2070000D02*
X3550000D01*
X3530000Y2050000D02*
Y2090000D01*
X2505000Y2230000D02*
X2535000D01*
X2520000Y2215000D02*
Y2245000D01*
X8080000Y3170000D02*
X8120000D01*
X8100000Y3150000D02*
Y3190000D01*
X8350000Y3170000D02*
X8390000D01*
X8370000Y3150000D02*
Y3190000D01*
X6975000Y2870000D02*
X7005000D01*
X6990000Y2855000D02*
Y2885000D01*
X9670000Y3350000D02*
X9710000D01*
X9690000Y3330000D02*
Y3370000D01*
X10500000Y3350000D02*
X10540000D01*
X10520000Y3330000D02*
Y3370000D01*
X9546265Y2561265D02*
X9576265D01*
X9561265Y2546265D02*
Y2576265D01*
X10085000Y2120000D02*
X10115000D01*
X10100000Y2105000D02*
Y2135000D01*
X6595000Y3340000D02*
X6625000D01*
X6610000Y3325000D02*
Y3355000D01*
X6580000Y3070000D02*
X6620000D01*
X6600000Y3050000D02*
Y3090000D01*
X6745000Y3225000D02*
X6775000D01*
X6760000Y3210000D02*
Y3240000D01*
X6822978Y3080000D02*
X6852978D01*
X6837978Y3065000D02*
Y3095000D01*
X6670040Y3274960D02*
X6700040D01*
X6685040Y3259960D02*
Y3289960D01*
X6725000Y2950000D02*
X6755000D01*
X6740000Y2935000D02*
Y2965000D01*
X6965000Y3080000D02*
X6995000D01*
X6980000Y3065000D02*
Y3095000D01*
X5805000Y3062500D02*
X5835000D01*
X5820000Y3047500D02*
Y3077500D01*
X11320000Y1850000D02*
X11360000D01*
X11340000Y1830000D02*
Y1870000D01*
X2735000Y1722500D02*
X2765000D01*
X2750000Y1707500D02*
Y1737500D01*
X2575000Y1680000D02*
X2605000D01*
X2590000Y1665000D02*
Y1695000D01*
X2365000Y1770000D02*
X2395000D01*
X2380000Y1755000D02*
Y1785000D01*
X1985000Y1770000D02*
X2015000D01*
X2000000Y1755000D02*
Y1785000D01*
X2235000Y1770000D02*
X2265000D01*
X2250000Y1755000D02*
Y1785000D01*
X2115000Y1770000D02*
X2145000D01*
X2130000Y1755000D02*
Y1785000D01*
X2244794Y2029998D02*
X2274794D01*
X2259794Y2014999D02*
Y2044998D01*
X1855000Y2030000D02*
X1885000D01*
X1870000Y2015000D02*
Y2045000D01*
X2505916Y1871406D02*
X2535916D01*
X2520916Y1856406D02*
Y1886406D01*
X2868735Y1253735D02*
X2898735D01*
X2883735Y1238735D02*
Y1268735D01*
X2595000Y1300000D02*
X2625000D01*
X2610000Y1285000D02*
Y1315000D01*
X2495000Y1340000D02*
X2525000D01*
X2510000Y1325000D02*
Y1355000D01*
X2775000Y1260000D02*
X2805000D01*
X2790000Y1245000D02*
Y1275000D01*
X2492485Y1140015D02*
X2522485D01*
X2507485Y1125015D02*
Y1155015D01*
X2504969Y982500D02*
X2534969D01*
X2519969Y967500D02*
Y997500D01*
X5895000Y3250000D02*
X5925000D01*
X5910000Y3235000D02*
Y3265000D01*
X2044999Y3850000D02*
X2074999D01*
X2059999Y3835000D02*
Y3865000D01*
X5809936Y3224936D02*
X5839936D01*
X5824936Y3209936D02*
Y3239936D01*
X2365000Y822499D02*
X2395000D01*
X2380000Y807500D02*
Y837499D01*
X2239000Y834000D02*
X2269000D01*
X2254000Y819000D02*
Y849000D01*
X2112000Y830000D02*
X2142000D01*
X2127000Y815000D02*
Y845000D01*
X1985000Y830000D02*
X2015000D01*
X2000000Y815000D02*
Y845000D01*
X1985000Y1080000D02*
X2015000D01*
X2000000Y1065000D02*
Y1095000D01*
X1930000Y2880000D02*
X1970000D01*
X1950000Y2860000D02*
Y2900000D01*
X1515000Y2880000D02*
X1545000D01*
X1530000Y2865000D02*
Y2895000D01*
X1700000Y2470000D02*
X1740000D01*
X1720000Y2450000D02*
Y2490000D01*
X1535000Y2500000D02*
X1565000D01*
X1550000Y2485000D02*
Y2515000D01*
X1150000Y2160000D02*
X1190000D01*
X1170000Y2140000D02*
Y2180000D01*
X6735000Y2230000D02*
X6765000D01*
X6750000Y2215000D02*
Y2245000D01*
X6720000Y2730000D02*
X6760000D01*
X6740000Y2710000D02*
Y2750000D01*
X7295000Y2710000D02*
X7325000D01*
X7310000Y2695000D02*
Y2725000D01*
X5205000Y2750000D02*
X5235000D01*
X5220000Y2735000D02*
Y2765000D01*
X5125000Y2670000D02*
X5155000D01*
X5140000Y2655000D02*
Y2685000D01*
X2244896Y1079896D02*
X2274896D01*
X2259896Y1064896D02*
Y1094896D01*
X2365000Y1080000D02*
X2395000D01*
X2380000Y1065000D02*
Y1095000D01*
X2365000Y2030000D02*
X2395000D01*
X2380000Y2015000D02*
Y2045000D01*
X1255000Y680000D02*
X1285000D01*
X1270000Y665000D02*
Y695000D01*
X815000Y1190000D02*
X845000D01*
X830000Y1175000D02*
Y1205000D01*
X815000Y1340000D02*
X845000D01*
X830000Y1325000D02*
Y1355000D01*
X795000Y2260000D02*
X825000D01*
X810000Y2245000D02*
Y2275000D01*
X795000Y2410000D02*
X825000D01*
X810000Y2395000D02*
Y2425000D01*
X1735000Y1080000D02*
X1765000D01*
X1750000Y1065000D02*
Y1095000D01*
X5650000Y2030000D02*
X5690000D01*
X5670000Y2010000D02*
Y2050000D01*
X5505000Y2040000D02*
X5535000D01*
X5520000Y2025000D02*
Y2055000D01*
X5770104Y2035104D02*
X5800104D01*
X5785104Y2020104D02*
Y2050104D01*
X7205000Y2270000D02*
X7235000D01*
X7220000Y2255000D02*
Y2285000D01*
X2380000Y2500000D02*
X2420000D01*
X2400000Y2480000D02*
Y2520000D01*
X3735000Y2240000D02*
X3765000D01*
X3750000Y2225000D02*
Y2255000D01*
X1155000Y1630000D02*
X1185000D01*
X1170000Y1615000D02*
Y1645000D01*
X1155000Y680000D02*
X1185000D01*
X1170000Y665000D02*
Y695000D01*
X1355000Y680000D02*
X1385000D01*
X1370000Y665000D02*
Y695000D01*
X2115000Y2030000D02*
X2145000D01*
X2130000Y2015000D02*
Y2045000D01*
X1605000Y2030000D02*
X1635000D01*
X1620000Y2015000D02*
Y2045000D01*
X1735000Y2030000D02*
X1765000D01*
X1750000Y2015000D02*
Y2045000D01*
X1985000Y2030000D02*
X2015000D01*
X2000000Y2015000D02*
Y2045000D01*
X1855000Y1080000D02*
X1885000D01*
X1870000Y1065000D02*
Y1095000D01*
X2115000Y1080000D02*
X2145000D01*
X2130000Y1065000D02*
Y1095000D01*
X7235000Y2770000D02*
X7265000D01*
X7250000Y2755000D02*
Y2785000D01*
X8415000Y2000000D02*
X8445000D01*
X8430000Y1985000D02*
Y2015000D01*
X9745000Y1260000D02*
X9775000D01*
X9760000Y1245000D02*
Y1275000D01*
X10985000Y810000D02*
X11015000D01*
X11000000Y795000D02*
Y825000D01*
X7375000Y2690000D02*
X7405000D01*
X7390000Y2675000D02*
Y2705000D01*
X7135000Y2100000D02*
X7165000D01*
X7150000Y2085000D02*
Y2115000D01*
X7425046Y2625069D02*
X7455046D01*
X7440046Y2610069D02*
Y2640069D01*
X9005000Y3440000D02*
X9035000D01*
X9020000Y3425000D02*
Y3455000D01*
X6485000Y4070000D02*
X6515000D01*
X6500000Y4055000D02*
Y4085000D01*
X7695000Y2580000D02*
X7725000D01*
X7710000Y2565000D02*
Y2595000D01*
X1710000Y3850000D02*
X1750000D01*
X1730000Y3830000D02*
Y3870000D01*
X1935000Y3850000D02*
X1965000D01*
X1950000Y3835000D02*
Y3865000D01*
X1495000Y3250000D02*
X1525000D01*
X1510000Y3235000D02*
Y3265000D01*
X5995634Y3519550D02*
X6025634D01*
X6010634Y3504550D02*
Y3534550D01*
X5565000Y3120000D02*
X5595000D01*
X5580000Y3105000D02*
Y3135000D01*
X5835000Y3460000D02*
X5865000D01*
X5850000Y3445000D02*
Y3475000D01*
X6405000Y3640000D02*
X6435000D01*
X6420000Y3625000D02*
Y3655000D01*
X6403808Y3538723D02*
X6433808D01*
X6418808Y3523723D02*
Y3553723D01*
X3835000Y2160000D02*
X3865000D01*
X3850000Y2145000D02*
Y2175000D01*
X2155000Y3250000D02*
X2185000D01*
X2170000Y3235000D02*
Y3265000D01*
X1855000Y3250000D02*
X1885000D01*
X1870000Y3235000D02*
Y3265000D01*
X5225000Y2250000D02*
X5255000D01*
X5240000Y2235000D02*
Y2265000D01*
X5180000Y2350000D02*
X5220000D01*
X5200000Y2330000D02*
Y2370000D01*
X5045000Y2600000D02*
X5075000D01*
X5060000Y2585000D02*
Y2615000D01*
X1825000Y2440000D02*
X1855000D01*
X1840000Y2425000D02*
Y2455000D01*
X3715000Y2630000D02*
X3745000D01*
X3730000Y2615000D02*
Y2645000D01*
X3835000Y2350000D02*
X3865000D01*
X3850000Y2335000D02*
Y2365000D01*
X4145000Y2340000D02*
X4175000D01*
X4160000Y2325000D02*
Y2355000D01*
X345000Y4150000D02*
X375000D01*
X360000Y4135000D02*
Y4165000D01*
X6065000Y3580000D02*
X6095000D01*
X6080000Y3565000D02*
Y3595000D01*
X3225000Y3650000D02*
X3255000D01*
X3240000Y3635000D02*
Y3665000D01*
X345000Y3390000D02*
X375000D01*
X360000Y3375000D02*
Y3405000D01*
X345000Y3500000D02*
X375000D01*
X360000Y3485000D02*
Y3515000D01*
X345000Y3610000D02*
X375000D01*
X360000Y3595000D02*
Y3625000D01*
X345000Y3830000D02*
X375000D01*
X360000Y3815000D02*
Y3845000D01*
X345000Y4050000D02*
X375000D01*
X360000Y4035000D02*
Y4065000D01*
X305000Y3140000D02*
X335000D01*
X320000Y3125000D02*
Y3155000D01*
X335000Y4280000D02*
X365000D01*
X350000Y4265000D02*
Y4295000D01*
X345000Y3720000D02*
X375000D01*
X360000Y3705000D02*
Y3735000D01*
X345000Y3940000D02*
X375000D01*
X360000Y3925000D02*
Y3955000D01*
X7497500Y2572500D02*
X7527500D01*
X7512500Y2557500D02*
Y2587500D01*
X8545000Y2000000D02*
X8575000D01*
X8560000Y1985000D02*
Y2015000D01*
X8155000Y3000000D02*
X8185000D01*
X8170000Y2985000D02*
Y3015000D01*
X8285000Y3000000D02*
X8315000D01*
X8300000Y2985000D02*
Y3015000D01*
X8985000Y3000000D02*
X9015000D01*
X9000000Y2985000D02*
Y3015000D01*
X9115000Y3000000D02*
X9145000D01*
X9130000Y2985000D02*
Y3015000D01*
X9235000Y2000000D02*
X9265000D01*
X9250000Y1985000D02*
Y2015000D01*
X9365000Y2000000D02*
X9395000D01*
X9380000Y1985000D02*
Y2015000D01*
X9005000Y3330000D02*
X9035000D01*
X9020000Y3315000D02*
Y3345000D01*
X1285000Y2380000D02*
X1315000D01*
X1300000Y2365000D02*
Y2395000D01*
X2105000Y2500000D02*
X2135000D01*
X2120000Y2485000D02*
Y2515000D01*
X11360000Y3110000D02*
X11400000D01*
X11380000Y3090000D02*
Y3130000D01*
X11360000Y2960000D02*
X11400000D01*
X11380000Y2940000D02*
Y2980000D01*
X10850000Y2870000D02*
X10890000D01*
X10870000Y2850000D02*
Y2890000D01*
X10620000Y2870000D02*
X10660000D01*
X10640000Y2850000D02*
Y2890000D01*
X11350000Y4450000D02*
X11400000D01*
X11375000Y4425000D02*
Y4475000D01*
X12150000Y2300000D02*
X12200000D01*
X12175000Y2275000D02*
Y2325000D01*
X1604000Y1081000D02*
X1634000D01*
X1619000Y1066000D02*
Y1096000D01*
X2264999Y3249999D02*
X2294999D01*
X2279999Y3234999D02*
Y3264999D01*
X1715104Y3249896D02*
X1745103D01*
X1730103Y3234896D02*
Y3264896D01*
X2375000Y3850000D02*
X2405000D01*
X2390000Y3835000D02*
Y3865000D01*
X5405000Y2060000D02*
X5435000D01*
X5420000Y2045000D02*
Y2075000D01*
X6195000Y2430000D02*
X6225000D01*
X6210000Y2415000D02*
Y2445000D01*
X4665000Y2220000D02*
X4695000D01*
X4680000Y2205000D02*
Y2235000D01*
X5735000Y4120000D02*
X5765000D01*
X5750000Y4105000D02*
Y4135000D01*
X5865000Y4120000D02*
X5895000D01*
X5880000Y4105000D02*
Y4135000D01*
X6085000Y4120000D02*
X6115000D01*
X6100000Y4105000D02*
Y4135000D01*
X5975000Y4120000D02*
X6005000D01*
X5990000Y4105000D02*
Y4135000D01*
X5645000Y3040000D02*
X5675000D01*
X5660000Y3025000D02*
Y3055000D01*
X6895000Y2040000D02*
X6925000D01*
X6910000Y2025000D02*
Y2055000D01*
X6970000Y2222530D02*
X7010000D01*
X6990000Y2202531D02*
Y2242530D01*
X5890000Y3140000D02*
X5930000D01*
X5910000Y3120000D02*
Y3160000D01*
X6225000Y1150000D02*
X6275000D01*
X6250000Y1125000D02*
Y1175000D01*
X1335000Y1840000D02*
X1365000D01*
X1350000Y1825000D02*
Y1855000D01*
X1335000Y1940000D02*
X1365000D01*
X1350000Y1925000D02*
Y1955000D01*
X1235000Y1840000D02*
X1265000D01*
X1250000Y1825000D02*
Y1855000D01*
X1235000Y1940000D02*
X1265000D01*
X1250000Y1925000D02*
Y1955000D01*
X1335000Y890001D02*
X1365000D01*
X1350000Y875001D02*
Y905000D01*
X1335000Y990000D02*
X1365000D01*
X1350000Y975000D02*
Y1005000D01*
X1235000Y890000D02*
X1265000D01*
X1250000Y875000D02*
Y905000D01*
X1235000Y990000D02*
X1265000D01*
X1250000Y975000D02*
Y1005000D01*
X12040000Y300000D02*
X12360000D01*
X12200000Y140000D02*
Y460000D01*
X12040000Y4700000D02*
X12360000D01*
X12200000Y4540000D02*
Y4860000D01*
X140000Y300000D02*
X460000D01*
X300000Y140000D02*
Y460000D01*
X140000Y4700000D02*
X460000D01*
X300000Y4540000D02*
Y4860000D01*
%TF.MD5,9b7f6fe330bd4a1dc41e0358249978ca*%
M02*
